<svg xmlns="http://www.w3.org/2000/svg" viewBox="0 0 356.19 139.22"><defs><style>.cls-1{fill:#f8fdfe;}.cls-2{fill:#343838;}</style></defs><g id="子供たち_清書_" data-name="子供たち（清書）"><g id="枠"><path class="cls-1" d="M322.31,60.3c-.92.9-1.46,1.11-1.4,1.28s.84,0,2.33-.16c1.89-.24,1.67-.12,2.95-.31s2-.39,3.27-.68a21.65,21.65,0,0,1,2.17-.56c1.21-.19,1.52,0,1.7.09s.24.21.69,1.53c.32,1,.31,1.1.51,1.28.39.36.94.31,1.74.25,2.58-.17,1.19.1,2.94-.12,1-.13,2-.29,4.47-.77,1.86-.36,2.79-.54,3.74-.77,1.56-.37,2.35-.55,3.32-.85a14.68,14.68,0,0,1,2.76-.72,4.67,4.67,0,0,1,2.26.13,3.35,3.35,0,0,1,1.45.89,3.53,3.53,0,0,1,.76,2.85,3.88,3.88,0,0,1-.93,2,4.24,4.24,0,0,1-1.58,1.11,9.88,9.88,0,0,1-1,.29c-1.31.35-1.5.29-1.66.51-.27.38.13.71.09,1.75a4.43,4.43,0,0,1-.43,1.7,6,6,0,0,1-.85,1.36,4.7,4.7,0,0,1-1.19,1.28,3.83,3.83,0,0,1-2.38.42,6.71,6.71,0,0,1-1.83-.38,7.55,7.55,0,0,1-2.51-1.19c-1.08-.83-.85-1.28-1.75-1.79a7.11,7.11,0,0,0-2.55-.47c-2.3-.2-2.58.05-2.69.17s-.24.8-.29,1.92,0,1.3-.18,1.66a2.34,2.34,0,0,1-1.39.81,7.53,7.53,0,0,1-2.13.25l-2.34.09c-2.11.08-2.31.17-2.47.3-.61.49-.46,1.43-.38,3.1.09,2.09-.15,4.17-.17,6.26,0,3.31,0,3.51-.09,4.08-.14,1.76-.3,2.08-.47,4.26a11.08,11.08,0,0,0,.05,3.87c.38,1.31,1,1.73.72,2.38s-1.32,1-2.68,1.28c-1.07.25-1.45.18-3.32.47s-2,.42-2.09.55c-.52.6-.11,1.39.35,4,.37,2.15.19,2.17.59,4.09.25,1.21.52,2.17.77,3,.28,1,.34,1.11.93,3,0,0,.39,1.25,1.1,3.94.44,1.67.51,2,.31,2.44-.11.22-.33.55-2.22,1.58-1.39.76-1.89.92-1.87,1.15s1.38.21,3.28,1a4.79,4.79,0,0,1,2,1.32,4.28,4.28,0,0,1,.89,2,5.17,5.17,0,0,1-.38,3.49A5.57,5.57,0,0,1,323,134.9a10.9,10.9,0,0,1-3.75,1.36c-.59.13-.38.05-4.34.47a19.54,19.54,0,0,1-3,.12c-1.84-.07-2.23-.37-2.43-.59A5,5,0,0,1,309,134c-.09-.73-.11-1.09-.21-2-.21-1.91-.32-2.17-.56-2.33s-.73-.13-1.65,0-.94.18-1.15.08c-.52-.23-.51-1.06-.72-3,0,0-.14-1.26-.43-3,0-.32-.22-1.17-.55-2.85-.28-1.38-.5-2.48-.9-3.87-.45-1.58-.58-1.62-.63-1.62-.24,0-.34,1-.77,4.56-.31,2.59-.34,2.73-.43,3.61a22.92,22.92,0,0,0-.25,4.22,1.47,1.47,0,0,1,0,1.06,1.94,1.94,0,0,1-1.41.77c-.76.1-1.23-.19-1.31-.05s.41.53,1.14,1.24a7.45,7.45,0,0,1,1.62,1.83,4.89,4.89,0,0,1,.51,2.08,5.22,5.22,0,0,1-.17,2.39,5.05,5.05,0,0,1-3.27,2.72,7.87,7.87,0,0,1-3.83,0c-.47-.08-1.82-.48-4.52-1.28,0,0-.82-.25-3.31-1.32a2.92,2.92,0,0,1-1.41-1,3,3,0,0,1-.42-1.53,5.85,5.85,0,0,1,.34-2.39,9.21,9.21,0,0,0,.4-1.09,2.53,2.53,0,0,0-.15-1.84c-.09-.15-.31-.45-1.66-.9-1.69-.56-2.07-.33-2.42-.76s-.29-.69,0-2.77c.22-1.37.42-2.39.42-2.42.38-1.89.26-2.22.6-4.77.37-2.76.51-2.34.72-4.3.32-2.92-.09-2.94.3-5.27.19-1.13.13-2.3.43-3.41a1.7,1.7,0,0,0,0-1.36c-.25-.39-.74-.4-1.74-.59a5.85,5.85,0,0,1-2.43-.73c-.62-.55-.46-1.52-.21-3.66,0,0,.14-1.25.59-6.08.29-3.1.11-2.7.34-4.34a22.65,22.65,0,0,0,.3-3.58c0-2.06-.29-2.33-.47-2.42-.76-.39-1.92,1.32-2.91.88-.35-.15-.55-.52-1-1.27-.51-.93-.37-1.17-.64-1.36-.54-.39-1.5.31-4.59,2.09l-3,1.74c-1.76,1-1.95,1.1-2.28,1.47-.83.94-.6,1.51-1.64,2.74a6.19,6.19,0,0,1-1.45,1.28,5.88,5.88,0,0,1-2.08.77,5.11,5.11,0,0,1-2.3-.09c-.9-.26-.83-.55-1.49-.68-1.08-.22-1.41.53-3,.72a5.74,5.74,0,0,1-2.59-.29,5.26,5.26,0,0,1-1.69-.91c-.68-.56-.68-.88-1.21-1.43s-1-.6-3.1-1.58c-1.82-.83-2.35-1.22-2.64-1-.48.41.57,1.85,0,2.47-.36.39-1.14.21-2.47-.13a15.19,15.19,0,0,1-3-1.1c-.46-.24-.31-.2-2.81-1.83-1.82-1.19-1.77-1.13-2.13-1.41-1.14-.88-1.47-1.36-1.74-1.23-.43.19-.22,1.56,0,3a19,19,0,0,0,.47,2.21,15.68,15.68,0,0,0,.93,2.81c.27.56.31.54,1.19,2a25.32,25.32,0,0,1,1.71,3.06,5.6,5.6,0,0,1,.68,3,3.05,3.05,0,0,1-.68,1.79,4,4,0,0,1-1.28.81,7,7,0,0,1-1.66.58c-.84.17-1.09,0-1.28.27s0,1,.43,1.87a32.22,32.22,0,0,0,2,3.53c.27.41.63.94,1.09,1.6.09.13.43.61.91,1.25.75,1,1.2,1.63,1.83,2.39.47.56.92,1.14,1.4,1.7s.82.9.81,1.36A1.58,1.58,0,0,1,238,116a5.94,5.94,0,0,1-2.51,1.43,18.91,18.91,0,0,1-3.66.87,11.9,11.9,0,0,1-3.44.17c-.94-.12-1.88-.19-2.81-.3-.73-.08-1.17-.13-1.39.13s-.06.64.2,1.75c.12.53.21,1.08.34,1.61.4,1.75.29,2.46.7,4.64a8,8,0,0,0,.49,1.58,3,3,0,0,0,.47.85,2.68,2.68,0,0,0,1.25.76,9.58,9.58,0,0,1,3.09,1.56,4.51,4.51,0,0,1,1.12,1.57,4.36,4.36,0,0,1,.37,3.09c-.5,1.51-2,2.18-3.05,2.63s-.87.13-3.44.79c-1.92.49-2.72.86-3.94.58a3.77,3.77,0,0,1-1.37-.61,4.6,4.6,0,0,1-1.5-2.37,19.91,19.91,0,0,1-.87-3.51c-.47-2.33-.4-1.78-.66-3.19-.44-2.3-.78-4.62-1.07-6.56-.17-1.15-.5-2.27-.7-3.42s-.25-1.68-.71-2-.58-.14-2.42-.19c-1,0-.9,0-1.57,0-1,0-1,0-2.34.1-1.17,0-1.33,0-1.58.17-.46.33-.55,1-.63,1.89-.13,1.69-.05,2.49-.07,3.75,0,.46-.08,1.52-.21,3.63a6.05,6.05,0,0,0,.08,2.41,5.24,5.24,0,0,0,1.26,2,18.35,18.35,0,0,0,1.62,1.32,15.1,15.1,0,0,1,1.23,1,4.16,4.16,0,0,1,.89,2.43,4.06,4.06,0,0,1-1.06,3.1c-.66.63-1.54.77-3.3,1.05-.69.11-1.59.15-3.38.25-.36,0-1.71.09-3.45,0-1.46,0-1.88-.12-2.27-.42a3.08,3.08,0,0,1-1-2,8.3,8.3,0,0,1,0-2.79c.13-1.33.2-1.76.27-2.51.15-1.39.07-1.57.17-3.61.12-2.41.18-3.61.32-4.41a29.34,29.34,0,0,0,.15-3.34,1.38,1.38,0,0,0-.31-1.07,1.59,1.59,0,0,0-1.33-.16c-1.7.33-3.73.12-6.93-.22-1.41-.14-.42-.16-3.28-.78a2.14,2.14,0,0,1-1.15-.58,1.86,1.86,0,0,1-.49-1.29c0-.59.4-.92.81-1.45a24.14,24.14,0,0,0,1.41-2.53c1-1.76,1-1.52,1.57-2.58,1.1-2.06.68-2.24,1.72-4.17a11.84,11.84,0,0,0,.79-2.1,2.61,2.61,0,0,0,.11-1.09,1.42,1.42,0,0,0-.19-.6,1.37,1.37,0,0,0-.75-.42c-.49-.16-.78-.49-1.36-1.15a5.42,5.42,0,0,1-1.13-2.23c-1-3.6.29-8.87.38-9.24.16-.64.49-1.84.86-3.64a15.12,15.12,0,0,0,.4-2.91,5.39,5.39,0,0,0-.62,1.17c-.31.65-.38.83-.61,1a1.4,1.4,0,0,1-1,.34c-.25,0-.43-.12-1.32-.91l-1.11-1a12.23,12.23,0,0,0-1-1c-.43-.33-.61-.37-.76-.36s-.39.25-.71.58a11.46,11.46,0,0,1-1.1.89c-.62.51-.63.59-1.17,1.06a12.59,12.59,0,0,1-1.62,1.24c-1,.62-1.48.69-1.7,1.25a6.41,6.41,0,0,0-.15.77,5.9,5.9,0,0,1-.75,1.74,5.84,5.84,0,0,1-1,1.43,4.91,4.91,0,0,1-3.1,1.26,5.09,5.09,0,0,1-2.6-.51,6.93,6.93,0,0,1-1.23-.79c-.26-.25-.41-.46-.66-.47s-.58.34-.75.53c-1,1.13-3.11.9-3.36.87a5,5,0,0,1-2.38-1,6.54,6.54,0,0,1-1.53-1.53,7,7,0,0,1-.9-1.49,10.59,10.59,0,0,0-.46-1.17,5.4,5.4,0,0,0-1.3-1.21c-.11-.08-.53-.37-1.39-.94-.52-.34-.78-.52-.89-.44s0,.43.12,1.12c.25,1.2.07,1,.31,2.17.13.67.25,1,.06,1.41a1.05,1.05,0,0,1-.45.49,1.18,1.18,0,0,1-.57.11,2.89,2.89,0,0,1-1.22-.32,7.08,7.08,0,0,1-.85-.45c-1.37-.88-1.92-.87-3.34-1.83-.64-.43-.92-.69-2.1-1.49-.81-.54-1.27-.8-1.66-.64s-.52.64-.62,1a4.28,4.28,0,0,0,0,2c.21,1.23.36,2.2.42,2.58s.11,1,.27,2.49c.2,1.82.23,2.17.26,2.66a7.57,7.57,0,0,1,0,2.43,4.37,4.37,0,0,1-1.86,2.14,6.78,6.78,0,0,1-2.06,1.09c-.21.05-.62.12-.75.41a.91.91,0,0,0,.11.7c.26.55.4,1.16.7,1.7,1.1,1.93.86,1.79,1.52,2.79.32.48.7,1,1.46,1.93a29.76,29.76,0,0,0,2,2.36c.62.64.48.4,2,1.81a14.09,14.09,0,0,0,1.68,1.51c.89.61,1.33.92,1.49,1a1.78,1.78,0,0,1,.79.6,1.13,1.13,0,0,1,.19.85c-.08.3-.32.48-.79.74a8.47,8.47,0,0,1-1.57.77,56.46,56.46,0,0,1-6.9,1.81,27.12,27.12,0,0,0-3,.74,1.57,1.57,0,0,0-1.08.64,1.42,1.42,0,0,0-.07.83c.07.65.07,1.31.13,2,.1,1,.14,1.57.15,2s.05.76.06,1.15c0,.56,0,.67.13.77.25.29.72.06,1.43.12a3.45,3.45,0,0,1,1.42.51,4.7,4.7,0,0,1,1.81,1.87,5.44,5.44,0,0,1,.66,3.05,5.19,5.19,0,0,1-1.06,3,5.34,5.34,0,0,1-2.81,1.76c-.29.09-.64.17-3.83.09a13.79,13.79,0,0,1-3.89-.45,3.19,3.19,0,0,1-2.52-2.38,6.86,6.86,0,0,1-.27-3c.1-.8.24-.88.3-1.71a9.82,9.82,0,0,0-.09-1.68s-.14-1.43-.21-3.06c0-.54-.07-1.95-.09-2.74,0-.2,0-.39,0-.58,0-.68,0-.84-.09-1s-.66-.21-.84-.19c-1.23.13-2.46.07-3.69.13a26.22,26.22,0,0,1-2.65,0c-.66-.06-1.14-.07-2.11-.09s-1.33,0-1.59.31c-.11.13-.14.26-.22,1-.12,1.23-.15,1.79-.15,1.79-.06,1.24,0,1.12-.06,1.64-.08.91-.18,1-.22,1.72s0,1.32.25,1.65.5.18,1.16.56a4.41,4.41,0,0,1,1,.81,5.27,5.27,0,0,1,1,1.58,5.52,5.52,0,0,1,.43,2,4.44,4.44,0,0,1-.41,2.32,4.29,4.29,0,0,1-2.34,1.88,7,7,0,0,1-3.51.36c-1.23-.14-1.1-.39-2.57-.56a5,5,0,0,1-2.11-.49,3.33,3.33,0,0,1-.85-.63,3.27,3.27,0,0,1-.68-1.11,6.07,6.07,0,0,1-.41-2.47c.08-1.39.55-1.52.66-3.15,0-.17,0,0,0-1.55,0-.7,0-1.42,0-2.34,0-1.2,0-1.79.07-2a11.53,11.53,0,0,0,.13-1.53c0-.64-.06-.92-.26-1.09a1,1,0,0,0-.77-.15c-.74.06-1.49,0-2.23.13s-.36,0-2.81.26l-2.76.29a15.54,15.54,0,0,1-1.73.11,1.76,1.76,0,0,1-1.27-.26,1.24,1.24,0,0,1-.39-.66,1.68,1.68,0,0,1,.34-1.23c.58-.9,1.07-1.84,1.71-2.7,0,0,.69-1,1.51-2.28a30.87,30.87,0,0,0,2-4c.7-1.59,1.15-2.85,1.32-3.34.7-2,.53-2,.89-2.78.06-.13.17-.54.4-1.37.09-.29.15-.53,0-.7s-.35-.16-.68-.21a4.19,4.19,0,0,1-1.23-.47,3.34,3.34,0,0,1-1.11-1.06,4.94,4.94,0,0,1-.74-1.56c-.13-.47-.19-1.08.3-3.32.37-1.71.48-1.69.76-3.14.18-.92.3-1.8.39-2.43,0-.12.06-.35.08-.66a3.65,3.65,0,0,0,0-.86c-.06-.45-.35-.61-1-1.26l-1.05-1.3c-.36-.46-.77-.88-1.1-1.36s-.36-.6-.55-.62-.36.31-.87.89a3,3,0,0,1-1.18,1,1.64,1.64,0,0,1-1,.06,2,2,0,0,1-1.06-1,6.26,6.26,0,0,1-.38-1s-.12-.35-.57-1.59c-.37-1-.47-1.24-.69-1.29s-.28.05-.75.36l-1.21.8c-.64.43-1,.65-1.41.92s-.62.36-.73.52c-.3.4-.15.79-.22,1.5a5.35,5.35,0,0,1-.45,1.5A4.81,4.81,0,0,1,87.53,91a5.51,5.51,0,0,1-2.07,1,4.75,4.75,0,0,1-2.3.06,6,6,0,0,1-1-.35c-.64-.31-.74-.54-1.08-.54s-.46.23-1.12.63a5.65,5.65,0,0,1-1.47.64,4.76,4.76,0,0,1-1.66.13,5.58,5.58,0,0,1-1.72-.51,6.68,6.68,0,0,1-1.34-.73,4.74,4.74,0,0,1-1-1,3.83,3.83,0,0,1-.64-1.18c-.26-.8,0-1.08-.32-1.6a3.13,3.13,0,0,0-1-.86c-1-.72-2.12-1.29-3.1-2.06a1.33,1.33,0,0,0-.87-.39c-.31,0-.38.22-1,.51a2.55,2.55,0,0,1-.93.31A2,2,0,0,1,64,85a6.18,6.18,0,0,1-.86-.41,8,8,0,0,1-1.59-1.31c-.64-.58-1.3-1.13-2-1.69s-1-.82-1.12-.73-.15.77-.06,1.5c.14,1.12.13,2.26.32,3.38s.29,2.22.54,4.56c.38,3.61.22,4,.61,5.59.63,2.62.67,2.74.67,2.74.13.5.21,1,.35,1.5.21.74.35,1.06.18,1.35s-.25.23-.89.44c-1.34.44-1.81.57-1.81.57-.73.21-1,.29-1.38.42-1.08.37-1.23.52-1.3.64-.21.31-.12.63.06,1.53.35,1.79.18,1.49.45,2.55a12.34,12.34,0,0,0,.7,2.24,13.49,13.49,0,0,0,1,1.85,12.26,12.26,0,0,1,.86,1.4,2.14,2.14,0,0,1,.35,1.28,1.82,1.82,0,0,1-.57,1c-.43.41-.79.46-1.86.83-.31.11-.86.33-2,.77a17.94,17.94,0,0,0-1.79.79,1.86,1.86,0,0,0-1,.61,1.49,1.49,0,0,0-.19,1c.13,1.37-.13,2.74-.1,4.12a25.3,25.3,0,0,1,0,3.76c-.06.39-.12.83-.22,1.69-.19,1.52-.19,1.85,0,2s.68-.06,1.67,0a4.44,4.44,0,0,1,1.55.4,4.35,4.35,0,0,1,1.92,1.79,4.67,4.67,0,0,1,.48,2.9,4.93,4.93,0,0,1-1.31,3.07c-.93.89-2.05,1-3.67,1.27s-1.6-.15-3.42.13a4.32,4.32,0,0,1-2.49,0,3.46,3.46,0,0,1-1.18-.86,4.53,4.53,0,0,1-.83-1.4,9.42,9.42,0,0,1-.79-2.75c-.13-1.09.12-1.1.31-3.38,0-.58.09-1.6.16-3.64.06-1.5.06-1.91.06-2.15,0-1.68-.12-1.54-.06-2.45.05-.65,0-1.31,0-2a1,1,0,0,0-.22-.84c-.2-.18-.49-.16-.89-.12-.74.06-.84.28-1.44.29a1.55,1.55,0,0,1-.92-.23,1.9,1.9,0,0,1-.48-.54c-.39-.53-.42-.74-.55-.73s-.2.72-.76,1.14c-.14.11-.15.07-.77.29s-.69.3-1.37.54c-.47.17-.74.27-1.15.39-.61.17-.78.17-1,.35s-.23.45-.25,1c0,1,0,1.83,0,2,0,1.11.06,1.22.06,1.66a11.48,11.48,0,0,1,0,1.41,17.7,17.7,0,0,0-.24,1.76c0,.82.13,1,.21,1.05s.44.06,1,.16A3.55,3.55,0,0,1,36,132a3.32,3.32,0,0,1,1.41,1.75,5.63,5.63,0,0,1,.44,1.79,5,5,0,0,1-.41,3c-.71,1.21-2.09,1.56-3.26,1.85-1.7.42-3,.17-5.23-.26a4.57,4.57,0,0,1-1.82-.64,4.26,4.26,0,0,1-1.66-2.17,4.94,4.94,0,0,1-.19-2.1c.07-1.12.34-1.32.51-2.59a12.67,12.67,0,0,0,.06-2.14c0-1.72-.2-1.88-.16-3.25,0-.25,0-.94.1-1.79.1-1.35.18-1.75-.1-2s-.55-.07-1.59-.16a13.29,13.29,0,0,1-1.44-.25c-1.37-.29-1.21-.39-2.49-.68-.75-.16-1-.17-1.24-.44a1.68,1.68,0,0,1-.26-1.28c.18-2,.51-3.72.55-3.92.23-1.23.19-1.2.47-2.68.16-.8.23-1.1.39-2,.29-1.6.18-1.24.35-2.08.28-1.45.48-1.9.22-2.15s-.52,0-1.24-.18a1.9,1.9,0,0,1-1.09-.67,2.72,2.72,0,0,1-.25-1.18,9.75,9.75,0,0,1-.07-1,17.63,17.63,0,0,1,.1-2.27c.17-1.66,0-1.8.09-5.07.07-1.55.13-1.81.13-3,0-.94,0-.57-.09-2.62,0-1.35-.06-2.41-.32-2.46s-.29.44-.83.61a1.37,1.37,0,0,1-.61,0,1.73,1.73,0,0,1-.8-.45c-.45-.37-.45-.55-.63-.57s-.56.48-.93,1-.16.14-1.56,1.85a13.37,13.37,0,0,0-1.44,1.92,6.78,6.78,0,0,0-.61,1.82c-.19.92,0,1.08-.25,2.42a5.2,5.2,0,0,1-.42,1.63,2.68,2.68,0,0,1-1,1.25,2.51,2.51,0,0,1-1.24.35,3.13,3.13,0,0,1-1.41-.32,7.06,7.06,0,0,1-1-.77c-.93-.78-1.05-.89-1.31-.92s-.25,0-1.12.35a9.8,9.8,0,0,1-1.47.44,2.41,2.41,0,0,1-1.21.07,1.85,1.85,0,0,1-.73-.42A2.8,2.8,0,0,1-1.6,98c-.1-.5.05-.55.09-1.47a17.15,17.15,0,0,0-.09-1.76,6.61,6.61,0,0,1,.06-2.29A4,4,0,0,1-.52,91a3.52,3.52,0,0,1,.83-.63,3.65,3.65,0,0,1,1.4-.42c.5-.06.49,0,1.19,0,.14,0,.38,0,1.4-.19.81-.13,1.21-.19,1.27-.22.43-.16.62-.42,1.54-1.92,1.7-2.77.35-.72,1.55-2.79a1.84,1.84,0,0,0,.41-1.34,2.7,2.7,0,0,0-.62-1,7.9,7.9,0,0,1-.67-.79A3.41,3.41,0,0,1,7.42,79,3,3,0,0,1,8.13,78c.89-1,1.34-1.55,1.6-1.82,0,0,1.11-1.12,2.33-2.55.59-.69,1.14-1.49,2.26-3.09,1.6-2.29,2.4-3.44,2.52-3.71a6.44,6.44,0,0,1,1.41-2,3.15,3.15,0,0,1,1.15-.7A2.45,2.45,0,0,1,20.51,64c.29,0,.37.12.8.19a1.73,1.73,0,0,0,.73,0,1.14,1.14,0,0,0,.74-.71c0-.11.08-.32-.29-1.37-.18-.51-.22-.54-.41-1.08a6.81,6.81,0,0,0-.39-1.09c-.31-.5-.8-.59-1.46-.86A9.55,9.55,0,0,1,18,57.73a13.45,13.45,0,0,1-2-2,12.24,12.24,0,0,1-1.31-1.6,11.74,11.74,0,0,0-.7-1c-.42-.53-.63-.79-.9-.87-.46-.13-.61.24-1.4.29a2.82,2.82,0,0,1-1.28-.22c-.54-.24-.5-.46-.95-.61s-.69.09-1.34,0a2.87,2.87,0,0,1-1.31-.57A4.07,4.07,0,0,1,5.67,50,14.76,14.76,0,0,1,4.3,47.2c-.43-1.1-.79-2-1-2.94a26.54,26.54,0,0,1-.67-8.68,35.43,35.43,0,0,1,.83-7.12,40.85,40.85,0,0,1,2.1-6.38c1.42-3.65,2.14-5.48,3.64-7.6a24.37,24.37,0,0,1,4.09-4.4A27.89,27.89,0,0,1,20,5.71a19.69,19.69,0,0,1,8.14-2.24,33.39,33.39,0,0,0,4.72,0,19.18,19.18,0,0,0,5-1.38C42.36.47,47,1.4,49.49,1.91a26.83,26.83,0,0,1,10,4.31,30.77,30.77,0,0,1,7.88,8.42A34.12,34.12,0,0,1,73,25.78a46.54,46.54,0,0,1,1.22,8.56,58.11,58.11,0,0,1-.36,7.14s-.16,2.1-1.24,3a1.93,1.93,0,0,1-.7.35,2,2,0,0,1-1-.06c-.64-.16-.71-.38-1-.32s-.3.34-.8.73a2.41,2.41,0,0,1-.83.45,2.51,2.51,0,0,1-1.43,0,2.68,2.68,0,0,1-.9-.45c-.48-.37-.41-.61-.76-.86a2,2,0,0,0-1.63-.12,2.63,2.63,0,0,0-1.4.86,3.5,3.5,0,0,0-.67,2.17,6.07,6.07,0,0,0,.06,1.69,7.54,7.54,0,0,0,.57,1.72c.46,1.08.65,1.2.93,1.89a6.94,6.94,0,0,1,.48,2.36,8.78,8.78,0,0,1-.67,3.83,8.49,8.49,0,0,1-1.37,2.23,7.45,7.45,0,0,1-2,1.66c-.47.26-1.27.62-1.44.7-1,.45-1.36.56-1.4.83s.34.57.86,1c.82.62,1.55,1.35,2.36,2,1,.8,1,.86,2.3,1.91a42.29,42.29,0,0,0,4.53,3.39c1.4.87,2.75,1.85,4.18,2.68a5.47,5.47,0,0,1,1.31,1.21,1.22,1.22,0,0,1,.35.74,1.48,1.48,0,0,1-.31.78c-.23.35-.34.34-.38.5s.2.54,1,1.24c1,.92.89.71,1.57,1.32s.76.72,1.17.81a3.67,3.67,0,0,0,1,0,6.36,6.36,0,0,1,1.53,0,7.22,7.22,0,0,1,.83.24c.45.17.58.27.8.23s.3-.19.61-.45h0l.82-.57a4,4,0,0,1,1.92-.58,7.3,7.3,0,0,1,1.68.21,1.93,1.93,0,0,0,1,.08,3.08,3.08,0,0,0,1-.61c.35-.26.42-.34.7-.57.64-.51.79-.49,1.41-1s1-.8,1-1.12-.36-.23-.77-.7a2.17,2.17,0,0,1-.48-.93,1.7,1.7,0,0,1,.07-1,1.59,1.59,0,0,1,.38-.54L91.27,72c.69-.73,1-1.1,1.12-1.47.13-.65-.16-1.13-.55-2s-.63-1.91-1-2.84a32.74,32.74,0,0,1-1.34-6.9c-.23-1.7-.53-3.88-.67-6.83-.1-2.14-.07-3.68,0-6,0-2.53.09-4.68.32-7.28a72.23,72.23,0,0,1,1.37-8.81c1.08-5.17,1.79-8.59,3.7-12.8C96,13.3,97,11,99.5,8.68a27.73,27.73,0,0,1,10.69-5.56l2.21-.57c2-.53,4.2-1.09,4.59-1.18,4.6-1.13,11.18.44,11.84.6a25.49,25.49,0,0,1,8.49,3.45,26.78,26.78,0,0,1,7.28,7.37,35.75,35.75,0,0,1,3.76,6.64,41.89,41.89,0,0,1,2.46,7.92c.63,2.72.93,4.86,1.15,6.47.33,2.41.46,4.16.64,6.64.22,3,.36,4.95.38,7.63,0,3.69-.2,6.56-.32,7.92-.4,4.43-.6,6.65-1.08,7.62a41.86,41.86,0,0,0-1.4,5.1,1,1,0,0,0,.06.74c.19.35.6.42,1.05.55.64.18.19.14,1.88.79a21.75,21.75,0,0,0,2,.74,3.64,3.64,0,0,1,1.3.45,1.42,1.42,0,0,1,.58,2.13,11.53,11.53,0,0,1-.67,1,5.54,5.54,0,0,0-.38.64,2.21,2.21,0,0,0-.39,1.31c.06.32.27.51.86,1s1,.81,1.66,1.31,1.31.94,1.95,1.43a2.41,2.41,0,0,0,1,.55,4.32,4.32,0,0,0,1.12,0c.65,0,.76-.09,1-.1a4.49,4.49,0,0,1,2.19.49c.82.4.93.75,1.41.72s.54-.3,1.15-.67a5,5,0,0,1,2-.6c1.2-.16,1.44.17,2.17-.1s.5-.44,1.34-1.08,1.21-.7,3-1.82c.3-.19.66-.43.64-.71s-.17-.25-.76-.73-.7-.6-.74-.7c-.17-.44.18-1,.32-1.18.63-1,.89-2.14,1.44-3.16a21.27,21.27,0,0,0,1.53-4.41,44.36,44.36,0,0,0,1-4.34,36.86,36.86,0,0,0,.86-6.48,30.79,30.79,0,0,0-.35-4.62c-.21-1.55-.38-2.1-.9-4.76-.55-2.85-.83-4.27-.92-5.14-.13-1.17-.11-3.24-.07-7.34,0-2,0-3,.07-3.41a25,25,0,0,1,1.72-7.09A31.82,31.82,0,0,1,191.42,9.51a31.44,31.44,0,0,1,21.73-6.87,35.26,35.26,0,0,1,10.69,2.05,31.83,31.83,0,0,1,6.9,3.51,31.47,31.47,0,0,1,8.33,8.74,34,34,0,0,1,6.32,18.42,39.23,39.23,0,0,1-.29,7.78,43.57,43.57,0,0,1-2.2,8.37c-.86,2.41-1,2.23-1.54,4a44,44,0,0,0-1.24,7.5,36.28,36.28,0,0,0,.19,6.25,1.64,1.64,0,0,0,.44,1.08,2.07,2.07,0,0,0,1.06.42c.59.14.68.08,1.34.19a4.08,4.08,0,0,1,1.47.45,1.63,1.63,0,0,1,.73.64,1.77,1.77,0,0,1,0,1.34,4,4,0,0,1-.6,1.15c-.28.4-.34.4-.58.76-.35.55-.54.85-.48,1.15s.32.42,1.12.86c.49.28,1,.57,1.47.83.72.39,1.57.87,2,1.12,1.18.66,1.32.77,1.65.75a9.26,9.26,0,0,0,1.45-.56,5.2,5.2,0,0,1,.94-.37,3.56,3.56,0,0,1,1.32,0,5.38,5.38,0,0,1,1,.26c.95.31,1,.5,1.4.51s.43-.18,1.34-.61a4.41,4.41,0,0,1,1.85-.6,5.47,5.47,0,0,1,1.17.12,3.72,3.72,0,0,0,1.16.16c.5-.07.73-.38,1.24-.8a20.89,20.89,0,0,1,1.8-1.11c.83-.49,1.44-.81,2.45-1.34.09,0,1.18-.62,2.52-1.41.84-.49,1.31-.79,1.28-1.15s-.27-.29-.76-.89a1.94,1.94,0,0,1-.58-1,1.72,1.72,0,0,1,.42-1.12,4.56,4.56,0,0,1,.92-1c1.41-1.16,1.08-1,1.85-1.59a17.32,17.32,0,0,1,2.84-1.69,38.94,38.94,0,0,1,3.77-1.47,47.19,47.19,0,0,0,5-2c.88-.44,1.32-.67,1.53-.8.77-.48,1-.76,1.57-.86s.92.15,1.14-.06c.37-.34,0-1.37-.35-2A5.74,5.74,0,0,0,286.4,57c-.86-.61-1-.59-2.3-1.4-.32-.2-1.16-.74-2.17-1.5a15.47,15.47,0,0,1-2-1.66c-.21-.21-.17-.21-1.18-1.4-.75-.89-.93-1.09-1.28-1.19a2.71,2.71,0,0,0-1.47.13,5.16,5.16,0,0,1-1,.32,1.52,1.52,0,0,1-1-.09,1.82,1.82,0,0,1-.64-.9c-.09-.25-.08-.35-.19-.45s-.51-.07-1,0c0,0-.49.12-1.91.38a2.35,2.35,0,0,1-1,.06,1.71,1.71,0,0,1-.83-.41,1.85,1.85,0,0,1-.45-.64,4.52,4.52,0,0,1-.41-1.6c-.06-.84-.23-1.67-.23-2.52,0-1.82-.24-2.54-.41-4.69a57.5,57.5,0,0,1,0-7.12c.24-6.19.36-9.28,1-11.74a23.21,23.21,0,0,1,3.44-8.2A28.52,28.52,0,0,1,274,9.28c.78-.77,1.56-1.44,2.27-2,.5-.43.89-.75,1.34-1.09a14,14,0,0,1,1.47-1c1-.59,1.66-.64,1.65-.85s-.62-.24-2.1-.65c-.42-.11-.17,0-1.66-.51a15.88,15.88,0,0,1-2-.67,4.49,4.49,0,0,1-1.44-.92A1.85,1.85,0,0,1,273,.84,1.91,1.91,0,0,1,272.9,0a1.71,1.71,0,0,1,.28-.89,1.76,1.76,0,0,1,.83-.61,2.3,2.3,0,0,1,1.38.16c.67.21,1.37.38,2,.61,1.24.43,1.87.65,2.26.77a16.55,16.55,0,0,0,3,.51,31.71,31.71,0,0,0,4.18.22,32.08,32.08,0,0,0,5.24-.58c2.76-.51,3.2-.89,5.1-1.27a24.6,24.6,0,0,1,7.38-.16A33.72,33.72,0,0,1,314.29.51a31.71,31.71,0,0,1,7,3.57,28.83,28.83,0,0,1,7.56,7.05,31.6,31.6,0,0,1,4.37,8.72c.71,2.11,1.49,4.2,2.18,6.32a14,14,0,0,0,1.78,3.89,6.43,6.43,0,0,0,2.08,2.33,4.76,4.76,0,0,1,1.19.88,2,2,0,0,1,.65,1.07,1.69,1.69,0,0,1-.28,1,1.87,1.87,0,0,1-.64.67,1.84,1.84,0,0,1-.76.25,2.53,2.53,0,0,1-1.06-.06,3.53,3.53,0,0,1-1.05-.48c-.48-.28-.44-.33-1.15-.8l-1-.6c-.44-.25-.59-.33-.7-.27s-.12.39,0,.84a12.76,12.76,0,0,0,.58,2,5.63,5.63,0,0,1,.16,2,7.61,7.61,0,0,1-.67,3.13c0,.06-.36.56-1,1.56s-.86,1.31-1.32,1.56a1.55,1.55,0,0,1-1.2.27c-.52-.15-.68-.69-1.2-.68a.75.75,0,0,0-.41.13c-.32.21-.31.57-.51,1.56a3.49,3.49,0,0,1-.35,1.12,1.53,1.53,0,0,1-.67.63c-.5.21-.79-.09-1.12.1s-.28.55-.41,1.18c-.09.39-.08.17-.8,2.08-.14.35-.39,1-.69,1.88-.23.66-.34,1-.4,1.24a18.3,18.3,0,0,0-.22,1.85,7.62,7.62,0,0,1-.26,1.5,5,5,0,0,1-.57,1.19A7,7,0,0,1,322.31,60.3Z"/></g><g id="子供_" data-name="子供④"><g id="体"><path class="cls-2" d="M53.81,64.19A17,17,0,0,1,58,67.38c1.28,1.21,2.78,2.15,4.07,3.36s3,1.8,4.3,3.06,2.87,2,4.31,3l.46.33-.45.32a14.23,14.23,0,0,0-4.44,5.14c-1.34,2-3.11.14-4.19-1a51.91,51.91,0,0,0-5.49-4.18l.36-.19C57,79.17,57.1,81.1,57,83a109,109,0,0,0,2.11,17.46c-1.66.47-3.31,1-5,1.35-3.28.43-6.43,1.43-9.71,1.83A193.12,193.12,0,0,1,19.82,106h-.27l0-.27c.55-7.73,0-15.45-.51-23.16l.42,0a11.22,11.22,0,0,1-2.79,5.53,18,18,0,0,1-7.45-8L9.19,80,9.26,80a102.43,102.43,0,0,0,8-10.16c.79-1.2,1.57-2.4,2.45-3.54l.33.21c-1.35,2.11-3.48,5-5,7.07a53.7,53.7,0,0,1-5.56,6.62l0-.17a17.65,17.65,0,0,0,7.23,7.7l-.24,0a17.07,17.07,0,0,0,1.54-2.51A17.79,17.79,0,0,0,19.44,81l0,1.56a187.58,187.58,0,0,1,.57,23.23l-.25-.26a138.49,138.49,0,0,0,26.94-2.74c4.1-.44,8-1.87,12-2.62l-.17.27a96,96,0,0,1-2.12-17.33c-.05-1-.17-1.94-.18-2.91s.26-2.22.14-3.34l.38.23a24.23,24.23,0,0,1,5.6,4.22c.94.79,2.28,2.55,3.28,1a18.76,18.76,0,0,1,4.53-5.39v.66c-1.41-1.07-2.75-2.23-4.24-3.18S63.33,72,61.77,71.16s-2.72-2.24-4.2-3.22a16.52,16.52,0,0,1-4-3.45l.25-.3Z"/><path class="cls-2" d="M51.58,66.16A.78.78,0,0,1,51,67c-.41.06-.43.54-.82.62a.73.73,0,0,0-.43.27c-.09.16-.14.37-.31.43a1.52,1.52,0,0,0-.84.58A17.62,17.62,0,0,1,45,70.77c-.17,0-.24.31-.41.34a5.48,5.48,0,0,0-1.47.42c-.31.15-.69,0-1,.23a1.48,1.48,0,0,1-1,.31c-.7-.11-1.28.53-2,.28a1.4,1.4,0,0,0-1,.14c-.34.1-.68-.1-1-.07s-.67.07-1,0a2.45,2.45,0,0,0-1-.09c-.68.09-1.32-.27-2-.24a17.64,17.64,0,0,1-2.92-.83,7.09,7.09,0,0,1-1.86-.79,6.14,6.14,0,0,1-1.75-1,18.91,18.91,0,0,1-1.69-1.11,1.86,1.86,0,0,1-.81-.6c-.35-.62-1.11-.79-1.46-1.4l.28-.28c.59.34.81,1.08,1.48,1.32a2.37,2.37,0,0,1,.75.66,2.57,2.57,0,0,0,.8.58,5.45,5.45,0,0,0,1.72,1,6.54,6.54,0,0,0,1.78.87,18.39,18.39,0,0,0,7.71,1.57c4.24-.32,8.64-1.58,11.85-4.38.09-.15.31-.13.48-.19a.65.65,0,0,0,.33-.36c.13-.36.61-.31.69-.71s.38-.55.84-.56l.28.27Z"/><path class="cls-2" d="M68.92,78.43c.85-.06.86.45,1.32.86A1.71,1.71,0,0,1,71,80a.77.77,0,0,0,.5.22c.36.08.47.52.79.69.8.39,1,.87,1.63,1.32s1,1,1.61,1.35l-.37,0c.4-.24.89-.11,1.28-.44s.91.07,1.34.06a2.57,2.57,0,0,1,1.27.37c.34.29.82.37,1.18.68s.42.82.68,1.17a2.16,2.16,0,0,1,.46,1.26A4.47,4.47,0,0,0,81.24,88c.05.49-.33.86-.6,1.19a4.18,4.18,0,0,1-2.08,1.54,5.36,5.36,0,0,1-2.61,0,4.23,4.23,0,0,1-2.64-2.79,3.31,3.31,0,0,1,0-1.33l.08.17c-.54-.48-1.26-.71-1.69-1.32s-1.2-.79-1.7-1.31-1.3-.65-1.72-1.28-1.24-.73-1.7-1.3l.24-.31c.67.29,1,1,1.7,1.3s1,1,1.68,1.33,1.09.93,1.71,1.3,1.15.94,1.79,1.34a5.23,5.23,0,0,0,.56,2.4,3.5,3.5,0,0,0,1.88,1.35,3.33,3.33,0,0,0,2.35,0,1.63,1.63,0,0,0,1-.54,3.77,3.77,0,0,0,.87-.82c.21-.36.17-.77.42-1.1a1.13,1.13,0,0,0,0-1.15c-.13-.37-.11-.76-.23-1.14s-.52-.61-.76-.88-.47-.68-.88-.74-.74-.25-1.14-.31-.78.19-1.16.12c-.53-.19-.87.35-1.33.46a6,6,0,0,0-.89-.86,3.49,3.49,0,0,1-.84-.63c-.56-.56-1-.64-1.57-1.36-.22-.31-.69-.28-.86-.6a.78.78,0,0,0-.34-.41,1.62,1.62,0,0,1-.88-.56.94.94,0,0,0-.49-.21,1,1,0,0,1-.7-.82l.23-.32Z"/><path class="cls-2" d="M11.47,83.27a1.34,1.34,0,0,1-.39,1.34c-.41.32-.28.89-.66,1.23a1.37,1.37,0,0,0-.37.59,1.32,1.32,0,0,1-.19.69c-.69.72-.71,1.62-1.52,2.36a6,6,0,0,1-2.11,2c-.44.3-1,.08-1.46.1-.23,0-.44.22-.66.21a5,5,0,0,0-2,.23c-.41.14-.93.08-1.22.39s-.1.62-.22,1c-.23.93.31,1.85,0,2.78a3,3,0,0,0,0,1.39v.23c0,.16.38.11.59,0,1.11-.54,3-1.11,4.11-.33.72.37,1.54,1.2,2.18,1.47.29,0,.48-.36.52-.81.15-.9,0-1.86.19-2.76l.39-1.36c.25-1.41,1.44-2.46,2.29-3.5.74-.58,1.07-1.5,1.7-2.16s1-1.56,1.64-2.19l.33.21c-.39.85-1.25,1.38-1.6,2.27a3.15,3.15,0,0,1-.87,1.08,7,7,0,0,0-.92,1c-.58.7-1.38,1.27-1.62,2.16-.19.4-.42.78-.58,1.21-.51,1.55-.34,3.21-.74,4.79-1,1.52-2.08-.86-3.06-1.14a3.24,3.24,0,0,0-2.55-.11,15.72,15.72,0,0,1-2.08.65c-.84-.16-.42-1-.31-1.5a2.05,2.05,0,0,0-.07-.69c-.33-.91.21-1.82-.08-2.74a1.83,1.83,0,0,1,0-.75A1.06,1.06,0,0,1,.61,92a7.57,7.57,0,0,1,2.73-.82A2.83,2.83,0,0,1,4,91c.23-.07.48.14.71.09.42,0,.85-.12,1.26-.21.64-.11,1-.82,1.41-1.26S8.08,88.47,8.53,88a2.29,2.29,0,0,0,.65-1.2c0-.23.28-.36.44-.54a1.19,1.19,0,0,0,.24-.64c0-.49.54-.76.52-1.28a1.34,1.34,0,0,1,.73-1.18l.36.16Z"/><path class="cls-2" d="M53.68,101.66a7.46,7.46,0,0,1,.21,3.18c0,.54.24,1,.29,1.57a7.73,7.73,0,0,0,.23,1.58,6.48,6.48,0,0,1,.62,1.47c.37,1.69,1.51,3.07,2.25,4.61a68.91,68.91,0,0,1-7.9,3.29,8.31,8.31,0,0,1-1.91.77c-2.08.47-4.12,1.05-6.14,1.71-.91-1.86-1.12-3.94-2-5.8a20.57,20.57,0,0,1-.63-2.88c-.26-.84-.65-1.81-.93-2.61a4.79,4.79,0,0,0-.65,2.35,22.91,22.91,0,0,0,.31,8.69l.05.15-.17.08a23.35,23.35,0,0,1-16.63.78l-.17-.08,0-.14c.9-4.9,1.47-9.87,2.34-14.77l.39.06a33,33,0,0,1-.62,3.69c-.35,3.72-1.29,7.37-1.73,11.09l-.13-.22a23.73,23.73,0,0,0,16.35-.79l-.13.24a24.45,24.45,0,0,1,0-10.29c.16-.46.29-1.6,1-1.23.81.82.63,1.91.94,2.92.77,1.81,1.17,3.72,1.81,5.57a11.32,11.32,0,0,1,.91,2.78l-.29-.15A107.43,107.43,0,0,0,53,115.39c1-.57,2.65-1.21,3.68-1.77l-.13.47c-1.09-1.28-1.45-2.92-2.22-4.38A4.19,4.19,0,0,1,54,108.1c-.1-.53-.37-1-.5-1.56a14.79,14.79,0,0,1-.19-1.63,9,9,0,0,1-.32-1.63,4,4,0,0,1,.32-1.63Z"/><path class="cls-2" d="M50,117a1.91,1.91,0,0,1,.18,1.67c-.24.56.11,1.12-.08,1.68-.26.73.12,1.05.08,1.67a3.63,3.63,0,0,0,0,1.67,8.48,8.48,0,0,1,0,1.67,15.86,15.86,0,0,1,0,1.69,18.62,18.62,0,0,1-.44,3.35c-.08.26.13.54.11.78a2.22,2.22,0,0,0,.08.68c.73,1.3,2.45.54,3.7.79,1.39.41,2.49,2.49,1.68,3.79l-.45.76a6.55,6.55,0,0,1-.42.78,5.12,5.12,0,0,1-3.23,1.19c-1.14-.13-2.26.27-3.38,0-3.24-.27-2.53-4.19-2.42-6.48,0-3.07.16-6.12,0-9.18a5.84,5.84,0,0,1-.08-1.67c.23-1.12-.16-2.23,0-3.35h.4c.19,1.11-.21,2.23.06,3.34.12,1.88-.11,4.74.12,6.71-.15,1.7.18,3.54-.16,5a6.76,6.76,0,0,0,.73,4.67c.69.85,2,.5,3,.65a13.17,13.17,0,0,0,3.26-.32,3.85,3.85,0,0,0,1.24-.94c1-.57.9-1.83.87-2.81,0-1.2-1.21-1.41-2.2-1.71-.59-.17-1,.19-1.68.1A2.46,2.46,0,0,1,49,131.19a27,27,0,0,0,.38-7.52,4,4,0,0,0,0-1.68c0-.63.34-.94.08-1.68-.18-.55.17-1.11-.07-1.67a2,2,0,0,1,.19-1.67Z"/><path class="cls-2" d="M32.65,121.08a1.32,1.32,0,0,1,.18,1.31,1.16,1.16,0,0,0-.12.65,1.43,1.43,0,0,1,0,.65,1.57,1.57,0,0,0,0,1.31,4.23,4.23,0,0,0-.12,1.3,7.16,7.16,0,0,1-.06,2,11.69,11.69,0,0,1-.08,2,3.79,3.79,0,0,1,0,1.3v0a1.18,1.18,0,0,0,.14.64,1.53,1.53,0,0,1,.41.47c.36.62,1.31.16,1.89.47a3.15,3.15,0,0,1,1.45,1.87c0,.53,0,1,.05,1.56a1.78,1.78,0,0,1-.63,1.44c-.45.31-.84.6-1.26.93a3,3,0,0,1-1.52.2c-1,.12-1.92-.29-2.91-.26a6.64,6.64,0,0,1-2.16-.6c-1.15-.75-1.09-2.39-.92-3.54a11.54,11.54,0,0,1,.61-2.79,17,17,0,0,1-.16-2.57c0-.87-.17-1.72-.09-2.58s-.32-1.71-.11-2.58-.21-1.72-.06-2.58h.39c.2.86-.12,1.72.08,2.57s-.11,1.72,0,2.57-.06,1.72.12,2.57a18.68,18.68,0,0,1,.18,2.59c-.29,1.81-1.23,3.79-.24,5.53a1.28,1.28,0,0,0,1,.79c.95,0,1.88.44,2.84.41.48,0,.95.14,1.42.13a3.9,3.9,0,0,0,1.3-.38,1.89,1.89,0,0,0,.66-.21,1.19,1.19,0,0,0,.42-.52c.32-.8.87-1.67.34-2.51-.19-.37-.2-.92-.45-1.25-.47-.43-1.31-.37-1.92-.46a1.28,1.28,0,0,1-1.14-.66,7.16,7.16,0,0,0-.31-1.21c-.09-.89.13-1.65,0-2.62a5.66,5.66,0,0,0,0-1.3,11.71,11.71,0,0,1,.1-2c0-.22-.13-.44-.08-.66s.19-.43.19-.65c0-.43-.22-.86-.06-1.3a1.17,1.17,0,0,0-.08-.66,1.32,1.32,0,0,1,.25-1.3Z"/><path class="cls-2" d="M32.24,130.72c-.05.3-.09.4-.14.19s-.09.11-.14-.07-.05-.13-.07-.07c-.09.41-.07-.16-.21.13-.19-.14-.37,0-.56-.13a1.8,1.8,0,0,1-1.12-.05c-.18.12-.37-.07-.55.05s-.28-.11-.42,0-.17,0-.28,0-.09.1-.14.07c-.1-.22-.19,0-.28-.07s-.19.22-.28.05-.18.15-.28,0v-.39c.09-.19.19.21.28,0s.09,0,.14,0,.09,0,.14,0,.18.15.27-.07c0,0,.1,0,.14.06s.15-.17.28,0,.29-.13.42,0,.37-.08.56,0a1.87,1.87,0,0,1,1.12-.09c.18-.18.37,0,.55-.13,0,.09.1.13.14,0s.06.37.14.08.1.16.14-.08c.1-.42.17.45.15.58Z"/><path class="cls-2" d="M49.43,131.11c0,.31,0,.41-.08.21s-.06.13-.13,0,0,.19-.11.1-.1-.1-.12,0c-.18-.1-.3.11-.49,0a1.35,1.35,0,0,1-1,.11c-.13.16-.33,0-.46.14s-.25-.06-.35.06-.16,0-.24,0-.06.11-.1.09c-.12-.2-.17,0-.25,0s-.09-.06-.12,0-.05.16-.11.06-.12.18-.24,0l-.07-.38c0-.2.19.17.22-.09,0-.11.08,0,.13,0s.08,0,.11,0,.19.12.23-.11c0,0,.08,0,.13,0s.09-.2.23-.05.22-.18.35-.09.29-.13.47,0a1.36,1.36,0,0,1,.93-.25c.12-.21.31-.06.44-.22.06.08.11.11.11,0s.12.35.14,0,.11.15.1-.09c0-.43.23.44.23.54Z"/></g><g id="顔"><path class="cls-2" d="M33.55,6a2.58,2.58,0,0,1,1.79-1c.73,0,1.25-.62,2-.66a3.22,3.22,0,0,0,1-.23,2.5,2.5,0,0,1,1-.4,7.54,7.54,0,0,0,2.05-.36,26.9,26.9,0,0,1,3.11-.19,21,21,0,0,1,5.13.73c.32.14.73,0,1,.13a37.74,37.74,0,0,1,4.71,2.14,5.23,5.23,0,0,1,1.81,1c1,1,2.42,1.38,3.25,2.55A6.12,6.12,0,0,0,62,11,36,36,0,0,1,69.9,23a33.13,33.13,0,0,1,2.48,12c-.13,1.38.18,2.77-.08,4.12s-.18,2.76-.62,4.08l-.39-.08c.09-1.36.66-2.65.54-4A27,27,0,0,0,71.59,31C69.92,16.82,56.65,1.65,41.45,4a4.35,4.35,0,0,0-2,.38c-.66.19-1.35,0-2,.47s-1.33.3-1.87.78a3.15,3.15,0,0,1-1.91.69L33.55,6Z"/><path class="cls-2" d="M32.29,5.78A2.62,2.62,0,0,1,30.42,6c-.64-.2-1.23.2-1.87.1a2.24,2.24,0,0,0-.93.06c-.92.52-1.66.15-2.72.71a25.78,25.78,0,0,0-3.54,1.18A31.68,31.68,0,0,0,18,9.74,26.3,26.3,0,0,0,8.6,21.15c-2.48,5.73-4.26,12-3.36,18.27A22.65,22.65,0,0,0,7,46.7C7.18,48,8.05,49,8.47,50.15l-.35.18c-.75-1-.92-2.37-1.59-3.46a34.81,34.81,0,0,1-1.08-3.65,29,29,0,0,1-.76-9.46A37.81,37.81,0,0,1,8.3,21a7.32,7.32,0,0,1,1.25-2.57,5.21,5.21,0,0,0,.38-.87c.36-1.29,1.53-2,2.11-3.19A4.61,4.61,0,0,1,13.35,13a23,23,0,0,1,2.82-2.58,4.92,4.92,0,0,1,.72-.65c.24-.21.63-.2.87-.41,2.61-1.92,5.75-2.8,8.81-3.62.66-.17,1.21.12,1.91-.23s1.28,0,1.9-.25a2.3,2.3,0,0,1,1.91.14v.39Z"/><path class="cls-2" d="M63.84,30.61c.33-.07.51,0,.44.24s.27.18.22.41,0,.2.08.23.26,0,.25.1a.33.33,0,0,0,.24.39A16.28,16.28,0,0,1,67.18,37a15.83,15.83,0,0,1,.45,1.77,2.56,2.56,0,0,1,.11.91c0,.32.18.6.15.91a1.2,1.2,0,0,0,0,.46,1.2,1.2,0,0,1,.09.45c-.22.31,0,.61-.08.91a.66.66,0,0,0,0,.46c.05.16.12.31,0,.46-.27.28.09.62-.13.9l-.39-.05c-.15-.31.28-.57,0-.89s.25-.52.09-.89.16-.59-.06-.89a1.16,1.16,0,0,1,0-.45c0-.3-.19-.57-.07-.89s-.23-.87-.19-1.32-.22-.56-.14-.88a.47.47,0,0,0-.14-.43c-.06-.14,0-.31-.07-.45a17.77,17.77,0,0,0-2.4-4.74c0-.18,0-.32-.26-.35s0-.17,0-.27-.1-.11-.19-.14,0-.33-.33-.3-.27-.16-.13-.47l.3-.25Z"/><path class="cls-2" d="M59.49,32c.31-.1.47-.07.39.16s.24.13.18.34,0,.18.06.19.24,0,.23.06.06.27.21.31a16.35,16.35,0,0,1,2,4c.31.41.29.95.56,1.38.17.21.12.49.19.72s.24.46.24.71a.81.81,0,0,0,0,.38.67.67,0,0,1,.14.35c-.16.28.06.5.06.75a.44.44,0,0,0,0,.37c.08.11.18.23.09.36s.2.48,0,.75l-.39,0c-.21-.22.17-.5-.11-.72-.11-.11,0-.24,0-.36a.41.41,0,0,0,0-.37c-.07-.23.07-.5-.18-.7-.07-.26.07-.46-.15-.71s0-.5-.12-.73-.24-.43-.23-.69-.26-.4-.21-.7c.05-.14,0-.24-.15-.33s0-.24-.1-.35A19,19,0,0,0,60,33.51c0-.16,0-.28-.24-.28s0-.14,0-.23-.08-.09-.16-.1,0-.29-.29-.23-.24-.1-.1-.4l.3-.26Z"/><path class="cls-2" d="M51,31.18c.28-.19.47-.19.48.07s.32.07.35.31,0,.19.15.18.24-.09.27,0,.19.26.36.27a21.93,21.93,0,0,1,3.93,3.77c.09.12.25.18.33.31s.1.31.27.37.24.53.58.69.34.5.52.75.44.43.55.71.34.49.49.77c0,.37.27.54.39.82a.59.59,0,0,0,.21.4c.12.11.27.21.24.39-.09.38.39.48.35.84l-.36.16c-.29-.2-.06-.64-.41-.79s-.05-.58-.37-.81-.16-.6-.5-.75c-.17-.25-.16-.56-.46-.75s-.21-.57-.44-.78-.44-.41-.55-.7c-1-1.51-2.46-2.56-3.7-3.83-.56-.24-.92-.74-1.49-1-.06-.16-.16-.28-.37-.23s-.08-.15-.11-.25-.12-.07-.22-.06-.16-.3-.41-.17-.31-.06-.28-.4l.2-.33Z"/><path class="cls-2" d="M32.77,29.22c.39,0,.6.06.62.36s.4.25.44.54c0,.12.08.25.21.29s.31,0,.35.12a.69.69,0,0,0,.5.48,26.21,26.21,0,0,0,7.56,4.81c.36.36.9.21,1.29.52a1.41,1.41,0,0,0,.67.19,9.18,9.18,0,0,1,1.32.42,13,13,0,0,0,1.36.26,4,4,0,0,0,1.37.26c.42.29.91.17,1.36.26a1.47,1.47,0,0,0,.69.07,1.05,1.05,0,0,1,.7,0c.45.28.93-.1,1.38.1v.39c-.48.18-.93-.24-1.41,0a1,1,0,0,1-.7-.1,1.53,1.53,0,0,0-.7-.07c-.48,0-.91-.27-1.41-.13A5.44,5.44,0,0,0,47,37.71c-.47-.05-.88-.34-1.36-.4a5.21,5.21,0,0,1-1.35-.38,26.76,26.76,0,0,1-7.55-3.74,20.6,20.6,0,0,1-2.32-1.63.69.69,0,0,0-.54-.45c-.13,0-.12-.22-.16-.35s-.18-.15-.31-.19c-.3,0-.22-.44-.56-.44s-.42-.25-.36-.64l.29-.27Z"/><path class="cls-2" d="M27.53,28.43c.23.25.26.41,0,.45s0,.3-.23.36c-.08,0-.17.08-.14.16s.14.21.06.25-.21.22-.17.38a32.18,32.18,0,0,0-1.52,4.76c0,.57-.25,1.09-.19,1.66a2.91,2.91,0,0,1-.11.83c-.1.28.07.57,0,.84s0,.53,0,.83c-.22.27,0,.56-.07.83a.56.56,0,0,0,0,.42c.06.14.16.28.06.42s.17.55,0,.83l-.39,0c-.21-.27.17-.57-.08-.85s.19-.5,0-.84.16-.57-.06-.85a1.06,1.06,0,0,1,.09-.42c0-.29-.14-.57,0-.85s-.06-.86.1-1.27,0-.57.14-.83a.42.42,0,0,0,0-.43c0-.14.1-.27.12-.41a25,25,0,0,1,1.16-5c.13-.1.22-.21.13-.4s.12-.11.21-.14.05-.14,0-.23.26-.2.09-.42,0-.31.35-.31l.35.16Z"/><path class="cls-2" d="M20.45,30.44c.25.27.26.44,0,.52s0,.34-.23.43-.18.11-.15.21.15.22.06.28a.35.35,0,0,0-.17.45c-.33.57-.35,1.24-.7,1.81-.35,1.9-1.15,3.71-1.36,5.64a3,3,0,0,1-.19.95c-.12.32,0,.66-.09,1s-.07.64-.12,1c-.26.29-.12.64-.19,1a.73.73,0,0,0,0,.48c0,.17.11.34,0,.49-.28.3.09.66-.12,1l-.39,0c-.16-.34.26-.63,0-1s.27-.57.15-1,.23-.63.05-1c0-.32.24-.61.15-1s.23-.62.21-1a3.1,3.1,0,0,1,.14-1c.5-1.89.6-3.88,1.33-5.7,0-.68.39-1.25.46-1.91a.36.36,0,0,0,.13-.47c0-.1.13-.13.22-.19s0-.15,0-.25.26-.25.09-.49,0-.35.35-.39l.36.13Z"/><path class="cls-2" d="M12.47,39.25c.27.2.33.33.1.4s0,.27-.16.35-.15.09-.1.16.18.16.1.21-.16.22-.09.35c-.23.46-.14,1-.38,1.43,0,1.48-.51,2.92-.38,4.4.09.24,0,.49,0,.73s.12.5.08.74,0,.46,0,.73c-.2.26,0,.49,0,.74a.44.44,0,0,0,0,.37c.07.12.17.23.08.36s.2.47,0,.74l-.39,0c-.21-.23.15-.52-.12-.74s.16-.46,0-.75.11-.5-.12-.74c0-.12,0-.25,0-.37s-.18-.49,0-.75-.14-.75,0-1.12-.1-.49,0-.74a.35.35,0,0,0,0-.38c0-.12.07-.24.06-.37a26.79,26.79,0,0,1,.37-4.47c.12-.1.18-.21.05-.37s.1-.11.19-.15,0-.12,0-.2.21-.21,0-.38-.05-.27.27-.32l.38.09Z"/><path class="cls-2" d="M61.5,43a.82.82,0,0,1-.37,1c-.37.19-.22.65-.52.87a.72.72,0,0,0-.27.44c0,.19.08.39,0,.53a1.21,1.21,0,0,0-.29,1,6.77,6.77,0,0,0,.19,3.93c0,.17.31.22.35.39a4,4,0,0,1,.15.49,6,6,0,0,0,.51.93,11.07,11.07,0,0,0,.6,1.54,1.5,1.5,0,0,1,0,.56c-.2.71.28,1.48-.21,2.15a1.84,1.84,0,0,0-.27,1c-.06.37-.4.61-.55.92a7.36,7.36,0,0,1-6.09,3.8,13.52,13.52,0,0,1-3.18.08,2.32,2.32,0,0,0-1-.14,2.76,2.76,0,0,0-1.72.88,3.77,3.77,0,0,1-.56.81c-.56.48-.41,1.28-.74,1.88l-.38-.09c0-.76.58-1.3.72-2s1-1.05,1.58-1.51,1.46-.18,2.15-.32a5.89,5.89,0,0,0,2.05.07,9.4,9.4,0,0,0,4-.86,2.34,2.34,0,0,0,.89-.48c.45-.51,1.17-.75,1.43-1.43a10.08,10.08,0,0,0,.59-.82c.17-.3.13-.69.31-1a1.15,1.15,0,0,0,.33-1c-.18-.69.41-1.32.1-2a2.2,2.2,0,0,1-.12-1c0-.36-.32-.59-.42-.91a4.53,4.53,0,0,0-.84-1.33c-.12-.14,0-.41-.1-.55-.14-.32-.42-.63-.41-1,0-.56-.27-1.07-.22-1.63s-.08-1.11.16-1.63a2,2,0,0,0,.27-1.05c0-.19.19-.32.32-.45a.86.86,0,0,0,.15-.52c0-.41.45-.57.42-1a.83.83,0,0,1,.71-.82l.33.22Z"/><path class="cls-2" d="M24,47.22a5.68,5.68,0,0,0-6.93.5c-.14.09-.07.36-.2.45a1.94,1.94,0,0,0-.77,1.13c-.06.3-.34.56-.27.89.23.61-.13,1.28.34,1.8.34.35.31.91.58,1.31a2,2,0,0,0,.4.3,8.57,8.57,0,0,0,3.67,3.09A5.34,5.34,0,0,1,24,59.2c.17.67.52,1.23.72,1.88,0,.7.31,1.31.36,2a4.87,4.87,0,0,0,.09,1,1.8,1.8,0,0,1,.05,1c-.27.65,0,1.36-.26,2L24.53,67c-.07-.66.4-1.27.17-1.93a2.32,2.32,0,0,1,0-1,2.3,2.3,0,0,0-.09-1,4.06,4.06,0,0,0-.48-1.87,5.32,5.32,0,0,0-.67-1.82,3.82,3.82,0,0,0-1.11-1.49c-.49-.4-1.16-.47-1.74-.86S19.42,56.51,19,56s-1.05-.71-1.48-1.36c-.21-.25-.59-.37-.75-.68a1.59,1.59,0,0,0-.55-.86c-.66-.43-.46-1.29-.81-1.9a1.27,1.27,0,0,1,0-1.06c.13-.33,0-.71.19-1s.47-1,.71-1.42c.08-.17.37-.14.46-.29a5.59,5.59,0,0,1,3.65-1.85,2,2,0,0,0,1.06,0c.19,0,.34.14.49.24a.9.9,0,0,0,.52.07c.4-.07.58.38,1,.32a.76.76,0,0,1,.79.71l-.24.31Z"/><path class="cls-2" d="M54.41,41.69c.3.09.4.16.18.22s.11.15-.08.21.17.14.07.22-.12.13,0,.21c-.14.27,0,.56-.15.84a11,11,0,0,1-.08,1.92c-.07.07-.12.14,0,.21s.05.14,0,.21,0,.15.05.22,0,.28,0,.42.13.29.07.43.05.25,0,.42c-.21.15,0,.29,0,.43s-.07.15,0,.21.16.14,0,.21.16.28,0,.43l-.39,0c-.19-.13.2-.3-.06-.43-.1-.06,0-.14,0-.22s0-.14,0-.21.14-.29-.08-.43c0-.17.16-.21,0-.43s.12-.27.05-.43-.13-.28,0-.43a22.07,22.07,0,0,1,0-2.57c-.17-.3,0-.58-.11-.87.1-.07.14-.14,0-.22s.36-.06.08-.21.17-.13-.07-.22-.11-.15.2-.2l.39,0Z"/><path class="cls-2" d="M39.38,41.69c.3.09.4.16.18.22s.11.15-.08.21.17.14.07.22-.12.13,0,.21c-.14.27,0,.56-.15.84a11,11,0,0,1-.08,1.92c-.07.07-.12.14,0,.21s.05.14,0,.21,0,.15,0,.22,0,.28,0,.42.13.29.08.43.05.25,0,.42c-.22.15,0,.29,0,.43s-.07.15,0,.21.16.14,0,.21.16.28,0,.43l-.39,0c-.19-.13.2-.3-.06-.43-.1-.06,0-.14,0-.22s0-.14,0-.21.14-.29-.08-.43c0-.17.16-.21,0-.43s.12-.27.05-.43-.13-.28,0-.43a22.07,22.07,0,0,1,0-2.57c-.17-.3,0-.58-.11-.87.1-.07.14-.14,0-.22s.36-.06.08-.21.17-.13-.07-.22-.11-.15.2-.2l.39,0Z"/><path class="cls-2" d="M54.59,52.7c.1.36,0,.58-.28.58s-.21.37-.49.38c-.12,0-.24,0-.28.15s0,.3-.13.31a.58.58,0,0,0-.5.37c-.12.19-.35.22-.54.3s-.29.31-.51.34a.94.94,0,0,0-.55.28c-.14.18-.39.13-.58.2a9.91,9.91,0,0,1-5.36.89c-.38-.24-.82,0-1.2-.2a1.33,1.33,0,0,0-.6-.1,3.43,3.43,0,0,1-1.15-.4c-.35-.21-.8-.21-1.13-.44s-.72-.39-1-.63c-.21-.41-.64-.51-.92-.81a1.27,1.27,0,0,0-.45-.41c-.18-.1-.39-.19-.45-.41-.08-.46-.64-.53-.74-1L38,51.9c.38.2.31.76.77.88.2.08.27.27.37.46a1,1,0,0,0,.43.4c.31.22.51.62,1,.66.33.21.57.56,1,.61s.64.47,1,.54a11.1,11.1,0,0,1,1.12.34,1,1,0,0,0,.56.16c.47-.09.7.29,1.17.12.19,0,.38.08.58.08s.39-.19.58-.12.39.18.59,0c.34-.37.8.12,1.15-.21.16-.16.37-.11.58-.07s.35-.19.54-.21a1.09,1.09,0,0,0,.78-.39c.08-.07.26.1.33,0a12.67,12.67,0,0,0,1.93-1.28c.21,0,.4-.13.44-.37s.2-.07.32-.08.14-.14.17-.25c0-.26.39-.15.36-.45s.16-.37.53-.3l.3.25Z"/></g></g><g id="子供_2" data-name="子供③"><g id="体-2" data-name="体"><path class="cls-2" d="M137.67,64.21C140,65.3,141.85,67,144,68.3c1.53.71,2.93,1.64,4.44,2.38s3.18,1.08,4.71,1.81c.91.34,1.84.63,2.78.88a20.73,20.73,0,0,0-3.62,11.13,19.31,19.31,0,0,0,.35,4.36l-.47-.28c-2.11-1.15-4.15-2.41-6.16-3.72a68,68,0,0,1-6.18-3.68l.38-.28a66.25,66.25,0,0,1,1.42,7.38,44.7,44.7,0,0,1,1,7.46c.47,4.45-3.07,5.77-6.84,5.75-6.67.15-13.32.38-20,1.05-3.63.22-13.51,3.25-12.6-3.21a36.88,36.88,0,0,0,.64-19.66l.39.12c-2.11,1.82-4.9,4.58-6.93,6.52l-.28.27-.15-.36a34.39,34.39,0,0,0-6.71-10.86c2.21-2.66,4.39-5.42,7.22-7.45a46.42,46.42,0,0,1,8.62-5.52l.17.35a45.45,45.45,0,0,0-8.53,5.49c-2.14,2.06-5.45,4.77-7.12,7.23v-.22A41.09,41.09,0,0,1,97.43,86l-.43-.1c2.26-2,5.14-4.7,7.27-6.76a39.1,39.1,0,0,1-.51,20.26,2.94,2.94,0,0,0,.27,2.26c.87,1.46,2.83,1.45,4.36,1.34,2.48-.23,5-.56,7.45-.75a138.6,138.6,0,0,1,15-1.09,25.09,25.09,0,0,0,5-.22c3.28-.41,7.15-.93,6.33-5.19A103.61,103.61,0,0,0,139.78,81l-.14-.59.51.31a67.13,67.13,0,0,1,6.16,3.72c2.1,1.16,4.17,2.37,6.18,3.68l-.38.27a19.23,19.23,0,0,1,3.14-15l.16.47c-1.45-.54-3.45-1-4.83-1.62A49.78,49.78,0,0,0,146,70.08c-1.54-.71-2.9-1.76-4.46-2.47a14.34,14.34,0,0,1-4.05-3.09l.23-.31Z"/><path class="cls-2" d="M153.41,77.63a1.09,1.09,0,0,1,1.06.55.88.88,0,0,0,.42.43c.41.12.56.56.88.79.16.11.42.1.58.22a2.54,2.54,0,0,0,.89.77c.58.21.89.77,1.39,1.09s.89.79,1.38,1.12a2.76,2.76,0,0,1,1,.71l-.28,0c.47,0,.8-.59,1.33-.49s.94,0,1.42,0,.88.33,1.33.43A1.76,1.76,0,0,1,166,84c.59.76,1.43,1.41,1.18,2.51-.08.45.25.93.06,1.4s-.39.86-.55,1.29a2.44,2.44,0,0,1-.89,1.07,3.16,3.16,0,0,1-1.12.82,11,11,0,0,1-1.37.26c-2.38.34-4.59-2-4.5-4.33l.09.17a10,10,0,0,1-1.67-1.29,16,16,0,0,1-1.69-1.25,5.65,5.65,0,0,1-1.71-1.23c-.51-.49-1.25-.68-1.71-1.23l.23-.31c.66.28,1.06.92,1.68,1.27a3.22,3.22,0,0,1,.91.54,31.23,31.23,0,0,0,2.47,2,9.78,9.78,0,0,1,1.73,1.21l.09.08a4.71,4.71,0,0,0,.76,2.47,4.17,4.17,0,0,0,3.3,1.59A4.52,4.52,0,0,0,165.6,90c.48-.69,1.14-1.36,1.06-2.27,0-.41.33-.82.15-1.25-.41-.68-.5-1.8-1.2-2.14a5.11,5.11,0,0,1-1-.71c-.36-.26-.83-.17-1.22-.29a1.89,1.89,0,0,0-1.24.08c-.36.25-.89,0-1.21.31l-.06.07A2.8,2.8,0,0,1,159.7,83c-.45-.4-1-.58-1.44-1s-1.07-.55-1.42-1.06a2.65,2.65,0,0,0-1-.66c-.16-.12-.21-.37-.36-.5a1.59,1.59,0,0,0-.54-.26c-.38-.16-.52-.62-1-.67a1.09,1.09,0,0,1-.81-.88l.24-.31Z"/><path class="cls-2" d="M92.53,77.88c-.11.72-.59.8-1.11,1.05-.14.09-.22.26-.35.37s-.68.24-.85.56c-.17.47-.45.42-.78.66a6.63,6.63,0,0,1-1.58,1.29,19.64,19.64,0,0,1-1.61,1.24l-.14.14-.17-.13a3.59,3.59,0,0,0-4.67.52c-.2.37-.63.57-.77,1a5.87,5.87,0,0,0-.11,1.25,1.36,1.36,0,0,0,.18,1.26c.33.32.34.82.56,1.21.54.66,1.06,1.52,1.93,1.73a3.32,3.32,0,0,0,1.24.3,3,3,0,0,0,1.2-.43,3.54,3.54,0,0,0,2-3.09,2.47,2.47,0,0,0-.08-1.4l.12-.11a8.54,8.54,0,0,1,1.71-1.15,30.15,30.15,0,0,0,2.46-1.88,2.74,2.74,0,0,1,.89-.52c.62-.33,1-1,1.67-1.22l.23.32c-.47.54-1.19.7-1.7,1.17a2.7,2.7,0,0,1-.79.68c-1,.43-1.68,1.18-2.58,1.7a8.71,8.71,0,0,1-1.66,1.23l.08-.21a3.75,3.75,0,0,1-.26,2.81c-.62,1.26-1.8,2.51-3.32,2.41a2.85,2.85,0,0,1-1.44-.21c-.42-.25-.75-.59-1.17-.83a4.65,4.65,0,0,1-.86-1.12c-.26-.39-.69-.7-.7-1.22s-.32-.9-.42-1.41a2.52,2.52,0,0,1,.36-1.44c.2-.42.28-1,.72-1.28A11.3,11.3,0,0,0,82,82.31a7.58,7.58,0,0,1,2.15-.51c.26,0,.46.28.71.26a2.18,2.18,0,0,1,1.34.56h-.31a17.61,17.61,0,0,1,1.56-1.3c.26-.22.47-.5.73-.71a2.86,2.86,0,0,0,1.2-1,.92.92,0,0,1,.48-.21c.36-.09.44-.53.72-.72a1.34,1.34,0,0,0,.72-.72,1.11,1.11,0,0,1,1-.45l.25.31Z"/><path class="cls-2" d="M137.45,101c.8,1.11.83,2.37,1.24,3.58.69,1.07.79,2.44,1.72,3.36.76,1,1.22,2.22,2.22,3a26.82,26.82,0,0,0,7,6.34c-1.14.56-2.44.62-3.57,1.21-3,1-6.08,1.33-9.09,2.13-2.08.13-4.11.61-6.19.71a12.45,12.45,0,0,0-3.11.07,280.81,280.81,0,0,0-28.25,1.08,63.45,63.45,0,0,0,5-9.47c.73-1.58,1-3.32,1.7-4.89s.75-3.36,1.26-5l.39.08a48.29,48.29,0,0,1-1.28,5,51,51,0,0,1-3.95,9.62,26.59,26.59,0,0,1-2.59,4.51l-.17-.29c2-.3,4.11-.38,6.18-.49,6.19-.5,12.4-.58,18.6-.56,2.06-.29,4.14.17,6.18-.32a37.1,37.1,0,0,0,6.12-.76,36.85,36.85,0,0,0,6.06-1.17c1-.21,1.92-.75,3-.9a13.8,13.8,0,0,0,2.93-1l-.07.59c-.69-.52-1.33-1.1-2-1.59a24.25,24.25,0,0,1-5.35-5.54,13.22,13.22,0,0,1-1.49-2.11c-.38-1.27-1.41-2.17-1.69-3.49-.56-1.18-1.28-2.31-1.07-3.71l.38-.09Z"/><path class="cls-2" d="M136.16,120.5c.65.78.19,1.27.25,2.06a3.21,3.21,0,0,1,0,1.38,3,3,0,0,0,.22.68,8,8,0,0,0,0,1.38c.32.91,0,1.85.21,2.76a19.61,19.61,0,0,0,.12,2.76l-.47-.24.77-.32a1.33,1.33,0,0,0,.36-.24,4,4,0,0,1,2.11,0,2.33,2.33,0,0,1,1.44.86,3,3,0,0,1,1,1.36c.1.5.1,1.17.18,1.67a2.21,2.21,0,0,1-.38,1.63c-.38.45-.71.87-1.11,1.3a4,4,0,0,1-1.59.47c-2.12.47-4.22-.3-6.32-.47-1.32,0-1.78-1.43-1.77-2.53a8.15,8.15,0,0,1,.35-3.18,12.49,12.49,0,0,1-.2-2.64c0-.9-.25-1.79-.22-2.7s-.42-1.77-.25-2.69-.32-1.79-.22-2.7l.39,0c.25.88,0,1.81.22,2.7s0,1.8.19,2.7.08,1.8.22,2.69a12.73,12.73,0,0,1,.24,2.75c-.13,1.56-1.2,4.92,1.14,5.15a18.09,18.09,0,0,0,3.08.55,7.83,7.83,0,0,0,3.09.07,4.59,4.59,0,0,0,1.34-.63,1.77,1.77,0,0,0,.64-.36,1.42,1.42,0,0,0,.31-.67c.16-1,.65-2,0-2.86-.22-.41-.27-.95-.64-1.29a2.74,2.74,0,0,0-2.71-.55c-.23.11-.51,0-.74.07a2.21,2.21,0,0,0-.63.41l-.34.28-.13-.53a20.43,20.43,0,0,0-.2-2.75c.14-.93-.33-1.82-.12-2.76a7.53,7.53,0,0,0-.17-1.37,2.45,2.45,0,0,0,.12-.7,3.21,3.21,0,0,1-.18-1.37c-.05-.79-.57-1.21,0-2.08l.39,0Z"/><path class="cls-2" d="M136.5,128.57c0,.31-.06.41-.13.2s-.1.13-.17-.05-.06-.13-.08-.06,0,.21-.07.15-.11-.1-.15,0c-.23-.12-.41.09-.64-.07a2.31,2.31,0,0,1-1.25.08c-.2.14-.43,0-.62.11s-.32-.07-.47,0-.2,0-.31,0-.1.11-.15.08c-.13-.2-.21,0-.32,0s-.19.24-.31.08-.19.17-.31,0l-.05-.39c.09-.2.24.18.31-.08,0-.11.1,0,.16,0s.11,0,.16,0,.22.13.3-.1c0,0,.11,0,.16.05s.15-.2.32,0,.3-.17.46-.07.41-.12.63,0a2.32,2.32,0,0,1,1.24-.21c.19-.2.41,0,.61-.2.06.09.11.12.15,0s.09.35.16.06.12.15.15-.09c.07-.41.22.35.22.56Z"/><path class="cls-2" d="M116.64,121.36a1.35,1.35,0,0,1,.16,1.36c-.26.44,0,.9-.12,1.35a1.93,1.93,0,0,0-.12.67c0,.22.18.45.15.68-.32.89.09,1.8-.18,2.7-.09.45,0,.9,0,1.35a5.6,5.6,0,0,0-.11,1.35,3.62,3.62,0,0,1-.08,1.35l-.26-.26c.55.09,1-.23,1.51.14a5.05,5.05,0,0,1,1.85,1.3c.33.68,1,1.23,1,2,0,.52-.05,1-.08,1.52,0,1.17-1.21,1.65-2.05,2.17a3.57,3.57,0,0,1-1.49,0,12.73,12.73,0,0,1-2.82-.5c-1-.18-1.8-.6-2.78-.78-1.07-.54-1-1.82-.88-2.79a9.33,9.33,0,0,1,.6-2.75c.15-.9-.09-1.8,0-2.69a21.83,21.83,0,0,0,.1-2.68c.18-.9-.21-1.8,0-2.69s-.12-1.79.07-2.68h.4c.16.9-.22,1.79,0,2.69s-.24,1.79-.09,2.68a20.12,20.12,0,0,0,0,2.69c.08.92-.15,1.83-.07,2.75-.58,2.11-1.72,5.05,1.34,5.53a27.82,27.82,0,0,0,4.12.89,7,7,0,0,0,1.33-.24,1.68,1.68,0,0,0,.66-.12c.46-.18.76-1.25,1-1.62.38-.8-.17-1.75-.31-2.59-.14-.37-.64-.69-.91-1a2,2,0,0,0-1.17-.57c-.62,0-.76-.36-1.3-.25l-.22,0a4.12,4.12,0,0,1,0-1.64,5.63,5.63,0,0,0,0-1.36c0-.45.13-.89.07-1.35a3.61,3.61,0,0,1,0-1.35,2.81,2.81,0,0,0,0-1.35c0-.22.16-.44.2-.67A1.79,1.79,0,0,0,116,124c-.13-.45.2-.89,0-1.35a1.35,1.35,0,0,1,.25-1.34Z"/><path class="cls-2" d="M116.17,129.47c0,.3-.1.4-.15.19s-.11.11-.16-.07,0-.13-.08-.07,0,.21-.08.15-.1-.12-.15,0c-.21-.14-.42,0-.63-.13a2.26,2.26,0,0,1-1.26-.05c-.21.12-.42-.07-.63.05s-.31-.1-.47,0-.19,0-.31,0-.11.1-.16.07c-.11-.22-.21,0-.31-.06s-.21.22-.32,0-.21.15-.31,0v-.39c.11-.19.21.2.32,0,.05-.1.1,0,.15,0s.11,0,.16,0,.21.15.31-.07c.06,0,.11,0,.16.07s.17-.18.32,0,.31-.14.47,0,.41-.08.63,0a2.32,2.32,0,0,1,1.25-.09c.21-.18.42,0,.63-.13,0,.09.1.13.15,0s.06.36.16.08.11.16.16-.08c.1-.4.18.37.16.58Z"/><path class="cls-2" d="M135.33,65.87c0,.44-.25.7-.62.72s-.44.45-.81.47c-.16,0-.33.06-.42.2s-.16.34-.32.37a1.21,1.21,0,0,0-.82.45,20.07,20.07,0,0,1-10.77,2.24,15.56,15.56,0,0,1-1.84-.15c-.64,0-1.19-.34-1.83-.31a19.35,19.35,0,0,1-2.65-.83,6.4,6.4,0,0,1-1.69-.76,4,4,0,0,1-.85-.37,8.8,8.8,0,0,0-1.54-1,2.65,2.65,0,0,0-.75-.54,1.71,1.71,0,0,1-.75-.54c-.31-.58-1-.71-1.35-1.27l.28-.28c.55.29.74,1,1.37,1.18a2,2,0,0,1,.69.6,2.14,2.14,0,0,0,.73.53,4.77,4.77,0,0,0,1.58.9,7,7,0,0,1,.77.48,3.06,3.06,0,0,0,.84.33,12.88,12.88,0,0,0,1.67.71,23,23,0,0,0,5.33,1c.31,0,.61-.17.91-.1a1,1,0,0,0,.91,0c.57-.35,1.22.13,1.79-.21a1.41,1.41,0,0,1,.91-.07c.31,0,.57-.2.87-.23a2.84,2.84,0,0,0,1.29-.44c.13-.08.34.1.47,0,1.12-.57,3.17-1.21,4-2,.09-.14.29-.1.46-.12s.25-.17.34-.3c.14-.32.59-.21.69-.58s.4-.46.83-.4l.25.3Z"/></g><g id="顔-2" data-name="顔"><path class="cls-2" d="M140,88.48A29.06,29.06,0,0,1,142.91,82c1.08-2.1,1.74-4.38,2.81-6.5S147,71,147.93,68.8a60,60,0,0,0,1.56-6.88c1.47-6.93,1.34-14.07,1-21.11a61.6,61.6,0,0,0-.65-7c-.2-3.41-1.41-7-2.44-10.27-1.71-5.5-4.45-11.16-9.22-14.6-2.85-2-5.89-4-9.35-4.67s-7-1.23-10.49-.76a28.39,28.39,0,0,0-6.76,1.87,19.14,19.14,0,0,0-10.38,5.19C94.23,17.78,92.93,28.41,91.74,38c-1,9.79-.75,19.85,1.88,29.37,1,3.84,2.72,7.4,4.17,11.07a80.26,80.26,0,0,0,5.9,10.25l-.33.22a76.23,76.23,0,0,1-5.92-10.31A57.37,57.37,0,0,1,93.3,67.41C90.09,55.94,90.11,43.7,92.09,32c1.12-5.79,2.08-11.87,5.14-17a22.39,22.39,0,0,1,8.5-8.23,20.61,20.61,0,0,1,5.73-1.68,20.91,20.91,0,0,1,6.8-2,26.68,26.68,0,0,1,12.32,1.28,21.32,21.32,0,0,1,7.94,4,26.75,26.75,0,0,1,6.76,8.28,89,89,0,0,1,3.65,10,59.05,59.05,0,0,1,1.8,8.73c0,3,.41,5.91.5,8.87a87,87,0,0,1-1,17.74C150,64.15,149,66.91,148.51,69c-.43,2.32-1.59,4.51-2.33,6.72a65.6,65.6,0,0,1-2.64,6.59,29.36,29.36,0,0,1-3.15,6.38l-.35-.18Z"/><path class="cls-2" d="M135.21,24.77A2.35,2.35,0,0,1,137.27,23a2.3,2.3,0,0,1,1.51,0,2.86,2.86,0,0,1,1,1.05,3.49,3.49,0,0,1,1,1.72,13.6,13.6,0,0,0,.85,1.76,46.16,46.16,0,0,1,2.8,11.4c.22,1.43.14,3.11.48,4.6-.06,1.88.2,2.95.25,4.65a10.81,10.81,0,0,0,0,3.11,108.6,108.6,0,0,1-1.57,12.32,153.45,153.45,0,0,1-4.11,14.94c-.61,1.43-.93,3-1.49,4.41-.81,1.35-1,2.93-1.77,4.3l-.37-.15A25.54,25.54,0,0,1,137,84.26a25.39,25.39,0,0,1,1-2.93,120.35,120.35,0,0,0,5.06-17.82,59.13,59.13,0,0,0,1.39-9.15,18.64,18.64,0,0,0,.06-3.08,11.32,11.32,0,0,0,.16-1.54,32.53,32.53,0,0,1-.26-4.62,13.63,13.63,0,0,1-.23-1.54,38.73,38.73,0,0,0-1.28-9.67c-.44-2.54-1.64-4.87-2.43-7.31a5.41,5.41,0,0,0-.64-1.12c-.21-.38-.17-.85-.44-1.18a1.94,1.94,0,0,0-.93-.63,1.21,1.21,0,0,0-1-.07A11.31,11.31,0,0,1,135.52,25l-.31-.24Z"/><path class="cls-2" d="M109.18,56.29a.78.78,0,0,1,.3,1c-.21.36.18.65,0,1a.72.72,0,0,0,0,.5c.09.16.24.31.2.48,0,1.64.53,3.27.62,4.93.39,1.48,1.91,8.4,2.48,9.64a2.44,2.44,0,0,1,.32.94c.33.94.82,1.82,1.1,2.77.21.64.64,1.17.89,1.79a7.9,7.9,0,0,0,.9,1.76,6.63,6.63,0,0,0,.92,1.77,2.49,2.49,0,0,0,.53.84,2,2,0,0,1,.58.81c.16.69.85,1,1.06,1.68l-.32.23c-.52-.46-.56-1.24-1.13-1.66s-.57-1.21-1.05-1.71a8.64,8.64,0,0,0-1-1.71,12,12,0,0,0-.9-1.79c-.33-.58-.45-1.27-.77-1.86a36.25,36.25,0,0,1-2-5.66,75.5,75.5,0,0,1-2.93-12.67c-.09-.16,0-.35.08-.52a.74.74,0,0,0-.13-.49c-.22-.31.09-.68-.18-1a.76.76,0,0,1,.08-1l.39,0Z"/><path class="cls-2" d="M112.36,26.86c.19.32.17.52-.1.61s-.08.4-.33.5c-.09.06-.2.12-.19.23s.11.27,0,.33a.49.49,0,0,0-.26.53,40.48,40.48,0,0,0-2.44,6.64c-.06.19,0,.4-.08.59a.74.74,0,0,0-.15.57c.06.42-.29.75-.18,1.17a5.83,5.83,0,0,1-.19,1.17,11.81,11.81,0,0,0-.06,1.18,2.92,2.92,0,0,0-.07,1.18c-.24.38-.07.78-.11,1.18a1.08,1.08,0,0,0,0,.59.76.76,0,0,1,.05.59c-.25.4.16.78,0,1.18l-.39,0c-.2-.39.18-.8-.07-1.19s.2-.77,0-1.2.17-.79,0-1.2a2,2,0,0,1,.1-.59c.06-.4-.1-.81.09-1.2A34.09,34.09,0,0,1,110,31a21,21,0,0,1,.78-2.27.52.52,0,0,0,.23-.55c0-.12.15-.15.26-.21s.07-.19.06-.3c-.08-.27.32-.29.2-.58s.07-.41.44-.44l.35.18Z"/><path class="cls-2" d="M101.65,72.59c.33.17.42.34.23.54s.14.35,0,.55-.11.2,0,.28.23.16.17.26a.45.45,0,0,0,0,.55c0,.74.27,1.43.25,2.18a38.69,38.69,0,0,0,1.66,5.25.77.77,0,0,1,.22.5.94.94,0,0,0,.28.48,5.65,5.65,0,0,1,.5,1c.12.36.46.59.61.92s.41.61.61.92c0,.42.4.61.59.93a1,1,0,0,0,.34.43c.16.11.34.2.38.4,0,.45.59.46.69.86l-.29.26c-.39-.15-.33-.69-.76-.82s-.29-.68-.67-.9-.32-.69-.71-.87a1.57,1.57,0,0,1-.25-.5c-.17-.34-.54-.55-.6-1s-.67-.91-.82-1.47a24.15,24.15,0,0,1-2.24-6.32,16.55,16.55,0,0,1-.51-2.19.49.49,0,0,0-.09-.55c-.08-.09,0-.2.11-.3s0-.18-.1-.27.13-.39-.12-.55-.15-.37.15-.58l.39,0Z"/><path class="cls-2" d="M106.56,70c.34.19.42.39.24.62s.14.41,0,.64-.11.22,0,.32.24.19.19.3a.57.57,0,0,0,0,.64c0,.86.3,1.66.3,2.53a42.36,42.36,0,0,0,1.89,6.07,1.06,1.06,0,0,1,.26.59,1.17,1.17,0,0,0,.31.55,9.32,9.32,0,0,1,.57,1.14c.14.41.51.69.69,1.07s.46.71.69,1.07c.06.48.46.72.68,1.08a1.2,1.2,0,0,0,.39.5c.18.14.38.25.43.48.08.49.66.55.8,1l-.29.26c-.43-.2-.41-.78-.87-1-.22-.1-.29-.32-.37-.53a1.51,1.51,0,0,0-.39-.51c-.29-.33-.39-.79-.81-1a2.65,2.65,0,0,1-.3-.58c-.19-.38-.59-.64-.68-1.1-.23-.61-.74-1.07-.92-1.7a28.56,28.56,0,0,1-2.54-7.31,19.67,19.67,0,0,1-.56-2.53.62.62,0,0,0-.1-.64c-.08-.1,0-.22.11-.34s0-.21-.1-.31.12-.45-.13-.64-.16-.43.14-.66l.39,0Z"/><path class="cls-2" d="M144.78,43.85a.71.71,0,0,1-.4.88c-.37.13-.26.58-.58.75a.64.64,0,0,0-.3.37c0,.17,0,.38-.1.49a1.08,1.08,0,0,0-.44.82,8.58,8.58,0,0,0-1,3.56c0,.15.21.29.19.44a3.8,3.8,0,0,1,0,.46,3.44,3.44,0,0,0,.25.91c.13.3,0,.67.19,1a1.44,1.44,0,0,1,.25.94c-.15.68.45,1.27.16,2a1.4,1.4,0,0,0-.06.49,3.24,3.24,0,0,0,.13.49c.06.34-.16.66-.2,1a2.89,2.89,0,0,1-.28,1,5.2,5.2,0,0,0-.62.8c-.37.59-1.1.73-1.63,1.15a8,8,0,0,1-3.84.55,2.11,2.11,0,0,0-1.64.58c-.64.18-.94.79-1.28,1.29s-.38,1.17-.65,1.72,0,1.23-.08,1.84l-.39.06c-.28-.66.13-1.32,0-2a1.59,1.59,0,0,1,.33-.95,5.61,5.61,0,0,0,.45-.88A14.25,14.25,0,0,1,134.58,62a5,5,0,0,1,1.93-.66,11.11,11.11,0,0,0,1.9.1c1.75-.33,3.77-1.21,4.15-3.13.06-.3-.12-.63,0-.93a1.07,1.07,0,0,0,0-.94c-.36-.6.11-1.29-.26-1.88a1.58,1.58,0,0,1-.12-.94c0-.33-.24-.59-.28-.91a4.67,4.67,0,0,0-.25-.94,1.84,1.84,0,0,1-.19-.49c-.06-.16.16-.35.1-.51a8.19,8.19,0,0,1,.75-3.88,1.44,1.44,0,0,0,.43-.89c0-.18.22-.25.36-.36a.72.72,0,0,0,.2-.45c0-.39.49-.46.47-.87s.27-.6.71-.68l.32.24Z"/><path class="cls-2" d="M137.25,41.4c.3.08.4.16.19.24s.11.16-.08.23.17.15.08.24-.12.16,0,.24c-.14.31,0,.63-.14.94.2,1-.16,1.91,0,2.84.1.16,0,.32,0,.48s.12.32.06.47,0,.28,0,.47c-.22.16,0,.32-.07.47s-.07.16,0,.24.15.16,0,.24c-.25.16.14.31,0,.47h-.39c-.19-.16.21-.31,0-.47s0-.16,0-.24,0-.16,0-.24.15-.31-.07-.47c0-.19.17-.23,0-.47s.13-.31.06-.47-.12-.32,0-.48c.15-.93-.22-1.89,0-2.84-.18-.31,0-.63-.13-.94.09-.08.13-.16,0-.24s.36-.09.08-.24.16-.15-.07-.23-.12-.16.19-.24Z"/><path class="cls-2" d="M121.52,41.4c.3.08.4.16.19.24s.11.16-.08.23.17.15.08.24-.12.16,0,.24c-.14.31,0,.63-.13.94.19,1-.17,1.91,0,2.84.09.16,0,.32,0,.48s.12.32.06.47,0,.28,0,.47c-.22.16,0,.32-.06.47s-.08.16,0,.24.14.16,0,.24c-.25.16.15.31,0,.47h-.39c-.19-.16.21-.31,0-.47s0-.16,0-.24,0-.16,0-.24.15-.31-.07-.47c0-.19.18-.23,0-.47s.13-.31.06-.47-.12-.32,0-.48c.15-.93-.22-1.89,0-2.84-.18-.31,0-.63-.13-.94.09-.08.13-.16,0-.24s.35-.09.07-.24.17-.15-.07-.23-.12-.16.19-.24Z"/><path class="cls-2" d="M136.06,52.23c.25.27.25.49,0,.59s-.05.39-.3.48c-.09.06-.2.11-.18.22s.09.26,0,.31a.48.48,0,0,0-.31.47c0,.21-.24.29-.38.42s-.16.35-.34.44a.75.75,0,0,0-.4.4c-.07.2-.32.2-.46.32s0,.26-.12.29a.89.89,0,0,1-.29.09c-.19.05-.3.21-.45.32s-.4.06-.51.23-.25.34-.47.31c-.43-.09-.6.55-1.06.33a.75.75,0,0,0-.29,0c-.09,0-.16.15-.25.2s-.38-.07-.56,0a6.77,6.77,0,0,1-2.2-.05,2.63,2.63,0,0,1-1.06-.33c-.32-.19-.74-.18-1-.4s-.65-.38-.94-.61c-.15-.4-.54-.5-.77-.8a1.11,1.11,0,0,0-.37-.41c-.16-.1-.34-.21-.36-.42,0-.43-.53-.55-.53-1l.35-.17c.31.22.15.72.56.87.19.09.22.27.28.45a.78.78,0,0,0,.35.39c.26.22.4.61.81.65.16.08.25.24.39.36s.66.21.91.5c.45.31,1,.26,1.49.47a.85.85,0,0,0,.51.13c.38-.13.68.22,1,0a7.72,7.72,0,0,0,4.27-1.73c.4-.57,1-1,1.27-1.62a.39.39,0,0,0,.25-.45c0-.11.15-.11.25-.16s.07-.16.05-.26.3-.25.14-.5,0-.35.36-.42l.37.12Z"/><path class="cls-2" d="M111.35,64.82c-.26-.35-.27-.63,0-.88s0-.58.18-.84a.5.5,0,0,0,.11-.42c-.06-.15-.19-.29-.13-.43a.89.89,0,0,0,0-.84,6.45,6.45,0,0,0-.86-3.18c0-.14-.32-.11-.37-.23a2.43,2.43,0,0,1-.2-.36,2.5,2.5,0,0,0-.67-.52c-.26-.15-.37-.48-.65-.6A1.22,1.22,0,0,1,108,56c-.27-.58-1.07-.58-1.26-1.23a1,1,0,0,0-.66-.58c-.26-.16-.32-.52-.52-.73a6.84,6.84,0,0,1-1.7-3.11,4,4,0,0,1-.18-1.79,4,4,0,0,1,.46-1.79,6.06,6.06,0,0,1,1.36-1.27,14.68,14.68,0,0,1,1.77-.43c.31,0,.61.05.91,0a1.25,1.25,0,0,1,.91.15c.47.42,1.19.42,1.54,1l-.27.29c-.5-.22-.79-.86-1.43-.82a2.28,2.28,0,0,1-.79-.22,1.42,1.42,0,0,0-.84,0,2.26,2.26,0,0,0-1.56.51c-.22.15-.48.25-.7.42-.44.35-.55.91-.84,1.38a5.09,5.09,0,0,0,.07,2.48c0,.61.44,1.05.57,1.61,0,.34.68.93,1,1.39.18.22.53.29.68.54a1,1,0,0,0,.58.64c.65.17.7,1,1.31,1.15a1.23,1.23,0,0,1,.61.62c.15.27.5.29.71.5a8.4,8.4,0,0,0,1.1.84c.14.09,0,.36.17.45s.47.44.52.76a2.69,2.69,0,0,0,.35.86,3.37,3.37,0,0,1,.19.89,2,2,0,0,1,.15.9,1.22,1.22,0,0,0,0,.9c.06.16-.1.3-.17.44a.64.64,0,0,0,0,.45c.16.32-.23.57,0,.9s0,.62-.34.84l-.39-.08Z"/><path class="cls-2" d="M133.57,25.36c-.45,0-.75-.1-.87-.46s-.57-.32-.71-.66c-.09-.15-.17-.31-.34-.36s-.38,0-.47-.19c-.29-.57-.77-.49-1.21-.91-.34-.16-.61.14-.93.24a1.35,1.35,0,0,0-.73.54c-.18.27-.51.38-.75.6s-.09.36-.23.45a3.7,3.7,0,0,0-1.07,1c-.19.26-.56.36-.71.67a1.57,1.57,0,0,1-.63.74c-.64.28-.72,1.12-1.42,1.34a1.23,1.23,0,0,0-.68.7c-.19.27-.57.34-.81.56a42.79,42.79,0,0,1-5.35,4.22,9.13,9.13,0,0,1-1.64,1,6.07,6.07,0,0,1-.8.56,7.9,7.9,0,0,0-1.73.9,3.28,3.28,0,0,0-.86.47,1.91,1.91,0,0,1-.84.48c-.69.07-1.09.72-1.75.85l-.17-.35c.49-.46,1.24-.4,1.7-.92s1.24-.4,1.74-.86A6.34,6.34,0,0,0,114,35a5.81,5.81,0,0,1,.86-.44c1-.76,1.56-1,2.43-1.59s1.58-1.13,2.33-1.74c.4-.53,1.1-.68,1.46-1.26,2.27-1.81,4-4.13,6.2-6.12.23-.24.36-.58.67-.73a3.76,3.76,0,0,0,.81-.63,2.08,2.08,0,0,1,1.57-.33c.61.13.76.83,1.38.95.17.05.21.26.29.41a.68.68,0,0,0,.42.25c.37.06.41.53.81.55s.59.31.64.76l-.25.3Z"/></g></g><g id="子供_3" data-name="子供②"><g id="体-3" data-name="体"><path class="cls-2" d="M227.3,64c2.59,1.72,4.58,4.13,7.41,5.45a22.74,22.74,0,0,0,4.13,2.06c1.66.35,3.19,1.07,4.85,1.41a17.85,17.85,0,0,0-2.88,13.29,41.79,41.79,0,0,1-6.91-3.56c-2.06-1.28-3.61-3.13-5.44-4.7l.62-.16a19.79,19.79,0,0,0,.29,10.87,14.13,14.13,0,0,0,2.51,4.89c1.07,1.47,2.64,3.79.61,5.23-3.45,1.77-7.46.91-11.16.94-3.71.27-7.44.11-11.14.55l-5.54.62c-3.69.56-7.32,1.46-11.08,1.57-5.45.23-5.4-4.1-4.78-8.26.47-3.7,1-7.4,1.78-11,.4-1.82,1-3.61,1.52-5.39l.27.25a9.88,9.88,0,0,0-5.8,6.7A30,30,0,0,1,181.81,80a21.45,21.45,0,0,1-3.18-5.68c3.89-2.9,7.88-5.65,11.63-8.71,1.25-1,2.49-2,3.8-2.94l.25.3c-2.43,2.09-5.14,3.84-7.62,5.88-2.36,2.2-5.17,3.78-7.78,5.65l.06-.18a23.18,23.18,0,0,0,1.39,2.83,21,21,0,0,0,6.22,7l-.35.12a9.86,9.86,0,0,1,6-6.64c.54-.22.38-.25.26.25a88.56,88.56,0,0,0-3.27,16.37,15.11,15.11,0,0,0,.08,5.45c1.58,3.86,6.63,2.13,9.79,1.71,1.84-.33,3.7-.51,5.54-.8,3.57-.68,7.51-.83,11.12-1.18,3.72-.17,7.47,0,11.18-.23,4.35,0,8.27-.21,4.42-5.29a21.05,21.05,0,0,1-3.4-10.65,20.67,20.67,0,0,1,.65-6.41A12.14,12.14,0,0,0,231.44,80a28.68,28.68,0,0,0,9.07,5.34l-.46.37A17.55,17.55,0,0,1,243,73l.18.44A14.85,14.85,0,0,1,238.66,72a39,39,0,0,1-8.29-4.4,12.82,12.82,0,0,1-3.35-3.3l.28-.28Z"/><path class="cls-2" d="M227.72,99.48a7.6,7.6,0,0,1,1.07,3.18c.65,1.26.8,2.22,1.3,3.08a7,7,0,0,1,1.15,1.91,42.9,42.9,0,0,0,4.12,5.27c.55.66,1.06,1.35,1.65,2-.58.31-1.1.71-1.7,1-1,.44-2.13.6-3.12,1.07a21.92,21.92,0,0,1-6.52-.15,40.82,40.82,0,0,1-4.82-.21,23,23,0,0,1-3.22,0,9.18,9.18,0,0,0-3.22-.13c-1.08.06-2.15-.2-3.22-.15a28.88,28.88,0,0,0-6.37.65c-2.17.21-4.08,1.23-6.15,1.85a22.61,22.61,0,0,1-13.15-.62,44.5,44.5,0,0,0,2.49-3.91l1-1.91a22.2,22.2,0,0,0,1.7-3.94c1.06-1.91,1.3-4,1.91-6.11l.39.07a31.79,31.79,0,0,1-2.74,8.2,71.34,71.34,0,0,1-4.12,7.59l-.13-.39a19.92,19.92,0,0,0,12.53.57c2-.73,4.11-1.29,6.2-1.85A48.08,48.08,0,0,1,216,116a21.76,21.76,0,0,1,4.84.12c1.07.11,2.17-.11,3.24,0a20.5,20.5,0,0,0,3.21.3,11.33,11.33,0,0,0,4.71-.26c1.6,0,3-1,4.45-1.58l0,.4a60.67,60.67,0,0,1-4.5-5.11,26.08,26.08,0,0,0-1.86-2.87,6.89,6.89,0,0,1-.4-1.07c-.26-.72-.84-1.29-1.08-2-.37-1.5-1.53-2.72-1.25-4.38l.38-.09Z"/><path class="cls-2" d="M222.28,116.31a2,2,0,0,1,.46,1.71c-.11.61.33,1.13.21,1.74a1.53,1.53,0,0,0,.13.87,1.41,1.41,0,0,1,.22.86c0,1.16.49,2.17.54,3.47.34,1.13.3,2.33.72,3.44a8.54,8.54,0,0,0,.34,1.73l-.16-.2a42,42,0,0,0,4.65,2c1.07.15,1.33,1.34,1.4,2.25a2.2,2.2,0,0,1-.22,1.41c-.58.85-1.58.81-2.33,1.4a3.06,3.06,0,0,1-1.26.29c-.87.06-1.65.41-2.49.52s-1.61.58-2.57.49c-1-.26-1.19-1.33-1.58-2.11a38.12,38.12,0,0,1-1.46-7.5c-.56-2.48-.83-5-1.42-7.49a9.78,9.78,0,0,1-.43-2.51,16.07,16.07,0,0,1-.52-2.48l.39-.08c.39,1.22.28,2.54.79,3.73a45.55,45.55,0,0,0,1.16,6.25c.81,4.1.8,7.13,2.3,11.12a1,1,0,0,0,.83.63,7.61,7.61,0,0,0,2.42-.42,26.92,26.92,0,0,0,3.67-.95,2.56,2.56,0,0,0,2.25-2.28c.06-.84-.48-1.32-1.16-1.76s-1.61-.49-2.34-1-1.93-.48-2.5-1.21a8,8,0,0,0-.4-1.74,15.31,15.31,0,0,0-.55-2.59c-.06-.89-.39-1.72-.52-2.6a4.86,4.86,0,0,0-.25-1.74c-.26-.55.12-1.2-.22-1.75s-.07-1.18-.37-1.73a2.06,2.06,0,0,1-.12-1.77l.39,0Z"/><path class="cls-2" d="M205.21,116.63a2.07,2.07,0,0,1,0,1.83c-.19.6.06,1.23-.21,1.82,0,2.45-.2,4.87-.39,7.3a16.74,16.74,0,0,1-.1,2.74c-.06.3.19.61.12.92l-.1-.27a11.37,11.37,0,0,0,2.23,2.26,4.1,4.1,0,0,0,1.32.91c1.47.76,2.22,3.55.49,4.47a8.06,8.06,0,0,1-1.59.65c-.54.1-1.1,0-1.63,0-1.07.18-2.15.07-3.22.18a5.86,5.86,0,0,1-3.28-.38,2.1,2.1,0,0,1-.71-1.59c0-2.93.79-5.54.63-8.45a28.91,28.91,0,0,0,.21-3.61c.18-1.21,0-2.42.09-3.62.35-1.2,0-2.42.22-3.62l.39,0c.13,1.21-.33,2.4-.08,3.62a10,10,0,0,1-.17,1.8c-.15,2.42-.09,4.83-.29,7.24,0,.62.05,1.25,0,1.86-.4,1.83-1,4.4-.05,6,.81.62,2.06.17,3,.34s2.14-.21,3.21-.17a15.92,15.92,0,0,1,2.36-.32c.81-.09,1-1,1.21-1.61a1.7,1.7,0,0,0-.07-1.4c-.28-.39-.75-.59-1.12-1a5.13,5.13,0,0,0-1.25-1c-.92-.65-1.64-1.52-2.55-2.19-.15-.42.15-.73.14-1.12a16.82,16.82,0,0,1,0-2.75,8,8,0,0,1,0-1.83c0-2.13.35-4.28.36-6.4.26-1-.39-1.81.32-2.73l.39,0Z"/><path class="cls-2" d="M224,127.14c0,.3,0,.41-.1.23s-.07.13-.18,0-.09-.11-.09,0,0,.22,0,.17-.13-.08-.16,0c-.24-.07-.39.17-.65.06a2.39,2.39,0,0,1-1.24.29c-.17.18-.43,0-.6.23s-.33,0-.46.12-.2,0-.31.08-.07.13-.13.11c-.16-.18-.21,0-.32,0s-.15.27-.3.13-.16.2-.32.05l-.11-.37c.05-.21.27.14.3-.13s.1-.05.16,0,.12,0,.16,0,.24.08.28-.15c0,0,.12,0,.17,0s.12-.21.31-.09.27-.22.45-.15.39-.19.63-.14a2.38,2.38,0,0,1,1.2-.42c.15-.23.41-.12.58-.31.07.08.14.1.14-.06s.16.32.18,0,.14.13.13-.11c0-.42.28.29.32.51Z"/><path class="cls-2" d="M204.33,129.1c-.08.29-.15.39-.18.17s-.12.1-.16-.09,0-.14-.07-.08-.08.21-.1.14-.1-.12-.16,0c-.21-.16-.44,0-.64-.19a2.58,2.58,0,0,1-1.31-.19c-.23.11-.43-.11-.66,0s-.31-.14-.49-.06-.19-.06-.33,0-.11.09-.16.05c-.09-.23-.22-.05-.33-.1s-.24.2-.33,0-.23.12-.32-.07l0-.39c.13-.18.2.23.33,0s.11,0,.16.06.11,0,.17,0,.2.17.33,0c.06,0,.11.05.16.09s.2-.16.33,0,.34-.1.49,0,.44,0,.65.1a2.57,2.57,0,0,1,1.32.05c.23-.16.43,0,.66-.07.05.1.1.14.17,0s0,.37.16.09.09.18.17-.06.16.37.11.6Z"/><path class="cls-2" d="M225.72,65.6a.82.82,0,0,1-.65.86c-.41.06-.46.55-.86.63a.84.84,0,0,0-.46.27c-.09.16-.16.37-.34.43a1.66,1.66,0,0,0-.89.57,16.77,16.77,0,0,1-3.86,1.75c-.18,0-.27.29-.45.31a3.19,3.19,0,0,1-.54.06,6.25,6.25,0,0,0-1,.27c-.33.12-.72,0-1,.15a1.64,1.64,0,0,1-1,.21c-.72-.18-1.39.4-2.11.09a1.39,1.39,0,0,0-.53-.07,3.67,3.67,0,0,0-.52.14c-.35.08-.7-.12-1.05-.12a20.82,20.82,0,0,1-2.1-.09c-.71.07-1.36-.3-2.08-.27a19.15,19.15,0,0,1-3-.84,7.67,7.67,0,0,1-1.94-.81,5.63,5.63,0,0,1-1-.41,12.7,12.7,0,0,0-1.77-1.14,3.6,3.6,0,0,0-.86-.6,2.24,2.24,0,0,1-.86-.62c-.38-.63-1.17-.8-1.55-1.43l.28-.28c.61.35.87,1.1,1.57,1.35a2.52,2.52,0,0,1,.79.67,2.9,2.9,0,0,0,.84.59,5.73,5.73,0,0,0,1.81,1,7.05,7.05,0,0,0,1.86.88,21.35,21.35,0,0,0,8.05,1.67c4.13-.09,8.37-.59,11.77-3.07a1.35,1.35,0,0,0,.83-.59c.1-.15.32-.14.5-.19s.27-.21.37-.37c.14-.36.63-.31.73-.72a.83.83,0,0,1,.88-.56l.28.28Z"/><path class="cls-2" d="M241.17,77.26a1.16,1.16,0,0,1,1.23.51c.3.37.83.31,1.1.73s.93.15,1.18.6a3.45,3.45,0,0,0,1.18.59c.39.21.71.54,1.1.73a4.29,4.29,0,0,1,1.14.69,12.9,12.9,0,0,0,1.17.6c.37.25.66.61,1.18.6l-.51.13c.25-.41.68-.58,1-.88A2.86,2.86,0,0,1,252,80.9c.45,0,.84-.16,1.31-.24a1.91,1.91,0,0,1,1.24.39c.81.36,1.66.79,1.77,1.79.06.42.43.75.47,1.2a12.65,12.65,0,0,1-.14,1.27,4.16,4.16,0,0,1-1.08,2.26,2.17,2.17,0,0,1-1.08.68c-2.12,1-4.29-.19-5.41-2.06l.11.11a12.07,12.07,0,0,0-1.11-.62,12.6,12.6,0,0,1-2.25-1.16c-.81-.28-1.5-.79-2.29-1.09a3.5,3.5,0,0,1-1.17-.51c-.64-.61-1.57-.63-2.25-1.17l.17-.35c.84.21,1.43.94,2.3,1.08a3.68,3.68,0,0,1,1.11.62,26.34,26.34,0,0,0,3.45,1.61,12.64,12.64,0,0,0,2.27,1.13c.06,0,.08.08.12.12a4.23,4.23,0,0,0,1.5,1.72,4,4,0,0,0,3.32.26c.33-.2.62-.44.93-.66.67-.43.79-1.31,1-2a2.59,2.59,0,0,0-.11-1.14c-.08-.36.07-.81-.2-1.13-.54-.5-1-1.29-1.63-1.52-.73,0-1.55-.52-2.19-.08a6.79,6.79,0,0,0-1,.55c-.37.26-.6.94-1,1.34l-.18-.31c-.25-.44-.72-.51-1.12-.69a13.18,13.18,0,0,0-1.12-.71c-.83-.32-1.53-.86-2.36-1.18a3.48,3.48,0,0,0-1.11-.72c-.52,0-.62-.7-1.13-.7s-.72-.5-1.19-.57a1.18,1.18,0,0,1-1.07-.8l.2-.34Z"/><path class="cls-2" d="M182.72,80.81a1.21,1.21,0,0,1-.86,1c-.48.1-.6.62-1,.78a1.57,1.57,0,0,0-.55.35c-.14.17-.21.43-.39.55a2.91,2.91,0,0,0-1,.77,3.78,3.78,0,0,1-1.06.75c-.39.2-.65.57-1,.77a4.6,4.6,0,0,0-1.07.73,3.4,3.4,0,0,1-1.06.73l.1-.22a1.89,1.89,0,0,0,.14.73,7.48,7.48,0,0,1-.76,2c-.21.45-.67.69-1,1.08-.54.91-1.69.91-2.63,1.13s-1.36-.49-2-.78-1-1-1.46-1.52a5.42,5.42,0,0,1-.8-2.7,5.34,5.34,0,0,1,1.07-2.64A5.47,5.47,0,0,1,172.59,83l-.15,0a10.82,10.82,0,0,1,2-1.41c1-.73,2-1.37,2.9-2.18a2.58,2.58,0,0,1,.95-.75c.72-.4,1.12-1.17,1.85-1.56l.26.3c-.51.65-1.34.92-1.86,1.56a2.94,2.94,0,0,1-.91.81c-1.06.62-2,1.4-3,2.1-.55.68-1.38.94-2,1.49a5,5,0,0,0-4.91,1.31,2.9,2.9,0,0,0-1,2.31,2.3,2.3,0,0,0,.1,1.3c.2.4.33.81.54,1.21.31.61,1,.82,1.37,1.39s1.26.29,1.83.47a1.46,1.46,0,0,0,1.22-.2,7.41,7.41,0,0,1,1.1-.65c.39-.23.52-.7.77-1a2.68,2.68,0,0,0,.49-1.82.81.81,0,0,0,.13-.64v-.1a4,4,0,0,1,1.13-.91,4.47,4.47,0,0,0,1-.79c.31-.31.74-.44,1-.75a3.69,3.69,0,0,1,1-.78c.84-.34.7-.91,1.56-1.13a1.54,1.54,0,0,0,.42-.49c.23-.39.77-.42.94-.88a1.21,1.21,0,0,1,1.11-.68l.26.29Z"/></g><g id="顔-3" data-name="顔"><path class="cls-2" d="M177.57,75.94a31.5,31.5,0,0,1,1.94-5.23,53,53,0,0,0,2.3-8c.19-2.78,1-5.5.72-8.3.05-3.78-1.11-7.28-1.93-10.93-1.72-9.25-.14-19.32,5.92-26.73a18.87,18.87,0,0,1,3.89-4.09c3-2.25,6.06-4.55,9.68-5.71l2.68-.88c17.88-6.26,37.06,6.64,40,24.94A39.78,39.78,0,0,1,242,47.74c-.86,3.64-2.75,7-3.27,10.69-.26,1.83-.34,3.68-.44,5.54-.27,3.73.66,7.4,1.53,11l-.38.11C238.22,71.5,238,67.7,237.82,64a22.94,22.94,0,0,1,.54-5.6c.69-3.7,2.32-7.11,3.34-10.7a39.56,39.56,0,0,0-.73-22c-4.94-14.27-20.48-23.82-35.39-20a19,19,0,0,0-5.31,1.63c-3.26,1.72-6.81,3.08-9.49,5.71-1.33,1.28-2.67,2.54-3.9,3.93a27.42,27.42,0,0,0-5.59,12.54,28.38,28.38,0,0,0-.71,8.28,22.59,22.59,0,0,0,.63,5.5l1.35,5.43c1.1,3.68.59,7.51.33,11.26-.23,1.87-.92,3.64-1.13,5.52s-1.12,3.58-1.52,5.43a15.26,15.26,0,0,1-2.32,5.13l-.35-.16Z"/><path class="cls-2" d="M233.3,67.43c.31,0,.41.08.2.17s.13.11-.05.19.18.1.1.18-.1.14,0,.19c-.1.26.12.48,0,.76a4.13,4.13,0,0,1,.25,1.49c.18.21.06.51.25.71s0,.39.15.55,0,.24.12.36.13.08.13.15c-.17.2.05.25.07.38s.29.16.18.33.23.18.11.37l-.36.15c-.23,0,.09-.32-.19-.34-.12,0-.06-.11,0-.19s0-.14-.07-.18,0-.29-.2-.34c-.08-.14.1-.23-.12-.37s0-.26-.06-.38-.2-.21-.14-.36.05-.15,0-.2-.12-.1-.06-.18,0-.14-.08-.18,0-.14,0-.2a2.89,2.89,0,0,1-.39-1.49c-.22-.23-.08-.51-.25-.75.08-.07.12-.14-.05-.19s.35-.11.05-.2.15-.14-.09-.18-.13-.12.17-.21l.39,0Z"/><path class="cls-2" d="M228.59,66.44c.3.14.4.26.18.38s.11.24-.07.36-.14.13-.07.19.21.12.15.18-.11.25,0,.37,0,.24,0,.37.12.23.05.36-.09.26,0,.37,0,.25,0,.37c.24,1,.4,1.92.6,2.89,0,.12.16.21.18.33s0,.28.1.35,0,.49.33.67.23.7.51,1,.22.44.39.63a1.11,1.11,0,0,1,.27.26c0,.32.27.41.4.62a.4.4,0,0,0,.25.26c.13,0,.28.08.28.24,0,.35.44.25.48.56l-.26.29c-.31,0-.2-.52-.56-.52s-.15-.47-.49-.59c-.19-.17-.19-.49-.52-.55-.11-.09-.12-.24-.17-.36s-.42-.32-.41-.63-.49-.61-.56-1a13.35,13.35,0,0,1-1.28-4.36c-.25-.48-.1-1-.27-1.5.09-.13.13-.26,0-.38s.07-.13.14-.19,0-.13-.07-.19.15-.25-.08-.38-.11-.26.2-.38Z"/><path class="cls-2" d="M198.61,49a.68.68,0,0,1,.27.91c-.21.32.16.61,0,.93a.65.65,0,0,0,0,.47c.08.15.23.29.18.45-.14,1.32.23,3.2,0,4.66a62.28,62.28,0,0,1-1.4,14.8,11.11,11.11,0,0,0-.52,1.79,8.05,8.05,0,0,0-.68,1.74,3,3,0,0,0-.34.87,1.74,1.74,0,0,1-.32.88c-.48.46-.38,1.19-.83,1.67L194.6,78c.11-.62.73-1,.75-1.68s.67-1.05.73-1.69a5.22,5.22,0,0,0,.55-1.77A5.64,5.64,0,0,1,197,72a13.72,13.72,0,0,1,.47-1.78c.3-.89.25-1.83.5-2.72a3.17,3.17,0,0,0,.16-.91,2.21,2.21,0,0,1,.1-.92c.18-.55,0-1.11.19-1.84l.19-7.4c-.23-1.32,0-3.46-.32-4.61-.08-.15.05-.31.11-.47a.64.64,0,0,0-.1-.46c-.21-.29.11-.62-.15-.91s-.18-.6.11-.94l.39,0Z"/><path class="cls-2" d="M191.35,62.65c.34.12.44.27.25.45s.15.31,0,.49-.11.17-.05.24.23.14.17.22a.35.35,0,0,0,0,.48,25.9,25.9,0,0,1-.36,5.7c0,.65-.26,1.24-.26,1.88a3,3,0,0,1-.22.93c-.15.29,0,.65-.17.94a1.23,1.23,0,0,0-.19.44,1.06,1.06,0,0,1-.07.47c-.29.24-.21.6-.35.89a.79.79,0,0,0-.16.45c0,.17,0,.35-.12.46-.34.2-.09.64-.39.87l-.36-.15c0-.36.43-.5.31-.89s.4-.46.36-.86.34-.55.22-.92a1.66,1.66,0,0,1,.2-.43c.11-.29,0-.64.23-.9.21-.44.09-1,.29-1.38s0-.63.2-.92a.5.5,0,0,0,0-.46c0-.16.1-.31.11-.46a30.9,30.9,0,0,0,0-5.61.32.32,0,0,0-.06-.46c-.07-.07.07-.16.13-.24s0-.16-.1-.23.13-.33-.12-.46-.17-.28.13-.48l.38-.06Z"/><path class="cls-2" d="M185.6,65.22c.32,0,.44.15.25.31s.15.21,0,.35-.11.13,0,.18.22.09.17.15-.09.25,0,.35a13.32,13.32,0,0,1-.35,4.13c0,.11,0,.24,0,.35s-.16.2-.1.33-.24.36-.14.67-.3.62-.33,1-.2.41-.26.64,0,.25-.08.34c-.29.12-.22.4-.35.6a.37.37,0,0,0-.16.3c0,.13,0,.27-.13.32-.33.08-.11.48-.39.57l-.33-.21c0-.28.41-.27.31-.59,0-.15.09-.2.2-.27s.13-.18.15-.3.34-.34.23-.63c0-.11.13-.19.19-.28s0-.47.24-.63.1-.67.3-.95c.51-1.26.33-2.65.5-4-.18-.44,0-.89-.21-1.32.08-.12.11-.24-.06-.33s.06-.11.13-.18,0-.11-.1-.15.13-.25-.13-.32-.15-.19.13-.36l.38-.08Z"/><path class="cls-2" d="M230.83,28.41c1.17.86,1.31,2.26,1.83,3.46a5.38,5.38,0,0,1,.63,1.87c.14,1,.85,1.8.8,2.83a25.27,25.27,0,0,1,.57,7.32c-2.06-.92-4.21-1.48-6.3-2.28a10.28,10.28,0,0,1-2-.5,30.66,30.66,0,0,0-4-1.15,33,33,0,0,0-4.06-.89,40.3,40.3,0,0,0-4.06-1c-1.38-.38-2.46-1.37-3.78-1.88a6,6,0,0,1-1.66-1.3l-1.48-1.5a18.07,18.07,0,0,1-2.4-3.43l.32-.1a19.12,19.12,0,0,1-1.42,9.48,16.35,16.35,0,0,1-6.22,7.27c-.57.39-2.88,1.94-2.92.52A14.82,14.82,0,0,0,197,38.56a14.83,14.83,0,0,0-1.55-6.86l.35-.17a14.39,14.39,0,0,1,1.44,4.61,11.19,11.19,0,0,1,0,4.82c-.1,2.15-1.38,4.45-2.09,6.16,2.32-.32,4.13-2.44,5.74-4a12.56,12.56,0,0,0,2.53-4,30.78,30.78,0,0,0,1.31-4.55c.38-1.81.07-3.67.16-5.51a15.43,15.43,0,0,0,2.69,4,16.8,16.8,0,0,0,3.13,2.63c1,1,2.47,1.17,3.73,1.64.64.23,1.28.51,1.94.69,3.75.71,7.43,1.79,11.14,2.67a13.44,13.44,0,0,0,3,1,39.16,39.16,0,0,0,4,1.36l-.47.32a15.36,15.36,0,0,0-.16-3.83,11.75,11.75,0,0,0-.64-3.77c0-1.34-.78-2.42-1.11-3.67s-1.45-2.12-1.59-3.51l.34-.19Z"/><path class="cls-2" d="M233.15,43.78c.12.41,0,.69-.28.83s-.19.55-.49.72c-.12.1-.25.19-.26.35s.06.35-.06.45a1,1,0,0,0-.37.77,10.63,10.63,0,0,0-1,3.23c.13,2.26.63,4.62.1,7-.08.76-.46,1-.72,1.64a1.56,1.56,0,0,1-.56.71,3.77,3.77,0,0,0-.6.66,7.32,7.32,0,0,1-3.16,1.64,1.84,1.84,0,0,0-1.39.73c-.55.26-.67.89-.83,1.4a1.56,1.56,0,0,0-.15.83,2,2,0,0,1,0,.84c-.25.59.23,1.1.21,1.67l-.38.11c-.35-.55,0-1.2-.3-1.77a1.46,1.46,0,0,1,.1-.9,4.28,4.28,0,0,0,.17-.88,8.74,8.74,0,0,1,.82-1.65,1.69,1.69,0,0,1,.79-.52,5.5,5.5,0,0,1,1.7-.53,6.39,6.39,0,0,0,2.15-1.29,1.76,1.76,0,0,0,.63-.58,2.58,2.58,0,0,1,.51-.67c.27-.17.48-1,.71-1.52.09-.28-.07-.57,0-.84a2.35,2.35,0,0,0,.15-.42.92.92,0,0,0-.09-.43c-.35-.56.16-1.17-.13-1.74a1.19,1.19,0,0,1,0-.87c.08-.29-.15-.57-.13-.86a2.76,2.76,0,0,0-.07-.86,1.86,1.86,0,0,1-.13-.46c-.05-.15.19-.31.15-.46a9.55,9.55,0,0,1,.75-3.5,1.13,1.13,0,0,0,.36-.82c0-.16.19-.23.32-.33s.13-.26.15-.42c0-.36.42-.44.36-.81s.2-.58.62-.66l.33.21Z"/><path class="cls-2" d="M225.33,43.38c.31,0,.42.08.23.19s.13.12,0,.22.19.11.11.21-.09.16,0,.22c-.1.31.12.58,0,.89a6.81,6.81,0,0,1,0,2c-.07.07-.12.14,0,.21s.05.15,0,.22,0,.14,0,.22-.05.29-.06.43.07.31,0,.44,0,.26-.06.43c-.24.11-.08.28-.14.42s-.09.13,0,.22.12.17,0,.22c-.27.09.09.32-.11.42l-.38-.08c-.16-.18.25-.24,0-.43s0-.14.08-.2.06-.14,0-.21.2-.26,0-.43c0-.17.21-.18.08-.42s.17-.25.13-.41-.1-.29,0-.43c.21-.83-.16-1.69,0-2.54-.2-.27,0-.57-.22-.83.08-.08.11-.16-.06-.21s.35-.13,0-.22.14-.16-.11-.19-.14-.12.15-.24l.38-.08Z"/><path class="cls-2" d="M209.93,43.38c.31,0,.42.08.22.19s.14.12,0,.22.19.11.11.21-.09.16,0,.22c-.1.31.12.58,0,.89a6.81,6.81,0,0,1,0,2c-.06.07-.12.14,0,.21s0,.15,0,.22,0,.14,0,.22,0,.29-.06.43.08.31,0,.44,0,.26-.06.43c-.24.11-.08.28-.13.42s-.1.13,0,.22.12.17,0,.22c-.27.09.1.32-.11.42l-.38-.08c-.16-.18.25-.24,0-.43s0-.14.07-.2.06-.14,0-.21.19-.26,0-.43c0-.17.2-.18.07-.42s.17-.25.13-.41-.1-.29,0-.43c.2-.83-.17-1.69-.05-2.54-.2-.27,0-.57-.22-.83.08-.08.11-.16,0-.21s.34-.13,0-.22.14-.16-.11-.19-.13-.12.15-.24l.39-.08Z"/><path class="cls-2" d="M224,53.78c.26.25.28.47,0,.58s0,.38-.27.48-.2.11-.18.22.1.26,0,.31-.28.25-.31.46c-.51.53-.88,1.2-1.57,1.52-.1,0,0,.26-.14.28a1.42,1.42,0,0,0-.75.36c-.14.12-.39,0-.51.19s-.28.31-.49.25c-.41-.12-.65.48-1.08.21a.47.47,0,0,0-.28,0c-.08,0-.16.11-.25.15s-.37-.12-.55-.11-.36.07-.54,0a.71.71,0,0,0-.53-.1c-.38.08-.66-.29-1.05-.23-.55-.07-1-.49-1.47-.68s-.58-.42-.88-.61a1.29,1.29,0,0,1-.45-.31c-.11-.4-.49-.53-.69-.84a1,1,0,0,0-.31-.43c-.15-.12-.32-.23-.32-.44,0-.43-.47-.57-.44-1l.36-.14c.3.23.09.72.48.89.18.1.19.28.24.46a.69.69,0,0,0,.3.41c.23.24.33.63.73.7.25.23.41.56.78.64s.5.48.85.57a7.74,7.74,0,0,1,.95.36c.29.28.67.08,1,.27a6.48,6.48,0,0,0,4.77-1.2c.41-.54,1-.91,1.25-1.55a.35.35,0,0,0,.24-.43c0-.11.14-.11.25-.16s.06-.15,0-.25.28-.25.12-.49,0-.34.33-.42l.37.1Z"/><path class="cls-2" d="M199,57.23c.32-.09.46,0,.35.16s.22.13.13.32-.05.17,0,.18.23,0,.21.06,0,.26.16.3c.12.45.51.75.56,1.23a8.92,8.92,0,0,1,1.13,2.81c0,.13-.07.25,0,.35a.29.29,0,0,1,0,.34.41.41,0,0,0,.05.34c.09.24,0,.46-.08.69s0,.48-.07.68-.09.42-.2.66c-.28.13-.2.41-.33.6s0,.52-.28.62-.11.46-.39.55L200,66.9c0-.28.42-.25.32-.57,0-.14.09-.19.19-.26s.13-.17.15-.29.32-.33.19-.61c0-.11.11-.19.16-.28a.44.44,0,0,0,0-.32c0-.22.23-.38.19-.62s-.08-.42,0-.63c.12-.43-.13-.83-.12-1.26,0-.11-.25-.14-.22-.27s.14-.24-.07-.31c-.38-.07,0-.48-.3-.58-.16,0-.12-.18-.08-.32s-.18-.16-.19-.27,0-.23-.14-.3-.14,0-.17-.1.13-.18.06-.21c-.36-.3-.41-.77-.76-1.06,0-.15,0-.26-.19-.27s0-.13,0-.21-.07-.09-.15-.1,0-.27-.25-.22-.21-.11,0-.38l.31-.23Z"/></g></g><g id="子供_4" data-name="子供①"><g id="体-4" data-name="体"><path class="cls-2" d="M314.36,63.21c3-.42,6,.26,9-.27a18.51,18.51,0,0,0,4.45-.55c1.5-.52,3.1-.54,4.61-1a24.42,24.42,0,0,1,2.22,11.77c-2.73.16-6.32.59-9,.89l.29-.32a32.94,32.94,0,0,0,0,4.66c.11,2.41-.27,5.31-.22,7.75,0,2.07-.41,4.14-.5,6.18s.22,4.08.23,6.14v.24l-.2,0c-1.84.27-3.64.74-5.46,1.12-2.73.57-5.56.63-8.23,1.48-4.59.78-9.12,2.11-13.78,2.23a42.85,42.85,0,0,1-16.5-2.65l-.17-.07,0-.18.37-5.61c.37-5.61.48-11.23.54-16.85l.31.2c-1.39.66-2.77,1.38-4.2,2l-.26.11-.06-.26a16,16,0,0,0-6.54-9.13c2.3-2.2,4.94-4.3,8.11-5a51.64,51.64,0,0,0,8.6-3.57l.18.35a26.47,26.47,0,0,1-4.24,2c-4.34,1.58-9,2.93-12.27,6.35l0-.25a16.27,16.27,0,0,1,2.24,1.81,18.76,18.76,0,0,1,4.4,7.34l-.32-.14c1.37-.72,2.8-1.31,4.21-2l.33-.16c-.1,2-.11,4-.1,6,0,5.43-.61,11.41-.8,16.87l-.16-.24A43.12,43.12,0,0,0,292.18,103c1.85.11,3.69.31,5.55.25,4.65-.23,9.13-1.59,13.68-2.48,2.79-.26,5.46-1.17,8.21-1.62,1.84-.31,3.69-.51,5.51-.92l-.19.27c-.81-4.13.14-8.28.2-12.41.06-1.84.16-4.38,0-6.19a58.2,58.2,0,0,0,.07-6.47c2.68-.29,6.29-.55,9-1l-.31.32a19.72,19.72,0,0,0-.39-5.58A34.63,34.63,0,0,0,332,61.81l.33.16a21.53,21.53,0,0,1-4.41,1c-2.27.19-4.46.88-6.76.79a17.39,17.39,0,0,1-6.78-.17l0-.39Z"/><path class="cls-2" d="M317,100a9.47,9.47,0,0,1,.89,4,33.1,33.1,0,0,1,.69,4.08,13.57,13.57,0,0,1,.63,2.68c.79,3.58,2,7.07,2.72,10.67l.05.24-.17.08a58.16,58.16,0,0,1-5.43,2.81c-.65.22-1.16.75-1.81,1-1.94.63-3.83,1.4-5.8,2-.72.18-1.45.32-2.16.57-.89-2.77-.85-5.72-1.82-8.47-.57-2-.62-4.2-1.74-6-.3-.59-.58-1.33-1-1.57s-.86.88-1,1.33c-.36,1.15-.63,2.9-.9,4.09-.4,3.57-.8,7.14-.86,10.72a52,52,0,0,1-8.46-.13c-2.83-.06-5.53-.89-8.28-1.45v-.18c.35-4.08.93-8.14,1.36-12.22a41.64,41.64,0,0,1,.74-6.1c.35-2,.33-4.09.76-6.1l.39.06c-.1,2-.65,4-.81,6.09s-.56,4-.78,6.09c-.44,4.07-.74,8.15-1.27,12.21l-.14-.2c2.66.59,5.34,1.09,8.05,1.44a47.43,47.43,0,0,0,8.17,0l-.23.23c.33-2.8.34-5.63.75-8.43.3-1.4.9-10.6,3.57-7.11a10.9,10.9,0,0,1,1.1,3,26.36,26.36,0,0,1,1.26,4c.33,2.82,1.38,5.48,1.51,8.33l-.25-.17c1.12-.32,2.69-.92,3.84-1.23a23.85,23.85,0,0,0,3.73-1.55,14.65,14.65,0,0,0,3.68-1.66c1.16-.67,2.43-1.15,3.57-1.88l-.12.32c-1.14-4-2.27-8-3.13-12,.07-1.42-.62-2.69-.76-4.08-.19-1.85-1.18-3.53-.9-5.45L317,100Z"/><path class="cls-2" d="M316.46,124.39a1,1,0,0,1,.5.62c0,.24,0,.56.19.68s.25.38.42.57.48-.06.68.11c.45.35,1.07.06,1.56.3s1,.21,1.54.44a3.41,3.41,0,0,0,.78.26,1.23,1.23,0,0,1,.8.38c.22.24.31.5.63.65a1.29,1.29,0,0,1,.27.83,3.21,3.21,0,0,1,.15,1.65,4.88,4.88,0,0,0,0,.86,1.25,1.25,0,0,1-.45.77c-.43.37-.67,1-1.21,1.19-.26.11-.56.12-.82.21s-.43.37-.7.44a5.45,5.45,0,0,1-.81.12,4.48,4.48,0,0,1-1.57.31,4.25,4.25,0,0,0-.78.2c-.52.15-1.07,0-1.6.11a14.16,14.16,0,0,1-3.19,0,5.37,5.37,0,0,1-1.79-.09c0-.74-.36-1.41-.36-2.14a12.22,12.22,0,0,0-.3-2c.05-.7-.5-1.28-.43-2s-.42-1.29-.37-2l.38-.08c.31.63.08,1.37.43,2s.09,1.35.35,2a12.28,12.28,0,0,0,.39,2c.24.65.09,1.36.34,2l-.2-.19a5.19,5.19,0,0,1,.79,0c1.3.3,2.62,0,3.94.08a13.29,13.29,0,0,0,1.56-.19,9.36,9.36,0,0,0,2.32-.41c.25-.08.47-.27.7-.35s.56,0,.78-.15.4-.36.59-.52c.36-.31,1-.4,1.13-.91s.51-.83.48-1.35a10.15,10.15,0,0,0-.22-1.48c-.11-.23-.33-.38-.37-.62s-.21-.44-.4-.55a3.38,3.38,0,0,0-1.36-.5,11.49,11.49,0,0,0-1.55-.31c-.55,0-1-.45-1.55-.3-.32.07-.53-.39-.78-.47s-.62-.24-.71-.55-.37-.47-.56-.71a.87.87,0,0,1,0-.89l.38-.09Z"/><path class="cls-2" d="M295,128a.83.83,0,0,1,.38,1,.45.45,0,0,0,.16.3c.19.12.19.38.32.61s.54.17.62.45a1.28,1.28,0,0,0,.47.58c.5.22.64.77,1,1.11s.58.83,1,1.15a1.32,1.32,0,0,1,.5.61,2.18,2.18,0,0,0,.42.77,1.29,1.29,0,0,1-.12.87,2.39,2.39,0,0,1-.76,1.41c-.38.46-.49.91-1.18,1.07-.53.09-1,.53-1.52.49-.28,0-.53-.17-.79-.16s-.52.15-.78.09a6.39,6.39,0,0,1-.74-.24,4,4,0,0,1-1.47-.38c-.24-.07-.5-.09-.75-.14-.5-.09-.9-.47-1.41-.54a5.39,5.39,0,0,1-1.41-.56,22.07,22.07,0,0,1-2.86-1.48c.31-.62.12-1.35.4-2a13.1,13.1,0,0,0,.4-1.86c.28-.59,0-1.29.29-1.88s.05-1.27.33-1.87l.39.06c.07.66-.4,1.22-.29,1.89s-.4,1.22-.37,1.87a14.76,14.76,0,0,0-.32,1.88c0,.65-.37,1.22-.36,1.87l-.1-.23a5.9,5.9,0,0,1,1.3.72c.88.5,1.87.7,2.73,1.23a9.81,9.81,0,0,0,1.42.46,3.81,3.81,0,0,0,1.42.42,3,3,0,0,0,1.47.17c.24,0,.47.23.72.2a2.5,2.5,0,0,0,.71-.2c.44-.14,1,0,1.36-.28s.82-.47,1.09-.88.53-.79.57-1.25c0-.23-.12-.44-.09-.64s0-.42-.18-.58c-.37-.32-.51-.85-.95-1.11s-.62-.79-1.06-1.06-.51-.9-1-1.09c-.27-.09-.18-.53-.41-.66s-.53-.27-.58-.59-.3-.47-.46-.71a.84.84,0,0,1,.12-.86l.39,0Z"/><path class="cls-2" d="M333.34,64.67c1-.73,1.82,0,2.88-.34a8,8,0,0,1,1,.09c.49,0,.93-.38,1.44-.19.82.12,1.59-.3,2.4-.25a8.14,8.14,0,0,0,1.91-.18,8.59,8.59,0,0,0,1.89-.25,8.28,8.28,0,0,1,1.9-.36c.33,0,.59-.35.92-.35s.64,0,1-.09c.64-.1,1.25-.33,1.87-.46a3.64,3.64,0,0,0,1.79-.67,4.12,4.12,0,0,1,2-.13,3.11,3.11,0,0,1,1.06.18c1.25.5.89,2.07.25,2.94-.49.64-1.25.59-1.84.81-1.23.43-2.53.54-3.78.92l.16-.31c.37.93.59,1.87.94,2.81a2.84,2.84,0,0,1-1,2.82c-2.19,1.62-5.35.31-6.64-1.79-.21-.44-.23-.9-.71-1.13a2.47,2.47,0,0,0-1.34-.18,21.92,21.92,0,0,0-2.92.09,5.18,5.18,0,0,1-1.46-.12c-1-.11-2,.16-2.93,0l0-.39c1-.15,1.94.15,2.91.08a11.43,11.43,0,0,1,2.92.06c1,0,2-.29,3,.23s1.09,1.56,1.84,2.24a4.86,4.86,0,0,0,2.51,1.12,2.66,2.66,0,0,0,3.48-2.92c-.08-1.06-.77-2-1-3l.24,0a5.76,5.76,0,0,0,1.89-.36c.6-.21,1.25-.26,1.86-.44s1.13-.63,1.64-.84c.81-.43.38-1.61-.23-2-.76-.58-1.79-.18-2.59,0a9.75,9.75,0,0,0-1.86.58,92.12,92.12,0,0,1-9.52,1.9c-.8.2-1.62,0-2.42.17-.48.24-1-.12-1.46,0a7.79,7.79,0,0,1-1,.2c-1.07-.19-1.84.6-2.91,0v-.39Z"/><path class="cls-2" d="M274.24,73.45a1.89,1.89,0,0,1-1.47,1.07A3.41,3.41,0,0,0,272,75c-.25.16-.58.21-.85.35s-.42.45-.67.63A4.67,4.67,0,0,0,269,77c-.73.53-1.6.84-2.31,1.42a8.37,8.37,0,0,0-1.56.91,8.45,8.45,0,0,1-1.57.91,3.32,3.32,0,0,1-1.7,1,5.35,5.35,0,0,0-2.41-.43,5.69,5.69,0,0,0-1.1.47,2.15,2.15,0,0,0-1.64,1.53,2.73,2.73,0,0,0-.15,2.3,3.27,3.27,0,0,1,.26,1.23,2.2,2.2,0,0,0,2.61,1.83,3.89,3.89,0,0,0,2.29-.69,3.83,3.83,0,0,0,1.18-3.24c0-.15,0-.11.09-.19,2.74-1.72,5.54-3.31,8.35-4.92A11.67,11.67,0,0,0,272.91,78c.53-.37,1.22-.48,1.73-.89a8.25,8.25,0,0,1,1.65-1l.2.34a8.28,8.28,0,0,1-1.69,1c-.6.25-1,.8-1.6,1.09a11.76,11.76,0,0,0-1.73.89c-1.08.72-2.27,1.25-3.29,2.06-1.18.55-2.21,1.33-3.34,2a16.41,16.41,0,0,0-1.7.94l.09-.19c.58,3.11-2.32,5-5.14,4.22-1-.13-1.41-1.15-1.71-2-.47-.8-.24-1.68-.49-2.54A2.43,2.43,0,0,1,257,81.49a2.91,2.91,0,0,1,2.39-1.08,3.67,3.67,0,0,1,2.62.32l-.24,0a3.1,3.1,0,0,1,1.55-1,8.34,8.34,0,0,1,1.5-1c.83-.39,1.45-1.09,2.29-1.45a12.51,12.51,0,0,1,2.31-1.43c.27-.14.46-.41.71-.57s.63-.13.86-.33.43-.45.69-.61a3.4,3.4,0,0,0,.79-.44,1.93,1.93,0,0,1,1.6-.85l.21.33Z"/><path class="cls-2" d="M314.36,65.67c0,.44-.22.69-.58.7s-.41.45-.76.46a.58.58,0,0,0-.41.18c-.09.14-.14.34-.3.36a1.19,1.19,0,0,0-.79.42A13.31,13.31,0,0,1,308.17,69c-.15,0-.24.25-.4.24a4.59,4.59,0,0,0-1.33.13c-.29.08-.6-.08-.88,0a1.14,1.14,0,0,1-.88.11c-.59-.24-1.17.3-1.75,0a1,1,0,0,0-.88,0c-.29.06-.57-.15-.86-.15s-.59,0-.88,0a1.71,1.71,0,0,0-.87-.07c-.59.11-1.14-.22-1.74-.12a14.47,14.47,0,0,1-2.59-.51,5.27,5.27,0,0,1-1.67-.58,4.39,4.39,0,0,1-1.55-.83,12.13,12.13,0,0,1-1.49-1,1.53,1.53,0,0,1-.71-.52c-.27-.57-1-.7-1.23-1.27l.29-.26c.51.29.65,1,1.25,1.17a1.78,1.78,0,0,1,.64.58,2,2,0,0,0,.69.5c.5.28.9.74,1.52.8a4.72,4.72,0,0,0,1.56.68,12.56,12.56,0,0,0,3.34.77c1.13.26,2.3.11,3.45.27,3.45,0,7,.07,10-1.82a.94.94,0,0,0,.73-.43c.09-.13.28-.08.44-.1s.24-.16.32-.29c.13-.31.56-.2.65-.56s.36-.44.79-.39l.25.3Z"/></g><g id="顔-4" data-name="顔"><path class="cls-2" d="M305.59,16c.32-.21.57-.2.69.08s.45.08.58.34c.07.1.14.22.27.21s.29-.09.36,0a.67.67,0,0,0,.59.33,18.19,18.19,0,0,1,2.21,1.49c.07.09.29,0,.36.06a1.86,1.86,0,0,0,.75.67c.2.11.26.39.49.45s.47.14.56.37c.16.49.86.38,1,.93.07.27.27.36.51.43s.22.41.38.56.35.27.48.45a1,1,0,0,0,.42.52,1,1,0,0,1,.42.52,1.57,1.57,0,0,0,.44.49,5.46,5.46,0,0,1,.76,1.09c.19.41.59.68.77,1.09s.47.75.67,1.15c0,.49.38.8.54,1.21s.55.74.57,1.2.46.77.43,1.26l-.37.13c-.31-.35-.1-.9-.49-1.21s-.14-.88-.49-1.21-.25-.86-.65-1.14a2.94,2.94,0,0,1-.26-.6c-.19-.4-.58-.66-.68-1.11-.28-.61-.84-1-1.14-1.6-1.47-2.16-3.65-3.72-5.69-5.33-.81-.33-1.46-.94-2.3-1.23a.57.57,0,0,0-.58-.27c-.13,0-.16-.17-.23-.28s-.2-.08-.32-.07c-.28.07-.33-.33-.63-.2s-.44-.05-.52-.43l.14-.36Z"/><path class="cls-2" d="M302.43,18.08c.14.31.13.47-.12.44s-.09.28-.32.28-.19,0-.18.11.08.24,0,.26-.26.15-.27.31A22.41,22.41,0,0,0,299,23.71c-.1.56-.47,1-.52,1.58,0,.29-.18.52-.25.79s0,.57-.14.82-.09.53-.16.81c-.26.24-.13.54-.2.81s.13.59-.06.83.1.56-.1.82l-.39,0c-.17-.3.25-.55,0-.85s0-.28.09-.42a.58.58,0,0,0,.05-.41c0-.29.23-.54.07-.85a1,1,0,0,1,.15-.4c.09-.27,0-.59.18-.83.19-.39.09-.86.32-1.23a.58.58,0,0,0,.17-.39.46.46,0,0,1,.13-.4.42.42,0,0,0,.12-.4c0-.15.16-.25.2-.38a19,19,0,0,1,2.29-4.54c.16-.06.28-.14.24-.35s.15-.07.25-.08.07-.12.07-.21.3-.12.21-.38.1-.29.42-.2l.3.25Z"/><path class="cls-2" d="M292,21.5c.22.29.21.47,0,.54s0,.35-.28.43c-.09.06-.19.11-.17.21s.13.24,0,.29a.38.38,0,0,0-.21.46c-.39.58-.45,1.29-.83,1.87-.35,1.67-1,3.32-1.25,5a.71.71,0,0,1-.08.51.88.88,0,0,0,0,.51,3.85,3.85,0,0,1-.14,1c-.1.34.06.7,0,1s0,.68,0,1c-.23.34-.05.68-.08,1a.81.81,0,0,0,0,.51c.07.17.16.34.06.51-.24.36.18.68,0,1l-.39,0c-.21-.33.16-.7-.1-1s.19-.65,0-1,.15-.68-.05-1a1.53,1.53,0,0,1,.08-.52c0-.35-.13-.7.06-1,.13-.51,0-1,.14-1.54.21-.33,0-.71.17-1a.64.64,0,0,0,.06-.51,2.85,2.85,0,0,1,.14-.5,28.6,28.6,0,0,1,1.56-6,.42.42,0,0,0,.18-.49c0-.1.14-.13.23-.18s.06-.16,0-.27.29-.25.15-.5,0-.37.39-.39l.35.17Z"/><path class="cls-2" d="M284.67,29.51c.23.28.23.46,0,.53s0,.35-.26.44c-.08.05-.18.11-.15.21s.14.22.05.28a.37.37,0,0,0-.18.46c-.34.59-.34,1.28-.65,1.89-.25,2-.74,4-.43,6a4.22,4.22,0,0,1,.08,1c0,.35.21.65.22,1s.15.65.22,1c-.14.37.13.65.19,1a.75.75,0,0,0,.14.48c.11.14.24.27.2.46-.13.4.36.58.31,1l-.36.15c-.3-.25,0-.71-.39-.94-.16-.13-.13-.32-.13-.5a.76.76,0,0,0-.14-.49c-.13-.32,0-.69-.33-1-.09-.34,0-.7-.2-1s0-.69-.1-1a3.12,3.12,0,0,1-.13-1,1.1,1.1,0,0,0,0-.51.65.65,0,0,1,0-.51.61.61,0,0,0,0-.51,2.94,2.94,0,0,1,0-.51c0-.17-.19-.35-.11-.52s.14-.16.15-.25a.45.45,0,0,0-.07-.26c-.31-.37.26-.66,0-1-.1-.19,0-.35.13-.5s0-.35,0-.52a1,1,0,0,0,.05-.77c0-.1.22-.13.2-.22a13.93,13.93,0,0,1,.42-2,.39.39,0,0,0,.14-.49c0-.1.14-.14.23-.19s0-.17,0-.27.27-.26.12-.5,0-.37.37-.4l.36.16Z"/><path class="cls-2" d="M275.66,34.11c.27.2.35.37.12.49s.06.31-.14.44-.16.13-.11.22.19.18.12.24-.15.29-.08.45c-.21.59-.09,1.22-.32,1.81.05,1.84-.36,3.67-.16,5.5a3.15,3.15,0,0,1,0,.92c-.05.32.15.61.12.91s.06.6.08.92c-.19.32,0,.61,0,.92a.64.64,0,0,0,.05.45c.07.15.18.29.09.45-.21.34.23.59.09.92l-.39,0c-.23-.28.12-.64-.16-.91s.14-.59-.07-.92.09-.63-.15-.92a1.26,1.26,0,0,1,0-.47c0-.31-.21-.6-.07-.92s-.18-.92-.08-1.39-.13-.61,0-.92a.47.47,0,0,0,0-.46c0-.16.06-.31.05-.47a41.07,41.07,0,0,1,.16-5.55.34.34,0,0,0,0-.47c-.05-.08.1-.14.18-.21s0-.15,0-.24.21-.28,0-.47-.06-.32.26-.43l.39.06Z"/><path class="cls-2" d="M269.7,47.82a1.56,1.56,0,0,1-.42-1.47c.16-.53-.25-1-.13-1.51a1.67,1.67,0,0,0,0-.77,1.42,1.42,0,0,1-.23-.73c0-2.51-.48-5-.28-7.57.05-.26-.19-.51-.15-.76a6.63,6.63,0,0,1,.11-.76,10.87,10.87,0,0,0,0-1.51,13,13,0,0,0,.11-1.52,3.5,3.5,0,0,1,0-1.51c.3-1-.18-2,.23-3a3.1,3.1,0,0,0,.09-1.51,9.62,9.62,0,0,1,.31-1.49,24.48,24.48,0,0,1,8.9-15.47c.88-.52,1.46-1.43,2.38-1.89s1.61-1.23,2.58-1.6l.19.34c-.76.67-1.82.87-2.5,1.65a26.48,26.48,0,0,0-2.41,1.8,32.81,32.81,0,0,0-3.19,3.16,26.24,26.24,0,0,0-4,6.32,19.26,19.26,0,0,0-1.73,7.24,2.71,2.71,0,0,0-.19,1.49c.26,1-.33,2-.12,3a3.62,3.62,0,0,1-.13,1.5,12.68,12.68,0,0,0,0,1.51,9,9,0,0,0,.07,2.26c0,.25-.18.5-.14.75.19,2,.12,4,.41,6a3.06,3.06,0,0,0,.17,1.5c.1.57-.25.85.09,1.5.24.47,0,1,.27,1.48a1.6,1.6,0,0,1,0,1.52l-.38.06Z"/><path class="cls-2" d="M274.58,0a4.88,4.88,0,0,1,2.47.69c.74.49,1.66.38,2.44.75a7.45,7.45,0,0,0,2.52.42,6.76,6.76,0,0,0,2.53.32,26.94,26.94,0,0,0,5.08,0c1.72-.05,3.33-.71,5-.93.43-.05.8-.38,1.23-.42.84-.13,3-.33,3.89-.46a47.48,47.48,0,0,1,5.2,0c1.69.38,3.5.13,5.12.85a11.6,11.6,0,0,0,2.52.68c11.07,3.91,17.69,14,20.69,25a13.25,13.25,0,0,0,2.32,4.49c.87,1.5,2.47,2.3,3.85,3.24l-.19.35c-1.65-.69-2.78-2.1-4-3.3a6.36,6.36,0,0,1-1.36-2.24L333,27c-2.78-9.73-8.51-19.47-18.09-23.71-1.76-.52-3.54-1.45-4.87-1.57-1.72-.07-3.32-.86-5.06-.74a31.14,31.14,0,0,0-5.11,0c-2.09,0-3.06.61-5.05.77a39.47,39.47,0,0,1-5.07,1.11,26.78,26.78,0,0,1-5.22.13,12.52,12.52,0,0,0-2.59-.28,3.82,3.82,0,0,1-1.26-.38,5.51,5.51,0,0,0-1.29-.2c-.89,0-1.63-.59-2.53-.63A4,4,0,0,1,274.43.36l.15-.36Z"/><path class="cls-2" d="M321,26.26c.33,0,.48.08.35.3s.22.2.11.41-.06.18,0,.22.25,0,.22.13,0,.3.15.39a37.9,37.9,0,0,1,1.63,4.78c.3.49.27,1.08.54,1.59.17.24.13.54.21.81s.25.52.27.8a1,1,0,0,0,0,.42,1.22,1.22,0,0,1,.17.39c-.15.32.09.56.11.84a.6.6,0,0,0,.09.41c.09.12.2.24.13.4-.2.32.25.52.11.83l-.38.07c-.24-.24.1-.58-.2-.81s.12-.52-.12-.82,0-.58-.25-.8a1.18,1.18,0,0,1,0-.42c0-.28-.29-.49-.21-.8s-.34-.78-.35-1.21-.26-.49-.21-.8a.38.38,0,0,0-.15-.39c-.06-.12,0-.28-.08-.41-.74-1.51-1.13-3.15-2-4.58,0-.16,0-.31-.19-.37s0-.16,0-.25-.07-.12-.15-.16c-.23,0,0-.32-.24-.34s-.23-.2,0-.46l.36-.17Z"/><path class="cls-2" d="M327.43,34.14c.33,0,.47.14.3.33s.18.22,0,.4-.09.16,0,.21.23.08.19.16-.06.29.06.4a15.91,15.91,0,0,1,.18,4.77,14.16,14.16,0,0,1-.11,1.59c.06.27-.11.52-.16.78s0,.54-.1.79a.87.87,0,0,0-.16.37c0,.13,0,.28,0,.4-.28.19-.18.5-.3.74a.46.46,0,0,0-.13.37c0,.15.05.31-.1.39-.33.15-.06.55-.34.72l-.36-.16c-.07-.31.4-.39.26-.73s.36-.35.3-.71.31-.45.17-.76a1,1,0,0,1,.17-.36.86.86,0,0,0,0-.39c0-.26.24-.47.22-.75s0-.53.11-.77a.52.52,0,0,0,.09-.38.4.4,0,0,1,0-.38,31.4,31.4,0,0,0-.09-3.88c-.24-.48-.14-1-.39-1.5.07-.14.08-.28-.1-.37s0-.14.09-.22,0-.12-.12-.17.09-.29-.17-.35-.18-.21.07-.43l.37-.11Z"/><path class="cls-2" d="M331.7,34c.31-.09.46,0,.35.18s.22.13.12.33-.06.16,0,.18.24,0,.21.08,0,.26.14.32c.08.47.42.84.38,1.33,0,.07.21.06.19.13-.07.28-.12.24,0,.53.06.1-.11.25,0,.34s.22.21.11.34.32.44,0,.68c-.16.15-.06.23,0,.35s-.14.22-.13.33.05.24,0,.35-.14.21-.07.33a.31.31,0,0,1-.07.33.4.4,0,0,0,0,.34c0,.25-.15.43-.22.65s-.05.47-.2.65-.15.4-.3.62-.25.37-.4.55a.37.37,0,0,0-.2.28c0,.12,0,.27-.17.29-.33,0-.18.45-.47.5l-.29-.27c0-.28.45-.19.39-.52,0-.14.12-.18.23-.23s.15-.16.18-.27.37-.29.28-.58c0-.11.14-.17.21-.26s0-.41.26-.59.1-.65.28-.92c.07-.1.15-.19.12-.31-.14-.32.25-.32.06-.64a10.41,10.41,0,0,0-.26-2.87c-.29-.35-.27-.81-.58-1.14,0-.13,0-.25-.17-.27s0-.13,0-.21-.06-.09-.14-.1,0-.27-.23-.23-.21-.11,0-.37l.32-.23Z"/><path class="cls-2" d="M318.51,38.31c.29,0,.39.1.21.2s.12.14,0,.24.17.13.1.23-.09.16,0,.23a13.2,13.2,0,0,1-.15,2.8c.09.32-.12.61-.05.92s-.06.31-.09.46.06.33,0,.47,0,.28-.09.46c-.23.1-.1.29-.16.43s-.11.14-.06.23.09.18,0,.23c-.27.09,0,.34-.17.44l-.35-.11c-.12-.19.28-.23.1-.44s.25-.19.15-.43.21-.27.05-.46.06-.14.1-.21-.1-.3.08-.44,0-.47.09-.68a20.34,20.34,0,0,0,.1-2.71c-.17-.29,0-.6-.18-.89.08-.08.11-.16,0-.22s.31-.13,0-.23.13-.17-.1-.22-.13-.13.14-.25l.36,0Z"/><path class="cls-2" d="M303,38.33c.27.09.36.17.16.24s.1.15-.08.22.15.15.06.23-.11.15,0,.23c-.14.3,0,.61-.16.9.14.92-.23,1.83-.13,2.73.1.23-.12.45,0,.68s0,.29,0,.46.09.15.06.23c-.21.14,0,.3-.08.45s-.08.15,0,.23.13.15,0,.23.12.3-.06.45l-.36,0c-.16-.15.21-.29,0-.45s.2-.24.05-.45.15-.3,0-.46c0-.18.17-.23,0-.46s.14-.28.08-.45-.1-.31,0-.45c.17-.9-.13-1.83.09-2.73-.16-.31,0-.61-.09-.92.09-.07.13-.14,0-.23s.33-.07.08-.22.16-.15-.06-.23-.1-.16.18-.22Z"/><path class="cls-2" d="M317.78,51.06c.18.35.11.61-.19.7s-.17.45-.46.53c-.12.06-.25.1-.27.23s0,.31-.12.36a.73.73,0,0,0-.51.48A11.05,11.05,0,0,1,308.59,56a5.17,5.17,0,0,1-.68,0,1.14,1.14,0,0,0-.68-.06c-.47.1-.88-.24-1.36-.16a8.62,8.62,0,0,1-2-.63,1.45,1.45,0,0,1-.64-.26,9.58,9.58,0,0,0-1.17-.74c-.22-.46-.68-.62-1-1a1.89,1.89,0,0,0-.44-.53.94.94,0,0,1-.43-.55c0-.51-.58-.74-.57-1.26l.37-.13c.31.32.16.89.6,1.15.21.12.25.35.34.56a1.14,1.14,0,0,0,.41.51c.31.29.52.73,1,.84a3.28,3.28,0,0,1,.49.43c.36.26.83.3,1.16.61a9.72,9.72,0,0,0,1.88.58c.41.26.88,0,1.31.21a.89.89,0,0,0,.66,0c.22,0,.44.06.66,0s.44-.21.66-.15a.57.57,0,0,0,.66,0c.38-.38.91.08,1.29-.27.18-.17.41-.13.65-.1s.39-.22.61-.26a1.45,1.45,0,0,0,.61-.22,1.38,1.38,0,0,1,.26-.23c.08-.08.28.08.36,0s.3-.35.54-.38a.84.84,0,0,0,.54-.36c.12-.19.37-.21.52-.38s.24-.38.45-.47a.56.56,0,0,0,.44-.47c0-.12.2-.11.32-.15s.13-.17.15-.3.39-.25.3-.57.11-.41.49-.46l.35.18Z"/><path class="cls-2" d="M325,45.43c.29.32.34.63.1.9s0,.61-.21.87a.65.65,0,0,0-.15.43c0,.16.15.33.05.46a1.23,1.23,0,0,0-.23.87,2,2,0,0,1-.31.84c-.12.27-.1.59-.29.84a2.13,2.13,0,0,0-.35.82c0,.31-.3.51-.43.77s.07.33,0,.45a2.6,2.6,0,0,0-.49,1.19c0,.28-.29.52-.25.82a1.3,1.3,0,0,1-.05.85c-.28.57.24,1.28-.29,1.79a1.49,1.49,0,0,0-.37.86c-.11.3-.46.43-.65.65a2.55,2.55,0,0,1-1,.88c-.67.7-1.17.65-1.92,1.13a5.21,5.21,0,0,1-1.72.49,10.86,10.86,0,0,1-1.77.28,11.71,11.71,0,0,0-1.77-.08,1.23,1.23,0,0,0-1.43.41c-.52.36-.29,1-.46,1.52s.17,1.12.1,1.7l-.39.07c-.29-.57,0-1.19-.18-1.79a1.23,1.23,0,0,1,.19-.91c.27-.56.56-1.24,1.27-1.33a3.16,3.16,0,0,1,1.8-.06,2.75,2.75,0,0,0,.86,0,7.41,7.41,0,0,0,1.7-.13,9.42,9.42,0,0,0,4.5-2.36c.2-.2.2-.55.41-.73s.24-.18.32-.3c.18-.39,0-.83.18-1.22a1.32,1.32,0,0,0,.06-.88,1.16,1.16,0,0,1,.19-.88c.15-.27,0-.61.15-.89a4.18,4.18,0,0,0,.26-.85,1.7,1.7,0,0,1,.06-.46c0-.16.29-.21.3-.36a23,23,0,0,0,1.11-3.28,1,1,0,0,0,.18-.84c0-.16.13-.27.23-.4a.5.5,0,0,0,0-.43c-.13-.31.25-.55.05-.87s-.06-.57.28-.84l.39,0Z"/><path class="cls-2" d="M290.77,64.86a1.06,1.06,0,0,1-.22-1.2c.22-.41-.13-.8,0-1.21a1,1,0,0,0,0-.6c-.08-.2-.24-.38-.2-.59a1.75,1.75,0,0,0-.13-1.19,5.69,5.69,0,0,1-.17-1.17,3.79,3.79,0,0,0-1.07-2,19.41,19.41,0,0,0-4.81-3.55c-.53-.66-1.52-.67-2-1.44a2.29,2.29,0,0,0-1-.76c-1.36-1.52-2.93-3-3-5.29a6.68,6.68,0,0,1,.88-3.6,3.94,3.94,0,0,1,1.74-1.8,4.74,4.74,0,0,1,3.67-.46l1.17.45a2.14,2.14,0,0,1,1.07.66c.46.71,1.29,1.13,1.52,2l-.35.18c-.49-.59-.69-1.47-1.47-1.81a6.06,6.06,0,0,1-.95-.67,5.22,5.22,0,0,0-2.24-.63,7,7,0,0,0-2.22.62,6.33,6.33,0,0,0-1.59,1.67,6.7,6.7,0,0,0-.81,3.38,2.73,2.73,0,0,0,.13,1.17,5.18,5.18,0,0,0,1.15,2c.27.28.48.64.76.93s.68.44.92.76a1.62,1.62,0,0,0,.89.8c.82.22,1.19,1.1,2,1.33a2.45,2.45,0,0,1,1,.71c.29.29.74.33,1.07.59s.64.53,1,.72a3.19,3.19,0,0,1,.55.29c.19.1.2.41.39.51a6.44,6.44,0,0,1,1.73,1.83,3.47,3.47,0,0,1,.44,1.21A3.47,3.47,0,0,1,291,60a2.26,2.26,0,0,0,.17,1.23c.08.19,0,.41-.09.62a1.06,1.06,0,0,0,.11.6c.21.4-.12.83.13,1.22a1.09,1.09,0,0,1-.16,1.23Z"/></g></g></g></svg>