<svg xmlns="http://www.w3.org/2000/svg" viewBox="0 0 356.19 139.22"><defs><style>.cls-1{fill:#f8fdfe;}.cls-2{fill:#343838;}</style></defs><g id="子供たち_清書_" data-name="子供たち（清書）"><g id="枠"><path class="cls-1" d="M322.31,60.3c-.92.9-1.46,1.11-1.4,1.28s.84,0,2.33-.16c1.89-.24,1.67-.12,2.95-.31s2-.39,3.27-.68a21.65,21.65,0,0,1,2.17-.56c1.21-.19,1.52,0,1.7.09s.24.21.69,1.53c.32,1,.31,1.1.51,1.28.39.36.94.31,1.74.25,2.58-.17,1.19.1,2.94-.12,1-.13,2-.29,4.47-.77,1.86-.36,2.79-.54,3.74-.77,1.56-.37,2.35-.55,3.32-.85a14.68,14.68,0,0,1,2.76-.72,4.67,4.67,0,0,1,2.26.13,3.35,3.35,0,0,1,1.45.89,3.53,3.53,0,0,1,.76,2.85,3.88,3.88,0,0,1-.93,2,4.24,4.24,0,0,1-1.58,1.11,9.88,9.88,0,0,1-1,.29c-1.31.35-1.5.29-1.66.51-.27.38.13.71.09,1.75a4.43,4.43,0,0,1-.43,1.7,6,6,0,0,1-.85,1.36,4.7,4.7,0,0,1-1.19,1.28,3.83,3.83,0,0,1-2.38.42,6.71,6.71,0,0,1-1.83-.38,7.55,7.55,0,0,1-2.51-1.19c-1.08-.83-.85-1.28-1.75-1.79a7.11,7.11,0,0,0-2.55-.47c-2.3-.2-2.58.05-2.69.17s-.24.8-.29,1.92,0,1.3-.18,1.66a2.34,2.34,0,0,1-1.39.81,7.53,7.53,0,0,1-2.13.25l-2.34.09c-2.11.08-2.31.17-2.47.3-.61.49-.46,1.43-.38,3.1.09,2.09-.15,4.17-.17,6.26,0,3.31,0,3.51-.09,4.08-.14,1.76-.3,2.08-.47,4.26a11.08,11.08,0,0,0,.05,3.87c.38,1.31,1,1.73.72,2.38s-1.32,1-2.68,1.28c-1.07.25-1.45.18-3.32.47s-2,.42-2.09.55c-.52.6-.11,1.39.35,4,.37,2.15.19,2.17.59,4.09.25,1.21.52,2.17.77,3,.28,1,.34,1.11.93,3,0,0,.39,1.25,1.1,3.94.44,1.67.51,2,.31,2.44-.11.22-.33.55-2.22,1.58-1.39.76-1.89.92-1.87,1.15s1.38.21,3.28,1a4.79,4.79,0,0,1,2,1.32,4.28,4.28,0,0,1,.89,2,5.17,5.17,0,0,1-.38,3.49A5.57,5.57,0,0,1,323,134.9a10.9,10.9,0,0,1-3.75,1.36c-.59.13-.38.05-4.34.47a19.54,19.54,0,0,1-3,.12c-1.84-.07-2.23-.37-2.43-.59A5,5,0,0,1,309,134c-.09-.73-.11-1.09-.21-2-.21-1.91-.32-2.17-.56-2.33s-.73-.13-1.65,0-.94.18-1.15.08c-.52-.23-.51-1.06-.72-3,0,0-.14-1.26-.43-3,0-.32-.22-1.17-.55-2.85-.28-1.38-.5-2.48-.9-3.87-.45-1.58-.58-1.62-.63-1.62-.24,0-.34,1-.77,4.56-.31,2.59-.34,2.73-.43,3.61a22.92,22.92,0,0,0-.25,4.22,1.47,1.47,0,0,1,0,1.06,1.94,1.94,0,0,1-1.41.77c-.76.1-1.23-.19-1.31-.05s.41.53,1.14,1.24a7.45,7.45,0,0,1,1.62,1.83,4.89,4.89,0,0,1,.51,2.08,5.22,5.22,0,0,1-.17,2.39,5.05,5.05,0,0,1-3.27,2.72,7.87,7.87,0,0,1-3.83,0c-.47-.08-1.82-.48-4.52-1.28,0,0-.82-.25-3.31-1.32a2.92,2.92,0,0,1-1.41-1,3,3,0,0,1-.42-1.53,5.85,5.85,0,0,1,.34-2.39,9.21,9.21,0,0,0,.4-1.09,2.53,2.53,0,0,0-.15-1.84c-.09-.15-.31-.45-1.66-.9-1.69-.56-2.07-.33-2.42-.76s-.29-.69,0-2.77c.22-1.37.42-2.39.42-2.42.38-1.89.26-2.22.6-4.77.37-2.76.51-2.34.72-4.3.32-2.92-.09-2.94.3-5.27.19-1.13.13-2.3.43-3.41a1.7,1.7,0,0,0,0-1.36c-.25-.39-.74-.4-1.74-.59a5.85,5.85,0,0,1-2.43-.73c-.62-.55-.46-1.52-.21-3.66,0,0,.14-1.25.59-6.08.29-3.1.11-2.7.34-4.34a22.65,22.65,0,0,0,.3-3.58c0-2.06-.29-2.33-.47-2.42-.76-.39-1.92,1.32-2.91.88-.35-.15-.55-.52-1-1.27-.51-.93-.37-1.17-.64-1.36-.54-.39-1.5.31-4.59,2.09l-3,1.74c-1.76,1-1.95,1.1-2.28,1.47-.83.94-.6,1.51-1.64,2.74a6.19,6.19,0,0,1-1.45,1.28,5.88,5.88,0,0,1-2.08.77,5.11,5.11,0,0,1-2.3-.09c-.9-.26-.83-.55-1.49-.68-1.08-.22-1.41.53-3,.72a5.74,5.74,0,0,1-2.59-.29,5.26,5.26,0,0,1-1.69-.91c-.68-.56-.68-.88-1.21-1.43s-1-.6-3.1-1.58c-1.82-.83-2.35-1.22-2.64-1-.48.41.57,1.85,0,2.47-.36.39-1.14.21-2.47-.13a15.19,15.19,0,0,1-3-1.1c-.46-.24-.31-.2-2.81-1.83-1.82-1.19-1.77-1.13-2.13-1.41-1.14-.88-1.47-1.36-1.74-1.23-.43.19-.22,1.56,0,3a19,19,0,0,0,.47,2.21,15.68,15.68,0,0,0,.93,2.81c.27.56.31.54,1.19,2a25.32,25.32,0,0,1,1.71,3.06,5.6,5.6,0,0,1,.68,3,3.05,3.05,0,0,1-.68,1.79,4,4,0,0,1-1.28.81,7,7,0,0,1-1.66.58c-.84.17-1.09,0-1.28.27s0,1,.43,1.87a32.22,32.22,0,0,0,2,3.53c.27.41.63.94,1.09,1.6.09.13.43.61.91,1.25.75,1,1.2,1.63,1.83,2.39.47.56.92,1.14,1.4,1.7s.82.9.81,1.36A1.58,1.58,0,0,1,238,116a5.94,5.94,0,0,1-2.51,1.43,18.91,18.91,0,0,1-3.66.87,11.9,11.9,0,0,1-3.44.17c-.94-.12-1.88-.19-2.81-.3-.73-.08-1.17-.13-1.39.13s-.06.64.2,1.75c.12.53.21,1.08.34,1.61.4,1.75.29,2.46.7,4.64a8,8,0,0,0,.49,1.58,3,3,0,0,0,.47.85,2.68,2.68,0,0,0,1.25.76,9.58,9.58,0,0,1,3.09,1.56,4.51,4.51,0,0,1,1.12,1.57,4.36,4.36,0,0,1,.37,3.09c-.5,1.51-2,2.18-3.05,2.63s-.87.13-3.44.79c-1.92.49-2.72.86-3.94.58a3.77,3.77,0,0,1-1.37-.61,4.6,4.6,0,0,1-1.5-2.37,19.91,19.91,0,0,1-.87-3.51c-.47-2.33-.4-1.78-.66-3.19-.44-2.3-.78-4.62-1.07-6.56-.17-1.15-.5-2.27-.7-3.42s-.25-1.68-.71-2-.58-.14-2.42-.19c-1,0-.9,0-1.57,0-1,0-1,0-2.34.1-1.17,0-1.33,0-1.58.17-.46.33-.55,1-.63,1.89-.13,1.69-.05,2.49-.07,3.75,0,.46-.08,1.52-.21,3.63a6.05,6.05,0,0,0,.08,2.41,5.24,5.24,0,0,0,1.26,2,18.35,18.35,0,0,0,1.62,1.32,15.1,15.1,0,0,1,1.23,1,4.16,4.16,0,0,1,.89,2.43,4.06,4.06,0,0,1-1.06,3.1c-.66.63-1.54.77-3.3,1.05-.69.11-1.59.15-3.38.25-.36,0-1.71.09-3.45,0-1.46,0-1.88-.12-2.27-.42a3.08,3.08,0,0,1-1-2,8.3,8.3,0,0,1,0-2.79c.13-1.33.2-1.76.27-2.51.15-1.39.07-1.57.17-3.61.12-2.41.18-3.61.32-4.41a29.34,29.34,0,0,0,.15-3.34,1.38,1.38,0,0,0-.31-1.07,1.59,1.59,0,0,0-1.33-.16c-1.7.33-3.73.12-6.93-.22-1.41-.14-.42-.16-3.28-.78a2.14,2.14,0,0,1-1.15-.58,1.86,1.86,0,0,1-.49-1.29c0-.59.4-.92.81-1.45a24.14,24.14,0,0,0,1.41-2.53c1-1.76,1-1.52,1.57-2.58,1.1-2.06.68-2.24,1.72-4.17a11.84,11.84,0,0,0,.79-2.1,2.61,2.61,0,0,0,.11-1.09,1.42,1.42,0,0,0-.19-.6,1.37,1.37,0,0,0-.75-.42c-.49-.16-.78-.49-1.36-1.15a5.42,5.42,0,0,1-1.13-2.23c-1-3.6.29-8.87.38-9.24.16-.64.49-1.84.86-3.64a15.12,15.12,0,0,0,.4-2.91,5.39,5.39,0,0,0-.62,1.17c-.31.65-.38.83-.61,1a1.4,1.4,0,0,1-1,.34c-.25,0-.43-.12-1.32-.91l-1.11-1a12.23,12.23,0,0,0-1-1c-.43-.33-.61-.37-.76-.36s-.39.25-.71.58a11.46,11.46,0,0,1-1.1.89c-.62.51-.63.59-1.17,1.06a12.59,12.59,0,0,1-1.62,1.24c-1,.62-1.48.69-1.7,1.25a6.41,6.41,0,0,0-.15.77,5.9,5.9,0,0,1-.75,1.74,5.84,5.84,0,0,1-1,1.43,4.91,4.91,0,0,1-3.1,1.26,5.09,5.09,0,0,1-2.6-.51,6.93,6.93,0,0,1-1.23-.79c-.26-.25-.41-.46-.66-.47s-.58.34-.75.53c-1,1.13-3.11.9-3.36.87a5,5,0,0,1-2.38-1,6.54,6.54,0,0,1-1.53-1.53,7,7,0,0,1-.9-1.49,10.59,10.59,0,0,0-.46-1.17,5.4,5.4,0,0,0-1.3-1.21c-.11-.08-.53-.37-1.39-.94-.52-.34-.78-.52-.89-.44s0,.43.12,1.12c.25,1.2.07,1,.31,2.17.13.67.25,1,.06,1.41a1.05,1.05,0,0,1-.45.49,1.18,1.18,0,0,1-.57.11,2.89,2.89,0,0,1-1.22-.32,7.08,7.08,0,0,1-.85-.45c-1.37-.88-1.92-.87-3.34-1.83-.64-.43-.92-.69-2.1-1.49-.81-.54-1.27-.8-1.66-.64s-.52.64-.62,1a4.28,4.28,0,0,0,0,2c.21,1.23.36,2.2.42,2.58s.11,1,.27,2.49c.2,1.82.23,2.17.26,2.66a7.57,7.57,0,0,1,0,2.43,4.37,4.37,0,0,1-1.86,2.14,6.78,6.78,0,0,1-2.06,1.09c-.21.05-.62.12-.75.41a.91.91,0,0,0,.11.7c.26.55.4,1.16.7,1.7,1.1,1.93.86,1.79,1.52,2.79.32.48.7,1,1.46,1.93a29.76,29.76,0,0,0,2,2.36c.62.64.48.4,2,1.81a14.09,14.09,0,0,0,1.68,1.51c.89.61,1.33.92,1.49,1a1.78,1.78,0,0,1,.79.6,1.13,1.13,0,0,1,.19.85c-.08.3-.32.48-.79.74a8.47,8.47,0,0,1-1.57.77,56.46,56.46,0,0,1-6.9,1.81,27.12,27.12,0,0,0-3,.74,1.57,1.57,0,0,0-1.08.64,1.42,1.42,0,0,0-.07.83c.07.65.07,1.31.13,2,.1,1,.14,1.57.15,2s.05.76.06,1.15c0,.56,0,.67.13.77.25.29.72.06,1.43.12a3.45,3.45,0,0,1,1.42.51,4.7,4.7,0,0,1,1.81,1.87,5.44,5.44,0,0,1,.66,3.05,5.19,5.19,0,0,1-1.06,3,5.34,5.34,0,0,1-2.81,1.76c-.29.09-.64.17-3.83.09a13.79,13.79,0,0,1-3.89-.45,3.19,3.19,0,0,1-2.52-2.38,6.86,6.86,0,0,1-.27-3c.1-.8.24-.88.3-1.71a9.82,9.82,0,0,0-.09-1.68s-.14-1.43-.21-3.06c0-.54-.07-1.95-.09-2.74,0-.2,0-.39,0-.58,0-.68,0-.84-.09-1s-.66-.21-.84-.19c-1.23.13-2.46.07-3.69.13a26.22,26.22,0,0,1-2.65,0c-.66-.06-1.14-.07-2.11-.09s-1.33,0-1.59.31c-.11.13-.14.26-.22,1-.12,1.23-.15,1.79-.15,1.79-.06,1.24,0,1.12-.06,1.64-.08.91-.18,1-.22,1.72s0,1.32.25,1.65.5.18,1.16.56a4.41,4.41,0,0,1,1,.81,5.27,5.27,0,0,1,1,1.58,5.52,5.52,0,0,1,.43,2,4.44,4.44,0,0,1-.41,2.32,4.29,4.29,0,0,1-2.34,1.88,7,7,0,0,1-3.51.36c-1.23-.14-1.1-.39-2.57-.56a5,5,0,0,1-2.11-.49,3.33,3.33,0,0,1-.85-.63,3.27,3.27,0,0,1-.68-1.11,6.07,6.07,0,0,1-.41-2.47c.08-1.39.55-1.52.66-3.15,0-.17,0,0,0-1.55,0-.7,0-1.42,0-2.34,0-1.2,0-1.79.07-2a11.53,11.53,0,0,0,.13-1.53c0-.64-.06-.92-.26-1.09a1,1,0,0,0-.77-.15c-.74.06-1.49,0-2.23.13s-.36,0-2.81.26l-2.76.29a15.54,15.54,0,0,1-1.73.11,1.76,1.76,0,0,1-1.27-.26,1.24,1.24,0,0,1-.39-.66,1.68,1.68,0,0,1,.34-1.23c.58-.9,1.07-1.84,1.71-2.7,0,0,.69-1,1.51-2.28a30.87,30.87,0,0,0,2-4c.7-1.59,1.15-2.85,1.32-3.34.7-2,.53-2,.89-2.78.06-.13.17-.54.4-1.37.09-.29.15-.53,0-.7s-.35-.16-.68-.21a4.19,4.19,0,0,1-1.23-.47,3.34,3.34,0,0,1-1.11-1.06,4.94,4.94,0,0,1-.74-1.56c-.13-.47-.19-1.08.3-3.32.37-1.71.48-1.69.76-3.14.18-.92.3-1.8.39-2.43,0-.12.06-.35.08-.66a3.65,3.65,0,0,0,0-.86c-.06-.45-.35-.61-1-1.26l-1.05-1.3c-.36-.46-.77-.88-1.1-1.36s-.36-.6-.55-.62-.36.31-.87.89a3,3,0,0,1-1.18,1,1.64,1.64,0,0,1-1,.06,2,2,0,0,1-1.06-1,6.26,6.26,0,0,1-.38-1s-.12-.35-.57-1.59c-.37-1-.47-1.24-.69-1.29s-.28.05-.75.36l-1.21.8c-.64.43-1,.65-1.41.92s-.62.36-.73.52c-.3.4-.15.79-.22,1.5a5.35,5.35,0,0,1-.45,1.5A4.81,4.81,0,0,1,87.53,91a5.51,5.51,0,0,1-2.07,1,4.75,4.75,0,0,1-2.3.06,6,6,0,0,1-1-.35c-.64-.31-.74-.54-1.08-.54s-.46.23-1.12.63a5.65,5.65,0,0,1-1.47.64,4.76,4.76,0,0,1-1.66.13,5.58,5.58,0,0,1-1.72-.51,6.68,6.68,0,0,1-1.34-.73,4.74,4.74,0,0,1-1-1,3.83,3.83,0,0,1-.64-1.18c-.26-.8,0-1.08-.32-1.6a3.13,3.13,0,0,0-1-.86c-1-.72-2.12-1.29-3.1-2.06a1.33,1.33,0,0,0-.87-.39c-.31,0-.38.22-1,.51a2.55,2.55,0,0,1-.93.31A2,2,0,0,1,64,85a6.18,6.18,0,0,1-.86-.41,8,8,0,0,1-1.59-1.31c-.64-.58-1.3-1.13-2-1.69s-1-.82-1.12-.73-.15.77-.06,1.5c.14,1.12.13,2.26.32,3.38s.29,2.22.54,4.56c.38,3.61.22,4,.61,5.59.63,2.62.67,2.74.67,2.74.13.5.21,1,.35,1.5.21.74.35,1.06.18,1.35s-.25.23-.89.44c-1.34.44-1.81.57-1.81.57-.73.21-1,.29-1.38.42-1.08.37-1.23.52-1.3.64-.21.31-.12.63.06,1.53.35,1.79.18,1.49.45,2.55a12.34,12.34,0,0,0,.7,2.24,13.49,13.49,0,0,0,1,1.85,12.26,12.26,0,0,1,.86,1.4,2.14,2.14,0,0,1,.35,1.28,1.82,1.82,0,0,1-.57,1c-.43.41-.79.46-1.86.83-.31.11-.86.33-2,.77a17.94,17.94,0,0,0-1.79.79,1.86,1.86,0,0,0-1,.61,1.49,1.49,0,0,0-.19,1c.13,1.37-.13,2.74-.1,4.12a25.3,25.3,0,0,1,0,3.76c-.06.39-.12.83-.22,1.69-.19,1.52-.19,1.85,0,2s.68-.06,1.67,0a4.44,4.44,0,0,1,1.55.4,4.35,4.35,0,0,1,1.92,1.79,4.67,4.67,0,0,1,.48,2.9,4.93,4.93,0,0,1-1.31,3.07c-.93.89-2.05,1-3.67,1.27s-1.6-.15-3.42.13a4.32,4.32,0,0,1-2.49,0,3.46,3.46,0,0,1-1.18-.86,4.53,4.53,0,0,1-.83-1.4,9.42,9.42,0,0,1-.79-2.75c-.13-1.09.12-1.1.31-3.38,0-.58.09-1.6.16-3.64.06-1.5.06-1.91.06-2.15,0-1.68-.12-1.54-.06-2.45.05-.65,0-1.31,0-2a1,1,0,0,0-.22-.84c-.2-.18-.49-.16-.89-.12-.74.06-.84.28-1.44.29a1.55,1.55,0,0,1-.92-.23,1.9,1.9,0,0,1-.48-.54c-.39-.53-.42-.74-.55-.73s-.2.72-.76,1.14c-.14.11-.15.07-.77.29s-.69.3-1.37.54c-.47.17-.74.27-1.15.39-.61.17-.78.17-1,.35s-.23.45-.25,1c0,1,0,1.83,0,2,0,1.11.06,1.22.06,1.66a11.48,11.48,0,0,1,0,1.41,17.7,17.7,0,0,0-.24,1.76c0,.82.13,1,.21,1.05s.44.06,1,.16A3.55,3.55,0,0,1,36,132a3.32,3.32,0,0,1,1.41,1.75,5.63,5.63,0,0,1,.44,1.79,5,5,0,0,1-.41,3c-.71,1.21-2.09,1.56-3.26,1.85-1.7.42-3,.17-5.23-.26a4.57,4.57,0,0,1-1.82-.64,4.26,4.26,0,0,1-1.66-2.17,4.94,4.94,0,0,1-.19-2.1c.07-1.12.34-1.32.51-2.59a12.67,12.67,0,0,0,.06-2.14c0-1.72-.2-1.88-.16-3.25,0-.25,0-.94.1-1.79.1-1.35.18-1.75-.1-2s-.55-.07-1.59-.16a13.29,13.29,0,0,1-1.44-.25c-1.37-.29-1.21-.39-2.49-.68-.75-.16-1-.17-1.24-.44a1.68,1.68,0,0,1-.26-1.28c.18-2,.51-3.72.55-3.92.23-1.23.19-1.2.47-2.68.16-.8.23-1.1.39-2,.29-1.6.18-1.24.35-2.08.28-1.45.48-1.9.22-2.15s-.52,0-1.24-.18a1.9,1.9,0,0,1-1.09-.67,2.72,2.72,0,0,1-.25-1.18,9.75,9.75,0,0,1-.07-1,17.63,17.63,0,0,1,.1-2.27c.17-1.66,0-1.8.09-5.07.07-1.55.13-1.81.13-3,0-.94,0-.57-.09-2.62,0-1.35-.06-2.41-.32-2.46s-.29.44-.83.61a1.37,1.37,0,0,1-.61,0,1.73,1.73,0,0,1-.8-.45c-.45-.37-.45-.55-.63-.57s-.56.48-.93,1-.16.14-1.56,1.85a13.37,13.37,0,0,0-1.44,1.92,6.78,6.78,0,0,0-.61,1.82c-.19.92,0,1.08-.25,2.42a5.2,5.2,0,0,1-.42,1.63,2.68,2.68,0,0,1-1,1.25,2.51,2.51,0,0,1-1.24.35,3.13,3.13,0,0,1-1.41-.32,7.06,7.06,0,0,1-1-.77c-.93-.78-1.05-.89-1.31-.92s-.25,0-1.12.35a9.8,9.8,0,0,1-1.47.44,2.41,2.41,0,0,1-1.21.07,1.85,1.85,0,0,1-.73-.42A2.8,2.8,0,0,1-1.6,98c-.1-.5.05-.55.09-1.47a17.15,17.15,0,0,0-.09-1.76,6.61,6.61,0,0,1,.06-2.29A4,4,0,0,1-.52,91a3.52,3.52,0,0,1,.83-.63,3.65,3.65,0,0,1,1.4-.42c.5-.06.49,0,1.19,0,.14,0,.38,0,1.4-.19.81-.13,1.21-.19,1.27-.22.43-.16.62-.42,1.54-1.92,1.7-2.77.35-.72,1.55-2.79a1.84,1.84,0,0,0,.41-1.34,2.7,2.7,0,0,0-.62-1,7.9,7.9,0,0,1-.67-.79A3.41,3.41,0,0,1,7.42,79,3,3,0,0,1,8.13,78c.89-1,1.34-1.55,1.6-1.82,0,0,1.11-1.12,2.33-2.55.59-.69,1.14-1.49,2.26-3.09,1.6-2.29,2.4-3.44,2.52-3.71a6.44,6.44,0,0,1,1.41-2,3.15,3.15,0,0,1,1.15-.7A2.45,2.45,0,0,1,20.51,64c.29,0,.37.12.8.19a1.73,1.73,0,0,0,.73,0,1.14,1.14,0,0,0,.74-.71c0-.11.08-.32-.29-1.37-.18-.51-.22-.54-.41-1.08a6.81,6.81,0,0,0-.39-1.09c-.31-.5-.8-.59-1.46-.86A9.55,9.55,0,0,1,18,57.73a13.45,13.45,0,0,1-2-2,12.24,12.24,0,0,1-1.31-1.6,11.74,11.74,0,0,0-.7-1c-.42-.53-.63-.79-.9-.87-.46-.13-.61.24-1.4.29a2.82,2.82,0,0,1-1.28-.22c-.54-.24-.5-.46-.95-.61s-.69.09-1.34,0a2.87,2.87,0,0,1-1.31-.57A4.07,4.07,0,0,1,5.67,50,14.76,14.76,0,0,1,4.3,47.2c-.43-1.1-.79-2-1-2.94a26.54,26.54,0,0,1-.67-8.68,35.43,35.43,0,0,1,.83-7.12,40.85,40.85,0,0,1,2.1-6.38c1.42-3.65,2.14-5.48,3.64-7.6a24.37,24.37,0,0,1,4.09-4.4A27.89,27.89,0,0,1,20,5.71a19.69,19.69,0,0,1,8.14-2.24,33.39,33.39,0,0,0,4.72,0,19.18,19.18,0,0,0,5-1.38C42.36.47,47,1.4,49.49,1.91a26.83,26.83,0,0,1,10,4.31,30.77,30.77,0,0,1,7.88,8.42A34.12,34.12,0,0,1,73,25.78a46.54,46.54,0,0,1,1.22,8.56,58.11,58.11,0,0,1-.36,7.14s-.16,2.1-1.24,3a1.93,1.93,0,0,1-.7.35,2,2,0,0,1-1-.06c-.64-.16-.71-.38-1-.32s-.3.34-.8.73a2.41,2.41,0,0,1-.83.45,2.51,2.51,0,0,1-1.43,0,2.68,2.68,0,0,1-.9-.45c-.48-.37-.41-.61-.76-.86a2,2,0,0,0-1.63-.12,2.63,2.63,0,0,0-1.4.86,3.5,3.5,0,0,0-.67,2.17,6.07,6.07,0,0,0,.06,1.69,7.54,7.54,0,0,0,.57,1.72c.46,1.08.65,1.2.93,1.89a6.94,6.94,0,0,1,.48,2.36,8.78,8.78,0,0,1-.67,3.83,8.49,8.49,0,0,1-1.37,2.23,7.45,7.45,0,0,1-2,1.66c-.47.26-1.27.62-1.44.7-1,.45-1.36.56-1.4.83s.34.57.86,1c.82.62,1.55,1.35,2.36,2,1,.8,1,.86,2.3,1.91a42.29,42.29,0,0,0,4.53,3.39c1.4.87,2.75,1.85,4.18,2.68a5.47,5.47,0,0,1,1.31,1.21,1.22,1.22,0,0,1,.35.74,1.48,1.48,0,0,1-.31.78c-.23.35-.34.34-.38.5s.2.54,1,1.24c1,.92.89.71,1.57,1.32s.76.72,1.17.81a3.67,3.67,0,0,0,1,0,6.36,6.36,0,0,1,1.53,0,7.22,7.22,0,0,1,.83.24c.45.17.58.27.8.23s.3-.19.61-.45h0l.82-.57a4,4,0,0,1,1.92-.58,7.3,7.3,0,0,1,1.68.21,1.93,1.93,0,0,0,1,.08,3.08,3.08,0,0,0,1-.61c.35-.26.42-.34.7-.57.64-.51.79-.49,1.41-1s1-.8,1-1.12-.36-.23-.77-.7a2.17,2.17,0,0,1-.48-.93,1.7,1.7,0,0,1,.07-1,1.59,1.59,0,0,1,.38-.54L91.27,72c.69-.73,1-1.1,1.12-1.47.13-.65-.16-1.13-.55-2s-.63-1.91-1-2.84a32.74,32.74,0,0,1-1.34-6.9c-.23-1.7-.53-3.88-.67-6.83-.1-2.14-.07-3.68,0-6,0-2.53.09-4.68.32-7.28a72.23,72.23,0,0,1,1.37-8.81c1.08-5.17,1.79-8.59,3.7-12.8C96,13.3,97,11,99.5,8.68a27.73,27.73,0,0,1,10.69-5.56l2.21-.57c2-.53,4.2-1.09,4.59-1.18,4.6-1.13,11.18.44,11.84.6a25.49,25.49,0,0,1,8.49,3.45,26.78,26.78,0,0,1,7.28,7.37,35.75,35.75,0,0,1,3.76,6.64,41.89,41.89,0,0,1,2.46,7.92c.63,2.72.93,4.86,1.15,6.47.33,2.41.46,4.16.64,6.64.22,3,.36,4.95.38,7.63,0,3.69-.2,6.56-.32,7.92-.4,4.43-.6,6.65-1.08,7.62a41.86,41.86,0,0,0-1.4,5.1,1,1,0,0,0,.06.74c.19.35.6.42,1.05.55.64.18.19.14,1.88.79a21.75,21.75,0,0,0,2,.74,3.64,3.64,0,0,1,1.3.45,1.42,1.42,0,0,1,.58,2.13,11.53,11.53,0,0,1-.67,1,5.54,5.54,0,0,0-.38.64,2.21,2.21,0,0,0-.39,1.31c.06.32.27.51.86,1s1,.81,1.66,1.31,1.31.94,1.95,1.43a2.41,2.41,0,0,0,1,.55,4.32,4.32,0,0,0,1.12,0c.65,0,.76-.09,1-.1a4.49,4.49,0,0,1,2.19.49c.82.4.93.75,1.41.72s.54-.3,1.15-.67a5,5,0,0,1,2-.6c1.2-.16,1.44.17,2.17-.1s.5-.44,1.34-1.08,1.21-.7,3-1.82c.3-.19.66-.43.64-.71s-.17-.25-.76-.73-.7-.6-.74-.7c-.17-.44.18-1,.32-1.18.63-1,.89-2.14,1.44-3.16a21.27,21.27,0,0,0,1.53-4.41,44.36,44.36,0,0,0,1-4.34,36.86,36.86,0,0,0,.86-6.48,30.79,30.79,0,0,0-.35-4.62c-.21-1.55-.38-2.1-.9-4.76-.55-2.85-.83-4.27-.92-5.14-.13-1.17-.11-3.24-.07-7.34,0-2,0-3,.07-3.41a25,25,0,0,1,1.72-7.09A31.82,31.82,0,0,1,191.42,9.51a31.44,31.44,0,0,1,21.73-6.87,35.26,35.26,0,0,1,10.69,2.05,31.83,31.83,0,0,1,6.9,3.51,31.47,31.47,0,0,1,8.33,8.74,34,34,0,0,1,6.32,18.42,39.23,39.23,0,0,1-.29,7.78,43.57,43.57,0,0,1-2.2,8.37c-.86,2.41-1,2.23-1.54,4a44,44,0,0,0-1.24,7.5,36.28,36.28,0,0,0,.19,6.25,1.64,1.64,0,0,0,.44,1.08,2.07,2.07,0,0,0,1.06.42c.59.14.68.08,1.34.19a4.08,4.08,0,0,1,1.47.45,1.63,1.63,0,0,1,.73.64,1.77,1.77,0,0,1,0,1.34,4,4,0,0,1-.6,1.15c-.28.4-.34.4-.58.76-.35.55-.54.85-.48,1.15s.32.42,1.12.86c.49.28,1,.57,1.47.83.72.39,1.57.87,2,1.12,1.18.66,1.32.77,1.65.75a9.26,9.26,0,0,0,1.45-.56,5.2,5.2,0,0,1,.94-.37,3.56,3.56,0,0,1,1.32,0,5.38,5.38,0,0,1,1,.26c.95.31,1,.5,1.4.51s.43-.18,1.34-.61a4.41,4.41,0,0,1,1.85-.6,5.47,5.47,0,0,1,1.17.12,3.72,3.72,0,0,0,1.16.16c.5-.07.73-.38,1.24-.8a20.89,20.89,0,0,1,1.8-1.11c.83-.49,1.44-.81,2.45-1.34.09,0,1.18-.62,2.52-1.41.84-.49,1.31-.79,1.28-1.15s-.27-.29-.76-.89a1.94,1.94,0,0,1-.58-1,1.72,1.72,0,0,1,.42-1.12,4.56,4.56,0,0,1,.92-1c1.41-1.16,1.08-1,1.85-1.59a17.32,17.32,0,0,1,2.84-1.69,38.94,38.94,0,0,1,3.77-1.47,47.19,47.19,0,0,0,5-2c.88-.44,1.32-.67,1.53-.8.77-.48,1-.76,1.57-.86s.92.15,1.14-.06c.37-.34,0-1.37-.35-2A5.74,5.74,0,0,0,286.4,57c-.86-.61-1-.59-2.3-1.4-.32-.2-1.16-.74-2.17-1.5a15.47,15.47,0,0,1-2-1.66c-.21-.21-.17-.21-1.18-1.4-.75-.89-.93-1.09-1.28-1.19a2.71,2.71,0,0,0-1.47.13,5.16,5.16,0,0,1-1,.32,1.52,1.52,0,0,1-1-.09,1.82,1.82,0,0,1-.64-.9c-.09-.25-.08-.35-.19-.45s-.51-.07-1,0c0,0-.49.12-1.91.38a2.35,2.35,0,0,1-1,.06,1.71,1.71,0,0,1-.83-.41,1.85,1.85,0,0,1-.45-.64,4.52,4.52,0,0,1-.41-1.6c-.06-.84-.23-1.67-.23-2.52,0-1.82-.24-2.54-.41-4.69a57.5,57.5,0,0,1,0-7.12c.24-6.19.36-9.28,1-11.74a23.21,23.21,0,0,1,3.44-8.2A28.52,28.52,0,0,1,274,9.28c.78-.77,1.56-1.44,2.27-2,.5-.43.89-.75,1.34-1.09a14,14,0,0,1,1.47-1c1-.59,1.66-.64,1.65-.85s-.62-.24-2.1-.65c-.42-.11-.17,0-1.66-.51a15.88,15.88,0,0,1-2-.67,4.49,4.49,0,0,1-1.44-.92A1.85,1.85,0,0,1,273,.84,1.91,1.91,0,0,1,272.9,0a1.71,1.71,0,0,1,.28-.89,1.76,1.76,0,0,1,.83-.61,2.3,2.3,0,0,1,1.38.16c.67.21,1.37.38,2,.61,1.24.43,1.87.65,2.26.77a16.55,16.55,0,0,0,3,.51,31.71,31.71,0,0,0,4.18.22,32.08,32.08,0,0,0,5.24-.58c2.76-.51,3.2-.89,5.1-1.27a24.6,24.6,0,0,1,7.38-.16A33.72,33.72,0,0,1,314.29.51a31.71,31.71,0,0,1,7,3.57,28.83,28.83,0,0,1,7.56,7.05,31.6,31.6,0,0,1,4.37,8.72c.71,2.11,1.49,4.2,2.18,6.32a14,14,0,0,0,1.78,3.89,6.43,6.43,0,0,0,2.08,2.33,4.76,4.76,0,0,1,1.19.88,2,2,0,0,1,.65,1.07,1.69,1.69,0,0,1-.28,1,1.87,1.87,0,0,1-.64.67,1.84,1.84,0,0,1-.76.25,2.53,2.53,0,0,1-1.06-.06,3.53,3.53,0,0,1-1.05-.48c-.48-.28-.44-.33-1.15-.8l-1-.6c-.44-.25-.59-.33-.7-.27s-.12.39,0,.84a12.76,12.76,0,0,0,.58,2,5.63,5.63,0,0,1,.16,2,7.61,7.61,0,0,1-.67,3.13c0,.06-.36.56-1,1.56s-.86,1.31-1.32,1.56a1.55,1.55,0,0,1-1.2.27c-.52-.15-.68-.69-1.2-.68a.75.75,0,0,0-.41.13c-.32.21-.31.57-.51,1.56a3.49,3.49,0,0,1-.35,1.12,1.53,1.53,0,0,1-.67.63c-.5.21-.79-.09-1.12.1s-.28.55-.41,1.18c-.09.39-.08.17-.8,2.08-.14.35-.39,1-.69,1.88-.23.66-.34,1-.4,1.24a18.3,18.3,0,0,0-.22,1.85,7.62,7.62,0,0,1-.26,1.5,5,5,0,0,1-.57,1.19A7,7,0,0,1,322.31,60.3Z"/></g><g id="子供_" data-name="子供④"><g id="体"><path class="cls-2" d="M53.84,64.16c4.61,2.65,8.4,6.34,12.75,9.35l4.27,3.09.77.56a15.7,15.7,0,0,0-3.87,3.67c-.93,1.28-2,3.9-4.05,2.62-2.44-2-4.54-4.13-7.32-5.68l.93-.52a95.35,95.35,0,0,0,2,23l.1.5-.49.13a170.39,170.39,0,0,1-39.15,5.48l-.65,0,0-.66a212.25,212.25,0,0,0-.52-23.11l1.17.07a14,14,0,0,1-3.05,6A18.63,18.63,0,0,1,12,85a17.45,17.45,0,0,1-3.25-5A88.17,88.17,0,0,0,17,69.64c.84-1.16,1.66-2.33,2.54-3.47l.65.41c-.75,1.23-1.56,2.43-2.35,3.64a83.48,83.48,0,0,1-8,10.22l.09-.61a18.43,18.43,0,0,0,3,4.27A17.08,17.08,0,0,0,17,87.35l-.75.14c2.21-2.33,2.75-6.24,3.36-9.26l.31,4.24a150.93,150.93,0,0,1,.56,23.28l-.63-.64a170,170,0,0,0,29.33-3c3.22-.61,6.4-1.42,9.57-2.26l-.39.63a111.72,111.72,0,0,1-2.22-23.22l0-1.07.91.55A32.23,32.23,0,0,1,62.64,81c.88.68,2,2.46,2.87,1.06a16.06,16.06,0,0,1,4.56-5.48v1.12C66,74.61,61.2,71.6,57.34,68.23a46,46,0,0,1-3.82-3.7l.32-.37Z"/><path class="cls-2" d="M51.61,66.2c-.21,1.64-1.8,2-2.83,3a20,20,0,0,1-5.61,2.55,20.08,20.08,0,0,1-14.12-.39c-2.44-1.22-4.95-2.59-6.6-4.82L23,66a36.32,36.32,0,0,0,4.77,3.39,21.83,21.83,0,0,0,9.32,2.36,20.78,20.78,0,0,0,5.76-.94A20.77,20.77,0,0,0,48,68c1.26-.63,1.71-2,3.27-2.18l.35.34Z"/><path class="cls-2" d="M69,78.39a4.33,4.33,0,0,1,2.78,1.55c1.46,1,2.59,2.38,4,3.43l-.67-.09c2.48-1.47,6.4.31,6.5,3.31C82,91.17,76,93,73.48,89.38a4.47,4.47,0,0,1-.64-2.82l.24.54c-2.2-1.83-4.63-3.39-6.67-5.4l.47-.61a34.14,34.14,0,0,1,3.52,2.46c1.29.81,2.37,1.92,3.66,2.73a3.35,3.35,0,0,0,6,2.46c1.4-1.76-.14-4.81-2.36-4.83a5.8,5.8,0,0,0-2.49.59L75,84.25A46.13,46.13,0,0,0,70,80.47a3.34,3.34,0,0,1-1.35-1.68l.29-.4Z"/><path class="cls-2" d="M11.51,83.29A4.4,4.4,0,0,1,10.82,86c-1,1.64-1.71,3.41-3.19,4.73a3.3,3.3,0,0,1-2.18,1.16c-1.1.09-2.22.11-3.31.29-.49.11-1.12.24-1.23.64,0,1.56,0,3.48-.11,4.94,0-.12-.07-.11-.11-.13a1.9,1.9,0,0,0,.39-.12c1.17-.59,3.07-1.22,4.43-.38.75.36,1.36,1.16,2,1.46,0,0-.09,0-.07,0a1.49,1.49,0,0,0,.08-.44A12.64,12.64,0,0,1,8.8,92.6c.91-1.79,2.53-2.72,3.53-4.36a15,15,0,0,1,1.73-2.11l.65.42a29.76,29.76,0,0,1-3.24,4.57A7.2,7.2,0,0,0,9.08,95.6c-.22,1.13.05,2.4-.46,3.61-.74,1.25-2,.52-2.66-.27-1.38-1.33-2.82-1.09-4.53-.42-.7.33-1.78.14-1.6-1,.22-1.66-.11-3.2,0-4.88a1.31,1.31,0,0,1,.62-.89,12.38,12.38,0,0,1,4.28-1.08c2,.3,2.62-1.53,3.53-2.93,1.12-1.45,1.16-3.43,2.81-4.7l.45.2Z"/><path class="cls-2" d="M53.73,101.67c.54,2.1.7,4.1,1.14,6.19a22.36,22.36,0,0,0,2.89,6.35c-2.73,1.21-5.46,2.43-8.25,3.51-2.57,1-5.33,1.36-7.93,2.3l-.43.15c-1.08-2.92-2-5.92-2.79-8.93a20.15,20.15,0,0,0-.78-2.48.45.45,0,0,0,.26.06s.09-.06.1,0a15,15,0,0,0-.69,5,25,25,0,0,0,.63,6.16l-.46.19a23.35,23.35,0,0,1-17.37.66c0-.07.62-4,.64-4.21.81-3.65,1.08-7.4,2-11l.77.12c-.16,2.5-.63,5-1,7.41-.36,2.15-.69,5.24-1.13,7.4l-.4-.66a19.81,19.81,0,0,0,8.08,1,27.32,27.32,0,0,0,8-1.76l-.36.67a22.91,22.91,0,0,1-.28-9c.18-.85.47-3.65,1.85-2.85a3.26,3.26,0,0,1,.72,1.61c.77,3.33,2.09,6.51,3,9.78l-.62-.33a73.2,73.2,0,0,0,15.2-5.69l-.26,1a21.71,21.71,0,0,1-2.75-6,10.34,10.34,0,0,1-.28-6.59l.49,0Z"/><path class="cls-2" d="M50,117c1,2.22.2,4.48.44,6.68a47.72,47.72,0,0,1-.38,6.76c-.17,1,0,1.73,1,2,.33.06,1.05-.14,1.65-.08a3,3,0,0,1,2.78,4.19c-1,3.26-5,3.29-7.77,3s-3.27-3.89-2.87-6.14c.5-5-.17-9.93.25-15h.78c.26,3.34.34,6.68.32,10,0,1.4,0,2.83.08,4.23-.17,1.7-.52,3.74.43,5.21a1.84,1.84,0,0,0,1.17.42,18.18,18.18,0,0,0,4.74-.17c1.76-.42,2.9-3.25,1.3-4.41a4.72,4.72,0,0,0-3-.4,2.48,2.48,0,0,1-2.1-3.09c.7-3.15.2-6.62.18-9.95a6.75,6.75,0,0,1,.52-3.34Z"/><path class="cls-2" d="M32.7,121.08a4.55,4.55,0,0,1,.45,2.62c-.19,2.45-.36,5.65-.32,7.73a2.76,2.76,0,0,0,.41,1c0,.11.42.21.94.26,2.48.09,3.35,3.65,1.82,5.38s-4,1.37-5.93,1.13a5.82,5.82,0,0,1-2.33-.67c-2-1.75-1.11-4.66-.49-6.83a78.72,78.72,0,0,1-.2-10.14h.77c.47,3.43.25,6.89.66,10.33-.23,1.46-1.58,5.4.41,5.86,1.32.21,2.85.54,4.14.62a2.38,2.38,0,0,0,2.51-3.21,4.6,4.6,0,0,0-.46-1.12c-.34-.48-1.13-.28-1.74-.34-1,0-1.67-1.28-1.73-2.15.08-2.63.06-5.25,0-7.88a4.58,4.58,0,0,1,.59-2.6Z"/><path class="cls-2" d="M32.24,130.77c-.18,1-.37.21-.55.45-.1,0-.19-.1-.29-.12s-.18,0-.27.06-.19-.08-.28-.13-.19.1-.28.07a1,1,0,0,0-.84.07c-.09.05-.19,0-.28,0a.65.65,0,0,1-.56.06c-.29-.14-.34,0-.55,0-.19-.21-.38.12-.57-.22v-.77c.18-.34.37,0,.55-.23.22-.05.27.11.56,0s.37,0,.56.05.18-.07.28,0a1,1,0,0,0,.83.05c.1,0,.19.12.28.06s.19-.16.28-.14.19.09.28.06.19-.17.28-.13c.19.24.36-.58.56.44v.49Z"/><path class="cls-2" d="M49.44,131.16c0,1-.27.27-.39.53-.07.06-.17-.07-.25-.07s-.15.07-.23.1-.17-.06-.26-.09-.13.13-.22.12-.28-.07-.47.05-.17.15-.46.16c-.14.09-.28.21-.46.14s-.17,0-.24,0-.14.1-.23.07c-.2-.18-.29.18-.51-.12l-.15-.76c.09-.36.31-.07.42-.31.07-.06.16,0,.24,0s.15-.06.23-.1.31-.07.48,0,.15-.1.48,0,.28-.05.46-.13.18.09.24,0,.13-.19.21-.18.18.06.25,0,.12-.19.21-.16c.2.2.2-.63.55.34l.1.48Z"/></g><g id="顔"><path class="cls-2" d="M33.52,5.92a7.46,7.46,0,0,1,3.66-2.08C42.54,2.3,48.57,2.36,53.61,4.92c5.11,2.21,9.25,6.25,12.68,10.57A34.54,34.54,0,0,1,72.79,35c-.13,2.77-.06,5.58-.93,8.24l-.75-.15A44.77,44.77,0,0,0,71.26,31c-2-12.94-12-26.1-25.8-27a22.07,22.07,0,0,0-7.82,1.25,15.61,15.61,0,0,1-3.89,1.09l-.23-.44Z"/><path class="cls-2" d="M32.29,5.83c-2.43,1-4.89.53-7.31,1.37a22,22,0,0,0-8.29,3.9C12,14.28,9.35,19.57,7.61,24.81A32.36,32.36,0,0,0,5.45,35.68c-.27,5,1.24,9.83,3.18,14.38L8,50.42A26.33,26.33,0,0,1,4.41,39.51c-.93-6.42.8-12.89,3.56-18.64a25.76,25.76,0,0,1,6.57-9.41A24.25,24.25,0,0,1,24.63,5.88c2.52-.49,5.11-1.55,7.66-.54v.49Z"/><path class="cls-2" d="M63.88,30.58c1.09-.17.92.72,1.46,1.22a4.48,4.48,0,0,1,.4.86,4.4,4.4,0,0,1,.79,1.68,5.26,5.26,0,0,1,.68,1.73,13.73,13.73,0,0,1,1.06,4.53c-.07.63.06,1.24,0,1.87-.23.6,0,1.25-.37,1.83l-.76-.1c-.27-.62.11-1.17-.09-1.77A6.77,6.77,0,0,0,67,40.69c-.26-1.71-.23-3.55-1.08-5.1-.13-.26-.1-.59-.28-.84a4.41,4.41,0,0,1-.5-.72,4.42,4.42,0,0,0-.38-.79c-.56-.52-.67-1-1.12-1.34-.23-.19-.33-.46-.14-1l.38-.31Z"/><path class="cls-2" d="M59.52,32c.54-.14.78,0,.88.25a1.59,1.59,0,0,0,.42.65c.19.18.22.47.35.69a3.05,3.05,0,0,1,.73,1.33c.08.24.34.39.43.63a12.15,12.15,0,0,0,1,2.07A13.09,13.09,0,0,1,64,39.78c0,.52.21,1,.25,1.51-.13.52.25,1,0,1.52l-.77.06c-.37-.45-.09-1-.38-1.4a3.45,3.45,0,0,1-.09-.71,11.44,11.44,0,0,1-.53-2.07c0-.24-.23-.43-.26-.67a6.42,6.42,0,0,0-.43-1.37c-.1-.21-.27-.39-.38-.61s-.11-.48-.28-.66a3.44,3.44,0,0,1-.48-.54c-.25-.69-.47-.68-.85-1.14a1.17,1.17,0,0,0-.49-.52c-.21-.13-.29-.36-.07-.87l.36-.33Z"/><path class="cls-2" d="M51,31.14c1-.54,1.1.34,1.78.62.28.14.44.44.67.64a4.48,4.48,0,0,1,1.37,1.23,17,17,0,0,1,2,1.92A5.9,5.9,0,0,1,58,36.93a5.49,5.49,0,0,1,1.1,1.48c.23.58.65,1.05.91,1.61.1.63.67,1,.61,1.74l-.7.31c-.55-.39-.51-1.06-1-1.48a7.79,7.79,0,0,0-.92-1.48c-.57-.67-.89-1.51-1.52-2.14a9.1,9.1,0,0,0-1.06-1.39,9.47,9.47,0,0,1-1.27-1.22,6.36,6.36,0,0,1-1.41-1.06c-.76-.3-1-.71-1.53-.85-.29-.09-.48-.31-.48-.89l.25-.42Z"/><path class="cls-2" d="M32.8,29.19a1.46,1.46,0,0,1,1.34.61c.54.75,1.35,1.21,1.94,1.92a20.71,20.71,0,0,1,2.21,1.64,33.16,33.16,0,0,0,3.65,1.9,49.8,49.8,0,0,0,6.57,1.89c.45.07.91.07,1.36.16.89.32,1.82,0,2.72.41v.77c-1,.32-1.89-.07-2.85,0-.95-.07-1.87-.35-2.83-.43-2.83-.48-5.38-1.9-7.95-3.11a24.74,24.74,0,0,0-2.45-1.47c-.7-.66-1.55-1.12-2.3-1.71a6.05,6.05,0,0,0-1.1-.91,1.41,1.41,0,0,1-.65-1.37l.35-.33Z"/><path class="cls-2" d="M27.58,28.45c.34.45.32.73.14,1a1.52,1.52,0,0,0-.36.73c-.06.27-.29.48-.39.74a5.06,5.06,0,0,1-.56,1.55A7,7,0,0,1,26,34a8.94,8.94,0,0,0-.17,1.64c-.2.81-.05,1.65-.22,2.46a4.48,4.48,0,0,0-.1.82,3.75,3.75,0,0,1,0,.82c-.21.56.14,1.09-.16,1.66l-.77.05c-.38-.55-.07-1.14-.28-1.7,0-.58.1-1.14,0-1.72a20.21,20.21,0,0,1,.29-2.57A13.53,13.53,0,0,0,25.18,33c0-.29.27-.53.29-.82a3.9,3.9,0,0,1,.43-1.66,3.56,3.56,0,0,1,.17-.85,2,2,0,0,0,.26-.83c0-.29.23-.53.8-.58l.45.2Z"/><path class="cls-2" d="M20.5,30.46c.71.87-.14,1.19-.21,2a5.85,5.85,0,0,0-.63,1.82,6.33,6.33,0,0,1-.39.89c-.14.29-.07.64-.18,1a10,10,0,0,0-.59,2.82c-.27.93-.21,1.91-.47,2.85a11.19,11.19,0,0,0-.29,1.9c-.28.62,0,1.29-.4,1.9l-.77-.06c-.29-.69.1-1.31,0-2,0-.65.24-1.28.22-2,0-1,.43-1.92.53-2.9.59-1.66.5-2.3,1-3.79A5.48,5.48,0,0,1,18.8,33,5.35,5.35,0,0,1,19,32a2.39,2.39,0,0,0,.25-.95c.05-.34.21-.63.81-.76l.46.17Z"/><path class="cls-2" d="M12.52,39.27c.42.35.46.6.33.82a1.21,1.21,0,0,0-.22.7c-.15.59-.35.67-.31,1.42a3.18,3.18,0,0,1-.23.7,5.24,5.24,0,0,1-.16,1.45c-.07.72.11,1.48,0,2.19A9.36,9.36,0,0,1,12,48.73a3.63,3.63,0,0,1,.08.73c-.18.5.21.95-.07,1.47l-.77.1c-.4-.46-.12-1-.37-1.47-.08-.5,0-1-.12-1.51a19.09,19.09,0,0,1,0-2.27A9.48,9.48,0,0,0,11,43.53c0-.26.18-.49.16-.74a2.23,2.23,0,0,1,0-.77,4.67,4.67,0,0,0,.19-1.5,1.38,1.38,0,0,0,.09-.76c0-.26.13-.49.67-.61l.48.12Z"/><path class="cls-2" d="M61.54,43c.14,1.59-1.09,2.38-1.21,3.82a8.52,8.52,0,0,0-.26,1.88c.16,2.09,1.79,3.75,2,5.86A8,8,0,0,1,53.68,63c-1.48,0-3-.4-3.89.08-1.23.41-1.52,1.86-2.1,2.94l-.75-.17c0-1.75,1.51-4.06,3.53-4.21,3.54.32,7.74.1,9.73-3.29a6.15,6.15,0,0,0,.32-5.55A12.66,12.66,0,0,1,59.42,51a8.9,8.9,0,0,1,.22-6.63,2.49,2.49,0,0,1,1.49-1.64l.41.26Z"/><path class="cls-2" d="M24,47.26c-1.44.15-2.18-.88-3.52-.65a4.82,4.82,0,0,0-4.16,2.77,4.12,4.12,0,0,0,.47,3.34A11.48,11.48,0,0,0,21,56.35a8.32,8.32,0,0,1,1.92.89c1.25.87,1.64,2.42,2,3.75a8.26,8.26,0,0,1,.48,2c0,1.38.23,2.79-.35,4.09L24.34,67c.11-2.51.05-5.13-1.19-7.37a5,5,0,0,0-2.66-2.18A10.74,10.74,0,0,1,16,53.23a4.26,4.26,0,0,1-.57-4.2,4.56,4.56,0,0,1,1.09-1.91,7.3,7.3,0,0,1,3.91-1.89c1.42.09,3.32,0,3.9,1.64l-.3.39Z"/><path class="cls-2" d="M54.46,41.69c1,.35.19.58.42.87,0,.15-.12.28-.14.42,0,.4.15.42-.1.84-.06.14.09.29.06.43a2,2,0,0,0-.07.84,1.8,1.8,0,0,1,.08.85,1.52,1.52,0,0,1,.08.84c-.11.35,0,.54,0,.85-.2.29.14.56-.19.86l-.77,0c-.35-.27,0-.57-.25-.85a1,1,0,0,1,0-.43,2.49,2.49,0,0,1-.05-1.3,1.45,1.45,0,0,1,.05-.87,2.08,2.08,0,0,0,0-.86c0-.14.14-.29.08-.43s-.15-.29-.12-.44a1.55,1.55,0,0,0,.07-.43c0-.14-.15-.29-.11-.44.25-.27-.55-.61.47-.83l.49,0Z"/><path class="cls-2" d="M39.43,41.69c1,.35.19.58.42.87,0,.15-.12.28-.14.42,0,.4.15.42-.1.84-.06.14.09.29.06.43a2,2,0,0,0-.07.84,1.94,1.94,0,0,1,.08.85,1.52,1.52,0,0,1,.08.84c-.12.35,0,.54,0,.85-.2.29.14.56-.19.86l-.77,0c-.35-.27,0-.57-.25-.85a1,1,0,0,1,0-.43A2.59,2.59,0,0,1,38.5,46a1.53,1.53,0,0,1,.06-.87,2.08,2.08,0,0,0,0-.86c0-.14.13-.29.08-.43s-.15-.29-.12-.44a1.55,1.55,0,0,0,.07-.43c0-.14-.15-.29-.11-.44.24-.27-.56-.61.47-.83l.49,0Z"/><path class="cls-2" d="M54.62,52.74a1.1,1.1,0,0,1-.5,1.24,5.93,5.93,0,0,0-1,.77c-.7.46-1.5.75-2.21,1.22a4.78,4.78,0,0,1-1.22.32c-.42.07-.78.32-1.2.37a13.28,13.28,0,0,1-5-.09A9.54,9.54,0,0,1,39,54.24c-.48-.7-1.29-1.12-1.51-2l.63-.45c.71.41,1,1.18,1.68,1.53a6.61,6.61,0,0,0,1.86,1.25,11.3,11.3,0,0,0,5.44,1.23c.75-.18,1.51-.25,2.23-.44.65-.42,1.38-.62,2-1,.32-.2.55-.53.87-.72.81-.39.81-1.35,2-1.23l.36.33Z"/></g></g><g id="子供_2" data-name="子供③"><g id="体-2" data-name="体"><path class="cls-2" d="M137.7,64.17c6.07,3.43,12.07,7.24,18.88,9a19.52,19.52,0,0,0-3.67,15.09l.23,1.22-1.07-.63c-3.7-2.16-8.77-5.17-12.33-7.42l.82-.6c.71,3.28,1.3,6.58,1.81,9.89.29,2.58,1,5.06.38,7.69-1.86,4.21-8.19,3.13-11.92,3.5A176.7,176.7,0,0,0,111,103.6c-3.39.43-8.82.81-8-4.33a39.21,39.21,0,0,0,.6-19.51l1,.32c-2.27,2.14-5.37,4.89-7.6,7l-.32-.78a39.89,39.89,0,0,0-7-11L90,75a46.8,46.8,0,0,1,11.43-10.36A39,39,0,0,1,106,62.22l.34.69a47.36,47.36,0,0,0-15.42,12.8l0-.74A35.8,35.8,0,0,1,97.72,85.9l-.93-.2c2.31-2.18,5.38-5.09,7.7-7.3a37.43,37.43,0,0,1-.38,21.08c-.77,4,4.14,3.18,6.71,2.89a180.31,180.31,0,0,1,20-1.44c3.14-.16,6.77.16,9.57-1.28,1.45-.85,1.64-2.26,1.47-3.86s-.29-3.29-.5-4.93a84.8,84.8,0,0,0-2.17-11c4.11,2.33,9.4,5.56,13.48,8.06l-.85.58a20.27,20.27,0,0,1,3.14-15.29l.36,1c-6.46-2.09-13.05-4.73-17.89-9.65l.29-.39Z"/><path class="cls-2" d="M153.44,77.59a3.71,3.71,0,0,1,2.19,1c1.8,1.53,3.62,3,5.54,4.42l-.64-.06c2.65-1.31,6.78.24,6.93,3.46a4.57,4.57,0,0,1-8.2,3.45,4.8,4.8,0,0,1-.85-2.89l.24.47c-2.24-1.71-4.61-3.24-6.67-5.15l.46-.62a83.76,83.76,0,0,1,6.91,4.82l.22.15,0,.32c.19,3.47,4.55,5,6.43,1.84a3.48,3.48,0,0,0-2.69-5.23,6.37,6.37,0,0,0-2.65.63c-1.91-1.57-3.94-3-6-4.4A3.66,3.66,0,0,1,153.14,78l.3-.39Z"/><path class="cls-2" d="M92.56,77.91c-.44,1.53-1.82,2-2.88,2.91s-2.44,1.7-3.53,2.72a4.76,4.76,0,0,0-2.63-.78,3.12,3.12,0,0,0-3,3.06,4.86,4.86,0,0,0,2.66,3.84c2.53,1.12,4.56-2.25,3.83-4.47l.32-.2a80.23,80.23,0,0,1,6.84-4.61l.45.63c-2,1.85-4.39,3.3-6.61,4.94l.23-.62a4.5,4.5,0,0,1-2.38,5.33,4,4,0,0,1-5.35-2c-1.07-1.62-1.55-4.23.1-5.69s4-2,5.74-.62l-.66,0c1.54-1.33,3.14-2.58,4.61-4a3.47,3.47,0,0,1,1.91-.88l.31.37Z"/><path class="cls-2" d="M137.5,101c1.66,3,2.44,6.18,4.59,8.83a29.65,29.65,0,0,0,8.07,7.56l-1.08.43C145.19,119.4,141,120,137,120.91c-8.08,1.28-16.67.75-24.81,1.19l-13.6.93a55,55,0,0,0,7.19-14.93l1.42-4.95.75.16a28.68,28.68,0,0,1-1.13,5.1,56.1,56.1,0,0,1-6.51,14.26l-.57-.94c10.28-1.28,20.67-.78,31-1.13a70.53,70.53,0,0,0,18-3.86l-.14,1a33.73,33.73,0,0,1-7.54-7.11c-2-2.82-4.12-5.92-4-9.53l.48-.11Z"/><path class="cls-2" d="M136.21,120.49a5.25,5.25,0,0,1,.71,2.72c.07,2.77.14,5.54.34,8.29l-.92-.48a4,4,0,0,1,6,1.85c1.26,4.4-2.54,6.23-6.33,5.57a38.9,38.9,0,0,1-4.12-.8,3,3,0,0,1-1.25-2.61,11.83,11.83,0,0,1,.44-3.29v.18c-.19-3.6-.72-7.19-.66-10.8l.77-.07a54,54,0,0,1,.62,5.38c.3,1.81.22,3.65.49,5.46a14.26,14.26,0,0,0-.29,3.08,2.31,2.31,0,0,0,.5,1.58,3.9,3.9,0,0,0,.57.16c3.28.63,9.75,2.12,8.21-3.47-.8-2.69-3.46-1.85-5.25-.7,0-2.16-.29-4.32-.43-6.48,0-1.89-.77-3.67.07-5.53l.49,0Z"/><path class="cls-2" d="M136.51,128.62c-.1,1-.4.25-.58.51-.1.05-.22-.08-.32-.09s-.21.06-.31.09-.22-.06-.32-.1-.2.13-.31.11a1.27,1.27,0,0,0-.93.16c-.09,0-.21,0-.31,0a.86.86,0,0,1-.62.12c-.32-.11-.38.06-.62,0-.23-.19-.41.17-.65-.15l-.09-.76c.17-.36.42-.06.6-.29.24-.08.33.07.62-.11a.86.86,0,0,1,.63,0c.46-.16.51.05.95,0a1.54,1.54,0,0,1,.3-.11c.1,0,.22.1.32,0s.19-.18.29-.17.22.07.32,0,.19-.18.3-.15c.23.21.35-.62.67.37l.06.49Z"/><path class="cls-2" d="M116.69,121.36a4.7,4.7,0,0,1,.43,2.72c-.2,2.7-.42,5.4-.46,8.11l-.63-.65a4.67,4.67,0,0,1,4.59,3.81c.42,4.32-3.62,4.62-6.78,3.66a28.68,28.68,0,0,1-2.84-.86,2.21,2.21,0,0,1-1.14-1.56,8.39,8.39,0,0,1,.63-4.51l0,.19c.22-3.58,0-7.17.45-10.74l.77,0c.27,3.64,0,7.29,0,10.93a11.21,11.21,0,0,0-.58,3.86,1.08,1.08,0,0,0,.37.73c1.17.43,2.73.7,3.94,1.13,1.16.27,2.79.47,3.6-.43a3.34,3.34,0,0,0-.64-4.36,5.14,5.14,0,0,0-3-.65l.05-.63c.19-2.7.2-5.4.17-8.1a4.66,4.66,0,0,1,.6-2.68Z"/><path class="cls-2" d="M116.17,129.52c-.2,1-.41.21-.62.45-.1,0-.21-.1-.32-.12s-.2,0-.31.06-.21-.08-.31-.13-.21.1-.32.07a1.33,1.33,0,0,0-.94.07c-.1.05-.21,0-.31,0a.87.87,0,0,1-.63.06c-.31-.14-.39,0-.63,0-.21-.21-.42.13-.63-.21V129c.21-.35.42,0,.63-.23.24-.06.32.1.62,0a.81.81,0,0,1,.63,0c.47-.1.5.11,1,.1a1.57,1.57,0,0,1,.31-.08c.1,0,.21.12.31.06s.21-.16.32-.14.21.09.31.06.21-.17.31-.13c.22.24.42-.58.64.44v.49Z"/><path class="cls-2" d="M135.36,65.91a2.13,2.13,0,0,1-1.21,1.52A34.22,34.22,0,0,1,129,69.8c-4.8,1.22-10.19,1.42-14.78-.72-2.21-1.16-4.51-2.4-6-4.43l.54-.55c1.08.6,1.79,1.6,2.9,2.11.51.29,1,.65,1.49,1a22.62,22.62,0,0,0,6.71,2.21,17.87,17.87,0,0,0,7.1-.18,20.33,20.33,0,0,0,4.9-2c1.22-.45,1.74-1.68,3.22-1.62l.31.38Z"/></g><g id="顔-2" data-name="顔"><path class="cls-2" d="M140,88.46c3.06-8.73,7.78-17.37,9.19-26.59,1.88-9.22,1.29-18.76.36-28.06-2.17-14.57-8.06-27.9-24.26-29.94a24.48,24.48,0,0,0-13.64,1.9A19,19,0,0,0,97.94,15.4c-2.92,5.11-3.9,11-5,16.76-2,11.59-2,23.67,1.06,35.05a77.59,77.59,0,0,0,9.83,21.32l-.64.44A69,69,0,0,1,92.91,67.52C88.39,53.29,89.35,20.75,100.63,10a18.42,18.42,0,0,1,10.62-5.32,26,26,0,0,1,14.17-1.79,25.6,25.6,0,0,1,21.48,17,70.13,70.13,0,0,1,3.84,13.76,125,125,0,0,1,.83,14.22,72.42,72.42,0,0,1-4.94,28,65.88,65.88,0,0,1-6.19,12.82l-.44-.22Z"/><path class="cls-2" d="M135.17,24.74c.7-2.26,3.64-3.31,5-1a31.91,31.91,0,0,1,2.17,4.9c1,3.35,2.2,6.84,2.36,10.22A92.27,92.27,0,0,1,145,57.53a105.16,105.16,0,0,1-4.18,18.19,81.36,81.36,0,0,1-4.42,11.61l-.71-.29c2-5.81,4.28-11.61,5.6-17.62a86.51,86.51,0,0,0,3.09-18.14,50.34,50.34,0,0,0-.22-6.14A57.25,57.25,0,0,0,142.68,34a43,43,0,0,0-2.54-7.22c-.49-1-.83-2.27-1.81-2.72-1-.26-1.75.45-2.77,1l-.39-.3Z"/><path class="cls-2" d="M109.23,56.29c1.11,1.16.52,2.55.9,3.89a20.72,20.72,0,0,0,.58,3.92,19.58,19.58,0,0,0,.81,3.87,57.85,57.85,0,0,0,4.77,13c.33.57.7,1.12,1,1.7.51,1.24,1.52,2.14,2,3.44l-.62.45A34.53,34.53,0,0,1,112.75,76c-1.45-3.77-2.2-7.76-3.27-11.62-.12-1.35-.5-2.65-.71-4,0-1.35-.9-2.6,0-4l.48-.05Z"/><path class="cls-2" d="M112.4,26.88c.54,1.08-.42,1.42-.62,2.31a11.6,11.6,0,0,1-.57,1,11.38,11.38,0,0,1-.89,2.17,18.69,18.69,0,0,1-.68,2.25,17.41,17.41,0,0,0-.4,2.31c-.31,1.13-.24,2.31-.47,3.46a13,13,0,0,0-.14,2.33c-.22.78.12,1.56-.19,2.36l-.77,0c-.37-.79-.06-1.6-.26-2.41,0-.8.14-1.6.09-2.42a24.93,24.93,0,0,1,1.21-5.91,9.62,9.62,0,0,1,.69-2.31,7.44,7.44,0,0,1,.76-2.29,7.44,7.44,0,0,1,.36-1.16c.53-.74.25-1.77,1.45-2l.43.23Z"/><path class="cls-2" d="M101.7,72.59c1,.59.36,1.32.65,2.13a9.83,9.83,0,0,1,.05,1.09,11.27,11.27,0,0,1,.38,2.15,20.2,20.2,0,0,1,.62,2.09,12.21,12.21,0,0,0,.93,2,8.13,8.13,0,0,0,1,1.9,16.34,16.34,0,0,0,1.72,2.76c.27.7,1,1,1.22,1.81l-.57.52c-.76-.33-1-1.13-1.62-1.6s-.82-1.28-1.31-1.86a19.13,19.13,0,0,1-2.31-5.18,8.54,8.54,0,0,1-.66-2.16,6.25,6.25,0,0,1-.55-2.2A5.34,5.34,0,0,1,101,74.9c.06-.85-.7-1.54.22-2.28l.49,0Z"/><path class="cls-2" d="M106.61,70c1,.72.37,1.57.68,2.48.09.41,0,.85.07,1.27a14.81,14.81,0,0,1,.44,2.48c.41,1.18.65,2.45,1.18,3.6.36.65.79,1.61,1.08,2.28.71,1,1.23,2.2,1.89,3.26.24.34.53.65.75,1,.33.8,1.12,1.24,1.42,2.09l-.57.52c-.84-.43-1.14-1.31-1.83-1.88s-.94-1.48-1.49-2.16a23.16,23.16,0,0,1-2.63-6,10.91,10.91,0,0,1-.75-2.5,8.15,8.15,0,0,1-.61-2.53,7.23,7.23,0,0,1-.31-1.28c.06-1-.73-1.77.19-2.63l.49,0Z"/><path class="cls-2" d="M144.82,43.87a2.63,2.63,0,0,1-.64,1.85A12.2,12.2,0,0,0,142.54,49c-.47,1.82.15,3.64.58,5.43.54,4.46.26,6.77-4.61,7.88-1.36.21-2.33-.47-3.45.39a5,5,0,0,0-1.8,2.82c-.11.56-.13,1.13-.2,1.74l-.76.12a5.15,5.15,0,0,1,4.21-6.42,8,8,0,0,0,3.53-.39,3.74,3.74,0,0,0,2.17-2.3,15.45,15.45,0,0,0-.53-5.49,5.89,5.89,0,0,1-.53-2,12.78,12.78,0,0,1,1.75-5.83,2.33,2.33,0,0,1,1.52-1.34l.4.29Z"/><path class="cls-2" d="M137.3,41.4c1,.32.2.63.44,1,0,.16-.11.31-.12.47,0,.43.16.49-.08,1-.06.15.1.31.07.47a3.55,3.55,0,0,1-.08.47,7.68,7.68,0,0,1,.11,1.42,1.92,1.92,0,0,1,.05.95c-.12.34,0,.62,0,.94-.22.32.12.64-.22.95h-.77c-.35-.31,0-.63-.23-.95a3.32,3.32,0,0,0,0-.94c-.14-.53.11-.72,0-1.42a3,3,0,0,0,.05-1.42c0-.16.13-.32.07-.47s-.16-.32-.13-.48a1.83,1.83,0,0,0,0-.47c0-.16-.16-.31-.12-.47.24-.32-.57-.63.45-1Z"/><path class="cls-2" d="M121.57,41.4c1,.32.21.63.44,1,0,.16-.1.31-.12.47,0,.43.16.49-.08,1-.06.15.1.31.07.47s-.06.32-.07.47a7.66,7.66,0,0,1,.1,1.42,1.81,1.81,0,0,1,0,.95c-.12.36,0,.61,0,.94-.21.32.12.64-.22.95h-.77c-.34-.31,0-.63-.22-.95,0-.32.09-.6,0-.94-.14-.52.11-.72,0-1.42a3,3,0,0,0,.05-1.42c0-.16.13-.32.07-.47s-.16-.32-.13-.48a1.48,1.48,0,0,0,.06-.47c0-.16-.17-.31-.13-.47.24-.32-.57-.63.45-1Z"/><path class="cls-2" d="M136.11,52.24a1,1,0,0,1,0,1.25,7.62,7.62,0,0,1-1.44,1.84,4.22,4.22,0,0,1-1.79,1.42c-.35.16-.61.48-1,.61a12.66,12.66,0,0,1-3.39.72,7.15,7.15,0,0,1-3.36-.93,11.76,11.76,0,0,1-1.82-1.46c-.37-.69-1.09-1.16-1.13-2l.69-.34c.59.44.7,1.16,1.32,1.51A4.39,4.39,0,0,0,125.81,56a6.92,6.92,0,0,0,2.79.82,4.26,4.26,0,0,0,2.88-.51c.29-.16.66-.18.91-.41.44-.52,1-.86,1.47-1.36.3-.58.88-1.24.93-1.73.09-.33.25-.58.85-.75l.47.15Z"/><path class="cls-2" d="M111.31,64.81a2.22,2.22,0,0,1-.25-1.75,9,9,0,0,0,0-3.23,6.09,6.09,0,0,0-1.76-2.55,16.52,16.52,0,0,1-2.66-2.35c-1.35-1.23-2.77-2.62-3.07-4.51-1.4-3.74,2.08-6.73,5.69-5.48a2.91,2.91,0,0,1,1.57,1.13l-.53.57c-.5-.24-.92-.49-1.4-.67a4.11,4.11,0,0,0-2.94.25c-1.38.76-1.51,2.37-1.26,3.91.7,2.82,3.15,4.55,5.19,6.37a4.52,4.52,0,0,1,2.25,3,6,6,0,0,1,.44,1.84c-.13,1.26.44,2.62-.77,3.56l-.47-.1Z"/><path class="cls-2" d="M133.54,25.4a2.48,2.48,0,0,1-1.83-.82,9.22,9.22,0,0,0-1.8-1.46c-.07,0,0,0,0,0a.89.89,0,0,0-.77.12c-1,.66-1.78,1.76-2.76,2.5a24.8,24.8,0,0,1-2.74,2.78,42.56,42.56,0,0,1-7.59,6.21,40.87,40.87,0,0,1-7,3.58l-.34-.7c1-.88,2.3-1.16,3.32-2a64.49,64.49,0,0,0,9.46-6.54,24.84,24.84,0,0,0,2.75-2.68c1.54-1.31,2.48-3.06,4.27-4.15a2.37,2.37,0,0,1,1.65-.47,2.46,2.46,0,0,1,.83.45c1,1,2.43,1.23,2.79,2.78l-.31.38Z"/></g></g><g id="子供_3" data-name="子供②"><g id="体-3" data-name="体"><path class="cls-2" d="M227.33,64c5.13,3.91,10.57,7.5,17,8.7A17.9,17.9,0,0,0,241,85.58l.13,1-.9-.35a31.15,31.15,0,0,1-11.93-8.08l1.08-.29a20.22,20.22,0,0,0,.24,10.75,19.61,19.61,0,0,0,2.48,4.84c1.14,1.62,2.84,4,.61,5.62-1.83,1.09-3.78.9-5.74,1h-5.6a118.25,118.25,0,0,0-22.12,2.2c-3.47.44-9.06,2-10.75-2.28a15.21,15.21,0,0,1-.11-5.82,78.14,78.14,0,0,1,3.34-16.51l.82.75a9.24,9.24,0,0,0-5.72,6.92l-.69-.51a22.75,22.75,0,0,1-7.95-10.67l.36-.24c5.33-3.55,10.21-7.7,15.43-11.39l.49.59c-4.91,4.15-10,8-15.29,11.71l.2-.66a23.71,23.71,0,0,0,7.46,9.71l-.92.32a10.54,10.54,0,0,1,6.18-6.92l1.18-.47L192.87,78a94.21,94.21,0,0,0-3.22,16.3,14.88,14.88,0,0,0,0,5.28c1.41,3.54,6.47,1.73,9.39,1.44,9.18-1.73,18.58-2,27.9-2,4-.2,7.91-.22,4.25-5a21.35,21.35,0,0,1-3-16.45l.25-1.2a29.35,29.35,0,0,0,12.22,8.76l-.77.63a17.69,17.69,0,0,1,2.82-13l.4,1c-6.1-1.46-12.25-4.3-16.06-9.46l.35-.34Z"/><path class="cls-2" d="M227.77,99.47c1.54,2.62,2.14,5.46,3.79,8a56.34,56.34,0,0,0,5.92,7.51,14.65,14.65,0,0,1-6.91,2.42c-2.28.08-4.38-.41-6.53-.36s-4.28-.21-6.42-.32a52.61,52.61,0,0,0-12.73.57,35.93,35.93,0,0,0-6.1,1.84,20.42,20.42,0,0,1-13.06-.6l-.69-.24.4-.62a52.36,52.36,0,0,0,7-15.44l.75.15c-.89,5.75-3.58,11.12-6.78,15.93l-.29-.87a22.08,22.08,0,0,0,6.16,1.12c4.41.44,8.17-1.52,12.4-2.49,6.44-1.07,13-.19,19.46-.12,4.25.61,8.44.59,12.2-1.59l-.11.88-1.53-1.69a28,28,0,0,1-4.26-5.37c-1.56-2.62-3.29-5.39-3.13-8.57Z"/><path class="cls-2" d="M222.33,116.3a7,7,0,0,1,1.07,3.39,88.91,88.91,0,0,0,1.82,10.37l-.33-.43a28.89,28.89,0,0,0,4.6,2.08,2.19,2.19,0,0,1,1.24,1c1.88,4.11-3.4,4.77-6.16,5.48a10.1,10.1,0,0,1-2.7.51c-1.3-.24-1.51-1.46-1.88-2.4-1.33-3.2-1.22-6.69-2-10s-1.35-6.64-1.7-10l.75-.15c1.3,4.91,2.08,10,3,15a21.91,21.91,0,0,0,1.41,5.94.71.71,0,0,0,.5.43,15.52,15.52,0,0,0,2.27-.4c2.16-.53,6.9-.59,5.45-3.81a1.49,1.49,0,0,0-.7-.57c-1.56-.74-3.37-1.29-5-2.05l-.06-.3-.67-3.47c-.64-2.28-.88-4.63-1.41-6.93a7.14,7.14,0,0,1-.07-3.56l.48-.07Z"/><path class="cls-2" d="M205.26,116.63c.87,2.47-.07,4.84,0,7.32a65.65,65.65,0,0,0-.35,7.29l-.16-.43a14.07,14.07,0,0,0,3.51,3.15,3.56,3.56,0,0,1,1.29,1.3,3,3,0,0,1-.76,3.58,7.06,7.06,0,0,1-3.37.8,38,38,0,0,1-4.89.29c-4.07.09-2.56-5.34-2.26-7.28.24-3.5.38-7.36.57-10.85a23.15,23.15,0,0,1,.31-3.61l.77,0c.18,4.75-.33,9.71-.33,14.48-.14,1.07-.36,2.09-.45,3.21-.08.8-.25,2,.24,2.56a2.45,2.45,0,0,0,1.21.21c1,0,3.73-.05,4.76-.09a6.69,6.69,0,0,0,2.86-.52,2,2,0,0,0,.38-2.3,3.88,3.88,0,0,0-1-.95c-1.28-1.09-2.77-2.14-3.93-3.35.1-3.76.24-7.51.37-11.26a7.39,7.39,0,0,1,.72-3.63l.49,0Z"/><path class="cls-2" d="M224,127.19c.08,1-.35.32-.49.6-.09.07-.23,0-.34,0s-.19.1-.29.15-.22,0-.34,0-.18.16-.29.16a1.36,1.36,0,0,0-.9.32c-.09.08-.22,0-.31.07s-.36.27-.6.23-.37.12-.62.15c-.26-.15-.37.23-.67,0l-.22-.74c.11-.38.41-.12.55-.39.22-.12.34,0,.6-.21a.87.87,0,0,1,.63-.13c.41-.23.53,0,.94-.17.1,0,.19-.13.29-.16s.24.06.32,0,.16-.21.27-.22.23,0,.32,0,.16-.22.27-.21c.27.17.25-.67.74.25l.14.47Z"/><path class="cls-2" d="M204.32,129.15c-.3,1-.45.16-.69.38-.11,0-.21-.13-.32-.15s-.22,0-.33,0-.21-.11-.32-.17-.22.08-.33,0a1.46,1.46,0,0,0-1,0c-.11,0-.21-.07-.32-.06a.89.89,0,0,1-.66,0c-.3-.17-.41,0-.65-.09-.2-.24-.45.08-.64-.28l.07-.77c.25-.32.44,0,.67-.16.26,0,.33.13.66,0a.93.93,0,0,1,.65.11c.46-.06.54.17,1,.2a1.88,1.88,0,0,1,.33-.05c.11,0,.21.15.32.1s.23-.14.34-.11.21.11.32.09.24-.14.34-.09c.2.25.49-.54.62.5l-.05.49Z"/><path class="cls-2" d="M225.75,65.63c-.29,1.68-1.94,2.06-3.06,3a42,42,0,0,1-3.9,1.83,21.65,21.65,0,0,1-6.33,1A22.17,22.17,0,0,1,202,70c-2.55-1.23-5.17-2.63-6.94-4.91l.54-.55a40,40,0,0,0,5,3.47,25.23,25.23,0,0,0,9.76,2.48,28.37,28.37,0,0,0,6.11-.48A18.44,18.44,0,0,0,222,67.48c1.33-.62,1.85-2,3.46-2.2l.34.35Z"/><path class="cls-2" d="M241.19,77.22a4,4,0,0,1,2.54.87c1.47,1,3.05,1.77,4.51,2.76.76.44,1.57.8,2.33,1.25l-.84.21a4.27,4.27,0,0,1,5-1.56c2.62,1.2,3.14,5.09,1.18,7.12a4.54,4.54,0,0,1-5.29.54,5.06,5.06,0,0,1-1.84-2l.29.29c-3-1.66-6.13-2.89-9-4.73l.34-.69c3.24,1.18,6.2,3,9.36,4.34,1.55,2.91,5.35,3.13,6.22-.36a3,3,0,0,0-3.7-3.61,4,4,0,0,0-1.81,1.86l-.53-.28c-2.27-1.36-4.59-2.6-6.95-3.8A4,4,0,0,1,241,77.65l.24-.43Z"/><path class="cls-2" d="M182.75,80.85a4.28,4.28,0,0,1-1.64,2.06c-2,1.64-4.23,3-6.27,4.62l.27-.56a4.33,4.33,0,0,1-.81,2.92c-1.81,3.21-5.63,2.91-7.56,0-2.82-4,1.63-8.75,6-7.3l-.49.08c1.66-1.12,3.21-2.4,4.9-3.47A19.14,19.14,0,0,1,180,77l.51.58a12.79,12.79,0,0,1-1.76,1.69c-1.86,1.59-3.9,3-5.84,4.44l-.18.15-.31-.07c-3.54-.7-6.64,2-4.75,5.55a3.26,3.26,0,0,0,5.81.06,5,5,0,0,0,.41-2.68,48.39,48.39,0,0,0,6.27-5,4.24,4.24,0,0,1,2.29-1.27l.33.37Z"/></g><g id="顔-3" data-name="顔"><path class="cls-2" d="M177.52,75.91c2.74-8.7,6.09-17.75,4.1-26.93-.84-3.61-1.88-7.37-1.93-11.12C178.63,19.26,192.92,5.34,211,4.22c15.49-1,29.91,11.55,32.17,26.71a42.55,42.55,0,0,1-.76,16.93c-.9,3.65-2.76,6.94-3.37,10.63A39.78,39.78,0,0,0,240,74.91l-.74.21A34,34,0,0,1,237.52,64a32.69,32.69,0,0,1,2-11.16,42.5,42.5,0,0,0,2.79-10.67c2.19-16.89-8.41-33.84-25.74-36.54-12.64-2-26.48,4.87-32.45,16.21a31.15,31.15,0,0,0-3,10.52,34.74,34.74,0,0,0,.36,11c.84,3.61,2.24,7.3,2.12,11.1-.23,7.5-1.54,15.32-5.61,21.74l-.45-.21Z"/><path class="cls-2" d="M233.35,67.42c.5.08.61.19.54.32a.36.36,0,0,0,0,.37c.06.12-.07.26-.07.39s.08.23.12.35,0,.26-.07.39.15.22.15.35,0,.26,0,.38c.09.43.36.59.38,1a1.2,1.2,0,0,1,.28.68c0,.37.16.43.22.71-.11.31.3.41.08.77l-.71.31c-.42-.11-.21-.48-.5-.64-.14-.25-.06-.46-.3-.73a1.28,1.28,0,0,1-.19-.77c-.23-.4-.09-.73-.2-1.16a1.89,1.89,0,0,1-.16-.36c-.06-.13.07-.29,0-.4s-.21-.23-.21-.36a1.07,1.07,0,0,0,0-.4c0-.13-.2-.24-.17-.37a.42.42,0,0,0-.12-.39c-.09-.12,0-.26.47-.44l.49,0Z"/><path class="cls-2" d="M228.64,66.44c.49.27.57.5.5.74a1.19,1.19,0,0,0,0,.72c.06.24-.08.49-.07.73a4.37,4.37,0,0,1,.12,1.45c0,.25.19.45.21.69a4.61,4.61,0,0,0,.7,2,17.74,17.74,0,0,0,1,1.88,3.79,3.79,0,0,0,.35.62,2.93,2.93,0,0,1,.46.54c.17.49.74.6.83,1.19l-.52.57c-.6-.13-.72-.74-1.24-1a21,21,0,0,1-1.39-1.91c-.18-.5-.41-1-.63-1.44a16.06,16.06,0,0,0-.65-2.25c-.08-.25,0-.53-.08-.77a3,3,0,0,1-.29-1.52,2.88,2.88,0,0,1-.17-.76,1.75,1.75,0,0,0-.09-.78c-.08-.26,0-.52.52-.76Z"/><path class="cls-2" d="M198.66,49c1.09,1.09.45,2.4.71,3.69-.08,1.86.16,3.74-.08,5.6-.11,4.33-.12,8.82-1.27,13-.81,2.37-1.44,4.86-2.9,6.93l-.69-.34c.25-1.24,1-2.22,1.26-3.44.18-.59.43-1.14.63-1.71a59.15,59.15,0,0,0,1.71-9,28.09,28.09,0,0,0,.17-3.68c0-.61.15-1.22.11-1.84-.2-1.84,0-3.69-.31-5.52.13-1.31-.7-2.46.17-3.71l.49-.05Z"/><path class="cls-2" d="M191.4,62.65c.56.24.66.56.62.89a18.67,18.67,0,0,1-.05,1.94,5,5,0,0,1-.07,1.92,19.44,19.44,0,0,1-.19,2.88,7.25,7.25,0,0,1-.24,1.91,6.12,6.12,0,0,1-.39,1.89c-.28.59-.35,1.23-.59,1.83-.4.54-.32,1.26-.88,1.72l-.71-.29c-.08-.7.44-1.16.44-1.82a6.94,6.94,0,0,1,.31-.87,20.73,20.73,0,0,1,.67-2.69,11.71,11.71,0,0,1,.36-1.82c.23-1.07.06-1.49.25-2.77a6.38,6.38,0,0,1-.09-1.85c-.25-.78-.08-1.27-.32-1.82-.1-.3-.07-.61.4-1l.48-.06Z"/><path class="cls-2" d="M185.65,65.21c.53.13.67.36.62.6a1.45,1.45,0,0,0,0,.72c.07.23-.06.48-.06.72a2.66,2.66,0,0,1-.06,1.4c-.07.23.07.48,0,.71a11.4,11.4,0,0,0-.28,2.1,10.88,10.88,0,0,1-.6,2c-.29.4-.37.88-.61,1.28-.41.32-.35.9-.89,1.12l-.65-.42c-.06-.54.44-.75.45-1.25a3.15,3.15,0,0,1,.31-.57,2.23,2.23,0,0,0,.19-.62,18.11,18.11,0,0,0,.6-1.85,5.32,5.32,0,0,0,.37-1.26c0-.22,0-.45,0-.66s.16-.43.11-.65a2.58,2.58,0,0,1-.13-.65,2.93,2.93,0,0,0,0-.66c0-.21-.2-.42-.18-.63a1,1,0,0,0-.15-.64c-.11-.2-.06-.41.39-.73l.48-.1Z"/><path class="cls-2" d="M230.87,28.38c2,1.89,2.79,4.56,3.35,7.14a24.3,24.3,0,0,1,.64,8.7c-2.8-1.15-5.72-2-8.59-2.86-8.66-2.92-16.56-2.06-21.74-11.25l1.14-.34c.63,6.56-2,13.65-7.85,17.12A5.13,5.13,0,0,1,195,48c-.9-.24-.69-1.11-.35-1.66a16.2,16.2,0,0,0,.66-14.5l.69-.34a15.79,15.79,0,0,1-.31,15.4c-.08.15-.18.37-.18.36a.42.42,0,0,0-.25-.4c3.45-1.17,6.23-4.66,7.78-7.87,1.78-3.67,1.61-8,1.23-11.94l1.34,2.53c2.68,5.28,7.17,7.74,12.9,8.67a124.1,124.1,0,0,1,16,4.65l-.78.52a26.81,26.81,0,0,0-2.11-11.09,32.51,32.51,0,0,1-1.2-3.65l.42-.25Z"/><path class="cls-2" d="M233.19,43.8a2.15,2.15,0,0,1-.41,1.74,16.08,16.08,0,0,0-1.46,3,9.14,9.14,0,0,0-.22,2.39,11.71,11.71,0,0,0,.2,2.64,20.24,20.24,0,0,1-.12,3.64,7,7,0,0,1-3.5,4.36c-1,.64-2.3.36-3.05,1.15-1,1.26-1,2.91-.84,4.47l-.74.22c-.69-1.15-.36-2.46-.25-3.72a3.84,3.84,0,0,1,2.77-2.79,7.65,7.65,0,0,0,2.84-1.37A6.87,6.87,0,0,0,230.17,57a9,9,0,0,0,0-3.32,11.75,11.75,0,0,0-.24-2.58,11,11,0,0,1,.78-4.57c.66-1.07.62-2.5,2.06-3l.41.26Z"/><path class="cls-2" d="M225.38,43.37c1,.12.38.35.58.81.06.14-.07.31-.07.45a1.77,1.77,0,0,0,.11.44c0,.15-.07.31-.11.46s.12.29.09.44a2.6,2.6,0,0,0,0,.88,1.6,1.6,0,0,1,0,.89,1.39,1.39,0,0,1,0,.9c-.18.32-.08.57-.17.87-.26.26,0,.62-.36.84l-.75-.17c-.29-.35.08-.56-.09-.87a1,1,0,0,1,.1-.41,2.93,2.93,0,0,1,.15-1.23c-.07-.45.16-.8.14-1.25,0-.14-.08-.28-.08-.42s.11-.28,0-.42-.18-.26-.17-.4a1.2,1.2,0,0,0,0-.42c0-.14-.2-.26-.18-.4a.42.42,0,0,0-.12-.39c-.1-.13,0-.27.43-.5l.48-.1Z"/><path class="cls-2" d="M210,43.37c1,.12.38.35.58.81.06.14-.06.31-.06.45a1.4,1.4,0,0,0,.1.44c0,.15-.07.31-.1.46s.11.29.09.44a2.36,2.36,0,0,0,0,.88,1.8,1.8,0,0,1,0,.89,1.46,1.46,0,0,1-.05.9c-.18.32-.09.57-.18.87-.25.26,0,.62-.35.84l-.75-.17c-.3-.35.07-.56-.09-.87a.85.85,0,0,1,.09-.41,2.79,2.79,0,0,1,.16-1.23c-.08-.45.15-.8.13-1.25,0-.14-.08-.28-.08-.42s.11-.28,0-.42-.18-.26-.17-.4a1.2,1.2,0,0,0,0-.42c0-.14-.19-.26-.17-.4a.4.4,0,0,0-.13-.39c-.1-.13,0-.27.43-.5l.48-.1Z"/><path class="cls-2" d="M224,53.79a.93.93,0,0,1,.1,1.23,6.52,6.52,0,0,1-1.42,1.82,3.86,3.86,0,0,1-1.83,1.33,6.1,6.1,0,0,1-3.27.82,4.72,4.72,0,0,1-2.23-.32,4.65,4.65,0,0,1-2-1,11.16,11.16,0,0,1-1.64-1.58c-.29-.71-.95-1.22-.93-2l.72-.28c.55.46.59,1.18,1.16,1.58.24.22.4.49.63.72a13.88,13.88,0,0,0,2.48,1.45c1.22.29,2.56.68,3.76.07.29-.12.64-.11.9-.32s.46-.46.73-.64a3.25,3.25,0,0,0,.74-.6c.29-.56.87-1.24.87-1.67s.22-.55.81-.74l.47.13Z"/><path class="cls-2" d="M199,57.2c.54-.11.75,0,.81.27a1.24,1.24,0,0,0,.32.61c.16.17.15.45.24.65a2.57,2.57,0,0,1,.57,1.24c0,.23.28.36.34.58s.13.44.21.66a4.19,4.19,0,0,1,.53,2.11c.17,1.06-.18,1.54-.67,2.81-.4.32-.35.9-.9,1.1l-.63-.44c0-.53.44-.71.43-1.19a2.73,2.73,0,0,1,.27-.54,2.07,2.07,0,0,0,.12-.59c0-.63.31-1.1.14-1.72a2.63,2.63,0,0,0-.52-1.73c-.11-.19-.06-.46-.21-.63-.44-.39-.4-.64-.66-1.1-.12-.18-.35-.28-.43-.48a.94.94,0,0,0-.4-.5c-.18-.13-.23-.35.05-.82l.39-.29Z"/></g></g><g id="子供_4" data-name="子供①"><g id="体-4" data-name="体"><path class="cls-2" d="M314.37,63.17c6.16-.49,12.3-.49,18.24-2.28a24.56,24.56,0,0,1,2.2,12.44q-4.59.44-9.17,1l.54-.6q.07,6.21-.26,12.42c-.13,1.79-.28,4.45-.46,6.19a44.11,44.11,0,0,0,.26,6.08l0,.53-.48.09c-6.52,1.07-15.54,2.83-21.9,4.25-7.57,1.69-15.48.4-22.7-2.17.38-7.53.88-15.36,1-22.92l.84.53c-1.62.73-3.22,1.49-4.82,2.26a17,17,0,0,0-7-9.86l.49-.46a20.89,20.89,0,0,1,8.14-4.94,66,66,0,0,0,8.62-3.41l.36.68c-5.22,3.39-12,3.68-16.32,8.48l-.07-.87A16.35,16.35,0,0,1,278.58,80l-.81-.37q2.12-1,4.2-2l.85-.41v1c.05,7.43-.28,15.14-.86,22.53l-.41-.64a40.5,40.5,0,0,0,21.62,2.13c3.64-.7,7.29-1.49,10.95-2.17l11-2.1-.45.62c-.65-4.17.16-8.3.27-12.46s0-8.62.08-12.93c3.08-.27,6.15-.57,9.22-.92l-.52.55a25,25,0,0,0-.47-5.52A25.84,25.84,0,0,0,331.6,62l.79.39c-5.86,1.49-12.05,2.66-18.06,1.3l0-.48Z"/><path class="cls-2" d="M317.06,99.94c1.51,3.45,1.78,7.1,2.48,10.73,1,3.7,1.86,7.42,2.8,11.12a80.32,80.32,0,0,1-7.67,3.93c-2.53,1-5.18,1.72-7.78,2.54l-.51.17-.11-.56c-.88-4.11-1.46-8.3-2.69-12.31-.39-1.08-.75-2.58-1.62-3.3a7.34,7.34,0,0,0-1.08,3.15,111.54,111.54,0,0,0-1.27,13,47.68,47.68,0,0,1-8.86,0,61.37,61.37,0,0,1-8.67-1.66c.65-6.07,1.35-12.75,2.18-18.83.25-2,.54-4.07.94-6.08l.77.1c-.79,8.15-1.85,16.26-2.65,24.41l-.44-.63a63.11,63.11,0,0,0,8,1.33,53.56,53.56,0,0,0,8.11.16l-.56.57a90,90,0,0,1,1.36-12.67c.35-1.2.71-4.21,2.47-3.91,1.48.77,1.7,2.6,2.25,4a83.83,83.83,0,0,1,2.75,12.43l-.62-.4a47.34,47.34,0,0,0,7.56-2.72,75.1,75.1,0,0,0,7.19-3.57l-.25.65c-1.55-5.32-3-10.67-4-16.11a25.6,25.6,0,0,1-.52-5.53l.49-.08Z"/><path class="cls-2" d="M316.51,124.38a9.2,9.2,0,0,1,1.34,1.47c.51.43,1.37.28,2,.52a21.56,21.56,0,0,1,3.24,1.13c1.33,1.06,1.21,2.82,1.05,4.31-1.39,3.8-9.55,4.07-13,3.69l-.52-.08c-.28-2.76-1.11-5.74-1.3-8.45l.76-.16c.92,2.57,1.12,5.31,1.73,8l-.58-.52c3.09.07,6.24.26,9.22-.65a3.5,3.5,0,0,0,2.77-2.75,2.62,2.62,0,0,0-2.15-2.9c-.89-.17-2.2-.34-3.09-.56a2.8,2.8,0,0,1-1.79-1,1.9,1.9,0,0,1-.22-1.85l.48-.11Z"/><path class="cls-2" d="M295,128c.92.86.86,1.31,1.64,2.15a18.6,18.6,0,0,1,2,2.28c.52.65,1.29,1.18,1.47,2.11a4.36,4.36,0,0,1-2.18,3.66c-2.11.81-4.26.28-6.31-.23a28.41,28.41,0,0,1-5.61-2.48l-.4-.27.1-.4c.57-2.22.9-5.35,1.58-7.43l.76.12c0,2.57-.78,5-1.12,7.56l-.3-.67c.87.43,1.78.83,2.64,1.3a13.65,13.65,0,0,0,2.73,1.09c1.86.69,4.26,1.42,5.93.08a2.05,2.05,0,0,0,.95-2.11c-.57-1.51-2.22-2.42-3.19-3.69-.32-.39-.81-.6-1.16-1.23a1.82,1.82,0,0,1,0-1.78L295,128Z"/><path class="cls-2" d="M333.34,64.62a7.38,7.38,0,0,1,3.82-.69,55.17,55.17,0,0,0,7.61-.67c2.14-.65,4.44-.75,6.55-1.45a5.06,5.06,0,0,1,3-.64,2.09,2.09,0,0,1,1.45,3.62c-1.07.89-2.57,1.11-3.81,1.51-.64.18-1.27.29-1.91.43l.46-.86a22.85,22.85,0,0,1,.94,2.9,3.43,3.43,0,0,1-2.73,4,5.78,5.78,0,0,1-5.93-3.37c-.31-.46-.91-.43-1.43-.43-2.43-.14-4.91.06-7.33-.3l0-.77c1.94-.24,3.86,0,5.81-.07,1.05,0,2.21-.34,3.19.23s1,1.76,1.87,2.35C346.72,72,350.52,72,350.31,69a24.1,24.1,0,0,0-.93-2.62l-.24-.76c2-.37,4.32-.53,6-1.55a1.11,1.11,0,0,0,.26-1.24c-.26-.75-1.84-.68-2.83-.38s-2.68.79-3.75,1.11a62.7,62.7,0,0,1-11.54,1.8,7.47,7.47,0,0,1-3.91-.25v-.49Z"/><path class="cls-2" d="M274.26,73.5c-1.42,2.1-3.95,2.73-5.9,4.2-2.28,1.12-4.24,2.74-6.5,3.9-1.86-1.29-5.19-.09-5.26,2.3.15,1.19.33,3.42,1.72,3.79,2.34.45,4.48-.77,4.05-3.37l-.07-.46.4-.24c4.54-2.48,8.86-5.34,13.49-7.65l.4.66c-3.15,2.29-6.61,4.05-9.9,6.13-1.09.7-2.18,1.39-3.3,2l.33-.7A4.28,4.28,0,0,1,259.43,89c-3.06.23-3.59-2.63-3.8-5.08a3.84,3.84,0,0,1,3.68-3.79,6.18,6.18,0,0,1,2.79.33l-.53,0c3-2,6.12-3.85,9.12-5.88A6.45,6.45,0,0,1,274,73.08l.26.42Z"/><path class="cls-2" d="M314.39,65.71c-.24,1.5-1.72,1.62-2.72,2.36-1.09.53-2.27.82-3.4,1.26a22.3,22.3,0,0,1-5.35.33c-2.93,0-6,.18-8.8-.9-2.11-.88-4.55-2.21-5.8-4.18l.57-.52c1,.6,1.63,1.57,2.68,2,.48.26.93.6,1.42.86a23.6,23.6,0,0,0,8.22,1.64,35.11,35.11,0,0,0,5.13,0c1.08-.32,2.17-.5,3.22-.89A15.8,15.8,0,0,0,312.42,66a2.19,2.19,0,0,1,1.65-.61l.32.37Z"/></g><g id="顔-4" data-name="顔"><path class="cls-2" d="M305.61,15.91c1.14-.59,1.68.45,2.62.73a7.83,7.83,0,0,1,1.11.77A8,8,0,0,1,311.53,19a9.9,9.9,0,0,1,2,1.73c.57.56,1.42,1.29,2,1.86a18.91,18.91,0,0,1,3,4.46,6.86,6.86,0,0,1,.63,1.2c.2.89.84,1.6.81,2.57l-.73.25c-.6-.7-.61-1.61-1.18-2.31a11.94,11.94,0,0,0-1.24-2.24c-1.44-2.11-2.82-4.36-4.93-5.89-.35-.24-.58-.64-1-.85s-.79-.38-1.13-.64a7.85,7.85,0,0,0-2.23-1.27,3.5,3.5,0,0,0-1.17-.51,1.32,1.32,0,0,1-1-1l.18-.46Z"/><path class="cls-2" d="M302.46,18.12c.2.53.1.79-.12.95a1.51,1.51,0,0,0-.55.6c-.12.25-.4.38-.56.6a5.2,5.2,0,0,1-.92,1.35c-.18.22-.17.53-.32.76a5.55,5.55,0,0,0-.71,1.47,9,9,0,0,1-.48,1.55,18.65,18.65,0,0,1-.59,2.37,4.39,4.39,0,0,1-.11.81c-.29.51,0,1.08-.38,1.6l-.77,0c-.31-.6.08-1.14-.05-1.73a12.66,12.66,0,0,1,.78-3.36c.25-1.12,1-2.07,1.32-3.18.1-.27.37-.44.46-.72a3.16,3.16,0,0,1,.31-.81,6.66,6.66,0,0,0,.91-1.48,1.92,1.92,0,0,0,.47-.73c.12-.27.38-.44.94-.33l.37.32Z"/><path class="cls-2" d="M292.06,21.52c.6.95-.28,1.23-.41,2a6.09,6.09,0,0,0-.76,1.88,5.88,5.88,0,0,1-.43.92,8.43,8.43,0,0,0-.2,1,9.42,9.42,0,0,0-.56,3c-.25,1-.12,2-.3,3a10.48,10.48,0,0,0-.09,2c-.2.68.15,1.34-.14,2l-.77.06c-.39-.68-.09-1.39-.3-2.08,0-.71.1-1.4,0-2.1A21.71,21.71,0,0,1,289,28.1a7.06,7.06,0,0,1,.52-2,5.78,5.78,0,0,1,.58-2,5.09,5.09,0,0,1,.26-1,3.13,3.13,0,0,0,.35-1,.92.92,0,0,1,.9-.73l.44.21Z"/><path class="cls-2" d="M284.72,29.53c.64.92-.22,1.21-.3,2a9,9,0,0,1-.4.91,9.67,9.67,0,0,1-.5,1.9,22.2,22.2,0,0,0-.25,2.95,16.26,16.26,0,0,1,.13,2c.31,1.29.3,2.61.73,3.85,0,.7.51,1.21.44,1.94l-.72.29c-.57-.52-.49-1.29-.88-1.89-.23-.65-.27-1.36-.51-2a16.17,16.17,0,0,1-.32-3.11c.08-1,.19-2.11.19-3.11,0-.35.22-.67.22-1a4.6,4.6,0,0,1,.07-1,13.61,13.61,0,0,0,.49-2,3.1,3.1,0,0,0,.29-1c.06-.35.26-.66.87-.76l.45.2Z"/><path class="cls-2" d="M275.71,34.12c.44.38.49.69.37,1-.27.55-.11,1-.41,1.78a5.81,5.81,0,0,1-.23,1.81,8.44,8.44,0,0,1-.09,1.83,13.91,13.91,0,0,0,.12,1.82c-.07.91.2,1.81.14,2.73a5.53,5.53,0,0,0,0,.91,5.55,5.55,0,0,1,.12.9c-.15.63.26,1.19,0,1.84l-.76.11c-.43-.57-.17-1.23-.45-1.82-.1-.62,0-1.24-.19-1.86a6.1,6.1,0,0,1,0-1.86,17.52,17.52,0,0,1,.1-2.8,6.35,6.35,0,0,1,.08-1.86,4.86,4.86,0,0,1,.07-1.86,4.93,4.93,0,0,1,0-.94c.3-.59-.41-1.33.69-1.78l.49.07Z"/><path class="cls-2" d="M269.65,47.83c-1.3-1.81-.81-3.95-1.19-6-.25-4.05-.15-8.1,0-12.15.36-4.05.39-8.27,2.15-12A22.18,22.18,0,0,1,275.76,10a25.11,25.11,0,0,1,7.36-5.46l.39.67c-1.54,1.28-3.35,2.15-4.74,3.59a25.42,25.42,0,0,0-9.09,17.92c0,1.77-.23,4.27-.29,6a86.81,86.81,0,0,0,.45,9c0,2.06,1,3.92.29,6l-.48.08Z"/><path class="cls-2" d="M274.6,0a27.61,27.61,0,0,1,5,1.06,29.32,29.32,0,0,0,10,.88C293,1.47,296.28.11,299.77.12c18.06-1.17,29.3,10,33.94,26.6a12.74,12.74,0,0,0,5.86,7.7l-.37.68c-4.27-1.74-6.32-6.3-7.41-10.47-5.06-14.94-15.62-24.54-32-23.52-5.12.64-10.08,2.62-15.37,2.11-1.76-.13-3.48-.45-5.22-.74A11.18,11.18,0,0,1,274.41.41L274.6,0Z"/><path class="cls-2" d="M321,26.24c1.06,0,.69.78,1.12,1.34a5.77,5.77,0,0,0,.61,1.58,3.93,3.93,0,0,1,.18.84c.05.28.3.49.36.77.21,1.12.87,2.1,1.08,3.2a17.74,17.74,0,0,1,.85,3.28c-.09.59.35,1.08.11,1.7l-.76.14c-.43-.48-.21-1.09-.54-1.58a7.83,7.83,0,0,0-.41-1.6c-.32-.77-.31-1.63-.64-2.39a7.2,7.2,0,0,0-.74-2.37c-.12-.25-.07-.56-.22-.8a3.52,3.52,0,0,1-.43-.72,4.39,4.39,0,0,0-.71-1.49,1.61,1.61,0,0,0-.4-.72c-.19-.21-.22-.5.1-1l.44-.21Z"/><path class="cls-2" d="M327.48,34.12c.55.11.72.35.71.64,0,.64.26.84.17,1.63a3.42,3.42,0,0,1,.12,1.62c0,.27.13.53.11.8a16.55,16.55,0,0,0,0,2.44,13.16,13.16,0,0,1-.39,2.41c-.24.5-.27,1.05-.48,1.55-.37.44-.26,1.07-.79,1.43l-.7-.31c-.11-.6.38-.95.34-1.51a3.79,3.79,0,0,1,.26-.71,3.8,3.8,0,0,0,.13-.75c.06-.77.41-1.47.4-2.24a6.48,6.48,0,0,0,.22-1.51,7.93,7.93,0,0,1-.06-1.53,4.55,4.55,0,0,1-.26-1.5c-.06-.25-.25-.47-.27-.72a1.22,1.22,0,0,0-.24-.72c-.14-.22-.11-.48.28-.87l.47-.15Z"/><path class="cls-2" d="M331.73,33.94c1-.2.71.52,1.1,1,.15.2.11.48.18.71a2.28,2.28,0,0,1,.32,1.38c0,.24.18.45.18.69,0,.47-.06.94,0,1.42a2.92,2.92,0,0,1-.16,1.41,2.86,2.86,0,0,1-.42,1.37c-.3.39-.43.86-.72,1.24s-.47.85-1.05,1l-.56-.53c0-.53.54-.64.6-1.12a3.37,3.37,0,0,0,.56-1.08,9,9,0,0,0,.55-1.74,3.91,3.91,0,0,0,.22-1.21c0-.21-.1-.41-.12-.61s.08-.43,0-.62c-.34-.49-.24-.69-.42-1.17-.09-.18-.3-.31-.35-.51a.82.82,0,0,0-.35-.49c-.17-.14-.19-.34.09-.8l.39-.29Z"/><path class="cls-2" d="M318.57,38.3c1,.15.37.39.56.88.06.15-.07.32-.08.48,0,.43.19.5,0,1-.05.16.1.32.07.48A3,3,0,0,0,319,42a1.94,1.94,0,0,1,0,1,1.67,1.67,0,0,1-.1.94c-.18.31-.12.62-.24.93-.28.25-.05.65-.47.85l-.73-.23c-.24-.38.16-.57,0-.92a1.26,1.26,0,0,1,.12-.42,3.24,3.24,0,0,1,.23-1.31A1.89,1.89,0,0,1,318,42a1.79,1.79,0,0,0,0-.89c0-.15.13-.3.07-.44-.25-.46-.08-.47-.11-.89,0-.14-.19-.28-.16-.43a.48.48,0,0,0-.12-.43c-.09-.13,0-.28.45-.51l.48-.07Z"/><path class="cls-2" d="M303,38.34c1,.34.18.61.41.92,0,.16-.12.3-.14.45,0,.42.14.47-.12.91-.06.15.09.31.05.46a3.58,3.58,0,0,1-.09.45,7,7,0,0,1,.05,1.37,1.76,1.76,0,0,1,0,.91c-.14.33,0,.59-.07.91-.23.29.09.61-.26.9l-.77,0c-.33-.32,0-.61-.19-.92,0-.32.12-.56,0-.91-.12-.52.13-.66.08-1.37a2.74,2.74,0,0,0,.11-1.36c0-.15.14-.3.09-.45s-.15-.31-.12-.46a1.41,1.41,0,0,0,.07-.45c0-.15-.15-.31-.1-.46.25-.29-.55-.63.48-.89l.49,0Z"/><path class="cls-2" d="M317.82,51.08c.46,1.26-.78,1.71-1.37,2.52a5.11,5.11,0,0,1-1.19.81,5.77,5.77,0,0,1-2.55,1.2,12.16,12.16,0,0,1-4.11.75,9.48,9.48,0,0,1-5.51-1.08,11,11,0,0,1-2.26-1.8c-.47-.84-1.28-1.51-1.31-2.56l.73-.26c.59.64.76,1.51,1.48,2,2,2.19,5.27,2.81,8.14,2.6.84-.21,1.7-.33,2.51-.58.73-.46,1.53-.74,2.23-1.21a8.32,8.32,0,0,0,1.67-1.84,1.42,1.42,0,0,1,1.1-.78l.44.22Z"/><path class="cls-2" d="M325.05,45.43a2,2,0,0,1,.28,1.85,40.82,40.82,0,0,1-2.45,6.65c-.37,1.19-.09,2.22-.57,3.48-1.18,3-4.6,4.56-7.68,4.6-1,0-2.21-.47-2.89.22s-.34,2-.49,2.9l-.76.14c-.81-1.75-.1-5,2.41-4.57,3.08.2,7.05-.58,8.5-3.61a7.69,7.69,0,0,0,.13-1.62,11.76,11.76,0,0,1,.4-1.8,11.14,11.14,0,0,1,1.21-3.34,18.94,18.94,0,0,0,.7-3.31,2.2,2.2,0,0,1,.72-1.63l.49,0Z"/><path class="cls-2" d="M290.72,64.86a3.85,3.85,0,0,1-.59-2.38,14.41,14.41,0,0,0-.64-4.52,6,6,0,0,0-1.52-1.6,18.47,18.47,0,0,0-3.9-2.76,20.39,20.39,0,0,1-5.5-5.1,7,7,0,0,1-.39-5.22c1.57-5.05,8.46-5,10.3-.23l-.69.34c-.92-1.13-1.92-2.4-3.44-2.59-3.24-.92-5.24,2.11-5.29,5.06.23,3,3.13,5.35,5.63,6.81,2.74,1.86,6.26,3.48,6.63,7.24,0,1.67.87,3.29-.11,5Z"/></g></g></g></svg>