<svg xmlns="http://www.w3.org/2000/svg" viewBox="0 0 482.88 461.91"><defs><style>.cls-1{fill:#f8fdfe;}.cls-2{fill:#343838;}</style></defs><g id="家"><polygon class="cls-1" points="186.5 273.09 171.24 289.47 132.81 330.72 114.41 313.97 114.41 273.09 186.5 273.09"/><path class="cls-2" d="M186.85,272.89c-5.47,7.43-13.45,15.49-19.82,22.44-6.88,7.05-13.49,14.34-20.21,21.54-4.77,4.85-9.42,9.83-14,14.89-6.24-5.63-12.83-11.89-19.12-17.49-.06-6.95-.22-24.22-.11-31l-.09-10.22v-.85h.87c24.06-.05,48.36.31,72.44.66Zm-.73.41c-23.83.33-47.89.7-71.71.66l.86-.87c-.07,5.1-.09,15.35,0,20.44L115.08,314l-.22-.49c4.26,3.93,9.51,8.66,13.83,12.52,1.54,1.39,3.09,2.76,4.61,4.17l-1,.05c9.08-9.49,17.77-19.33,26.83-28.83,3.8-4.26,9.28-10.23,13.27-14.41a174.31,174.31,0,0,1,13.76-13.68Z"/><polygon class="cls-1" points="442.67 313.79 442.67 407.53 387 407.53 387 307.31 361.42 279.87 355.12 273.09 349.9 267.49 324.65 240.39 312.66 227.52 285.31 198.2 278.41 190.79 272.94 196.67 244.92 226.75 232.92 239.6 206.92 267.49 201.7 273.09 195.38 279.87 171.24 305.78 171.24 407.53 114.41 407.53 114.41 313.97 132.81 330.72 171.24 289.47 186.5 273.09 195.38 263.56 206.92 251.19 232.92 223.3 244.92 210.44 272.94 180.36 278.41 174.49 285.31 181.9 312.66 211.21 324.65 224.08 349.9 251.19 361.42 263.56 370.31 273.09 387 291 424.03 330.74 442.67 313.79"/><path class="cls-2" d="M442.8,313.39c.2,27.69,1.24,67.71.83,95.11-14.4-.08-42.24-.08-56.63-.06h-.91v-.91c.22-24-.32-77.86.35-99.7-27.13-29-81.53-87.49-108.51-116.59h1l-53.52,57.55c.43-.18-54.84,58.78-53.48,57L172,407.53v.72h-.72l-56.83.09h-.81V312.17l1.34,1.21,18.42,16.72-1.18,0c40.44-43.79,104.59-112,145.65-156.2l.57-.61.57.62c47.19,50.57,98.56,105.73,145.51,156.36l-.88,0c6.34-5.75,12.88-11.38,19.19-16.89Zm-.27.8c-6.12,5.79-12,11.47-18.08,17l-.45.41-.43-.45C377.24,281.66,324.19,224.76,277.84,175H279c-41.37,44.69-105.07,112.83-146.13,156.87l-.61-.55-18.37-16.78,1.34-.59v93.56l-.81-.81,56.83.09-.72.72.08-101.75v-.26l.17-.18c26.68-28.69,80.37-86.42,107.16-115l.48-.52.48.52C309.47,222.76,357.05,274,387.76,307c0,25.12.18,75.4.15,100.52l-.91-.91c13.82,0,41.83,0,55.67-.06l-1,1c-.22-26.41.4-66.58.83-93.34Z"/><path class="cls-1" d="M313.44,321.62c0,.36,0,.73,0,1.09v84.82H243.39V322.71c0-1,0-1.95.12-2.89,0-.48.08-1,.15-1.45a33.43,33.43,0,0,1,.8-4.15,13.1,13.1,0,0,1,.38-1.34,33.89,33.89,0,0,1,2-5c.13-.27.27-.53.4-.8a.15.15,0,0,1,.06-.09c.28-.56.6-1.13.92-1.66s.47-.79.73-1.16a6.89,6.89,0,0,1,.46-.69c.16-.24.34-.51.54-.77A31.21,31.21,0,0,1,253,299a4.79,4.79,0,0,1,.6-.59.55.55,0,0,1,.18-.19c.4-.41.82-.77,1.24-1.15s.91-.8,1.38-1.17.83-.63,1.28-1,.76-.55,1.14-.81c.88-.58,1.78-1.12,2.74-1.63.45-.24.9-.49,1.36-.72.24-.09.48-.21.7-.3a35,35,0,0,1,4.85-1.82c.84-.24,1.68-.44,2.51-.62l1.11-.22c.23,0,.42-.07.63-.11l1-.13a11.31,11.31,0,0,1,1.17-.12c.37-.06.73-.08,1.12-.13.81,0,1.62-.08,2.44-.08h0c.8,0,1.61,0,2.42.08.39.05.75.07,1.12.13a11.31,11.31,0,0,1,1.17.12c.21,0,.4,0,.63.09.9.12,1.79.31,2.69.51.3.06.62.13.93.22s.63.17,1,.26.89.27,1.35.43a6.62,6.62,0,0,1,.88.31c.24.08.49.19.76.29a16,16,0,0,1,1.92.82c.53.24,1.06.5,1.57.75s1.29.69,1.93,1.09a11.9,11.9,0,0,1,1.06.68c.38.25.78.52,1.16.79.56.39,1.09.79,1.62,1.21.23.2.47.38.69.6l.69.6h0a.38.38,0,0,1,.09.09c.4.36.79.73,1.15,1.09a13,13,0,0,1,1,1,27.46,27.46,0,0,1,2.68,3.21c.13.17.25.33.37.51s.45.66.67,1a12.48,12.48,0,0,1,.72,1.16c.39.62.75,1.28,1.08,1.93.18.36.35.71.51,1.08.11.18.18.36.27.54s.18.39.26.58a37,37,0,0,1,1.49,4.34,5.7,5.7,0,0,1,.22.81c.22.87.41,1.74.54,2.61.06.42.11.8.17,1.18s.07.7.12,1.06.06.71.06,1.06a1.42,1.42,0,0,1,0,.36C313.44,321.11,313.44,321.36,313.44,321.62Z"/><path class="cls-2" d="M313.77,321.6c.09,3.61.46,7.17.64,10.76.25,7.16-.19,14.32-.18,21.48.08,10.73.29,21.47,0,32.21-.44,7.41-.06,14.83.08,22.24-6.11.14-12.21,0-18.32-.13-5.84-.15-11.68-.19-17.52,0-11.68.3-23.36-.09-35-.08h-.55c-.1-6.5-.13-13,0-19.51-.4-18.88,0-38.09-.22-56.86.09-3.82-.3-8.94.1-12.73,1.91-17.9,17.23-31.12,35.75-31.55a35,35,0,0,1,10,1.44,46.28,46.28,0,0,1,6.7,2.9,41.51,41.51,0,0,1,7.27,5l-.39-.15h.25a3.73,3.73,0,0,1,.34.35,33.5,33.5,0,0,1,8.32,11c1.95,3.76,2.73,9.29,2.86,13.58Zm-.66,0a26.67,26.67,0,0,0-1.66-8.49,38.31,38.31,0,0,0-7.07-12.64c-.83-.87-1.88-2.07-2.74-2.88-.1,0,.48.19.36.16h-.22l-.17-.15L301,297a33.25,33.25,0,0,0-6.33-4.29,38.62,38.62,0,0,0-11-3.28c-15.13-2.23-28.59,4.73-35.68,18.12-1.14,2.31-3.21,7.8-3.4,11.59-.4,3.54-.2,8.89-.31,12.53-.31,16.6.2,33.9-.15,50.55-.12,8.29.07,17-.1,25.27l-.55-.55c11.68,0,23.36-.38,35-.08,5.84.18,11.68.15,17.52,0s11.68-.26,17.52-.15l-.78.78c.15-7.16.49-14.32.07-21.48-.34-10.74-.12-21.48,0-32.21,0-7.16-.44-14.32-.18-21.48.15-3.57.61-7.18.57-10.72Z"/><path class="cls-1" d="M387,307.31V407.53H324.92V322.69c0-.49,0-1,0-1.43s0-.66,0-1a3.75,3.75,0,0,0-.05-.47,12.81,12.81,0,0,0-.1-1.38c0-.48-.08-.92-.15-1.38s-.12-1-.21-1.54c-.19-1.15-.42-2.29-.72-3.4a8.52,8.52,0,0,0-.27-1.08,42.37,42.37,0,0,0-2-5.65c-.1-.29-.21-.51-.33-.78s-.22-.48-.36-.72c-.21-.48-.43-.93-.67-1.41-.43-.85-.89-1.7-1.39-2.51-.3-.52-.6-1-.95-1.53s-.58-.88-.89-1.3a7,7,0,0,0-.48-.66,37.42,37.42,0,0,0-3.49-4.22c-.4-.46-.82-.88-1.26-1.3s-1-1-1.49-1.44l-.13-.1h0c-.29-.27-.6-.53-.9-.81s-.6-.51-.92-.76c-.69-.56-1.39-1.08-2.11-1.59-.49-.38-1-.7-1.52-1.05s-.92-.6-1.39-.88c-.83-.51-1.66-1-2.52-1.41-.67-.36-1.34-.67-2-1a23.93,23.93,0,0,0-2.53-1.07,8.73,8.73,0,0,0-1-.38,7.83,7.83,0,0,0-1.15-.4c-.58-.21-1.15-.39-1.76-.57-.42-.11-.84-.25-1.26-.33a12.33,12.33,0,0,0-1.2-.29,33.23,33.23,0,0,0-3.53-.67c-.27-.06-.54-.07-.8-.12-.51-.06-1-.13-1.52-.18l-1.48-.13c-1.05-.06-2.11-.12-3.17-.12h0c-1.08,0-2.13.06-3.19.12l-1.47.13c-.51.05-1,.12-1.52.18l-1.25.17-.82.15c-.49.09-1,.18-1.45.29-1.11.22-2.2.49-3.28.8a46.2,46.2,0,0,0-6.33,2.37c-.31.13-.63.29-.93.41-.61.3-1.21.63-1.79.93-1.23.68-2.41,1.39-3.57,2.16-.5.32-1,.67-1.51,1s-1.11.82-1.66,1.26-1.21,1-1.81,1.52-1.09,1-1.6,1.5a2,2,0,0,0-.26.25c-.28.26-.53.51-.76.77a41,41,0,0,0-4.07,4.84c-.25.32-.48.68-.7,1a6.51,6.51,0,0,0-.6.88c-.35.51-.66,1-1,1.53-.43.7-.82,1.42-1.21,2.17,0,0,0,.07-.06.11-.18.37-.36.7-.53,1.06a44.36,44.36,0,0,0-2.58,6.55c-.18.56-.35,1.14-.5,1.77a45.68,45.68,0,0,0-1,5.43c-.09.61-.15,1.24-.2,1.86-.1,1.26-.16,2.54-.16,3.81v84.84H171.24V305.78l24.14-25.91,6.32-6.78H355.12l6.3,6.78Z"/><path class="cls-2" d="M387.31,307.19c1.31,32.85.21,67.45.51,100.34v.82H387c-10.34,0-20.69.14-31,.07-9.25-.05-21.94-.06-31-.18h-.72v-.7c.55-28.3-.33-57.84-.07-86.22a45.08,45.08,0,0,0-1.16-9.1,43.86,43.86,0,0,0-30.79-32.06c-20.71-6-43.3,3.2-53.37,22.39.13-.13,0,.11-.07.21a41.26,41.26,0,0,0-2.44,5.63c-2.31,6.25-2.58,12.82-2.43,19.46.16,24.73,0,55,.16,79.69v.72h-.72c-15.44.06-46.64.13-62.08,0h-.72v-.71c.05-23.26-.1-52.95-.19-76.31l0-25.44v-.35l.24-.25c10.18-10.87,20.3-21.8,30.54-32.62l.23-.24h.33c36.87.22,78.21-.24,115.07.23l38.35-.17h.31l.21.23c10.51,11.29,21.49,23.06,31.67,34.58Zm-.61.24c-10.72-11-21.68-22.57-32.1-33.85l.52.22-38.35-.17c-36.87.47-78.2,0-115.07.24l.57-.25-30.38,32.76.24-.6,0,25.44c0,23.38-.35,53-.19,76.31l-.72-.72c15.51-.15,46.58-.08,62.08,0l-.72.72.11-26.56c-.08-15.3,0-37.59,0-53.13,0-4.43-.09-8.95.73-13.34a44.85,44.85,0,0,1,6.38-16.21A46.5,46.5,0,0,1,294,279.45c15.29,5.24,27.4,18.27,30.68,34.4a54.52,54.52,0,0,1,1,12.8c.21,26.9-.63,54-.08,80.88l-.72-.72c9.06,0,21.88-.22,31-.17,10.35-.07,20.7.06,31,.07l-.82.82c.28-32.85-.77-67.28.52-100.1Z"/><polygon class="cls-1" points="442.67 273.09 442.67 313.79 424.03 330.74 387 291 370.31 273.09 442.67 273.09"/><path class="cls-2" d="M442.88,272.73c.86,6.43.62,13.73.61,20.37.05,6.08.08,14.71-.06,20.69v.34c-1.64,1.48-3.29,3-4.9,4.47-4.3,4-9.59,8.83-14,12.65l-.52.45-.44-.49c-6.43-7-13.74-14.55-20.11-21.65-7.5-8-19.56-20.6-27-28.73-.75-.83-7.49-7.87-8.14-8.58,12.84-.21,25.62.18,38.47.1,11.81.08,24.29.1,36.09.38Zm-.46.72c-11.92.29-24.34.3-36.24.39-11.93-.09-23.93.29-35.87.12l.63-1.46,6.65,7.27c7.6,8,19.27,20.87,26.77,28.92,6.65,6.85,13.66,14.69,20.17,21.59l-1,0c5.86-5.69,12.58-11.51,18.58-17l-.25.57c-.06-5.8-.19-14.14-.06-20a173.61,173.61,0,0,1,.58-20.33Z"/><rect class="cls-1" x="223.11" y="278.09" width="111.93" height="155.75"/><polygon class="cls-1" points="482.56 273.09 425.77 273.09 414.54 261.05 405.35 251.19 364.36 207.19 329.6 169.88 328.75 168.96 356.84 168.96 356.84 183.56 370.72 198.47 391.6 220.88 391.6 168.96 445.96 168.96 482.56 273.09"/><path class="cls-2" d="M482.94,273.28c-18.64.94-38.48.67-57.17.72h-.4l-.26-.29c-24-25.95-48.73-52.29-72.58-78.28-8.48-9.06-17-18.05-25.43-27.2h1.65l28.09.08h.64V169l0,14.6-.18-.45,34.89,37.2-1.44.57,0-26-.09-26v-.88h.89l13.59,0,40.77.11h.56l.19.54c11.81,33.6,24.82,70.94,36.23,104.58Zm-.76-.38c-12.12-33.37-25.21-70.14-37-103.68l.75.53-40.77.12-13.59,0,.88-.88-.1,26,.05,26V223L391,221.45c-.12-.2-34.71-37.46-34.82-37.62v-.27l0-14.6.65.64-28.09.08.53-1.21c32.17,34.62,64.83,69.48,97.15,104l-.66-.29c18.51,0,37.88-.17,56.41.71Z"/><polygon class="cls-1" points="228.11 168.96 216.21 181.74 210.72 187.62 151.48 251.19 139.94 263.56 131.07 273.09 75.69 273.09 112.29 168.96 228.11 168.96"/><path class="cls-2" d="M228.47,168.75a351.49,351.49,0,0,1-23.95,26.86c-15.88,17.14-32.75,34.75-48.59,52-8.06,8.7-16.36,17.18-24.37,25.93l-.2.21h-.29c-17.69.16-38.62-.06-56.31,0,12-34.52,24.6-70.68,36.7-105.08l.21-.59h.62c33.83.16,82.81.24,116.18.67Zm-.74.41c-18.18.25-39.81.23-58,.49l-57.45.19.82-.59C104,195.1,94.67,221.52,85.55,247.31l-9.24,26-.62-.88c17.35.05,38-.17,55.38,0l-.49.22c15.8-17.16,32.55-35,48.41-52.17,8-8.79,16.14-17.39,24.19-26.1,4-4.35,7.95-8.81,12.06-13.08s8.17-7.89,12.49-12.13Z"/><polygon class="cls-1" points="355.12 273.09 201.7 273.09 206.92 267.49 232.92 239.6 244.92 226.75 272.94 196.67 278.41 190.79 285.31 198.2 312.66 227.52 324.65 240.39 349.9 267.49 355.12 273.09"/><path class="cls-2" d="M355.53,273.22c-12.2.54-25.65.36-38.06.43-9.24.09-19.65.11-29,.06-22,.18-45.62,0-67.51.09-7,.08-13.93,0-20.89,0l1.11-1.18c24.76-26.45,51.9-55.83,76.55-82.44l.67-.72.66.72,19.11,20.65q19.17,20.58,38.3,41.2c5.49,6,14.16,14.86,19,21.2Zm-.8-.26c-5.92-5.21-13.83-14.17-19.31-20-6.33-6.91-12.88-13.62-19.25-20.51-11-12-27.15-29-38.43-41.08h1.33c-24.77,26.52-52.21,55.58-76.85,82.16l-.52-1.18c6.37,0,12.72-.08,19.09,0,21.64.1,45-.1,66.73.09,22.54,0,44.56-.17,67.21.48Z"/><polygon class="cls-1" points="425.77 273.09 370.31 273.09 361.42 263.56 349.9 251.19 324.65 224.08 312.66 211.21 285.31 181.9 278.41 174.49 272.94 180.36 244.92 210.44 232.92 223.3 206.92 251.19 195.38 263.56 186.5 273.09 131.07 273.09 139.94 263.56 151.48 251.19 210.72 187.62 216.21 181.74 228.11 168.96 328.75 168.96 329.6 169.88 364.36 207.19 405.35 251.19 414.54 261.05 425.77 273.09"/><path class="cls-2" d="M426.17,273.22c-16.41.47-39.66,1-55.86.84h-.43l-.28-.31q-34.37-37.06-68.76-74.11l-23-24.6H279c-15.27,16.49-30.81,32.71-46.06,49.21-13.36,14.36-32.33,34.85-46,49.3l-.2.21h-.29l-55.42,0h-1.58l1.07-1.16c.27-.28,96.92-104.29,97.16-104.55,16.9-.06,33.81,0,50.71,0l50.32.07h.34l.23.25c21.67,23.12,51.07,55,72.72,78.14,8.08,8.64,16.38,17.65,24.13,26.65Zm-.8-.26c-8.29-8.15-16.48-16.91-24.39-25.4-21.58-23.24-51.28-54.8-72.8-78.07l.57.25-50.32.07c-16.77,0-33.55.1-50.32,0l.65-.28c-12.1,12.94-36.53,39-48.57,52-16.14,17.4-32.43,34.64-48.62,52l-.5-1.16,55.42,0-.48.21c13.7-14.62,32.39-35,46-49.3,15.4-16.36,30.48-33,45.84-49.41l.6-.65.6.65c29.72,32,62.29,66.69,92,98.51l-.7-.31c15.7-.16,39.19.36,55.06.83Z"/><path class="cls-1" d="M387,307.31V433.23H324.92V322.69c0-.49,0-1,0-1.43s0-.66,0-1a3.73,3.73,0,0,0,0-.47c0-.46-.05-.92-.1-1.38s-.08-.92-.15-1.38-.13-1-.22-1.54c-.18-1.15-.42-2.29-.71-3.41a8.81,8.81,0,0,0-.27-1.07,42.42,42.42,0,0,0-2-5.65,4.94,4.94,0,0,0-.33-.78c-.11-.23-.21-.48-.35-.72-.21-.48-.43-.93-.67-1.41-.43-.85-.89-1.7-1.39-2.51a17.71,17.71,0,0,0-1-1.53c-.29-.43-.58-.89-.88-1.31-.15-.23-.32-.45-.48-.65a39.61,39.61,0,0,0-3.49-4.23c-.4-.45-.82-.87-1.26-1.29s-1-1-1.49-1.44l-.14-.1h0c-.29-.27-.6-.54-.91-.81s-.6-.51-.91-.76c-.7-.57-1.39-1.08-2.12-1.59-.48-.38-1-.7-1.52-1.05s-.92-.6-1.38-.88c-.83-.51-1.66-1-2.52-1.42-.67-.35-1.34-.66-2-1a23.93,23.93,0,0,0-2.53-1.07,8.73,8.73,0,0,0-1-.38,8.25,8.25,0,0,0-1.15-.4c-.58-.21-1.16-.39-1.76-.57-.42-.11-.84-.25-1.26-.33a12.33,12.33,0,0,0-1.2-.29,30.89,30.89,0,0,0-3.53-.67c-.27-.06-.54-.07-.81-.12-.51-.06-1-.13-1.52-.18l-1.47-.13c-1.06-.06-2.11-.12-3.17-.12h0c-1.08,0-2.13.06-3.19.12l-1.47.13c-.52.05-1,.12-1.53.18l-1.24.17c-.28,0-.55.09-.82.15l-1.45.28c-1.12.23-2.2.5-3.28.81a45.53,45.53,0,0,0-6.34,2.37c-.3.13-.62.29-.93.41-.6.3-1.2.62-1.78.93-1.23.68-2.42,1.39-3.57,2.16-.5.32-1,.67-1.51,1s-1.11.82-1.66,1.26-1.21,1-1.81,1.52-1.09,1-1.6,1.5a1.6,1.6,0,0,0-.27.25c-.27.26-.52.51-.76.77a42.7,42.7,0,0,0-4.06,4.83c-.25.33-.49.69-.7,1a7.31,7.31,0,0,0-.6.89c-.36.51-.66,1-1,1.53-.43.69-.83,1.42-1.21,2.17a.54.54,0,0,0-.06.11c-.18.37-.36.7-.53,1.06a43.28,43.28,0,0,0-2.58,6.55c-.18.56-.35,1.14-.5,1.77a45.68,45.68,0,0,0-1,5.43c-.09.6-.15,1.24-.2,1.86-.11,1.26-.16,2.53-.16,3.81V433.23H171.24V305.78l24.14-25.91,6.32-6.78,5.22-5.6L223.25,250l9.67-10.38,12-12.86,9.31-10,18.7-20.08,5.47-5.88,6.9,7.41,17.31,18.55,10,10.77,12,12.87L335,251.48l14.91,16,5.22,5.6,6.3,6.78Z"/><path class="cls-2" d="M387.3,306.92c1.27,41,.4,86,.61,127.22-16.36,0-47.41,0-63.76-.14-.07-30,0-77.55,0-107.13a55,55,0,0,0-1.22-14.62,44.21,44.21,0,0,0-10.14-19.14c-.93-1-2.49-2.54-3.16-3.17l.33.09h-.26l-.19-.17a44.65,44.65,0,0,0-15.8-9.17,45.91,45.91,0,0,0-46.24,10.48,44.35,44.35,0,0,0-8.91,12.16c-3.62,7-4.78,14.84-4.56,22.69-.06,25.83,0,80.86.07,107.21V434h-.74l-62.08.1h-.82v-.83c.27-32.05-.49-96.23.15-128.07,30.8-32.75,77.54-83,107.83-115.57,30.89,33.46,78.54,84.08,108.9,117.33Zm-.61.76c-30.55-32.37-78.14-83.45-108.89-116.33H279c-26.7,28.67-80.46,86.33-107.09,115,.66,28-.13,96.22.16,126.83l-.83-.82,62.08.09-.73.73c0-26.66.12-81.18.06-107.21a51.51,51.51,0,0,1,1.93-16.51,46,46,0,0,1,22.31-27.07,47.59,47.59,0,0,1,38.38-2.61,46.35,46.35,0,0,1,29.07,32.06,56.53,56.53,0,0,1,1.36,15c0,4.57,0,16.57.05,21.27,0,18.2-.05,66.34-.05,85.09l-.78-.78c15.44-.13,46.64-.1,62.08-.13l-.91.91c.13-40.78-.57-84.91.6-125.55Z"/><path class="cls-2" d="M171.43,379.64c0,.91,0,.75,0,.42v.13c0,.32,0-.82,0-.08,0,.14,0-.17,0-.28s0,.3,0,.23V380c0,.07,0-.07,0-.07v.24c0,.11,0-.2,0-.15v.23c0,.13,0-.31,0-.22s0,.26,0,.09c0-.38,0-.23,0-.1s0,.12,0-.34c0-.08,0-1.31,0-1,0,.12,0,.27,0-.11,0-.17,0,0,0,.09s0-.34,0-.22v.23c0,.05,0-.26,0-.15v.24s0-.13,0-.07c0,.26,0,0,0-.1s0,.37,0,.23,0-.42,0-.28c0,.74,0-.4,0-.07,0,.17,0,.14,0-.06,0-.49,0,1.09,0,1.26Z"/><path class="cls-1" d="M313.47,322.71V433.23H243.38V322.71c0-1,0-1.95.13-2.9,0-.47.08-1,.15-1.44a33.08,33.08,0,0,1,.8-4.15,10.48,10.48,0,0,1,.38-1.34,33.89,33.89,0,0,1,2-5c.13-.27.27-.53.4-.8a.19.19,0,0,1,0-.09c.29-.56.61-1.13.92-1.66s.48-.79.74-1.16a5.51,5.51,0,0,1,.46-.69c.15-.24.34-.51.54-.77A30.28,30.28,0,0,1,253,299a4.79,4.79,0,0,1,.6-.59.47.47,0,0,1,.18-.19c.4-.41.82-.77,1.24-1.15s.91-.81,1.38-1.17.83-.63,1.27-1,.76-.55,1.15-.81c.87-.58,1.78-1.12,2.73-1.63.46-.24.91-.49,1.37-.72.24-.09.47-.21.7-.3a35,35,0,0,1,4.85-1.82c.84-.24,1.68-.44,2.5-.62l1.12-.22.63-.11,1-.13a11.4,11.4,0,0,1,1.16-.12c.38-.06.74-.08,1.13-.13.8,0,1.62-.08,2.44-.08h0c.79,0,1.61,0,2.42.08.38.05.75.07,1.12.13a11.6,11.6,0,0,1,1.17.12c.2,0,.4,0,.62.09.91.12,1.8.31,2.69.51.31.06.63.13.93.22s.64.17,1,.26.88.27,1.35.43a6.51,6.51,0,0,1,.87.31c.25.08.5.19.76.29a15.52,15.52,0,0,1,1.93.82l1.57.75c.66.35,1.29.69,1.93,1.09a11.74,11.74,0,0,1,1.05.68c.39.25.79.52,1.17.79.56.39,1.09.79,1.61,1.21.24.2.48.38.7.6l.69.6h0a.38.38,0,0,1,.09.09c.4.36.79.73,1.15,1.09a13,13,0,0,1,1,1,28.49,28.49,0,0,1,2.68,3.21,5.88,5.88,0,0,1,.36.51,11.78,11.78,0,0,1,.67,1c.26.37.5.76.73,1.16.39.62.75,1.28,1.08,1.93.18.36.35.71.51,1.08.11.18.18.36.27.54s.18.39.26.58a37,37,0,0,1,1.49,4.34,4.59,4.59,0,0,1,.21.81c.23.87.41,1.74.55,2.61.06.42.11.8.17,1.18s.07.7.11,1.06a9.57,9.57,0,0,1,.07,1.05,2.33,2.33,0,0,1,0,.37c0,.26,0,.51,0,.77S313.47,322.35,313.47,322.71Z"/><path class="cls-2" d="M313.8,322.71c.73,9.21.8,18.42.64,27.63-.15,13.34,0,28.05-.17,41.45-.15,13.81.13,27.63,0,41.44V434h-.78L296,433.87c-11.14.15-41,0-52.57,0h-.64v-.65c-.14-30.49-.13-64.79-.26-95.09,0-5.29,0-10.56.05-15.86-.19-5.13,2.2-12.72,4-15.7a35.2,35.2,0,0,1,5.94-8.14l.67-.65L253,298a1.15,1.15,0,0,1,.51-.5,37.91,37.91,0,0,1,9.14-6.46,36.72,36.72,0,0,1,12.13-3.42l1.16-.14h0l2.5-.09,2.48.1c.8.09,1.54.19,2.35.27a37.11,37.11,0,0,1,19.23,8.91l-.49-.19h.28l.18.15c.28.27,1,.87,1.56,1.5a33.7,33.7,0,0,1,9.91,22.25l0,.45v.73l0,1.13Zm-.84,0a34.84,34.84,0,0,0-2.08-11.09,36,36,0,0,0-4.2-8.05,36.59,36.59,0,0,0-5.09-5.77l.43.14h-.29l-.21-.18a33.8,33.8,0,0,0-11.15-6.67,35.35,35.35,0,0,0-7.36-1.73c-.26,0-1.76-.18-2.24-.23.32,0-2.4-.05-2.34-.06a34.88,34.88,0,0,0-24.28,9.84c.15-.09.14-.13.15-.12v0l-.21.2a31,31,0,0,0-3.6,4.24,35.55,35.55,0,0,0-2.51,4.09l-.15.2a.46.46,0,0,0,.17-.29l-.06.16a32.87,32.87,0,0,0-3.67,14.89v15.84c-.17,30.25-.07,64.68-.25,95.09l-.65-.64c19.89-.35,50.44.22,70.09-.14l-.78.78c-.11-9.21,0-18.42,0-27.63,0-4.6,0-9.21-.05-13.81-.22-13.45,0-28.09-.17-41.45-.15-9.21-.09-18.42.65-27.63Z"/><path class="cls-1" d="M259.19,365.93a5.19,5.19,0,0,1-10.38,0,5.1,5.1,0,0,1,1.15-3.26,4.09,4.09,0,0,1,.71-.73,3.11,3.11,0,0,1,.51-.36,4.25,4.25,0,0,1,1-.5h0a4.88,4.88,0,0,1,1.8-.33,5.2,5.2,0,0,1,2.84.84,5.1,5.1,0,0,1,.49.36A5.15,5.15,0,0,1,259.19,365.93Z"/><path class="cls-2" d="M259.51,365.93c.05.48.73,1.11.46,1.66a4.2,4.2,0,0,1-.88,1.41,4.26,4.26,0,0,1-2.31,2.24c-.5.2-1.1,0-1.59.28a3.8,3.8,0,0,1-1.56.41c-1.11-.05-1.89-.95-2.94-1.22a3.64,3.64,0,0,1-1.93-2.44,11.85,11.85,0,0,1-.55-1.48,11,11,0,0,1,.24-3.18,3.08,3.08,0,0,1,.91-1.32,7.62,7.62,0,0,1,2.54-2.07l-.36.22v0l.1-.11a5.21,5.21,0,0,1,4.45.14c.87.31,2,.62,2.28,1.62s1.19,1.47,1.36,2.45c.16.47-.31,1-.23,1.41Zm-.65,0c.08-.42-.49-.73-.52-1.07-.22-.66-.18-1.6-.93-1.94-1.05-.41-1.56-1.59-2.86-1.35a7.13,7.13,0,0,0-2,.34s.39-.26.3-.18l-.21.18a5,5,0,0,0-1.24.44c-.83.3-1.05,1.22-1.41,1.89a2.81,2.81,0,0,0-.43,2.36,2.56,2.56,0,0,0,.24,1.22c.42.77,1.14,1.17,1.63,1.86a1.44,1.44,0,0,0,1.09.6c.43,0,.85,0,1.24,0,.56,0,1.33.45,1.84,0,.64-.82,1.67-1.17,2.22-2,.19-.37.1-.82.22-1.17s.81-.7.85-1.12Z"/><polygon class="cls-1" points="454.05 303.44 442.67 313.79 424.03 330.74 387 291 370.31 273.09 361.42 263.56 349.9 251.19 324.65 224.08 312.66 211.21 285.31 181.9 278.41 174.49 272.94 180.36 244.92 210.44 232.92 223.3 206.92 251.19 195.38 263.56 186.5 273.09 171.24 289.47 132.81 330.72 114.41 313.97 102.81 303.42 114.41 290.98 116.88 288.32 131.07 273.09 139.94 263.56 151.48 251.19 210.72 187.62 216.21 181.74 228.11 168.96 251.23 144.13 278.41 114.96 305.61 144.13 328.75 168.96 329.6 169.88 364.36 207.19 405.35 251.19 414.54 261.05 425.77 273.09 439.96 288.32 442.67 291.22 454.05 303.44"/><path class="cls-2" d="M454.47,303.36c-9.13,9-20.31,19.43-29.76,28.13l-.73.67-.69-.73c-33.51-36.11-75.37-81-109-117.38l-36.46-39H279c-42.38,45.08-102.87,110.3-145.73,156.13l-.44.47-.47-.44-30-27.27-.52-.47.48-.51,43.81-47.19c39.2-41.9,92.47-99.49,131.67-141.38l.62-.66.62.66c51.33,55.37,125.26,134,175.44,189Zm-.85.15c-56.9-59.82-119.14-127.6-175.83-188H279c-39,42.07-92.69,99.28-131.73,141.32l-44,47,0-1,30,27.33-.91,0c35.31-38,74-79.49,109.17-117.21,12.31-13.26,24.54-26.59,36.91-39.79l.6.65L315.38,213c33.92,36.23,75.7,81,109.39,117l-1.42-.06,7.56-6.77c6.62-6,15.87-14,22.71-19.72Z"/><polygon class="cls-1" points="391.6 128.27 391.6 220.88 370.72 198.47 356.84 183.56 356.84 128.27 391.6 128.27"/><path class="cls-2" d="M391.81,127.91c.88,7.29.47,15.53.53,23,.11,7.75,0,15.62,0,23.37.11,16.08,0,32.28,0,48.37-11.56-12.72-24.6-26.13-36.23-38.78,0-8.29-.2-19.79-.1-28s.11-19.64.07-27.65v-.81h.82c11.29.1,23.64.12,35,.46Zm-.45.72c-11.19.36-23.38.34-34.52.46l.82-.82c-.11,8,0,19.56.06,27.65s0,19.53-.1,27.64l-.21-.53c11.31,11.95,23.34,25.47,34.71,37.36l-1.24.49c.09-15.36-.13-30.63,0-46,0-7.69-.16-15.26,0-22.94,0-8-.31-15.17.5-23.3Z"/><path class="cls-1" d="M404.9,107.65a13.3,13.3,0,1,1-13.75-13.29h.45a13.31,13.31,0,0,1,12.88,10h0A13.56,13.56,0,0,1,404.9,107.65Z"/><path class="cls-2" d="M405.22,107.65c1.53,4.27-2,9-5.28,11.48a14.32,14.32,0,0,1-17.28-.66c-5.48-4.49-6.81-13.38-2.47-19.09a14.15,14.15,0,0,1,8.73-5.66c5.21-.92,11.07,1.19,14,5.67a14.35,14.35,0,0,1,2.27,4.75,10.65,10.65,0,0,1,.23,3.51Zm-.84,0a15,15,0,0,0-2.61-7.42c-2.95-3.7-7.82-5.92-12.51-4.74-8.07,1.26-12.93,11.13-8.72,18.25a12.89,12.89,0,0,0,7.17,5.9c4.74,1.22,9.61.24,12.91-3.52,2.42-2.31,2.66-5.44,3.95-8.47Z"/><path class="cls-1" d="M436.83,51.88a33.76,33.76,0,0,0-42.37,13.3,33.79,33.79,0,1,1,43.28-47A34.15,34.15,0,0,1,440,23.38,33.77,33.77,0,0,1,436.83,51.88Z"/><path class="cls-2" d="M437.1,52.22a75.77,75.77,0,0,0-12.05-2.1A32.53,32.53,0,0,0,395.14,65.6l-.36.59-.64-.28C384.79,62,378,53.49,374.89,44A35.31,35.31,0,0,1,388.27,5.81c15.06-10.38,35.83-7.5,47,7.18a32.79,32.79,0,0,1,7.23,19.29c.36,6.94-1.2,14.28-5.36,19.94Zm-.46-.72c.51-1.53,1.35-2.92,1.91-4.43A33.4,33.4,0,0,0,434,13.94C423.72.48,403-2.85,389.2,7.16,378,14.64,372.35,29.34,376,42.36c2.21,9.89,9.57,18,18.76,22.09l-1,.32a35.09,35.09,0,0,1,31.38-16.7,24.7,24.7,0,0,1,10.12,2.55c.52.31.93.61,1.36.88Z"/><path class="cls-1" d="M451,83.9a27.75,27.75,0,0,1-27.76,27.75,27.36,27.36,0,0,1-11.55-2.52c0-.48.06-1,.06-1.48a20.2,20.2,0,0,0-16-19.75,27.53,27.53,0,0,1,1.63-14.18,27.21,27.21,0,0,1,2.94-5.51A27.68,27.68,0,0,1,420,56.34a25.61,25.61,0,0,1,3.29-.2A27.72,27.72,0,0,1,451,83.9Z"/><path class="cls-2" d="M451.37,83.9c1.27,7.17-2.41,14.32-7.14,19.52a29.14,29.14,0,0,1-26,8.58,30.8,30.8,0,0,1-7.14-2.47c1-9.68-6.15-19.46-15.83-21.07C393,76.5,399.3,64.21,410,58.54c10.39-5.71,24.19-3.64,32.76,4.44,5.56,5.43,9.21,13.07,8.81,20.92Zm-.84,0A27.15,27.15,0,0,0,402.27,67a27.52,27.52,0,0,0-5.79,20.78l-.52-.56c10,2.12,17.39,11.67,16.42,21.94l-.38-.64a25.29,25.29,0,0,0,6.47,1.89,26.88,26.88,0,0,0,28.36-13.67,51.93,51.93,0,0,0,3.88-12.86Z"/></g><g id="看板"><polygon class="cls-1" points="149.54 354.75 131.02 382.79 4 391.54 0.35 338.49 127.53 329.73 149.54 354.75"/><path class="cls-2" d="M149.74,354.67c-5.81,9.6-12.1,19-18.34,28.36-.5.64-127,8.57-127.7,8.86-.26-.2-3.57-53.12-3.77-53.37l0-.41.42,0c29.47-2,82.34-5.7,111.29-7.67l15.9-1h.17c5.56,6.31,16.59,18.93,22.06,25.31Zm-.41.15c-5.58-6.17-16.58-18.61-22.06-24.86l.29.12-15.9,1.15c-28.75,1.92-82,5.72-111.28,7.68l.38-.45,3.57,53.06c-2.44-.57,128.59-9.35,126.32-9,6.1-9.36,12.16-18.62,18.68-27.72Z"/><rect class="cls-1" x="65.77" y="386.83" width="15.85" height="74.41" transform="translate(-28.98 6.07) rotate(-3.94)"/><path class="cls-2" d="M63.05,387.36c5.25-.79,11-1.17,16.42-1.47l0,.45.65,9.28c.94,15.39,2,31.05,3.09,46.4q.58,9.28,1.27,18.56l0,.35-.35,0c-5.41.39-10.81.83-16.22,1.18-.39-6.35-.89-12.69-1.35-19.05-1.1-18-2.57-37.89-3.57-55.72Zm.37.21c1.46,17.93,2.74,37.62,4.1,55.62.41,6.15.77,12.32,1.24,18.48l-.44-.38c5.27-.38,10.55-.68,15.82-1l-.32.37q-.6-9.28-1.29-18.56c-1.07-15.34-2.12-31-3.3-46.39l-.63-9.28.48.42c-5.31.45-10.22.76-15.66.75Z"/><rect class="cls-1" x="59.14" y="321.63" width="15.85" height="12.24" transform="translate(-22.38 5.39) rotate(-3.94)"/><path class="cls-2" d="M74.63,320.91c1,4,.72,8.6,1.18,12.76-2,.21-4.27.29-6.33.38s-4,.33-5.93.42c-1.43.07-2.86.21-4.29.31l0-.35c-.36-4.22-.66-8.44-1-12.66l.45,0c5.22-.23,10.7-.71,15.92-.83Zm-.19.38c-5.12.59-10.53.88-15.67,1.35l.42-.48c.23,4.08.53,8.15.73,12.22l-.37-.32c2.64-.12,5.27-.39,7.91-.56s5.31-.49,7.91-.57l-.36.42c-.19-4.11-.9-7.9-.57-12.06Z"/><g id="ロゴ_黒" data-name="ロゴ 黒"><path class="cls-2" d="M22.05,357.8l.44,6.34a2.2,2.2,0,0,0,.58,1.46,2.2,2.2,0,0,0,3.21-.22,2.21,2.21,0,0,0,.38-1.53l-.44-6.34,2-.14.43,6.18a4.29,4.29,0,0,1-.57,2.74,4.12,4.12,0,0,1-3.2,1.68,4.14,4.14,0,0,1-3.4-1.22,4.22,4.22,0,0,1-.94-2.64l-.43-6.18Z"/><path class="cls-2" d="M32.29,357.09l.44,6.34a2.2,2.2,0,0,0,.59,1.47,2,2,0,0,0,1.65.58,2,2,0,0,0,1.55-.81,2.14,2.14,0,0,0,.38-1.53l-.43-6.34,2-.13.43,6.17a4.27,4.27,0,0,1-.57,2.75,4.48,4.48,0,0,1-6.6.45,4.28,4.28,0,0,1-.94-2.64l-.43-6.17Z"/><path class="cls-2" d="M40.5,361.22l3.93-.27.12,1.7-3.94.27Z"/><path class="cls-2" d="M48.78,356a3.62,3.62,0,0,1,2.72.58,3.46,3.46,0,0,1,.52,4.68,3.46,3.46,0,0,1-2.5,1.07l-1.27.09.26,3.73-2,.14-.69-10.09Zm-.64,4.72.8-.05a2,2,0,0,0,1.26-.41,1.52,1.52,0,0,0,.46-1.22,1.36,1.36,0,0,0-.63-1.11,2.41,2.41,0,0,0-1.42-.22l-.68.05Z"/><path class="cls-2" d="M56.09,355.45l.7,10.09-1.85.13-.7-10.09Z"/><path class="cls-2" d="M63.7,358.48l1.85-.12.45,6.55-1.85.13-.06-.85a2.37,2.37,0,0,1-1.93,1.2,3.34,3.34,0,0,1-3.59-3.27,3.28,3.28,0,0,1,3-3.7,2.38,2.38,0,0,1,2.18.91ZM60.48,362a1.82,1.82,0,1,0,1.69-2A1.8,1.8,0,0,0,60.48,362Z"/><path class="cls-2" d="M69.85,359.64l.34,5-1.85.13-.34-5-.73.05-.1-1.57.72-.05L67.74,356l1.84-.13.16,2.24L71,358l.11,1.57Z"/><path class="cls-2" d="M74.83,358.08l4.27-.29-.27-3.91,2-.13.69,10.09-2,.14-.31-4.5-4.26.3.31,4.49-2,.14-.69-10.1,2-.13Z"/><path class="cls-2" d="M89,357.45A3.51,3.51,0,0,1,90.3,360a3.45,3.45,0,0,1-.93,2.63,3.75,3.75,0,0,1-2.58,1.11,3.87,3.87,0,0,1-2.72-.74,3.54,3.54,0,0,1-.35-5.13,4.27,4.27,0,0,1,5.3-.37Zm-.63,2.63a1.85,1.85,0,1,0-1.72,2A1.82,1.82,0,0,0,88.39,360.08Z"/><path class="cls-2" d="M91.33,356.58l1.84-.13,0,.74a2.41,2.41,0,0,1,1.89-1.08,2.17,2.17,0,0,1,2.16,1.05,2.4,2.4,0,0,1,2-1.34,2.06,2.06,0,0,1,1.82.68,2.77,2.77,0,0,1,.58,1.81l.29,4.12-1.85.13L99.88,359a2,2,0,0,0-.39-1.26.92.92,0,0,0-.78-.28,1.07,1.07,0,0,0-1,.64,2.49,2.49,0,0,0-.17,1.29l.23,3.35-1.85.12-.24-3.57a2,2,0,0,0-.39-1.26.9.9,0,0,0-.78-.28,1.09,1.09,0,0,0-1,.64,2.6,2.6,0,0,0-.17,1.29l.23,3.34-1.84.13Z"/><path class="cls-2" d="M109.87,360a3.25,3.25,0,0,1-3.08,2.27,3.44,3.44,0,0,1-2.58-.75,3.32,3.32,0,0,1-1.2-2.49,3.48,3.48,0,0,1,.82-2.64,3.33,3.33,0,0,1,2.4-1.09,3.12,3.12,0,0,1,2.63.9,3.94,3.94,0,0,1,1,2.52v.15l-4.91.33a2,2,0,0,0,.4,1.09,1.55,1.55,0,0,0,1.36.53,1.71,1.71,0,0,0,1.47-1ZM108,357.85a1.57,1.57,0,0,0-3.1.21Z"/><line class="cls-2" x1="19.66" y1="370.36" x2="123.42" y2="363.21"/><rect class="cls-2" x="19.54" y="366.39" width="104" height="0.79" transform="matrix(1, -0.07, 0.07, 1, -25.1, 5.8)"/><polygon class="cls-2" points="115.11 364.18 115.06 363.39 122.66 362.87 122.38 358.81 124.06 358.69 118.32 352.39 113.5 359.42 115.18 359.31 115.35 361.79 114.56 361.85 114.44 360.15 111.92 360.33 118.23 351.11 125.75 359.37 123.23 359.55 123.51 363.6 115.11 364.18"/><path class="cls-2" d="M126.24,352.9a7.77,7.77,0,0,0-3.21-3.36l.19-.34a8.11,8.11,0,0,1,3.38,3.53Z"/><path class="cls-2" d="M124.39,353.14a7.46,7.46,0,0,0-1.6-1.67l.25-.32a8,8,0,0,1,1.67,1.76Z"/><path class="cls-2" d="M123.09,353.58a6.88,6.88,0,0,0-.7-.73l.27-.29a7.6,7.6,0,0,1,.74.76Z"/></g></g></svg>