<svg xmlns="http://www.w3.org/2000/svg" viewBox="0 0 927.71 798.38"><defs><style>.cls-1{fill:#343838;}</style></defs><g id="sub2"><g id="パソコン男の子"><g id="顔-7" data-name="顔"><path class="cls-1" d="M456.09,239.71c.46,7.91-1.79,15.48-1.83,23.34-.06,9.89.73,21.21,8.66,28.11,1.86,1.6,4.19,2.85,6.33,4.55,8.43,6.84,13.12,17.26,15.37,27.63,3.76,20.68-.31,44.36-15.9,59.41-3.71,3.9-8.92,6.14-13.61,8.43a101.15,101.15,0,0,0-13.28,7.95c-8.51,5.93-16.59,12.75-23,20.79-6.79,7.9-9.09,18.43-9.51,28.62l-1.55,0c-.9-10.73,2.78-21.55,9.13-30.14A77.84,77.84,0,0,1,428,407c8-6.89,16.31-13.65,25.92-18.24,4.72-2.21,9.45-4,13.17-7.7a54.26,54.26,0,0,0,9.14-12.26c7.52-13.57,9.46-29.9,6.2-45a55.92,55.92,0,0,0-4-12.85,39.07,39.07,0,0,0-7.87-10.73c-2.77-2.89-6-4.57-9.15-7.28-6-5.6-9.18-13.88-9.64-21.92-.51-10.57-.3-21.38,3.37-31.43l1,.15Z"/><path class="cls-1" d="M343.4,346.4a21.28,21.28,0,0,1-6.51-5.22c-3.64-4.16-7.9-7.68-11.68-11.72-4-4.11-8.62-6.64-12.72-10.6-2-2-4.17-3.95-5.63-6.48a52.7,52.7,0,0,1-5.31-16.06,41.35,41.35,0,0,1,.16-16.91c1.1-5.66,3.74-11.31,8.47-14.85s10.4-5.71,16.25-5.5c5.82.59,11.53,3.61,14.52,8.7l-1.23.93c-3.59-3.72-8-7.4-13.39-7.2a21.79,21.79,0,0,0-14.53,5.06c-6.06,5.15-8.69,13.49-8.61,21.36-.25,8,1.42,16.39,5.59,23.33a25.92,25.92,0,0,0,5,6.16c3.1,2.56,7.1,4.55,9.9,7.56,3,3,6.28,5.45,9.27,8.36,2,1.95,3.93,3.93,6,5.73a19.39,19.39,0,0,1,5.08,6.68l-.71.67Z"/><path class="cls-1" d="M419.55,333.46a13.22,13.22,0,0,1,1.88,5.58c.5,3.82,2.15,7.38,3.61,10.9a58,58,0,0,0,6.8,9.28,44.58,44.58,0,0,0,9.23,6.89,25.72,25.72,0,0,0,22,0,37.22,37.22,0,0,0,9.61-6.13c2.6-2.78,5.26-5.64,6.87-9.12.86-1.72,1.59-3.48,2.46-5.23l1.47.45a17.94,17.94,0,0,1-2,5.77c-2,3.58-4.08,7.16-7.25,9.82-4.48,4.23-9.85,7.68-16,8.65-8.09,2-16.67-.82-23.29-5.55-1.66-1.2-3-2.8-4.47-4.11A30.52,30.52,0,0,1,423,351a30.94,30.94,0,0,1-2.71-5.47c-1-4-3.41-7.82-1.76-12l1-.09Z"/><path class="cls-1" d="M422.74,303.05c-1.4-2.56.5-4.43.53-6.91.11-1.13.57-2.21.76-3.34a57.83,57.83,0,0,1,.84-6.81c.07-2.28,0-4.56.2-6.86a53.76,53.76,0,0,0-.56-6.83,38.76,38.76,0,0,0-.9-6.78,68.41,68.41,0,0,0-1.91-10.08c-.17-2.33-1.44-4.33-1.52-6.71l1.46-.49c1.38,2,1.42,4.44,2.41,6.58.78,3.42,1.69,6.83,2.25,10.29.16,2.34.44,4.66.67,7,.08,2.34,0,4.68,0,7a36.38,36.38,0,0,1-.18,7,28.7,28.7,0,0,1-.54,7,29.5,29.5,0,0,1-.3,3.51c-.8,2.35.16,5-2.29,6.67l-.95-.23Z"/><path class="cls-1" d="M246.56,281.43a12.63,12.63,0,0,1,4.34-4.35c3.41-2.16,6.22-5.09,9.31-7.66,2.83-2.88,5.29-6.07,8-9.05,2.14-2.79,3.75-6,5.79-8.85l.74-1.32c2.94-5.26,4.86-11.1,6.82-16.77.77-2.9,1.33-5.92,2-8.84.35-1.7.88-4.22,1.13-5.93.54-3,.47-6,.71-9,.55-4-.2-8.05.1-12.12l1.53-.14a26.61,26.61,0,0,1,.69,6.15c0,4.12.29,8.27-.36,12.37a80.05,80.05,0,0,1-2.16,13.77c-1.89,6.52-4,12.8-7.27,18.75-1.49,2.69-2.87,5.53-4.5,8.13-1.05,1.79-2.51,3.29-3.63,5a52.31,52.31,0,0,1-8,9.46c-2.67,3.22-6,5.69-9.09,8.47a10.26,10.26,0,0,1-5.62,2.76l-.55-.81Z"/><path class="cls-1" d="M197.07,300a8.39,8.39,0,0,1,3.91-3.28c3-1.35,5.65-3.45,8.53-5.11,2.67-2,5.05-4.29,7.72-6.29a88.68,88.68,0,0,0,8.11-9.4,82.86,82.86,0,0,0,5.95-10.85,82.79,82.79,0,0,0,4.09-14.22c.19-1.64.24-3.28.44-4.92.62-3.3-.15-6.57.13-9.92l1.53-.19a18,18,0,0,1,.71,5.1c-.09,2.56.2,5.16-.13,7.72-.7,4.23-1.13,8.56-2.59,12.62a101.57,101.57,0,0,1-4.22,9.41,72.83,72.83,0,0,1-4.3,6.39c-1.55,2-3,4.16-4.7,6.09-1.1,1.31-2.53,2.31-3.67,3.58a40.86,40.86,0,0,1-7.73,6.7c-2.53,2.35-5.58,3.91-8.37,5.91a7.47,7.47,0,0,1-5,1.53l-.44-.87Z"/><path class="cls-1" d="M261.31,25.18c-13.56.74-28.35.78-41.63,3.32a169.05,169.05,0,0,0-39.57,13,164.5,164.5,0,0,0-44.63,32.9,188.77,188.77,0,0,0-31.25,46c-12,25.21-17.69,53.23-18.42,81-.48,48.83,20,91.47,62.81,116.42a182.67,182.67,0,0,0,25.18,11.9l-.51,1.45a120.84,120.84,0,0,1-13.2-5c-30.48-13.67-55.1-38-67.31-69.33-13.84-35.3-11.2-75.27-.48-111,13.57-44.83,44.16-85.73,86.8-106.4,16.83-8.62,35.32-13.49,54.06-15.72a97.68,97.68,0,0,1,28.21.53l-.06,1Z"/><path class="cls-1" d="M271.6,15.62C286.78,6.13,304.7,2.36,322.2-.24A152,152,0,0,1,348.84-1,175.24,175.24,0,0,1,401,9c42.4,13,80.66,41.87,99.61,82.61,11.83,24,17.27,50.8,16.83,77.45-.17,8.9-.87,17.86-3.2,26.5a49.14,49.14,0,0,1-3.63,9.49c-2.84,4.67-5.72,9.36-7.47,14.55a51.11,51.11,0,0,0-2.27,25.55l-1.51.3a44.84,44.84,0,0,1-.75-16.77A56.44,56.44,0,0,1,507,206.77a26.28,26.28,0,0,0,2.93-5.7c6.32-18.59,6.06-39,3.38-58.3-5.14-35.25-19.65-67.62-45.3-92.69C436.75,19.78,391.79,3.7,348.74,1.32,331.25.8,313.61,2.69,296.92,8c-8.39,2.62-16.55,5.66-24.9,8.5l-.42-.89Z"/><path class="cls-1" d="M380,147.5c.87,5.57-.68,10.81-1.85,16.14a123.65,123.65,0,0,1-4.06,15.74c-1,3.45-2,6.94-3.12,10.37-2.43,6.79-5.43,13.39-8.1,20.06-4.54,9.83-9.11,19.75-15.33,28.67A75,75,0,0,1,331.19,255c-5.67,3.83-12,6.52-18.32,9.1a95,95,0,0,1-10.24,3.63c-7,1.68-14.05,3.79-21.33,4l-.18-1.53c7-1.5,14.08-2.33,20.8-4.79,11.8-3.6,23.42-8.66,32.95-16.64A62.2,62.2,0,0,0,345.52,237c6.48-8.53,11.2-18.23,15.27-28.12,1.37-3.31,3.08-6.48,4.3-9.84s2.27-6.78,3.47-10.14a143.22,143.22,0,0,0,5.76-20.61,85.79,85.79,0,0,0,2-10.51A39.1,39.1,0,0,1,379,147.38l1,.12Z"/><path class="cls-1" d="M189.76,231.47c.07,3.85-2.83,6.1-4,9.46-.64,1.57-1.6,3-2.28,4.56-1.31,3.15-2.25,6.42-3.67,9.53-1.84,6.52-3.7,13.12-4.18,19.94a64,64,0,0,0-.76,10.16,96.12,96.12,0,0,0,.16,15.27c-.13,3.43,1,6.72.85,10.18l-1.52.26c-1.24-3.3-1-6.83-1.75-10.24-.35-2.58-.18-5.19-.39-7.79a65.54,65.54,0,0,1-.07-7.8c.51-5.19.8-10.39,2-15.47s2-10.22,3.78-15.11a49.81,49.81,0,0,1,3.44-9.8c1-3.36,2.78-6.34,4.08-9.59a7.91,7.91,0,0,1,3.4-4.05l.85.49Z"/><path class="cls-1" d="M407.29,167.78a20.52,20.52,0,0,1,2.09,7.26c.59,4.94,2.32,9.65,3.78,14.39,1.47,4,3.9,7.9,5.74,11.72a37.5,37.5,0,0,0,4.23,6.15,71.72,71.72,0,0,0,11.45,12.29,149.24,149.24,0,0,0,18.49,12.86,146.9,146.9,0,0,0,13,7.47c4.61,2,9.06,4.3,13.83,5.85,2.36.83,4.74,1.6,7,2.64l-.43,1.48c-5.07-.83-9.68-3.11-14.52-4.7a133.71,133.71,0,0,1-26.68-14.73,85.29,85.29,0,0,1-12.12-9.3c-5.13-4.79-10.28-9.7-14-15.73-1.37-2.12-3-4.23-4.23-6.42a80.75,80.75,0,0,1-4-8.74c-2.24-4.66-3.34-9.69-4.64-14.67a14.57,14.57,0,0,1-.09-7.73l1-.09Z"/><path class="cls-1" d="M458.73,183.79c2.45,3,1.6,6.57,2.84,9.91.48,1.64.66,3.35,1.09,5,1,3.27,2.35,6.41,3.25,9.73,2.15,4.63,4.15,9.39,6.91,13.73,2.92,4.21,5.61,8.58,9.12,12.33,2,2.24,4.64,5.64,6.79,7.65,1.25,1.17,2.58,2.24,3.8,3.44,2.29,2.58,5.37,4.19,7.75,6.73l-.9,1.25c-3.23-1.49-5.58-4.17-8.46-6.16-2.31-1.9-5.32-5.2-7.55-7.27-3.74-3.7-6.63-8.13-9.68-12.39-2.74-4.46-5.2-9.09-7.62-13.73-.82-1.55-1.18-3.29-2-4.85a49.39,49.39,0,0,1-3.61-9.82c-1.34-3.26-1.86-6.72-2.85-10.09a8,8,0,0,1,.12-5.33l1-.14Z"/><path class="cls-1" d="M184.17,318.87c4.72-.12,9.12,2.41,13.14,4.48a64.2,64.2,0,0,1,8.1,4.53c3.64,2.62,7.79,5.39,11.22,8.23a67.72,67.72,0,0,1,6.54,6.58,71.21,71.21,0,0,1,11.17,14.74,100.22,100.22,0,0,1,8,16.66c2,5.84,3.65,11.74,5.23,17.72a141.54,141.54,0,0,1,2.88,27.54c-.4,6.15-.17,12.35-1.63,18.38l-1.53-.21c.13-6.08,1.16-12.08.73-18.16.11-12.14-2.13-24.08-5.2-35.8-2.65-8.66-5.44-17.37-10.18-25.14a103.94,103.94,0,0,0-10.94-14.37c-2.13-2.14-4.48-4-6.73-6a70,70,0,0,0-14.9-10.13A48.29,48.29,0,0,0,192,324a31.84,31.84,0,0,1-8.09-4.2l.3-.93Z"/><path class="cls-1" d="M237.46,351.15c.73-.35,1.26-.48,1.58.11a2.06,2.06,0,0,0,.74,1c.33.26.37.76.59,1.1a6.35,6.35,0,0,0,.82.9,3.5,3.5,0,0,1,.45,1.15c.13.4.59.58.76.95a9.92,9.92,0,0,0,1.06,2.14,5.34,5.34,0,0,1,1.11,2.12,5.11,5.11,0,0,1,1,2.19,6.41,6.41,0,0,0,.26,1.17,3.58,3.58,0,0,1,.4,1.12c-.18.9.65,1.49.17,2.4l-1.5.36c-.84-.58-.38-1.47-1-2.08a3.42,3.42,0,0,1-.27-1.1c-.2-.72-.75-1.32-.94-2.05-.1-.36-.11-.76-.23-1.11s-.42-.63-.5-1a6.48,6.48,0,0,0-1.44-3c-.24-.29-.17-.77-.47-1s-.68-.44-.85-.77a3.77,3.77,0,0,0-.56-.95c-.25-.26-.7-.36-.89-.69a1.31,1.31,0,0,0-.82-.7c-.35-.17-.5-.49-.08-1.5l.66-.72Z"/><path class="cls-1" d="M253.2,354.08c.72-.34,1.26-.47,1.58.12a2.11,2.11,0,0,0,.74,1c.33.26.37.76.58,1.1a7,7,0,0,0,.83.9,3.33,3.33,0,0,1,.45,1.15c.13.39.59.57.76.94a10,10,0,0,0,1.06,2.15,32.73,32.73,0,0,1,2.06,4.31,6.6,6.6,0,0,0,.26,1.17,3.5,3.5,0,0,1,.4,1.12c-.19.89.65,1.49.17,2.4l-1.5.35c-.84-.57-.38-1.47-1-2.08a3.69,3.69,0,0,1-.26-1.09c-.2-.72-.75-1.32-.94-2.05-.1-.36-.11-.76-.24-1.11s-.42-.63-.5-1a6.43,6.43,0,0,0-1.44-3c-.24-.28-.16-.77-.46-1s-.68-.43-.85-.76a3.83,3.83,0,0,0-.56-1c-.25-.26-.7-.35-.89-.68a1.37,1.37,0,0,0-.83-.71c-.35-.16-.5-.48-.07-1.5l.66-.72Z"/><path class="cls-1" d="M272.14,354.08c.73-.34,1.26-.47,1.59.12a2,2,0,0,0,.73,1c.34.26.37.76.59,1.1a6.94,6.94,0,0,0,.82.9,3,3,0,0,1,.45,1.15c.13.39.59.57.76.94a10,10,0,0,0,1.06,2.15,5.21,5.21,0,0,1,1.11,2.12,5.06,5.06,0,0,1,.95,2.19,7.62,7.62,0,0,0,.26,1.17,3.27,3.27,0,0,1,.4,1.12c-.18.89.65,1.49.17,2.4l-1.5.35c-.83-.57-.38-1.47-1-2.08a3.71,3.71,0,0,1-.27-1.09c-.19-.72-.75-1.32-.93-2.05-.1-.36-.12-.76-.24-1.11s-.42-.63-.5-1a6.53,6.53,0,0,0-1.44-3c-.24-.28-.16-.77-.47-1s-.68-.43-.84-.76a4.2,4.2,0,0,0-.57-1c-.25-.26-.69-.35-.89-.68a1.33,1.33,0,0,0-.82-.71c-.35-.16-.5-.48-.08-1.5l.66-.72Z"/><path class="cls-1" d="M292.62,351.15c.72-.35,1.26-.48,1.58.11a2,2,0,0,0,.74,1c.33.26.36.76.58,1.1a6.42,6.42,0,0,0,.83.9,3.5,3.5,0,0,1,.45,1.15c.12.4.59.58.75.95a10,10,0,0,0,1.07,2.14,5.47,5.47,0,0,1,1.11,2.12,5.24,5.24,0,0,1,.95,2.19,7.36,7.36,0,0,0,.25,1.17,3.61,3.61,0,0,1,.41,1.12c-.19.9.65,1.49.17,2.4l-1.5.36c-.84-.58-.38-1.47-1-2.08a3.68,3.68,0,0,1-.26-1.1c-.2-.72-.75-1.32-.94-2.05-.1-.36-.11-.76-.24-1.11s-.42-.63-.5-1a6.39,6.39,0,0,0-1.44-3c-.24-.29-.16-.77-.46-1s-.68-.44-.85-.77a4.1,4.1,0,0,0-.56-.95c-.25-.26-.7-.36-.89-.69a1.33,1.33,0,0,0-.83-.7c-.35-.17-.5-.49-.07-1.5l.66-.72Z"/><path class="cls-1" d="M313.52,344.85c.72-.35,1.26-.48,1.58.11a2.06,2.06,0,0,0,.74,1c.33.26.37.76.58,1.1a7,7,0,0,0,.83.9,3.5,3.5,0,0,1,.45,1.15c.12.4.59.58.75.95a10.44,10.44,0,0,0,1.07,2.14,5.47,5.47,0,0,1,1.11,2.12,5.24,5.24,0,0,1,.95,2.19,7.36,7.36,0,0,0,.25,1.17,3.61,3.61,0,0,1,.41,1.12c-.19.9.65,1.49.17,2.4l-1.5.36c-.84-.58-.38-1.47-1-2.08a3.68,3.68,0,0,1-.26-1.1c-.2-.72-.75-1.32-.94-2.05-.1-.36-.11-.76-.24-1.11s-.42-.63-.5-1a6.39,6.39,0,0,0-1.44-3c-.24-.29-.16-.77-.46-1s-.68-.44-.85-.77a4.1,4.1,0,0,0-.56-1c-.25-.26-.7-.36-.89-.69a1.33,1.33,0,0,0-.83-.7c-.35-.17-.5-.49-.07-1.5l.66-.72Z"/></g><g id="体-7" data-name="体"><path class="cls-1" d="M240.23,435.45c2.17,3.07,4.65,7.83,6.55,11.1,4.13,7.43,10.38,13.58,17.25,18.52,7.21,4.7,15.62,6.86,24,8.82,8.51,1.53,17.15,2.8,25.7,4.14a128.13,128.13,0,0,0,63.53-7.59,116.61,116.61,0,0,0,22.91-11.88c7.44-4.43,13.72-10.42,20.24-16.09l1.1,1.09a72.9,72.9,0,0,1-9.49,9.1c-6.85,5.48-14,10.71-21.89,14.56a119.57,119.57,0,0,1-50.4,14c-13.14.56-26.25-1.14-39.21-3.09-4.3-.65-8.55-1.63-12.87-2.35a80.06,80.06,0,0,1-12.85-3,58.86,58.86,0,0,1-22.34-14.2c-5.77-6.61-11.86-13.84-13.09-22.84l.91-.34Z"/><path class="cls-1" d="M235.37,425.63a15.66,15.66,0,0,1-6.82-.05c-4.4-.9-8.92-.82-13.39-1.18-4.5.08-8.93.64-13.45.84a105.22,105.22,0,0,0-13.14,2.7,68.1,68.1,0,0,0-12.15,5.67A91.8,91.8,0,0,0,165,440.75c-3.2,2.28-8,5.41-10.9,8-1.71,1.46-3.32,3-5,4.49-3.6,2.76-6.3,6.41-9.8,9.32l-1.15-1c2.56-3.85,6.23-6.67,9.31-10.08a163.22,163.22,0,0,1,16.05-12.9c7.73-4.95,15.71-9.6,24.51-12.41,4.34-1.69,8.93-2.24,13.49-2.81a66.75,66.75,0,0,1,13.69-1.16c4.61-.39,9.17.22,13.78.46a12.48,12.48,0,0,1,6.63,2.08l-.19,1Z"/><path class="cls-1" d="M418.57,453.63c24.22,4.14,43.78,22.42,56,43,12.16,20.74,20.61,43.35,29.21,65.7,10.81,26.63,20.34,53.85,26.6,82l.2.8-.77.38c-26.57,13.15-53.24,26.45-79.07,41l-26.14,14.09-1.42.77c-4.17-17.6-9.05-35-13.06-52.66-3.9-17.13-8.56-34.07-12.13-51.27l1.5-.36c4.76,16.91,8.43,34.08,12.86,51.07s8.34,34.11,12.84,51.08l-1.8-.77,26-14.35c16.84-9.24,35.6-18.81,52.7-27.55q13.32-6.62,26.76-13l-.57,1.19A382.19,382.19,0,0,0,512,589.85c-6.4-18-13.59-35.76-21-53.36-6.35-15.41-12.74-30.91-22.61-44.44-6.6-9.76-14.72-18.6-24.77-24.85a150.23,150.23,0,0,0-25.32-12.62l.26-.95Z"/><path class="cls-1" d="M444.74,687.88c5.15,7.87,10.17,16.35,14.86,24.5,2.47,4.48,8.33,14.39,10.32,18.9a23.31,23.31,0,0,0,4.12,5.48c7.95,11.39,18.85,22.08,32.87,24.63,9.39,1.86,18.43-2.12,27.22-5,24.64-8.71,48-21.84,70.48-35,1.75-1,4.53-2.49,6.37-3.42,21.55-10.87,44-20,66.5-28.52,17.72,7.21,37.94,7.53,56.15,1.81a106.42,106.42,0,0,0,25.78-11.91,43.9,43.9,0,0,0,16.82-21.86c6.4-17.8.12-38.78-14.27-50.85-19.38-16.64-47.68-19.36-71.11-10.37a33.8,33.8,0,0,0-14.28,9.48c-8.8,10.17-11.6,23.68-18.25,35.23-24.41,5.09-48.92,14.64-72.83,21.73-8.56,3.38-18.33,6.73-27.83,8.11-9.75,1.46-20.07,1-29.24-2.88l-.15-.2-6.14-8.26c-1.91-2.85-3.73-5.76-5.59-8.64l1.31-.82,5.79,8.38,6.23,8.06-.42-.31a49,49,0,0,0,13.73,3.1,62.77,62.77,0,0,0,14.16-.57c9.47-1.42,18.64-4.46,27.51-8,24-7.72,47.75-16.51,72.47-21.81l-.77.57c6.23-11.12,9-24.35,17.28-34.4a35.61,35.61,0,0,1,16.06-11.25c18.22-6.92,39.17-7.26,57.09.79,25.38,11,40.82,36.45,31.45,63.74a46.75,46.75,0,0,1-22,25.33,103.37,103.37,0,0,1-41.18,13.27,83.22,83.22,0,0,1-38.15-5.23h.8c-17.83,7-35.83,13.54-53.05,21.87-5.33,2.57-10.73,5.29-15.94,8.12-27.73,16.7-56.6,32-87.63,41.67-20.23,6-38.51-9.23-49.42-24.83l.17.2a26.25,26.25,0,0,1-4.66-6c-3.2-6.15-7-12.69-10.33-18.81s-6.8-12.88-10-19.07c-1-2.16-2.12-4.29-3.13-6.47l.86-.47Z"/></g><g id="椅子"><path class="cls-1" d="M92.56,797.89c-16.44-26.15-28.72-54.64-39.73-83.43-5.43-14.45-10.63-29-14.68-43.9-2.09-7.41-3.23-15.11-5-22.58-2-8.44-4.64-16.51-7.26-24.83C13.83,583.92,4.82,543.54,1.38,502.58c-.48-5.31-.75-11.87-.91-17.2-.92-11.75,5-19.41,16.83-20.78,7.75-1,15.52.36,23.05,1.84,11,2.18,22.85,4.31,33.72,6.52C119,481.8,163.84,491.4,208,503.67c18.41,5.14,36.75,10.24,55.51,13.61,11.27,2.59,23.09,7.47,29.71,17.45A58.35,58.35,0,0,1,302.71,556a431.49,431.49,0,0,0,16.41,66.46c2,6.17,5.36,15.55,7.13,21.79,6.64,21.92,10.64,44.51,18.41,66.08,10,28.79,21.75,57,33.21,85.23l-1.41.6c-16.59-38.51-33.07-77.45-43.88-118.07-2.54-10.87-5.44-22.55-8.61-33.16-1.82-6.2-4.89-15.51-7-21.75a427.06,427.06,0,0,1-16.81-66.65c-1.48-7.26-5-14.14-9.16-20.2-6.34-9.49-17.32-14-28.06-16.53-25.62-4.8-52.4-13.33-77.68-19.64-36.81-9.63-74.2-17.93-111.53-25.29-10.4-2.18-23.25-4.39-33.72-6.39-15.39-3.15-39-5.68-37.35,16.87.9,43.83,11.35,86.87,23,128.93,3.16,11.17,6.94,21.36,9.83,33.16,2.23,9.37,3.91,18.78,6.86,28A589.38,589.38,0,0,0,64,734.87c9.23,21.14,19.37,41.78,29.46,62.54l-.86.48Z"/><path class="cls-1" d="M13.73,454.53a98.64,98.64,0,0,1,17-9.66c6.06-2.6,12.13-5.37,18.78-6.2a50.9,50.9,0,0,1,19.82,1.71L88,445.93c37,11.33,74.81,21.79,112.4,31,16.42,3.93,33.33,7.15,50,9.91,5.34.73,11.44,1.66,16.82,2.09,12.93,1.08,26.53,1.95,38,8.79,5.83,3.33,10,8.79,13.68,14.25,8.44,14.1,11.3,30.69,14.8,46.47,1.43,6.29,3.14,12.52,4.92,18.75,10.9,37.19,21.26,74.91,40.19,109,5.52,10.28,13.43,23.56,19.38,33.65,12.91,22.47,27.9,43.62,43.05,64.62l-1.23.93c-31.51-41.19-59.3-85.66-80-133.32-9.86-24.09-16.46-49.26-23.61-74.23-1.76-6.24-3.56-12.5-5-18.85-5-20.58-8-47.09-27.16-59.52-11.11-6.7-24.44-7.61-37.11-8.52-6-.47-13.37-1.43-19.37-2.37-28.8-4.74-57.28-11.71-85.53-18.93-31-8.48-62.67-17.31-93.51-26.7a45.37,45.37,0,0,0-18.7-1.3c-6.13.88-12,3.56-18.08,5.84s-11.83,5-17.65,7.87l-.5-.84Z"/></g><g id="パソコン"><path class="cls-1" d="M478.76,44.61C497.9,49,519.22,53.4,538.45,57.87c76.61,17.9,161.31,38.31,238,57.07,14.86,3.56,29.68,7.3,44.62,10.52,5,1.13,9.92,1.92,15,2.8s10,2.21,15,3.36l14.9,3.44c5,1.19,10,2.27,14.89,3.95a21.57,21.57,0,0,1,7,3.77c6.4,5.31,7.11,14.18,7.32,21.89.13,5.14.05,10.25-.11,15.36-.28,8.92-.93,17.92-2,26.78-.66,4.51-1.09,9-1.48,13.61-5.34,61.81-10.43,125.64-10.44,187.62.05,6.62.58,13.22.41,19.84-.25,13.24-2.08,26.35-2.61,39.54-.36,6.66.22,13.36-1.51,20-3.59,13.13-15.65,11.63-26.25,8.66-9.6-2.7-19-5.61-28.43-9a113.55,113.55,0,0,1-22.27-11.19,135.25,135.25,0,0,0-13.21-6.41c-18.24-7.59-37.08-13.68-55.77-20.12-36.27-12.54-76.17-26.28-113.32-35.14-25.57-6.43-51.55-11.4-77-18.54l-.79-1.05a.84.84,0,0,0,.28.85.9.9,0,0,0,.24.12h0l-.1,0-.4-.11-.8-.22-1.6-.43c-7.23-2-15.25-3.85-22.54-5.56-4.3-1-8.62-1.94-12.95-2.81-4.6-1-9.43-1.51-13.81-3.33l.77.91-14-2.4.23-1.53,14.09,2.12.77.9c2.36,0,3.46-.33,5.79.19,6.57,1.12,13.1,2.44,19.61,3.86,7.31,1.67,15.34,3.61,22.62,5.56l1.61.43.8.21.4.11.1,0,.15.05a1.51,1.51,0,0,1,.95,1.08l-.79-1c25.41,7.1,51.31,12.23,77,18.32a768.69,768.69,0,0,1,76,22.51c31.17,10.91,62.89,20.27,93.55,32.64,2.22.9,6.89,3.08,9.08,4.13,3,1.51,5.93,3.19,8.71,4.93,13.89,8.45,30.17,12.67,45.76,17.42,8.95,2.43,20.19,4.79,23.21-6.81,1.64-6.23,1.14-12.94,1.52-19.41.6-13.2,2.3-26.31,2.54-39.49.15-6.58-.4-13.16-.47-19.75.15-58.72,5.31-119.38,10.1-178,.42-5.45,1.17-14.8,1.72-19.63a294.12,294.12,0,0,0,2.4-30.51c.14-5.08.21-10.17.06-15.23-.28-7.18-.59-15.38-6.47-20.35a19.34,19.34,0,0,0-6.35-3.42c-4.71-1.64-9.71-2.76-14.65-4-9.91-2.34-19.84-4.79-29.79-6.75-20.14-3.16-40-8.26-59.84-12.91-83.49-20.87-169.09-40.68-253-59.95C508.7,54,492.3,50.15,478.48,45.55l.28-.94Z"/><path class="cls-1" d="M440.66,11c27.11,4.9,53.74,12.12,80.64,17.88,14.94,3.14,30,6.07,45,8.76,36.1,6.74,72.53,11.69,108.53,19.1C704.16,63,735.33,70,764.42,77c23.77,5.9,47.35,12.63,70.71,20,11.7,3.69,23.34,7.21,35.21,10.31,11.82,3.28,23.55,7,35,11.3,5.85,2,12,5.12,15.45,10.59a25.38,25.38,0,0,1,3.21,9c2.17,10.71.66,21.61-.13,32.35-.36,6.53-1,16.3-1.39,22.87-.32,8.34-.88,16.91-1.66,25.24-2.13,19.84-4.55,43.76-6.36,63.66-1.66,24.5-3.26,51.71-4.42,76.33-.86,19-1.63,40.21-1.77,59.14-.06,5.36,0,14.37-.32,19.78-.44,11.84-2.28,27.55-3.22,39.41a133,133,0,0,1-3,19.64c-.76,3.29-1.39,6.61-3,9.67-5.81,9.5-19.23,7.64-28.27,4.5l.49-1.47c7,2.07,15.34,3.62,22-.11,4.73-2.61,5.48-8.1,6.68-13.06a133.16,133.16,0,0,0,2.91-19.37c1.87-19.21,3.93-39.8,3.24-59,.58-43.09,3.31-90.21,5.84-133.21.62-9,2.31-25.53,3.15-34.44,1.17-11,3.28-27.8,4.17-38.54.85-8.82,1.12-18.58,1.7-27.47.42-8.73,1.19-18.79,1.76-27.48a70.29,70.29,0,0,0-.81-18,23.06,23.06,0,0,0-2.81-8.19c-3.25-5.06-8.69-7.77-14.28-9.78-22.76-9-46.8-14.18-70-21.87-70.09-21.66-142.09-37.3-214.34-49.75-42.38-6.44-84.6-14-126.43-23.42-17.84-4-35.85-8.6-53.36-13.79l.23-.95Z"/><path class="cls-1" d="M624.93,477.44a5,5,0,0,1-1-3.91c.36-2.61,0-5.21.41-7.81a48.51,48.51,0,0,1,.2-7.81c.12-1.3-.19-2.6-.13-3.9a99.63,99.63,0,0,0-.06-11.72c0-2.6.09-5.2-.09-7.81s.27-5.21.24-7.81c0-1.3-.14-2.6,0-3.9.43-2.6-.21-5.21.48-7.81h1.54c.66,2.6,0,5.2.41,7.81-.13,3.9.06,7.8.09,11.71-.21,2.61-.19,5.21-.17,7.81s-.32,5.21-.3,7.81a70.15,70.15,0,0,1,0,7.81,48.51,48.51,0,0,1,.12,7.81c.37,2.61,0,5.2.34,7.81a4.94,4.94,0,0,1-1,3.9Z"/><path class="cls-1" d="M674.6,491.31a5,5,0,0,1-1-3.91c.35-2.61,0-5.21.41-7.81a49.68,49.68,0,0,1,.19-7.81c.12-1.3-.19-2.6-.12-3.9a99.63,99.63,0,0,0-.06-11.72c.05-2.6.09-5.2-.09-7.81s.26-5.21.23-7.81c0-1.3-.13-2.6,0-3.9.43-2.6-.21-5.21.48-7.81h1.54c.67,2.6,0,5.2.41,7.81-.12,3.9.07,7.8.09,11.71-.2,2.61-.18,5.21-.16,7.81s-.32,5.21-.3,7.81a70.15,70.15,0,0,1,0,7.81,49.68,49.68,0,0,1,.12,7.81c.36,2.61,0,5.21.34,7.81a5,5,0,0,1-1,3.9Z"/><path class="cls-1" d="M765.81,675.21c10.89,2.09,21.65,4.61,32.4,7.3,7.07,2.06,14,4.59,21.11,6.55,10.68,3,21.54,4.88,32.24,7.9,3.58,1,7.14,2.09,10.63,3.4,8.16,3,17.13,7.45,25.7,3.79,5-2.16,7.53-7.08,10.15-11.75,5.63-9.56,8.74-20.12,12.63-30.45s8.63-20.35,12.15-30.84c1.21-3.46,2.43-6.94,3.28-10.44.87-3.27,1-7-2-9-2.37-1.68-6.88-3.75-9.59-5.11-13.27-6.4-26.11-13.57-39.94-18.72-20.7-7.74-41.13-16.28-62-23.58Q729.19,534.63,644,510.74c-34.88-10.1-71.61-19.62-106.43-30.11-14.17-3.9-27.91-9.52-42.22-12.93-7.13-1.74-14.37-3.22-21.54-4.89l.3-1.52c10.88,2.09,21.85,4,32.47,7.21C556.78,485.13,615,499.61,666,514.24c35.45,10.17,70.54,21.61,105.53,33.27,27.9,9.55,55.7,19.55,83.05,30.58,13.78,5.29,27.84,10,41.12,16.52,6.58,3.42,13.08,6.78,19.69,10.06l5,2.51c2.47,1.38,5.42,2.58,7,5.16s1.35,6,.68,8.78c-.85,3.68-2,7.18-3.2,10.69s-2.41,7-3.72,10.46c-4.06,10.37-8.32,20.44-12,30.9a114.41,114.41,0,0,1-9.11,20.3c-2.69,4.95-5.71,10.46-11.19,12.78-12.27,5.51-26-4-38-6.66-14.08-4-28.74-6.38-42.92-10.89q-10.51-3.29-21.18-6.05c-7.09-1.93-14.19-4.13-21.17-6.5l.26-.94Z"/><path class="cls-1" d="M522.55,600.35c5.83-.11,10.56,3.15,16,4.57,5.21,1.88,10.33,4,15.66,5.53,5.37,2,10.2,3.77,15.72,5.34,7.53,2.71,16,5.41,23.7,7.67,5.27,1.7,10.53,3.42,15.86,4.91,7.9,2.56,15.75,5.27,23.69,7.7,5.18,2,10.65,3,15.78,5.17l-.43,1.48c-5.51-.92-10.63-3.13-16.06-4.33-5.3-1.61-10.5-3.53-15.86-5-8-2.3-15.77-5.25-23.73-7.62-7.84-2.76-15.68-5.52-23.65-7.88-2.65-.81-5.18-2-7.85-2.72s-5.37-1.42-8-2.37c-5.15-2.07-10.49-3.57-15.75-5.29-5.15-2.22-10.91-2.58-15.42-6.25l.32-.93Z"/><path class="cls-1" d="M471.1,477.79c11.72,2.42,24.45,7,35.8,11,6.61,2.27,16.89,5.59,23.68,7.87,19.52,7,39.58,13.22,59.14,19.91,11.75,4.2,23.61,8.09,35.5,11.89,58.55,19.94,119,39.45,177.45,59.63,15.27,5.26,32,10.56,47.27,16,3.8.75,9.31,2.33,13.54,3.61,4.51,1.34,9,2.7,13.56,3.61,5.64,2.23,11.25,4.53,16.81,6.95l-.57,1.43q-8.52-3-16.94-6.33c-3.81-.71-9.19-2.29-13.49-3.59a140.54,140.54,0,0,0-13.6-3.63l-11.88-3.84c-43-14.57-87-29.2-130.08-43.87-30.51-10.76-64.06-21.57-94.57-32C593,520,573.13,513.72,553.47,506.93c-11-3.67-24.56-7.83-35.59-11.62-7.26-2.49-16.44-5.41-23.74-7.71a208.66,208.66,0,0,1-23.35-8.89l.31-.92Z"/><path class="cls-1" d="M491.26,504c20.65,4.75,40.07,13.13,60.22,19.44l11.94,4.21c4,1.4,8,2.73,12,4.1,20,6.35,40,13.91,59.9,20.38,15.84,5.17,32.46,11.17,47.8,16.28,4.66.91,9.19,2.26,13.68,3.59s9.08,2.63,13.66,3.54c11.17,3.88,25.14,8.42,36.43,12.12,13.95,4.5,28.95,8.91,42.61,14.17,8.59,3.37,21.16,8.38,29.77,11.77,12,4.49,24.16,8.42,36.26,12.6,16.14,5.57,32.63,10,48.93,15l-.4,1.49c-16.66-3.91-32.92-9.26-49.25-14.31-22-6.87-44.72-15.85-66.27-24.06C770.72,597.76,752,591.77,733.93,586c-7.88-2.51-16.93-5.63-24.11-8.27-9.22-1.94-18-5.51-27.11-7.4q-48-16.21-96.08-32.31c-15.65-5.58-32.28-10.67-48-16.06-15.87-5.74-32.32-9.78-47.68-17l.32-.93Z"/><path class="cls-1" d="M774.32,619.36a16.08,16.08,0,0,1,7.33,1.34c4.56,1.86,9.34,3.07,13.9,5,4.68,1.52,9.42,2.86,14,4.76,4.68,1.49,9.4,2.88,14,4.64,4.05,1.35,10,3.12,14.1,4.37,4.67,1.56,9.32,3.14,14.06,4.49,7,2.35,13.94,4.85,21,7.06,4.55,1.94,9.42,2.87,13.88,5l-.48,1.46c-4.88-.9-9.35-3-14.16-4.19-7-2.41-14-4.52-21.07-6.79-4.61-1.73-9.3-3.23-14-4.75-6.73-2.46-14.17-5-21-7-2.35-.72-4.59-1.79-7-2.44s-4.77-1.24-7.09-2.06c-4.59-1.8-9.36-3-14.06-4.49-4.6-2-9.76-2-13.74-5.46l.31-.93Z"/><path class="cls-1" d="M500,527.29c8.65.8,16.38,5,24.63,7.35,8.09,2.81,16.11,5.83,24.32,8.31,4.08,1.32,8.06,2.91,12.1,4.35s8.17,2.55,12.22,4c11.27,4,25.15,8.58,36.57,12.18,7.09,2.4,17.16,5.83,24.4,8.07,12.16,4.16,24.3,8.37,36.48,12.44,4,1.61,8,2.95,12.11,4.31s8.1,2.8,12,4.5l-.5,1.46c-4.16-1.09-8.21-2.47-12.25-3.89-16.18-5.61-32.5-10.86-48.75-16.25-7.19-2.62-17.19-5.93-24.32-8.32-11.27-4-25.07-8.79-36.49-12.39-4.08-1.31-8-3-12.14-4.21s-8.22-2.44-12.26-3.85c-8-3-16.25-5.41-24.39-8.07-8-3.12-16.7-4.43-24.08-9l.31-.93Z"/><path class="cls-1" d="M780.08,643.76a11.22,11.22,0,0,1,6.1.93c3.76,1.6,7.72,2.54,11.46,4.17a120.53,120.53,0,0,1,11.53,3.95c5.85,1.7,11.54,3.9,17.38,5.66,3.46,1,8.29,2.48,11.62,3.68,3.9,1.16,7.81,2.25,11.61,3.71s7.72,2.53,11.56,3.87c3.73,1.66,7.79,2.33,11.43,4.23l-.48,1.46a36.09,36.09,0,0,1-5.89-1.6,51.45,51.45,0,0,0-5.82-1.79c-3.88-1.2-7.66-2.7-11.6-3.74-5.86-1.69-11.51-4-17.35-5.77-3.38-1.22-8.12-3-11.49-4-3.94-1.06-7.74-2.48-11.58-3.79-4-.91-7.77-2.38-11.63-3.67-1.94-.6-4-1-5.86-1.67-3.8-1.69-8.14-1.51-11.3-4.65l.31-.93Z"/><path class="cls-1" d="M508.28,552.51c7.38.45,13.84,4.31,20.84,6.29,6.82,2.44,13.58,5.08,20.53,7.16,3.45,1.12,6.8,2.51,10.21,3.75s6.93,2.14,10.35,3.35c9.53,3.44,21.3,7.23,31,10.19,6,2,14.55,4.84,20.71,6.64,6.91,2.16,13.71,4.7,20.63,6.87,7,2,13.76,4.58,20.7,6.65,3.46,1.08,6.91,2.2,10.27,3.6l-.46,1.47c-3.55-.79-7-1.86-10.47-3-6.87-2.32-13.91-4.09-20.75-6.52-6.89-2.26-13.89-4.19-20.77-6.51-6.09-2.19-14.58-4.91-20.63-6.89-9.56-3.38-21.25-7.4-30.93-10.41-3.46-1.1-6.8-2.54-10.27-3.6s-7-2-10.39-3.24c-6.78-2.59-13.74-4.64-20.62-6.93-6.73-2.75-14.19-3.73-20.26-8l.32-.92Z"/><path class="cls-1" d="M776.15,660.81c5.68-.14,10.26,3.07,15.54,4.46,5,1.84,10,3.92,15.2,5.42,2.56.84,5,1.94,7.54,2.9s5.14,1.59,7.66,2.53c5.06,1.84,10.08,3.79,15.25,5.29,4.56,1.32,11,3.33,15.39,4.88,7.77,2.18,15.36,4.93,23,7.52,5.19,1.43,10.17,3.51,15.32,5.06a62.72,62.72,0,0,1,7.58,2.81l-.46,1.47a63.27,63.27,0,0,1-7.78-2.2c-2.55-.86-5.09-1.76-7.71-2.38-5.14-1.61-10.18-3.51-15.38-5-7.75-2.28-15.29-5.2-23-7.56-10-3.61-20.59-6.94-30.51-10.6-5.21-1.41-10.23-3.38-15.31-5.17-5.21-1.41-10.18-3.5-15.38-4.94a19.16,19.16,0,0,1-7.28-3.62l.33-.92Z"/><path class="cls-1" d="M513.9,574c6.79.16,12.71,3.73,19.13,5.44,6.26,2.17,12.44,4.56,18.81,6.41,3.16,1,6.23,2.26,9.34,3.39s6.34,1.92,9.47,3c8.71,3.15,19.46,6.6,28.31,9.32,5.48,1.84,13.27,4.49,18.89,6.16,6.31,2,12.49,4.41,18.79,6.46,6.36,1.87,12.5,4.37,18.82,6.35a94.94,94.94,0,0,1,9.33,3.45l-.49,1.46a95.66,95.66,0,0,1-9.53-2.84c-6.24-2.21-12.66-3.9-18.87-6.21-6.27-2.14-12.65-3.93-18.91-6.1-5.55-2-13.29-4.58-18.81-6.41-8.71-3.13-19.38-6.82-28.24-9.52-6.63-2.47-12.24-4.07-18.89-6.15-6.2-2.35-12.58-4.15-18.89-6.16-6.16-2.49-13-3.18-18.57-7.13l.31-.93Z"/><path class="cls-1" d="M488.71,475.37c.85.57.94.88.71,1.06a.78.78,0,0,0-.39.68c0,.27-.37.41-.49.64a2.38,2.38,0,0,0-.14.76c0,.26-.34.42-.51.63s0,.55-.12.77-.3.44-.41.67a6.13,6.13,0,0,0-.26,1.54c0,.26-.27.44-.31.7s0,.53-.08.78c-.09.52-.58.89-.71,1.38-.06.25,0,.53-.2.74-.58.37-.14,1.06-.93,1.29l-1.46-.51a.76.76,0,0,1,0-.83.86.86,0,0,0,.14-.77c0-.27.2-.47.31-.7.21-.46.07-1.05.32-1.51.12-.23.33-.43.44-.66s0-.53.2-.74.3-.44.44-.66a3.06,3.06,0,0,0,.43-1.47c0-.26.42-.39.4-.67s-.14-.59,0-.82.34-.42.37-.68-.13-.59,0-.8a.8.8,0,0,0,.13-.77c-.06-.29.2-.47,1.22-.38l.92.33Z"/><path class="cls-1" d="M507.5,482.26a1.91,1.91,0,0,1,.16,2.34,5.4,5.4,0,0,0-.9,1.91,13,13,0,0,1-1,1.87,15.65,15.65,0,0,0-.67,2,11,11,0,0,1-1,1.86c-.36.61-.33,1.38-.64,2s-.64,1.25-.93,1.9c-.81,2-1.17,4.08-2.15,6A31.28,31.28,0,0,1,498,508a12.34,12.34,0,0,1-.73,2c-.92,1.15-.82,2.7-2,3.76l-1.44-.57c-.11-1.56,1-2.62,1.15-4.09a12.77,12.77,0,0,1,.84-1.94,31.68,31.68,0,0,1,2.32-5.88c.85-2.68,2.51-5.05,3.17-7.82.21-.68.76-1.22.92-1.91a10,10,0,0,1,.53-2.06,17.54,17.54,0,0,0,.89-1.92,12.62,12.62,0,0,1,.55-2.05,5.36,5.36,0,0,0,.66-2c.13-.7.51-1.31,1.73-1.58l.91.36Z"/><path class="cls-1" d="M526.29,496.13a3.8,3.8,0,0,1-.32,3.46c-1.16,1.92-1.66,4.08-2.86,6a35,35,0,0,1-2.66,6.09c-.52,1-.65,2.12-1.12,3.13a71,71,0,0,0-3.67,9.26,65.53,65.53,0,0,0-2.39,6.2c-.75,2.09-1.9,4-2.7,6.08a32.5,32.5,0,0,1-1.2,3.1c-1.23,1.89-1.46,4.18-2.93,6l-1.43-.59c.22-2.3,1.66-4.1,2.11-6.31,1.35-3,2.41-6.19,3.63-9.28a62.11,62.11,0,0,0,2.63-6.11,71.11,71.11,0,0,0,3.88-9.18c.36-1.05,1.07-2,1.38-3a26.72,26.72,0,0,1,1-3.18,40.9,40.9,0,0,0,2.39-6.2,13.1,13.1,0,0,0,1.14-3.12,3.76,3.76,0,0,1,2.2-2.69l.91.37Z"/><path class="cls-1" d="M549.27,496.13a9.31,9.31,0,0,1-1.22,5.46c-1.75,3.25-2.87,6.75-4.66,10a95,95,0,0,1-4.46,10.06c-1.93,5.14-4.4,10.08-6.41,15.21-1.11,3-2.85,7.28-4.18,10.17-1.33,3.42-2.6,6.87-4.22,10.17s-2.87,6.75-4.37,10.09c-1.83,3.21-2.66,6.84-4.72,10l-1.42-.6c.81-3.64,2.85-6.76,3.9-10.3,2.26-5,4.22-10.16,6.34-15.24,1.62-3.3,3-6.68,4.43-10.07,1.38-3,3.32-7.06,4.55-10,1.25-3.47,2.81-6.78,4.31-10.13a94.55,94.55,0,0,1,4.17-10.18c.68-1.7,1.13-3.5,1.93-5.16,1.85-3.29,1.89-7.26,5.13-9.77l.9.38Z"/><path class="cls-1" d="M568.06,512.65a10.78,10.78,0,0,1-1.41,5.84c-1.89,3.48-3.14,7.24-5,10.7a108.78,108.78,0,0,1-4.84,10.8c-2.13,5.51-4.79,10.81-7,16.31-1.23,3.26-3.12,7.81-4.57,10.92-1.46,3.66-2.85,7.35-4.6,10.9s-3.13,7.24-4.76,10.83c-2,3.45-2.92,7.33-5.11,10.68l-1.41-.61c.94-3.89,3.11-7.25,4.29-11,2.44-5.39,4.6-10.89,6.91-16.34,1.75-3.55,3.29-7.17,4.82-10.81,1.49-3.16,3.59-7.58,4.94-10.75,1.37-3.72,3.06-7.28,4.69-10.87a110.74,110.74,0,0,1,4.55-10.92c.75-1.82,1.27-3.74,2.13-5.52,2-3.53,2.14-7.76,5.51-10.51l.9.39Z"/><path class="cls-1" d="M594.9,510.94a10.69,10.69,0,0,1-1.41,5.84c-1.88,3.48-3.13,7.24-5,10.71a109.66,109.66,0,0,1-4.84,10.79c-2.13,5.52-4.78,10.82-7,16.32-1.22,3.25-3.12,7.8-4.57,10.91-1.46,3.66-2.85,7.36-4.6,10.9s-3.13,7.24-4.76,10.83c-1.95,3.45-2.92,7.33-5.1,10.68l-1.42-.61c1-3.89,3.11-7.25,4.29-11,2.45-5.39,4.6-10.9,6.92-16.35,1.74-3.54,3.28-7.17,4.81-10.81,1.49-3.16,3.6-7.58,4.94-10.75,1.37-3.71,3.06-7.27,4.69-10.86a110.74,110.74,0,0,1,4.55-10.92c.76-1.83,1.27-3.75,2.13-5.53,2-3.53,2.15-7.76,5.51-10.51l.9.39Z"/><path class="cls-1" d="M615.94,530a10.64,10.64,0,0,1-1.42,5.83c-1.88,3.49-3.13,7.24-5,10.71a112.23,112.23,0,0,1-4.84,10.8c-2.13,5.51-4.79,10.81-7,16.31-1.23,3.26-3.13,7.8-4.58,10.91-1.45,3.67-2.85,7.36-4.59,10.9s-3.13,7.24-4.76,10.84c-2,3.45-2.92,7.33-5.11,10.68l-1.41-.61c.94-3.89,3.11-7.25,4.29-11,2.44-5.39,4.6-10.9,6.91-16.34,1.75-3.55,3.28-7.18,4.82-10.81,1.49-3.16,3.59-7.58,4.94-10.76,1.37-3.71,3.06-7.27,4.68-10.86a113.29,113.29,0,0,1,4.56-10.92c.75-1.82,1.27-3.75,2.12-5.52,2-3.53,2.15-7.76,5.52-10.51l.9.39Z"/><path class="cls-1" d="M640.06,528.87a10.55,10.55,0,0,1-1.41,5.83c-1.88,3.49-3.13,7.25-5,10.71a111.14,111.14,0,0,1-4.84,10.8c-2.13,5.51-4.79,10.81-7,16.31-1.23,3.26-3.13,7.81-4.58,10.91-1.45,3.67-2.85,7.36-4.6,10.91s-3.12,7.24-4.75,10.83c-2,3.45-2.92,7.33-5.11,10.68l-1.41-.61c.94-3.89,3.11-7.25,4.29-11,2.44-5.39,4.6-10.89,6.91-16.34,1.75-3.55,3.28-7.17,4.82-10.81,1.49-3.16,3.59-7.58,4.94-10.75,1.37-3.72,3.06-7.28,4.68-10.87a113.29,113.29,0,0,1,4.56-10.92c.75-1.82,1.27-3.74,2.12-5.52,2-3.53,2.15-7.76,5.52-10.51l.89.39Z"/><path class="cls-1" d="M671.77,528.87a10.55,10.55,0,0,1-1.41,5.83c-1.88,3.49-3.13,7.25-5,10.71a113.6,113.6,0,0,1-4.84,10.8c-2.13,5.51-4.79,10.81-7,16.31-1.23,3.26-3.13,7.81-4.58,10.91-1.46,3.67-2.85,7.36-4.6,10.91s-3.12,7.24-4.76,10.83c-1.95,3.45-2.91,7.33-5.1,10.68l-1.42-.61c1-3.89,3.11-7.25,4.3-11,2.44-5.39,4.6-10.89,6.91-16.34,1.75-3.55,3.28-7.17,4.81-10.81,1.5-3.16,3.6-7.58,4.94-10.75,1.37-3.72,3.07-7.28,4.69-10.87a113.29,113.29,0,0,1,4.56-10.92c.75-1.82,1.27-3.74,2.12-5.52,2-3.53,2.15-7.76,5.51-10.51l.9.39Z"/><path class="cls-1" d="M698.11,539a10.6,10.6,0,0,1-1.41,5.84c-1.88,3.48-3.13,7.24-5,10.71a111,111,0,0,1-4.84,10.79c-2.13,5.52-4.79,10.82-7,16.32-1.23,3.25-3.13,7.8-4.58,10.91-1.45,3.66-2.85,7.36-4.6,10.9s-3.12,7.24-4.75,10.83c-2,3.45-2.92,7.33-5.11,10.68l-1.41-.61c.94-3.89,3.11-7.25,4.29-11,2.44-5.39,4.6-10.9,6.91-16.35,1.75-3.54,3.28-7.17,4.82-10.81,1.49-3.16,3.59-7.58,4.94-10.75,1.37-3.71,3.06-7.27,4.68-10.86a113.29,113.29,0,0,1,4.56-10.92c.75-1.83,1.27-3.75,2.12-5.53,2-3.53,2.15-7.76,5.52-10.51l.89.39Z"/><path class="cls-1" d="M722.78,562.26c1.33,1.8-.37,2.31-.64,3.86a10.66,10.66,0,0,1-1,1.66,11.07,11.07,0,0,1-1.61,3.45c-.35.55-.3,1.25-.6,1.82a19.69,19.69,0,0,0-1.54,3.48,16.94,16.94,0,0,1-1.34,3.56,15.67,15.67,0,0,1-1.36,3.56,28.27,28.27,0,0,0-1.53,3.48c-.88,1-.76,2.44-1.87,3.35l-1.43-.6c-.14-1.43,1-2.34,1.06-3.68a10.4,10.4,0,0,1,.78-1.74c.53-1.15.71-2.45,1.28-3.59a19.54,19.54,0,0,0,1.58-3.46,23,23,0,0,0,2.3-5.23c.2-.6.73-1.07.87-1.7a8.91,8.91,0,0,1,.48-1.86,14.24,14.24,0,0,0,.84-1.71,11.19,11.19,0,0,1,.5-1.85,4.23,4.23,0,0,0,.61-1.81c.12-.64.48-1.18,1.68-1.36l.9.37Z"/><path class="cls-1" d="M751.23,562.26a1.86,1.86,0,0,1,.14,2.3,5,5,0,0,0-.92,1.85,13,13,0,0,1-1,1.81,14.54,14.54,0,0,0-.69,1.95,10.47,10.47,0,0,1-1.05,1.79c-.37.59-.35,1.35-.67,2s-.65,1.22-.94,1.84c-.83,1.9-1.22,4-2.21,5.79a30.36,30.36,0,0,1-2.41,5.7,11.76,11.76,0,0,1-.75,1.92c-.93,1.1-.85,2.63-2,3.63l-1.42-.59c-.09-1.54,1.05-2.55,1.19-4a13.21,13.21,0,0,1,.85-1.88,30.1,30.1,0,0,1,2.39-5.71c.87-2.61,2.55-4.89,3.24-7.59.22-.65.77-1.17.94-1.85a10.35,10.35,0,0,1,.54-2,14.54,14.54,0,0,0,.91-1.86,12.4,12.4,0,0,1,.58-2,5,5,0,0,0,.67-2c.14-.69.53-1.27,1.74-1.51l.91.38Z"/><path class="cls-1" d="M773.16,572.3a1.92,1.92,0,0,1,.1,2.34,5.17,5.17,0,0,0-1,1.88,13.49,13.49,0,0,1-1.06,1.84,15.12,15.12,0,0,0-.73,2,10.32,10.32,0,0,1-1.09,1.82c-.38.6-.37,1.37-.7,2s-.68,1.24-1,1.87c-.87,1.94-1.29,4-2.32,5.88a30.75,30.75,0,0,1-2.52,5.8,13.22,13.22,0,0,1-.78,1.95c-1,1.12-.9,2.67-2.08,3.69l-1.42-.61c-.07-1.56,1.1-2.58,1.27-4a11,11,0,0,1,.88-1.91,31.42,31.42,0,0,1,2.5-5.81c.92-2.64,2.64-5,3.39-7.71.23-.66.79-1.18,1-1.87a10.93,10.93,0,0,1,.58-2,15.05,15.05,0,0,0,.95-1.88,12.53,12.53,0,0,1,.61-2,5.11,5.11,0,0,0,.71-2,1.9,1.9,0,0,1,1.78-1.52l.9.38Z"/><path class="cls-1" d="M798.85,578a3.7,3.7,0,0,1-.41,3.41c-1.22,1.86-1.77,3.94-3,5.83a34.26,34.26,0,0,1-2.84,5.92c-.55,1-.71,2.08-1.22,3.05a70.28,70.28,0,0,0-3.94,9,61.92,61.92,0,0,0-2.58,6c-.81,2-2,3.89-2.88,5.9a29.78,29.78,0,0,1-1.29,3c-1.28,1.82-1.59,4.09-3.1,5.8l-1.41-.63c.28-2.27,1.78-4,2.29-6.17,1.45-3,2.6-6,3.92-9a65.5,65.5,0,0,0,2.81-5.93,70.15,70.15,0,0,0,4.14-8.93c.4-1,1.13-1.9,1.48-2.94a23.89,23.89,0,0,1,1.1-3.11,40.51,40.51,0,0,0,2.58-6,12.8,12.8,0,0,0,1.22-3.05,3.74,3.74,0,0,1,2.28-2.58l.89.41Z"/><path class="cls-1" d="M824.76,578a10.64,10.64,0,0,1-1.42,5.83c-1.88,3.49-3.13,7.24-5,10.71a109.83,109.83,0,0,1-4.84,10.8c-2.13,5.51-4.79,10.81-7,16.31-1.23,3.26-3.13,7.8-4.57,10.91-1.46,3.67-2.86,7.36-4.6,10.9s-3.13,7.24-4.76,10.84c-1.95,3.45-2.92,7.33-5.11,10.68l-1.41-.61c.94-3.89,3.11-7.25,4.29-11,2.44-5.39,4.6-10.89,6.91-16.34,1.75-3.55,3.28-7.18,4.82-10.81,1.49-3.16,3.59-7.58,4.94-10.75,1.37-3.72,3.06-7.28,4.69-10.87a110.74,110.74,0,0,1,4.55-10.92c.75-1.82,1.27-3.75,2.13-5.52,2-3.53,2.14-7.76,5.51-10.51l.9.39Z"/><path class="cls-1" d="M843.55,598.71a10.75,10.75,0,0,1-1.41,5.84c-1.89,3.48-3.14,7.24-5,10.71a108.61,108.61,0,0,1-4.84,10.79c-2.13,5.52-4.79,10.82-7,16.32-1.23,3.25-3.12,7.8-4.57,10.91-1.46,3.66-2.85,7.36-4.6,10.9S813,671.42,811.33,675c-2,3.46-2.92,7.33-5.11,10.69l-1.41-.62c.94-3.89,3.11-7.25,4.29-11,2.44-5.39,4.6-10.9,6.91-16.35,1.75-3.54,3.29-7.17,4.82-10.8,1.49-3.17,3.59-7.59,4.94-10.76,1.37-3.71,3.06-7.27,4.69-10.86A110.74,110.74,0,0,1,835,614.36c.75-1.83,1.27-3.75,2.13-5.53,2-3.53,2.14-7.76,5.51-10.5l.9.38Z"/><path class="cls-1" d="M873,603.37a10.67,10.67,0,0,1-1.41,5.84c-1.88,3.48-3.13,7.24-5,10.71a111,111,0,0,1-4.85,10.79c-2.13,5.52-4.78,10.82-7,16.32-1.23,3.25-3.13,7.8-4.58,10.91-1.46,3.67-2.85,7.36-4.6,10.9s-3.13,7.24-4.76,10.83c-2,3.46-2.91,7.33-5.1,10.69l-1.42-.62c1-3.89,3.11-7.25,4.29-11,2.45-5.39,4.61-10.9,6.92-16.35,1.74-3.54,3.28-7.17,4.81-10.8,1.5-3.17,3.6-7.59,4.94-10.76,1.37-3.71,3.07-7.27,4.69-10.86A110.82,110.82,0,0,1,864.45,619c.75-1.82,1.26-3.75,2.12-5.53,2-3.53,2.15-7.76,5.51-10.5l.9.38Z"/><path class="cls-1" d="M896.09,607.73a10.64,10.64,0,0,1-1.42,5.83c-1.88,3.49-3.13,7.24-5,10.71a112.23,112.23,0,0,1-4.84,10.8c-2.13,5.51-4.79,10.81-7,16.31-1.23,3.26-3.13,7.8-4.58,10.91-1.45,3.67-2.85,7.36-4.59,10.91s-3.13,7.24-4.76,10.83c-2,3.45-2.92,7.33-5.11,10.68l-1.41-.61c.94-3.89,3.11-7.25,4.29-11,2.44-5.39,4.6-10.89,6.91-16.34,1.75-3.55,3.28-7.18,4.82-10.81,1.49-3.16,3.59-7.58,4.94-10.75,1.37-3.72,3.06-7.28,4.68-10.87a113.29,113.29,0,0,1,4.56-10.92c.75-1.82,1.27-3.75,2.12-5.52,2-3.53,2.15-7.76,5.52-10.51l.9.39Z"/><path class="cls-1" d="M675.32,466.22a42.58,42.58,0,0,1,11.76,2.8l1,1.44a1.45,1.45,0,0,0-1-1.47l.13,0A77.64,77.64,0,0,1,698,473.41c6,2.83,11.86,5.76,17.07,10.12a21.73,21.73,0,0,1,5.19,6.41c3.3,6.33,3.85,15.14-3.61,18.71-6.14,3-13.11,2.64-19.73,3-15.86.11-30.83-6-46.13-9.27-15.2-3.76-31.14-5.66-45.38-12.57C594.29,484.31,575.83,473.93,588,460c9-10.16,26.21-9.68,37.77-4.74l-.54,1.44c-9.48-2.69-20.65-4.48-29.65.35-4,2.38-8.13,6.1-9.08,10.82-1.78,9.18,13.31,15.91,20.08,19.44,9.27,4.73,19.28,7.26,29.47,9.25,20.39,4,40,12.39,60.87,13,8.28,0,23.81-.2,23.28-11.56a17.36,17.36,0,0,0-4-10c-2.53-2.83-5.81-4.73-9.07-6.71a84.71,84.71,0,0,0-20.16-9l-.45-.14-.22-.06-.11,0a1.71,1.71,0,0,1-.84-.52,1.7,1.7,0,0,1-.41-1l1,1.43c-3.65-1.52-7.23-2.94-10.81-4.72l.24-.95Z"/><path class="cls-1" d="M537.72,170.51c8.93.72,17.31,3.87,25.77,6.57q12.76,3.81,25.14,8.75A192.47,192.47,0,0,0,622.25,196c5.79,1.06,11.68,1,17.55,1.68a144.37,144.37,0,0,1,17.55,3.05c5.77,1.35,11.52,2.74,17.2,4.49s11.23,3.72,16.88,5.09a137.27,137.27,0,0,0,17.24,3c11.69,1,23.53,1.33,35.25,2.09,8.87.63,17.72.38,26.61,1.1a62.06,62.06,0,0,1,8.84,1.65A167.33,167.33,0,0,0,796.58,222c5.79,1,11.63,1.64,17.41,2.78l-.16,1.54c-5.9-.51-11.81-1.1-17.64-2.16-8.69-1.49-17.24-3.94-25.94-5.19-8.74-.88-17.64-.6-26.43-1-14.76-.6-29.59-1.22-44.24-3.51-8.83-1.22-17.33-4.52-25.65-7.28-5.59-1.77-11.27-3.31-17-4.58-11.56-2.69-23.25-3-35-4.69-11.83-1.57-23.1-5.52-34.12-9.93-5.5-2.08-11.15-3.71-16.71-5.63-4.69-1.54-12.11-3.93-16.9-5.11a104.78,104.78,0,0,1-16.74-5.77l.26-1Z"/><path class="cls-1" d="M564.85,198.75c8.93.72,17.31,3.87,25.77,6.57q12.76,3.81,25.14,8.75a191.87,191.87,0,0,0,33.62,10.13c5.8,1.06,11.69,1.05,17.55,1.69a142.43,142.43,0,0,1,17.55,3c5.77,1.35,11.53,2.75,17.2,4.49s11.23,3.72,16.88,5.09a137.27,137.27,0,0,0,17.24,3c11.69,1,23.54,1.33,35.26,2.09,8.86.63,17.71.38,26.6,1.1a61.8,61.8,0,0,1,8.84,1.65,167.38,167.38,0,0,0,17.21,3.82c5.79,1,11.63,1.63,17.41,2.77l-.16,1.54c-5.9-.51-11.81-1.1-17.63-2.16-8.7-1.49-17.25-3.94-25.94-5.19-8.74-.88-17.64-.6-26.44-1-14.76-.6-29.59-1.22-44.24-3.5-8.82-1.23-17.33-4.53-25.65-7.29-5.59-1.77-11.27-3.31-17-4.58-11.56-2.69-23.25-3-35-4.69-11.83-1.57-23.1-5.52-34.11-9.93-5.51-2.08-11.16-3.71-16.72-5.63-4.68-1.54-12.11-3.93-16.9-5.11a104.33,104.33,0,0,1-16.73-5.77l.25-.95Z"/><path class="cls-1" d="M521.6,211.43c8.94.72,17.32,3.87,25.78,6.57q12.75,3.81,25.13,8.75a192.13,192.13,0,0,0,33.62,10.13c5.8,1.06,11.69,1.05,17.56,1.69a140.12,140.12,0,0,1,17.54,3.05c5.78,1.34,11.53,2.74,17.2,4.48s11.24,3.72,16.88,5.09a137.42,137.42,0,0,0,17.25,3c11.69,1,23.53,1.33,35.25,2.09,8.87.63,17.72.38,26.6,1.1a61.8,61.8,0,0,1,8.84,1.65,168,168,0,0,0,17.21,3.82c5.8,1,11.63,1.63,17.41,2.77l-.16,1.54c-5.89-.51-11.8-1.1-17.63-2.16-8.69-1.49-17.24-3.94-25.94-5.19-8.74-.88-17.64-.6-26.44-1-14.75-.6-29.58-1.22-44.23-3.5-8.83-1.23-17.33-4.53-25.65-7.29-5.6-1.77-11.28-3.31-17-4.58-11.55-2.69-23.24-3-35-4.69-11.83-1.57-23.11-5.52-34.12-9.93-5.5-2.08-11.15-3.71-16.72-5.63-4.68-1.54-12.1-3.93-16.9-5.11a105,105,0,0,1-16.73-5.77l.25-.95Z"/><path class="cls-1" d="M527.77,241.08c8.94.71,17.32,3.87,25.78,6.56s16.88,5.45,25.13,8.75a192.13,192.13,0,0,0,33.62,10.13c5.8,1.06,11.69,1.05,17.56,1.69a142,142,0,0,1,17.54,3.05c5.78,1.34,11.53,2.74,17.2,4.48s11.24,3.72,16.88,5.09a135.63,135.63,0,0,0,17.25,3c11.69,1,23.53,1.33,35.25,2.09,8.87.63,17.72.38,26.6,1.1a61.8,61.8,0,0,1,8.84,1.65,167.38,167.38,0,0,0,17.21,3.82c5.8,1,11.63,1.63,17.41,2.78l-.16,1.53c-5.89-.51-11.81-1.09-17.63-2.16-8.69-1.49-17.24-3.94-25.94-5.19-8.74-.88-17.64-.6-26.44-1-14.75-.6-29.58-1.22-44.24-3.5-8.82-1.23-17.32-4.53-25.64-7.29-5.6-1.77-11.28-3.31-17-4.58-11.55-2.69-23.24-3-35-4.68s-23.11-5.53-34.12-9.94c-5.5-2.08-11.15-3.71-16.72-5.62-4.68-1.55-12.1-3.93-16.9-5.12A105,105,0,0,1,527.52,242l.25-.94Z"/><path class="cls-1" d="M556.14,272.32c8.93.72,17.31,3.87,25.77,6.57q12.76,3.81,25.14,8.75a192.73,192.73,0,0,0,33.62,10.13c5.8,1.06,11.68,1.05,17.55,1.68a144.37,144.37,0,0,1,17.55,3.05c5.77,1.35,11.53,2.74,17.2,4.49s11.23,3.72,16.88,5.09a137.27,137.27,0,0,0,17.24,3c11.69,1,23.54,1.33,35.26,2.09,8.86.63,17.71.38,26.6,1.1a63.48,63.48,0,0,1,8.84,1.64A164.78,164.78,0,0,0,815,323.77c5.79,1,11.63,1.64,17.41,2.78l-.16,1.54c-5.9-.51-11.81-1.1-17.63-2.17-8.7-1.48-17.25-3.93-26-5.19-8.74-.87-17.63-.59-26.43-1-14.76-.6-29.59-1.22-44.24-3.51-8.82-1.22-17.33-4.53-25.65-7.29-5.59-1.76-11.27-3.3-17-4.58-11.56-2.68-23.25-2.95-35-4.68-11.83-1.58-23.1-5.52-34.11-9.93-5.51-2.08-11.16-3.71-16.72-5.63-4.68-1.54-12.11-3.93-16.9-5.12a104.29,104.29,0,0,1-16.73-5.76l.25-.95Z"/><path class="cls-1" d="M503.67,286.49c8.94.72,17.32,3.87,25.78,6.57q12.75,3.81,25.13,8.75a193,193,0,0,0,33.62,10.13c5.8,1.06,11.69,1.05,17.56,1.68a143.87,143.87,0,0,1,17.54,3.05c5.78,1.35,11.53,2.74,17.2,4.49s11.24,3.72,16.88,5.09a137.42,137.42,0,0,0,17.25,3c11.69,1,23.53,1.33,35.25,2.09,8.87.63,17.72.38,26.6,1.1a63.21,63.21,0,0,1,8.84,1.64,164.78,164.78,0,0,0,17.21,3.82c5.8,1,11.63,1.64,17.41,2.78l-.16,1.54c-5.89-.51-11.81-1.1-17.63-2.17-8.69-1.48-17.24-3.93-25.94-5.19-8.74-.87-17.64-.59-26.44-1-14.75-.6-29.58-1.22-44.24-3.51-8.82-1.22-17.32-4.53-25.64-7.29-5.6-1.76-11.28-3.3-17-4.58-11.55-2.68-23.24-2.95-35-4.68-11.83-1.58-23.11-5.52-34.12-9.93-5.5-2.08-11.15-3.71-16.72-5.63-4.68-1.54-12.1-3.93-16.9-5.12a105,105,0,0,1-16.73-5.76l.25-.95Z"/><path class="cls-1" d="M548.89,325.08c8.93.71,17.32,3.87,25.77,6.56s16.89,5.45,25.14,8.75a192.13,192.13,0,0,0,33.62,10.13c5.8,1.06,11.69,1.06,17.56,1.69a143.87,143.87,0,0,1,17.54,3.05c5.78,1.34,11.53,2.74,17.2,4.49s11.24,3.72,16.88,5.08a135.32,135.32,0,0,0,17.25,3c11.69,1,23.53,1.34,35.25,2.09,8.87.64,17.72.39,26.6,1.11a63.21,63.21,0,0,1,8.84,1.64,164.78,164.78,0,0,0,17.21,3.82c5.8,1,11.63,1.64,17.41,2.78l-.16,1.53c-5.89-.51-11.81-1.09-17.63-2.16-8.69-1.48-17.24-3.94-25.94-5.19-8.74-.87-17.64-.59-26.44-1-14.75-.59-29.58-1.21-44.24-3.5-8.82-1.23-17.32-4.53-25.64-7.29-5.6-1.76-11.28-3.31-17-4.58-11.56-2.69-23.24-3-35-4.68S610,347,599,342.54c-5.5-2.08-11.15-3.72-16.72-5.63-4.68-1.55-12.1-3.93-16.9-5.12A104,104,0,0,1,548.64,326l.25-.94Z"/><path class="cls-1" d="M501.73,340.7c8.94.72,17.32,3.87,25.78,6.57q12.75,3.81,25.13,8.75a193,193,0,0,0,33.62,10.13c5.8,1.06,11.69,1.05,17.56,1.68a144.37,144.37,0,0,1,17.55,3.05c5.77,1.35,11.52,2.74,17.19,4.49s11.24,3.72,16.88,5.09a137.42,137.42,0,0,0,17.25,3c11.69,1,23.53,1.33,35.25,2.09,8.87.63,17.72.38,26.61,1.1a61.93,61.93,0,0,1,8.83,1.65,167.92,167.92,0,0,0,17.21,3.81c5.8,1,11.63,1.64,17.42,2.78l-.17,1.54c-5.89-.51-11.8-1.1-17.63-2.16-8.69-1.49-17.24-3.94-25.94-5.2-8.74-.87-17.64-.59-26.44-1-14.75-.6-29.58-1.22-44.23-3.51-8.83-1.22-17.33-4.53-25.65-7.29-5.6-1.76-11.28-3.3-17-4.58-11.55-2.68-23.24-2.95-35-4.68-11.83-1.58-23.11-5.52-34.12-9.93-5.5-2.08-11.15-3.71-16.72-5.63-4.68-1.54-12.1-3.93-16.9-5.12a105,105,0,0,1-16.73-5.76l.25-.95Z"/><path class="cls-1" d="M709.73,145.35c.92,2.6,0,4.74-.38,7.22-.09,4.48-1.21,9.67,1,13.67,1.76,3.82,7.43,6,11,3.4a15.23,15.23,0,0,0,4.18-5.39c1.08-2.18,2.4-4.09,3-6.39a38.15,38.15,0,0,0,1-6.89l2.65.26-1.12,5.3a69.37,69.37,0,0,1-1.48,8c-.52,2.67-.7,5.38-1.69,7.95l-1.52-.26c-.06-2.76.69-5.37,1.11-8.06a68.2,68.2,0,0,1,1.31-8l.76-5.37,2.65.26a21.54,21.54,0,0,1-1.36,7.54c-2.53,8.18-10.61,19.53-19.65,11.76a9.38,9.38,0,0,1-4.23-6.69c-.26-2.56-.42-5-.51-7.56,0-1.23.15-2.5.24-3.75.11-2.58,0-5.24,2.09-7.22l1,.24Z"/><path class="cls-1" d="M737.89,152.32c.92,2.6,0,4.74-.38,7.22-.09,4.48-1.21,9.67,1,13.67,1.75,3.82,7.42,6,11,3.4a15.23,15.23,0,0,0,4.19-5.39c1.08-2.18,2.4-4.09,3-6.39a38.26,38.26,0,0,0,1-6.89l2.65.26-1.11,5.3a67.32,67.32,0,0,1-1.49,8c-.52,2.67-.7,5.38-1.69,7.95l-1.52-.27c-.06-2.75.69-5.36,1.11-8a68.4,68.4,0,0,1,1.32-8l.75-5.36,2.65.26a21.57,21.57,0,0,1-1.35,7.54c-2.54,8.18-10.62,19.53-19.66,11.75a9.38,9.38,0,0,1-4.23-6.68c-.26-2.56-.42-5-.5-7.56,0-1.24.14-2.51.24-3.75.11-2.58,0-5.24,2.08-7.22l.95.24Z"/><path class="cls-1" d="M778.8,175.52c-.57.86-.88.95-1.1.71a.88.88,0,0,0-.73-.38c-.29,0-.46-.37-.71-.49a2.71,2.71,0,0,0-.82-.14c-.27,0-.46-.34-.69-.51s-.58,0-.83-.12a3.61,3.61,0,0,0-1.53-.58c-.28,0-.57,0-.84-.07s-.49-.27-.76-.32a2.81,2.81,0,0,1-1.6-.4,3.05,3.05,0,0,0-.74-.38,1.69,1.69,0,0,1-.8-.19c-.42-.58-1.13-.13-1.42-.93l.48-1.47a.85.85,0,0,1,.88-.05,1,1,0,0,0,.81.14c.29,0,.51.2.77.31.5.2,1.12.06,1.62.31.25.12.47.33.72.44s.57,0,.8.19a6.48,6.48,0,0,0,1.48.76c.27.06.57,0,.83.11s.44.41.73.39.62-.14.87,0,.46.33.74.36.62-.14.86,0a.84.84,0,0,0,.82.13c.31-.06.51.2.46,1.23l-.3.93Z"/><path class="cls-1" d="M791.64,168.08c2,1.21,2.26,3,2.76,4.87,1.25,2.83,1.86,5.87,3.11,8.69l-1.75-.57a22.24,22.24,0,0,1,2.63-1.75,31.06,31.06,0,0,0,5.37-3.34c1.3-.81,2.82-1.58,4.18-2.33a9.62,9.62,0,0,1,1.67-.8,1.07,1.07,0,0,1,1.29,1.41,4.8,4.8,0,0,1-1.15,1.37,48.64,48.64,0,0,1-6.08,5.14,108.16,108.16,0,0,1-10,7.65,41,41,0,0,1-5.1,3.71,27,27,0,0,1-5.23,3.54l-.92-1.23a27.49,27.49,0,0,1,4.88-4c.84-.62,1.52-1.46,2.41-2,2.64-1.74,5-3.82,7.46-5.8,1.64-1.31,3.47-2.38,5.11-3.68,2.1-1.94,4.58-3.39,6.68-5.29l.17-.18a1,1,0,0,0-.09.49,1,1,0,0,0,1,.84,8.56,8.56,0,0,0-1.17.55c-2.21,1.39-4.34,2.9-6.66,4.1a45.08,45.08,0,0,1-5.16,3.62l-1.33.76c-1-3.69-2.61-6.2-3.84-9.9-.89-1.76-1.84-3.28-1.16-5.48l.92-.35Z"/><path class="cls-1" d="M812.49,183.72a7.19,7.19,0,0,1,4,.27c2.45.83,5.14.18,7.62-.19,2.08-.64,4.44-2,3.9-4.39a5.22,5.22,0,0,0-2.28-2.57,4.47,4.47,0,0,0-3.23-.79c-3.73.77-6.55,4.2-8.32,7.4-2.2,5.24-.53,9.85,5.51,10.46,2.59.75,5-.28,7.49-1l.79,1.33c-2.28,2.17-5.64,2.1-8.58,2.11-4.67-.31-9.59-4.5-8.79-9.52,1-6,5.5-11.39,11.59-12.66,3.37-.8,6.56,1.47,7.66,4.62a4.35,4.35,0,0,1-.88,5,11.23,11.23,0,0,1-4.18,2.17c-2.83,1.23-5.83,1.22-8.87,1a4.7,4.7,0,0,1-3.88-2.35l.42-.88Z"/><path class="cls-1" d="M845.08,164.38a2.08,2.08,0,0,1,.4,2.44,6.16,6.16,0,0,0-.72,2.14,13.54,13.54,0,0,1-.82,2.11,18.48,18.48,0,0,0-.47,2.21,12.65,12.65,0,0,1-.85,2.1c-.31.7-.2,1.51-.45,2.22s-.52,1.41-.74,2.13c-.61,2.18-.78,4.47-1.56,6.58a21.89,21.89,0,0,1-1.07,4.38,38.8,38.8,0,0,0-1.24,4.33c-.81,1.34-.55,3-1.6,4.24l-1.49-.4c-.27-1.63.77-2.91.74-4.47a13.75,13.75,0,0,1,.65-2.16,35.94,35.94,0,0,1,1.74-6.53c.59-2.94,2-5.68,2.4-8.69.14-.74.64-1.38.73-2.14a16.21,16.21,0,0,1,1-4.39,16.84,16.84,0,0,1,.35-2.24,5.9,5.9,0,0,0,.46-2.21,2.07,2.07,0,0,1,1.58-1.9l.94.25Z"/><path class="cls-1" d="M859.38,164.78a2.08,2.08,0,0,1,.39,2.44,6,6,0,0,0-.71,2.15,17,17,0,0,1-.82,2.11,16.59,16.59,0,0,0-.48,2.2,12.75,12.75,0,0,1-.85,2.11c-.31.69-.2,1.5-.45,2.21s-.52,1.42-.73,2.14c-.62,2.17-.78,4.46-1.57,6.58a21.29,21.29,0,0,1-1.07,4.37,40.56,40.56,0,0,0-1.24,4.34c-.8,1.34-.55,3-1.6,4.23l-1.49-.4c-.27-1.63.77-2.9.75-4.47a14.86,14.86,0,0,1,.64-2.16,36,36,0,0,1,1.75-6.53c.59-2.94,2-5.68,2.4-8.68.14-.74.64-1.39.72-2.14a16.05,16.05,0,0,1,1-4.39,14.94,14.94,0,0,1,.35-2.24,5.94,5.94,0,0,0,.46-2.21,2.07,2.07,0,0,1,1.57-1.91l1,.25Z"/></g></g></g></svg>