<svg xmlns="http://www.w3.org/2000/svg" viewBox="0 0 1164.75 787.01"><defs><style>.cls-1{fill:#343838;}</style></defs><g id="sub2"><g id="スマホパソコン女の子"><g id="顔-8" data-name="顔"><path class="cls-1" d="M1021.82,288.66a12,12,0,0,0-4.14,3.82,19.25,19.25,0,0,1-3.74,4,29.4,29.4,0,0,1-9,6.25c-1.66.77-3.27,1.67-5,2.36a32.8,32.8,0,0,1-5.38,1.24A35.23,35.23,0,0,1,978.1,306a34.27,34.27,0,0,1-10.42-3.5,32.1,32.1,0,0,1-8.86-6.27c-2.34-2.79-4.76-5.63-6.18-9-.75-1.68-1.39-3.38-2.2-5.07l-1.49.41c.41,4,2.65,7.3,4.47,10.73a25.76,25.76,0,0,0,3.73,4.54A30.06,30.06,0,0,0,972,307a45.65,45.65,0,0,0,17.18,2.12,34,34,0,0,0,11.38-2.13,28.31,28.31,0,0,0,5.49-2c2.51-1.3,5-3.12,7.44-4.61,2.45-1.65,4.3-3.95,6.48-5.93a8.36,8.36,0,0,0,2.67-5.25l-.82-.53Z"/><path class="cls-1" d="M951.37,223.87c-2.27.78-1.3,2.65-2,4.25a13.07,13.07,0,0,0-.18,2.33,12.65,12.65,0,0,0-.33,4.63c.09.77-.28,1.53-.21,2.31s.14,1.54.2,2.31c.1,1.54,0,3.1.18,4.64s.6,3,.79,4.6a35.73,35.73,0,0,0,1.58,4.38,11.61,11.61,0,0,0,.81,2.18c1,1.24,1.09,2.93,2.44,4l1.35-.75c-.11-1.6-1.36-2.62-1.55-4.17a21.19,21.19,0,0,0-.87-2c-.56-1.36-.67-2.87-1.13-4.26a17.07,17.07,0,0,1-1-4.28,23.23,23.23,0,0,1-.68-4.37c0-.74.1-1.47.11-2.21a18.14,18.14,0,0,1-.08-2.21,15.69,15.69,0,0,0,.46-2.18,11.63,11.63,0,0,1,.17-2.21,20.51,20.51,0,0,0,.63-2.12,5,5,0,0,1,.62-2.11,2.12,2.12,0,0,0-.38-2.41l-.94-.29Z"/><path class="cls-1" d="M1002.43,227.27c-2.27.78-1.3,2.65-2,4.25a12.92,12.92,0,0,0-.17,2.33,12.59,12.59,0,0,0-.34,4.62c.09.77-.28,1.53-.2,2.31s.14,1.55.19,2.32c.1,1.54.05,3.1.18,4.64s.6,3,.79,4.59a34.34,34.34,0,0,0,1.59,4.39,11.44,11.44,0,0,0,.81,2.18c1,1.24,1.09,2.93,2.43,4l1.35-.74c-.11-1.6-1.35-2.62-1.55-4.17a21.36,21.36,0,0,0-.87-2c-.55-1.36-.67-2.86-1.12-4.25a16.83,16.83,0,0,1-1-4.28,22.58,22.58,0,0,1-.69-4.37c0-.74.1-1.48.11-2.21a20.59,20.59,0,0,1-.08-2.22,15.39,15.39,0,0,0,.46-2.18,12.47,12.47,0,0,1,.17-2.2,21.45,21.45,0,0,0,.63-2.13,5.35,5.35,0,0,1,.62-2.11,2.12,2.12,0,0,0-.38-2.41l-.94-.28Z"/><path class="cls-1" d="M964.75,154a13,13,0,0,0-5.09-10.26,4.32,4.32,0,0,0-5.68.1c-2.83,2.67-4.21,6.49-5.68,9.86A113.64,113.64,0,0,0,942,170.05c-.86,2.79-2.09,5.45-3,8.24-1.53,4.83-3.58,11.82-5.24,16.68-1.91,5.52-3.66,11.09-5.11,16.74a138.88,138.88,0,0,0-4.15,17c-.78,5-2.29,12.32-2.9,17.29-.19,2.93-.62,5.81-1,8.71a61,61,0,0,0-.52,8.75l1.53.13c.56-2.87.87-5.75,1.17-8.63.52-5.78,1.76-11.46,2.5-17.22.77-4.89,2.55-12.07,3.64-17,1.14-5.69,2.74-11.26,4.43-16.81,2.25-8.16,4.88-17.07,7.76-25,1-2.74,1.6-5.59,2.69-8.29s2.25-5.35,3.25-8.07a63.37,63.37,0,0,1,7.44-15.38,6.59,6.59,0,0,1,1.75-1.85c1.06-.35,2,.76,2.86,1.89,1.47,2.11,2.65,4.67,4.64,7l.92-.33Z"/><path class="cls-1" d="M971.32,154.92c3.62-6.66,4.09-13.57,11.42-4.75a131.11,131.11,0,0,1,12.53,16.93c1.92,3,4.06,5.79,6,8.74s3.49,6.12,5.41,9.14c6,8.87,12.11,17.7,19.53,25.47a86.83,86.83,0,0,0,26.61,18.06,177.12,177.12,0,0,0,20.23,7c7,1.67,14.23,3.06,21.4,1.94l-.1-1.54c-3.51-.09-7-.2-10.45-.55a40.58,40.58,0,0,1-10.18-2.18c-3.35-1.09-6.79-2-10.11-3.08a105.9,105.9,0,0,1-19-8.78c-15.44-8.52-26.85-22.73-36-37.51-3.82-5.93-7.36-12.18-11.23-18.1-2-2.93-4.11-5.79-6.15-8.71-3.19-4.31-10.63-17.35-17.07-12.93-3.22,2.51-4,6.85-3.76,10.67l1,.18Z"/><path class="cls-1" d="M1090.47,290.73a22.47,22.47,0,0,0-2,8.49c-.35,5.78-1.4,11.48-1.82,17.25-.8,5.72-1.85,11.4-2.42,17.16-1,5.68-2.18,11.34-3.11,17A293.8,293.8,0,0,1,1072,384c-1.61,4.77-3.77,11.73-5.63,16.35-2.32,5.28-4.17,10.76-6.67,15.95-1.22,2.62-2.43,5.23-3.4,8l1.38.68a63.74,63.74,0,0,0,4-7.74c2.29-5.34,5-10.51,6.84-16,1.87-4.87,4.58-11.44,6-16.35,2.42-8.37,5-16.71,6.63-25.28,1.8-8.52,3.72-17,4.93-25.63,1.32-5.66,2-11.42,2.73-17.17.43-2.87,1.09-5.7,1.38-8.59.32-5.85,2.53-11.43,1.19-17.35l-1-.11Z"/><path class="cls-1" d="M1089.71,189.57a3.48,3.48,0,0,0-.17,3.27c.84,1.86,1,3.94,1.76,5.95a41.8,41.8,0,0,0,1.21,6.09c.27,1,.09,2.08.27,3.1a50,50,0,0,1,.63,9.32,52.09,52.09,0,0,1,.24,6.25c0,2.09.48,4.16.56,6.24a27.12,27.12,0,0,0,.12,3.13c.54,2.07,0,4.18.8,6.23l1.54-.08c.55-2.12-.22-4.17.08-6.28-.28-3.13-.25-6.26-.39-9.4a59.56,59.56,0,0,1-.49-6.25,87.46,87.46,0,0,1-.87-9.42c-.06-1.06-.51-2.06-.55-3.12a25.08,25.08,0,0,0-.93-6.26,22.29,22.29,0,0,0-.43-3.15c-.88-2.09,0-4.52-2.44-5.89l-.94.27Z"/><path class="cls-1" d="M1006.74,66.46c-9.86-3.73-20.6-3.24-30.9-2.19-2.36.34-4.83.59-7.13,1.09a94.47,94.47,0,0,0-35.08,15.07C923.28,87.9,915,98,907.49,108.18a156.51,156.51,0,0,0-23.34,52,232.54,232.54,0,0,0-5.36,37.71c-.76,12.68-.24,25.35.07,38a270.23,270.23,0,0,0,7.33,56.5l1.5-.32a382,382,0,0,1-4.62-112.84c.26-2.64,1-6.64,1.52-9.3a167.57,167.57,0,0,1,10.63-36,136.38,136.38,0,0,1,14.08-24.4c3.69-5.1,7.28-10.28,11.63-14.8,8.7-8.92,18.85-16.59,30.38-21.42a99.13,99.13,0,0,1,24.83-6.32c7-.86,14-.35,21,0,3.12.16,6.23.4,9.42.46l.19-1Z"/><path class="cls-1" d="M1012.94,68.72c22.27-5.67,42.83-7,64.36,2.27,44.52,16.43,72.83,60.71,81.4,106,3.53,19.39,3.64,39.19,3.57,58.86.46,56.87-6.1,121.91-38.79,170A245.8,245.8,0,0,1,1105.29,429l1.13,1.05a169.57,169.57,0,0,0,26.74-35.63c7.6-12.84,13-26.84,17.3-41.1,8.77-28.44,13-58.12,13.83-87.84.65-19.72.69-39.62-.37-59.33-1.3-30-8.36-59.27-24.52-84.89a122.83,122.83,0,0,0-54.25-49.74c-17.87-8.83-38.72-12.82-58.39-8.61a62.78,62.78,0,0,0-14.16,4.89l.34.92Z"/><path class="cls-1" d="M1091.42,420c3.2-2.07,3.26-5.77,5.06-8.73,1.31-3.08,2.36-6.28,3.93-9.26.71-1.52,1.14-3.16,1.7-4.74s1.45-3,2-4.61c1.64-4.75,3.54-9.41,5.46-14.06,1.54-4.79,3.6-9.4,4.91-14.27.8-3.27,2-6.4,2.91-9.63.55-3.33,2.09-6.38,2.32-9.79l-1.49-.41c-1.53,3-1.81,6.43-3.16,9.51-1.32,4.83-3,9.53-4.65,14.26-.88,3.23-2,6.37-3.16,9.49-.9,2.82-2.16,6.77-3.25,9.47-1.41,3-2.51,6.19-3.72,9.29a95.77,95.77,0,0,0-4.07,9.15c-1.69,2.89-2.75,6.07-4.47,8.95a7.89,7.89,0,0,0-1.23,5l.89.42Z"/><path class="cls-1" d="M924.26,307.31a3.11,3.11,0,0,0,1,3.11c1.59,1.46,2.74,3.18,4.67,4.24a13,13,0,0,0,5.5,3.08,29.49,29.49,0,0,0,3,1.08c3.79.74,8,.12,11.64,1.23,1.44.84,2.05,2.38,2.55,4,.58,1.79.24,3.72.06,5.57.15,2-.92,3.77-.78,5.84l1.48.41c1.19-1.8,1-3.94,1.7-5.92a13.76,13.76,0,0,0,.2-3.15c0-2.21,0-4.57-1.35-6.53a8.1,8.1,0,0,0-6.18-3.13c-2.07,0-4,.32-6,.12a38.12,38.12,0,0,1-5.55-1.29c-.84-.46-1.59-1.06-2.41-1.51a12.4,12.4,0,0,1-4.34-3.63,7.09,7.09,0,0,1-1.78-2.24,3.33,3.33,0,0,0-2.52-1.77l-.82.53Z"/><path class="cls-1" d="M932.84,200.27c-.9,3,.27,5.8.68,8.71.22,2.87.46,5.73.55,8.6a79.41,79.41,0,0,1-1,8.57,23.61,23.61,0,0,1-.78,4.24c-1.59,4.07-2.75,8.3-4.39,12.37-2.3,5.4-4.35,10.9-6.59,16.32a41.72,41.72,0,0,0-3.1,8.77,1.57,1.57,0,0,1,0-.37c-.08.28-.12.47-.18.73a56,56,0,0,0-1,11.32c.35,4-.3,7.93.43,11.87l1.54,0a36.62,36.62,0,0,0,.28-5.91,38.66,38.66,0,0,1,.19-5.89c.22-3.58-.25-7.31,1-10.71,2.23-6.8,6.4-17.17,9.22-25.41.94-2.79,2.18-5.46,3.17-8.25s1.6-5.77,2.47-8.62c1-4.4.9-9,1.16-13.43,0-1.5-.24-3-.39-4.48-.26-3-.16-6.16-2.38-8.64l-.95.23Z"/><path class="cls-1" d="M1085.64,244.68c8.38-3.78,12.35-6.39,21.55-2.49,7.32,2.82,11,10.89,11,18.41-.41,6.09-2.65,12.31-7.26,16.5-7.23,6.27-16.26,10.11-24.53,14.82-5.71,3-11.49,5.85-16.69,10.14-2.68,2.17-4.29,5.42-5.51,8.54a105.53,105.53,0,0,0-4.7,18.94,47.31,47.31,0,0,0-.65,9.73l1.54.07c.48-3.17.81-6.32,1.27-9.47a52.06,52.06,0,0,1,2.07-9.3c1.83-5.81,2.54-12.59,7.62-16.55,7.67-5.54,16.3-10.11,24.69-14.55a72.06,72.06,0,0,0,8.33-5.08c5.33-3.66,11.35-7.56,13.77-13.95a32.53,32.53,0,0,0,2-9.75,23.14,23.14,0,0,0-.62-7.55c-3-10.92-15.34-17.88-26.3-15A13.17,13.17,0,0,0,1085,244l.66.73Z"/></g><g id="体-8" data-name="体"><path class="cls-1" d="M903.57,434.85a7.72,7.72,0,0,0-.74,4.23,12.41,12.41,0,0,1-2.21,7.49c-1.74,2.1-4.28,3.13-6.8,4.14a34.38,34.38,0,0,1-4.24.67,25.49,25.49,0,0,1-12.62-.69c-4.18-.84-8-3-11.78-4.88a11.75,11.75,0,0,1-5.36-5.81,8.38,8.38,0,0,1-1.21-3.85c-.15-1.36-.16-2.7-.31-4.15l-1.53-.18c-1.06,3-.07,6.22.84,9.18,2.56,5.81,8.75,8.89,14.46,10.71,5.61,2.28,11.88,2.43,17.85,1.88,1.48-.17,2.88-.73,4.38-1a13,13,0,0,0,4.46-1.43,15.22,15.22,0,0,0,6.14-7.29c.59-3.06,2.12-6.53-.36-9.2l-1,.16Z"/><path class="cls-1" d="M1010.73,422.14c9-2.94,10.9-2.6,16.65,5.14a24.46,24.46,0,0,1,5.33,14.89,15.94,15.94,0,0,1-1.59,8.68c-2.17,3.95-6.36,6.65-10.56,8-4.46,1.18-9.35.78-13.9.23-9.83-1.58-19.36-7.4-23.16-16.9-1.66-4-4.64-10.8-.29-13.94,2.51-1.36,5.91-.9,8.8-1.1,6.45-.32,13.42-.85,18.86-4.79l-.14-.24Zm-.63-1.1a37,37,0,0,1-18.11,3.7c-3.38,0-6.82-.27-10,1.55-5.64,4-3.23,11.8-1,17,3,6.88,9,12.32,15.81,15.36a38.43,38.43,0,0,0,14.46,2.86c3.3,0,6.59.23,9.86-.61a19.59,19.59,0,0,0,13.7-13.81c.85-3.33.29-6.71-.37-10a33.19,33.19,0,0,0-4.88-11.48c-3.27-4.69-9.15-10.56-15.36-7.5a12.37,12.37,0,0,0-4,3.17l-.14-.25Z"/><path class="cls-1" d="M1064.72,334.72a24.94,24.94,0,0,0-7.16,4.19c-4.27,3.43-9.2,5.9-14,8.54-5,2.26-10.22,3.93-15.4,5.69-2.59,1-5.39,1-8.05,1.64-1.34.31-2.7.49-4.06.67a56.73,56.73,0,0,1-8.18.78,111,111,0,0,1-24.54-2.06c-5.11-1.11-10.91-2.54-15.92-4.07a95.69,95.69,0,0,1-18.58-8.65c-2.32-1.45-4.6-3-7-4.33l-.91,1.25c4.13,3.85,9.26,6.26,14.07,9.14,3.54,2,7.87,3.38,11.66,4.83a88,88,0,0,0,20.38,4.94c9.65,1.71,19.6,1.24,29.3.26a68.18,68.18,0,0,0,12.34-2.5c1.69-.45,3.43-.76,5.13-1.21,3.64-1.25,7.23-2.72,10.73-4.32,5.26-2.05,10-5.18,14.75-8.13a17.33,17.33,0,0,0,6-5.91l-.62-.75Z"/><path class="cls-1" d="M1064.3,332.39c.56.69,1,.88,1.42.65a1.8,1.8,0,0,1,1.13-.3c.41,0,.73-.28,1.11-.36a5.7,5.7,0,0,0,2.34-.36c.37-.13.84.12,1.23.05s.77-.14,1.17-.16a13.92,13.92,0,0,1,3.64.63c1.24.72,2.5,1.26,3.74,2.14.41.34.81.77,1.23,1.06.88.43,1.58,1.68,2.51,2.1l.3-1a5.85,5.85,0,0,0-1.21-1.53,19.66,19.66,0,0,0-2.63-2.36,10.05,10.05,0,0,0-4.1-2.38c-1.39-.71-2.61-.32-3.88-.33-.41,0-.85-.12-1.26-.1s-.75.26-1.18.19a4.32,4.32,0,0,0-1.27-.13,6.55,6.55,0,0,1-1.17.23c-.4,0-.87-.18-1.25-.05a2.26,2.26,0,0,1-1.22.08c-.42-.06-.79.13-.9,1.08l.25.83Z"/><path class="cls-1" d="M949.6,336.19c-.71.52-1.18.6-1.54.27a1.75,1.75,0,0,0-1-.58c-.4-.09-.63-.46-1-.63a5.9,5.9,0,0,1-2.17-.94c-.33-.22-.84-.1-1.2-.27s-.71-.33-1.09-.45a13.47,13.47,0,0,0-3.68-.32,42.19,42.19,0,0,0-4.16,1.12c-.49.22-1,.53-1.46.71-1,.19-2,1.21-3,1.38l-.05-1a5.73,5.73,0,0,1,1.56-1.17,20.41,20.41,0,0,1,3.15-1.61,9.89,9.89,0,0,1,4.57-1.25c1.52-.34,2.61.35,3.84.66.4.09.85.11,1.23.23s.67.44,1.1.48a4.26,4.26,0,0,1,1.26.2,6,6,0,0,0,1.08.52c.38.12.88.05,1.22.27a2.09,2.09,0,0,0,1.15.39c.43.06.73.33.6,1.28l-.46.73Z"/><path class="cls-1" d="M1052.51,423.29c-.52-.74-1-1.08-1.69-.81a3,3,0,0,1-1.53.32,7.53,7.53,0,0,0-1.53.41,9.15,9.15,0,0,1-1.57,0,6.73,6.73,0,0,0-1.54.4c-.51.16-1.05-.12-1.57,0a11.72,11.72,0,0,1-3.12.25,12.7,12.7,0,0,0-3.14,0,19.36,19.36,0,0,0-4.69,0,6.87,6.87,0,0,0-1.57-.09c-1,.4-2.07-.31-3.14.32l-.08,1.54c1,.73,2.11.11,3.16.57a6.52,6.52,0,0,0,1.59,0,15.33,15.33,0,0,0,4.78,0,11,11,0,0,0,3.18-.23,15.36,15.36,0,0,1,3.18-.09c.53,0,1-.33,1.57-.26a5.92,5.92,0,0,0,1.61.14,9.49,9.49,0,0,1,1.58-.27,6.71,6.71,0,0,0,1.61.07,3.09,3.09,0,0,1,1.6,0c.54.07,1.06-.13,1.44-1.22l-.13-1Z"/><path class="cls-1" d="M1108.2,427.28c-1.44,2.63-1,5.21-1.11,8-.32,2.63-.77,5.24-1.23,7.84a32.48,32.48,0,0,1-3,7.27,13.14,13.14,0,0,1-4.58,6.05l-.45.91a1.08,1.08,0,0,1,.18-.64.84.84,0,0,1,.26-.26h0l-.64.41c-2.59,1.81-5.79,2.16-8.91,2.35-3.54.3-7.11.17-10.64.52-2.37.21-4.75.11-7.12.12-4.75,0-9.49.63-14.25.44-2.38-.11-4.75.3-7.12.23a37.82,37.82,0,0,0-7.13.33v1.54a36.32,36.32,0,0,0,7.14.26c3.57.05,7.14.19,10.72,0,3.57,0,7.15.16,10.72-.06,7.18-.5,14.32-.65,21.45-1.79a14,14,0,0,0,6.91-2.38l.11-.08,0,0,0,0a2.17,2.17,0,0,0,.28-.28,1.17,1.17,0,0,0,.21-.66l-.45.91a33.87,33.87,0,0,0,5.4-6.67,35.42,35.42,0,0,0,3-7.83,30.91,30.91,0,0,0,1.67-8.18c.41-2.8,1-5.63-.57-8.28l-1,0Z"/><path class="cls-1" d="M1094.45,459.38c-.35,12.07,3.18,29.19,4.93,41.24,1.39,9.13,3.43,16.4-7.65,19.56-4.94,1.23-10.07,1.15-15.17,1.19s-15.55,0-20.74.11c-12-.07-29.35-.18-41.49,0-13.84-.09-27.69-.8-41.53-.2-6.93.21-13.84.7-20.75,1.14s-13.81.92-20.65,1c-4.84-.11-10.16.23-14.11-2.66-2.63-2-1.72-5.66-1.88-8.62l.11-5.18c.19-5.17.34-15.58.43-20.75.52-17.26,1.42-34.59,1-51.86l-1.54,0c-.84,13.81-.51,27.65-1.49,41.44-.7,10.34-.25,20.76-.78,31.11l-.21,5.2c-.06,3.6-.7,8.2,2.66,10.72,4.48,3.51,10.6,3.32,15.84,3.32,7-.2,13.88-.86,20.76-1.37,13.78-.79,27.58-1.47,41.38-1.6,11.78.2,29.55.33,41.49.37,6.92,0,13.83-.26,20.74-.12s13.81.45,20.75.41c7-.22,14.42.06,20.84-3.63,7.64-4.75,5.84-12.63,4.68-20L1100.39,490c-1.48-10.28-2-20.67-5-30.69l-1,.11Z"/><path class="cls-1" d="M1084.86,522.54c-.12,19.51,7.59,38.63,19.49,53.89,3,3.82,6.17,7.45,9.47,11,6,6.86,21.7,20.09,7.36,26.64-6.43,3-13.38,4.92-20.1,7.33-4.54,1.56-9.06,3.16-13.62,4.65-9,3-18.26,5.84-27.6,7.51a134.81,134.81,0,0,1-28.44,1.66c-14.32-.78-28.24-5.66-42.64-6.69a101,101,0,0,0-21.77,1c-7.11,1-14.26,3-21.19,4.49a67.83,67.83,0,0,1-28.09,0c-10.39-2.17-24.37-5.92-31-14.65-5.07-7.3,1.49-11.54,6.21-16.69a114.74,114.74,0,0,0,17.31-23.26c9.15-17,16.05-35.35,19-54.45l-1.52-.27c-5,23.23-13.06,46.22-27.32,65.45a115.8,115.8,0,0,1-9.12,10.93c-5.65,6-12.31,10.81-6.57,19.67,6.85,9.5,21.52,13.77,32.52,15.93a70.31,70.31,0,0,0,29.07-.36c5.32-1.17,10.5-2.5,15.78-3.49,7.58-1.28,15.3-2.35,23-2.13,15.66.07,30.53,5.59,46.21,6.44a133.37,133.37,0,0,0,28.93-1.4c8.49-1.29,19.6-5.39,27.85-7.84,7.92-2.54,19.66-6,27.43-8.86,3.43-1.31,7-2.56,10-4.83,6.25-4.63,3.77-12.37-.39-17.49-6-7.67-12.71-14.34-18.63-22-9.12-11-14.29-24.53-17.54-38.34-1.13-4.61-2.09-9.26-3.12-14l-1,.09Z"/><path class="cls-1" d="M1059.94,634.51c-3,10.48-1.5,21.75-1.73,32.5-.34,18-1.87,36-2.29,54.08a84.69,84.69,0,0,0,2.53,21.7,30.53,30.53,0,0,1,.82,5.2,46.72,46.72,0,0,1-2.34,15.58c-1.61,4.49-4.37,9.95-9.39,11.06-1.65.34-3.47.48-5.26.66-7.2.63-14.42,1.47-21.56,2.56-3.36.38-6.86,1.28-9.94-.4-8.65-5-12.89-17.55-10.3-27,1.83-6.81,8.06-11.19,14.09-14.09,2.46-1.2,5-1.28,7.71-2.12,5-1.82,7-7.35,7.47-12.12.82-7.34.21-14.56,0-21.86-.52-14.44-1.94-28.85-3.15-43.23-.57-7.18-1-14.36-1.4-21.54h-1.54c-.58,14.49,1.85,28.85,2.4,43.29.63,10.78,1.6,21.57,1.72,32.37-.07,5.24,0,10.66-1.77,15.55-2.68,6.65-7.23,4.59-12.51,7.18a41,41,0,0,0-9.32,6.23c-8.81,7.88-8.44,22-2.55,31.46,2.47,3.95,6.19,7.85,11,8.87,2.84.44,5.69-.17,8.43-.55,7.13-1.13,14.23-2.12,21.42-2.69,3.64-.29,8-.39,10.7-3.35,7.72-7.42,9.36-21.44,7.23-31.49-3-14.09-1.86-28.57-1.29-42.86.4-7.18,1.33-14.36,1.55-21.62.28-9.06.38-18.08.56-27.14-.1-3-.23-7.75-.24-10.72,0-1.79,0-3.58,0-5.41l-1-.12Z"/><path class="cls-1" d="M983.49,629.45c-2,10.58-1.62,22.55-1.58,33.3.07,18.48-1.62,36.86-2.23,55.42a91.56,91.56,0,0,0,1.67,22.33c.76,3.69,1.74,7.18,1.57,10.75A56.27,56.27,0,0,1,981.48,762c-1.25,5.07-3.51,10.29-7.93,13.23a12.74,12.74,0,0,1-4.95,1.23c-3.64.37-7.37.66-11.06,1.07s-7.37.89-11,1.43c-3.42.38-7.26,1.38-10.54.54-9.43-3.68-14.22-17.24-12.06-26.66,1.16-5.25,4.78-9.37,9.28-12.16a24.39,24.39,0,0,1,9.57-4.25c6.94-.62,10.06-6.65,10.67-12.91.84-7.53.19-14.92-.07-22.41-.52-14.79-2-29.58-3.25-44.31-.55-7.36-.87-14.72-1.16-22.09H947.4c-.58,11.13.5,22.27,1.5,33.33.77,11.06,1.44,22.14,2.12,33.2.36,7.28.75,14.75-.14,21.94-.62,5.15-2.88,10.2-8.64,10.57-3.83.59-7.36,2.58-10.51,4.76-8.89,5.43-12.37,15.36-10.08,25.34,1.83,9,9.17,20.06,19.63,18,9.18-1.39,18.23-2.75,27.52-3.45,8.48.06,13.1-8.68,14.84-15.86A46.9,46.9,0,0,0,985,751.27c0-3.78-1-7.5-1.69-11.15-1.33-7.22-1.31-14.54-1.13-21.89s.33-14.77.9-22.13,1.37-14.76,1.44-22.21,0-14.8.4-22.21a158.24,158.24,0,0,0-.42-22.2l-1,0Z"/></g><g id="パソコン-2" data-name="パソコン"><path class="cls-1" d="M1003.65,424.1c-17.4-1.28-35,.59-52.21-2.72l1,.92c-10.25-32.08-16.7-65.16-23.13-98.18-1.79-9.66-4.88-23.25-6.83-33l-.18-.86-.85,0c-27.81.44-57,1.5-84.73,3.54-16.93,1.15-35.49,2.52-52.31,4l.66,1.45,5.17,11.4-.06-.18c8.2,30.58,17.52,61.36,27.71,91.33l10.69,30,.29.81c12.82.4,25.64.72,38.46,1.24,11.09.25,26.66,1.17,37.59,1.32,25.08.51,50.12,2,75.2,2.36l.06-1.54c-25-1.58-50.12-2-75.17-3.19-24.67-1-50.55-1.59-75.19-2.7L831,431c-6-17.77-15.08-42.44-20.58-60.1-6.58-20.13-12.27-40.54-17.91-60.95l0-.1,0-.09-5.28-11.35-.92,1.6,16.87-1.6c39.21-3.35,79.1-5.44,118.42-6l-1-.83c1.83,9.87,4.52,23.4,6.44,33.07,6.69,32,12.8,67.54,23,98.52l.23.76.81.16a141.75,141.75,0,0,0,19.79,2.47c6.63.17,13.2-.08,19.81-.41,4.39-.24,8.77-.57,13.15-1l0-1Z"/><path class="cls-1" d="M786.35,366.9a164.88,164.88,0,0,0-13,14.92l2.4-.06c-4.77-5.53-10.3-11.44-15-17.07l-.75-.87-1,.61c-4.2,2.64-9.79,6-13.87,8.6s-9.67,6.21-13.77,8.78l1.38.12c-5.64-5.17-13.74-12.55-19.41-17.86-5.41,3-10.76,6-16.08,9.15-5.07,3-10.16,5.88-15.31,8.7l1.15.14c-7-6.69-17.47-16-24.75-22.61l-.56-.51-.64.38c-8,4.75-19.59,11.42-27.75,16.11h1c-7-3.93-23.52-13.11-30.38-16.84l-10.18-5.51-.59-.32c-5.11,3-10.31,5.9-15.47,8.85l-14.92,8.49,1.42,0c-6.85-4.34-19.89-12.43-26.79-16.72-6.66,8.47-15.64,20.14-22.48,28.63l1.74-.22c-8.94-6.84-18.72-14.36-27.59-21.38-3.42-2.67-6.83-5.37-10.31-8-1.45,3.78-2.87,7.59-4.21,11.41l1.44.57c1.44-3.3,2.86-6.61,4.21-9.94l-1.6.43c3,2.45,6.08,4.81,9.13,7.21,9.06,6.88,18.52,14.66,27.4,21.63l1,.75.75-1c6.48-8.33,15.3-19.71,21.78-27.8l-1.6.28c6.79,4.35,19.57,12.56,26.38,16.85,9.15-5.25,21.31-12.62,30.35-17.75l-1.16,0c11.68,6.55,29.27,15.94,41.21,22.37,8.36-4.92,19.91-11.72,28.24-16.44l-1.2-.13c7.21,6.71,17.49,16.15,24.79,22.56l.54.47.61-.34c10.17-5.85,20.65-11.16,30.83-17l-1.43-.17,9.46,8.55c3.39,3,6.72,6.12,10.07,9.19,6.93-4.29,14.76-8.82,21.66-13.18l6.92-4.32-1.73-.26c5.28,6,10.73,12.73,16,18.78a173.84,173.84,0,0,0,12.51-17.74l-.77-.6Z"/></g><g id="スマホ"><path class="cls-1" d="M55.71,329a19.06,19.06,0,0,1,1.16,8.16c-.2,2.73-.15,5.46-.11,8.19-.09,5.44-.55,10.9-.42,16.35-.17,5.22-.78,10.8,2,15.41,3.86,7.36,11.5,11.14,18.74,5.65a16.54,16.54,0,0,0,5-5.59c2.14-4.76,1.59-10.32,1.86-15.52.21-5.45,0-10.92.28-16.36.3-2.72.35-5.45.45-8.18a57.36,57.36,0,0,1,.79-8.15l1.53.1a71.57,71.57,0,0,1-.14,8.16c-.39,5.42-.13,10.86-.44,16.28-.36,8.26,1.57,16.93-2.23,24.72-4,8.18-14.5,12.42-22.14,6.35a18.69,18.69,0,0,1-7.82-14.65c-.8-5.52-.15-10.94-.08-16.43,0-2.72-.24-5.44-.15-8.15.44-5.5-1.16-10.9.72-16.31l1,0Z"/><path class="cls-1" d="M96.91,329a19.06,19.06,0,0,1,1.16,8.16c-.2,2.73-.15,5.46-.11,8.19-.09,5.44-.55,10.9-.42,16.35-.17,5.22-.77,10.8,2,15.41,3.86,7.36,11.5,11.14,18.74,5.65a16.54,16.54,0,0,0,5-5.59c2.14-4.76,1.59-10.32,1.86-15.52.22-5.45,0-10.92.28-16.36.3-2.72.35-5.45.45-8.18a57.36,57.36,0,0,1,.79-8.15l1.54.1a73.94,73.94,0,0,1-.15,8.16c-.38,5.42-.12,10.86-.44,16.28-.36,8.26,1.57,16.93-2.23,24.72-4,8.18-14.5,12.42-22.14,6.35a18.69,18.69,0,0,1-7.82-14.65c-.8-5.52-.15-10.94-.08-16.43,0-2.72-.24-5.44-.15-8.15.44-5.5-1.15-10.9.72-16.31l1,0Z"/><path class="cls-1" d="M178.29,360.21c-1.15,1.91-2.23.51-3.76.84a10,10,0,0,1-1.87-.26,10.57,10.57,0,0,1-3.75-.2c-.62-.12-1.25.18-1.88.12a19.58,19.58,0,0,0-3.75-.12,16.82,16.82,0,0,1-3.75.09,14.72,14.72,0,0,1-3.75.07,27.69,27.69,0,0,0-3.75-.11c-1.25-.44-2.51.21-3.75-.49l0-1.54c1.26-.67,2.5,0,3.75-.4a9.87,9.87,0,0,1,1.88.08c1.25,0,2.5-.27,3.75-.17a19,19,0,0,0,3.75.18,22.6,22.6,0,0,0,5.63.17c.62-.05,1.25.27,1.87.17a8.77,8.77,0,0,1,1.88-.26,13.21,13.21,0,0,0,1.87.15,9.38,9.38,0,0,1,1.88-.23,4.28,4.28,0,0,0,1.88-.11c.63-.13,1.25,0,1.86,1v1Z"/><path class="cls-1" d="M232.08,338.89c-3.26-2.06-5.34-4.59-8.75-6a20,20,0,0,0-17.12,1.77,22,22,0,0,0-5.65,4.31c-2.39,2.75-3.44,6.42-4.7,9.8-3,8.19-.52,17.17,3.54,24.53,3.11,5.1,8.57,8.42,14.24,10.11,5.61,1.4,12.31-.34,15.83-5.09a25.9,25.9,0,0,0,3.34-6.25l1.51.3c-.62,5.47-4.64,9.85-9.36,12.37-7.43,3.34-16.37.78-22.55-4.07-3.14-2.55-5.12-6.1-6.84-9.64-6.1-12.44-2.94-31.15,9.42-38.55,4.73-2.29,10.07-3.94,15.39-3.17a26.16,26.16,0,0,1,7.61,2.77,9.68,9.68,0,0,1,4.91,6.29l-.82.53Z"/><path class="cls-1" d="M242.14,332.3c.11-1,.26-1.19.42-1a.33.33,0,0,0,.47.11c.15-.09.32.2.47.23s.31-.1.46-.14.32.16.48.25.3-.21.46-.17.31.12.47.14a2.35,2.35,0,0,0,.91-.31c.15-.09.31.09.47,0s.3-.17.45-.21c.32-.1.64.22.94.16s.3-.17.46-.08c.36.42.6-.27,1,.4l.07,1.54c-.14.33-.3.37-.45.35s-.31-.09-.46.14-.31,0-.47,0-.59.32-.91.25c-.16,0-.32-.15-.48-.17s-.3.16-.46.08a2.23,2.23,0,0,0-.94-.22c-.15,0-.3.16-.45.17s-.32-.24-.47-.12-.3.34-.45.3-.32-.17-.47-.1-.3.34-.46.26a.33.33,0,0,0-.45.16c-.15.16-.31,0-.51-1l-.05-1Z"/><path class="cls-1" d="M246.36,345.92a2.29,2.29,0,0,1,1.11,2.37,6.74,6.74,0,0,0-.05,2.41,17.74,17.74,0,0,1-.16,2.41,21.57,21.57,0,0,0,.2,2.4,13.12,13.12,0,0,1-.19,2.41c-.08.8.26,1.59.23,2.4s-.08,1.6-.07,2.4c.06,2.42.58,4.8.46,7.2a25,25,0,0,1,.28,4.81,42.68,42.68,0,0,0,.1,4.8c-.38,1.62.35,3.2-.28,4.82l-1.54.06c-.74-1.58-.12-3.21-.61-4.79a16.14,16.14,0,0,1,0-2.41,41.27,41.27,0,0,1-.27-7.2c-.31-3.19.23-6.42-.28-9.62-.09-.79.2-1.61.06-2.4a18.4,18.4,0,0,1-.33-4.8,16.27,16.27,0,0,1-.32-2.4,6.92,6.92,0,0,0-.22-2.39,2.27,2.27,0,0,1,.93-2.44l1,0Z"/><path class="cls-1" d="M268.52,353.44c2,2.52.6,5.23,1.05,8,.1,1.34-.17,2.68-.18,4a48.22,48.22,0,0,1-.11,8.06,45.91,45.91,0,0,1-.24,8.11,6.06,6.06,0,0,1-.44,2.09A1.11,1.11,0,0,1,267,384a3.66,3.66,0,0,1-.82-1.4,22.21,22.21,0,0,1-1.48-9.29A19.33,19.33,0,0,1,266,365a23,23,0,0,1,4.6-7.17c2.27-1.67,4.35-3.75,7.22-4.25l.61,1.41a35.1,35.1,0,0,1-3.25,2.1c-2.21,1.28-3.72,3.37-5.24,5.36-1.95,3.25-2.56,7.17-3,10.9a33,33,0,0,0,1.24,9.15.88.88,0,0,0-1.3.25,28.09,28.09,0,0,0,.2-5.2c0-1.33.29-2.66.18-4a58.14,58.14,0,0,1-.2-8c-.41-2.67-.12-5.35-.51-8a5.29,5.29,0,0,1,.93-4l1,0Z"/><path class="cls-1" d="M310.35,358.38c-2.42-.36-3.26-1.77-5.14-2.66a23.19,23.19,0,0,0-5.55-1.13,14.39,14.39,0,0,0-7.05,2.31,8.6,8.6,0,0,0-2.21,3,14.13,14.13,0,0,0-1.71,7.52c.12,3.2.22,6.55,2.39,9,2,2.32,4.51,4.55,7.67,5,2.49.1,5.12-.05,7.28-1.41,1.1-.65,2.16-1.4,3.26-2.06l1.13,1.05a8.71,8.71,0,0,1-3.32,2.92c-2.65,1.35-5.65,2.45-8.67,1.79-5.56-.6-9.7-4.62-11.4-9.82-1.07-3.55-.41-7.24.09-10.81a11.57,11.57,0,0,1,4.23-7.67,9.7,9.7,0,0,1,3.82-2.44,21.31,21.31,0,0,1,8.88-.44,32.79,32.79,0,0,1,4.3,1.6,4.51,4.51,0,0,1,2.74,3.62l-.74.64Z"/><path class="cls-1" d="M324,382c-1.95-1.91-.48-3.9-.85-6.08a28.17,28.17,0,0,1,.27-3,29.32,29.32,0,0,1,.2-6.07c.12-1-.19-2-.12-3a60.1,60.1,0,0,0-.05-9.1,51.24,51.24,0,0,0-.09-6.07c.06-3,.29-6.07.21-9.1.43-2-.2-4,.49-6.07h1.54c.66,2,0,4,.4,6.07a25.72,25.72,0,0,1-.08,3,64.28,64.28,0,0,1-.05,9.1c.17,4-.5,8.09-.13,12.14.05,1-.27,2-.17,3a29.34,29.34,0,0,1,.12,6.07c.38,2.29,0,4,.33,6.08a3.25,3.25,0,0,1-1,3Z"/><path class="cls-1" d="M339,366a13.59,13.59,0,0,1,5.67-.6,22.58,22.58,0,0,0,5.61-.33c1.7-.31,3.61-.36,5.06-1.23s1.49-2.33,1-3.79a10.92,10.92,0,0,0-2.7-4.3c-2.76-2.09-6.93-1.93-10.17-1.12a11.51,11.51,0,0,0-7.67,9.88c-1,6.13,3.91,12.38,9.71,13.88,3.56.66,7.15-.88,10.32-2.43,1.67-.85,3.3-1.77,5.05-2.56l.86,1.27a23.84,23.84,0,0,1-7.67,4.44c-1.87.78-3.7,1.87-5.87,1.88A15.54,15.54,0,0,1,335,373.41c-2.9-5.53-2.36-13.23,2.49-17.5a15.83,15.83,0,0,1,11.43-4,11.61,11.61,0,0,1,9.75,7.37c1.81,5.31-3.71,8.15-8,8.52-4,.13-8.23,1.83-11.8-.83l.15-1Z"/><path class="cls-1" d="M385.47,357.41c-2.64-.1-3.88-1.46-6.07-2.18a17.64,17.64,0,0,0-6.14-.33c-2.66.45-4,2.9-4,5.39.14,1.35,1,2,2.2,2.48a34.53,34.53,0,0,0,8.57,2.29c2.32.58,5.15.87,6.88,2.79,1.74,2.12,2.61,5.32,1.08,7.8-3.3,4.87-11,6-15.94,3.49-2.27-.86-4.68-2.34-5.44-4.79l1.33-.76c1.88,2.06,4.14,3.77,6.95,4.1,2.66.5,5.6.67,7.9-.93,2.47-1.52,4.12-3.31,3.29-5.75a3.86,3.86,0,0,0-1.6-2c-2.84-1.58-6.18-2.23-9.37-2.92-3.38-.81-7.1-1.26-7.78-5.47-1.42-6.54,5-8.74,10.31-8.48a42.08,42.08,0,0,1,4.81,1.16,5.24,5.24,0,0,1,3.6,3.35l-.62.76Z"/><path class="cls-1" d="M411.78,71.71h.28a46.74,46.74,0,0,0-28.22-43.1c-11.15-5.12-23.66-3.66-35.57-3.86H293.68v7.59c0,1.07-.1,2.09-.14,3.14a27.58,27.58,0,0,1-5.89,14.25,27.29,27.29,0,0,1-22.06,9.92c-25.93-.11-78.15,0-104.08-.18a27.81,27.81,0,0,1-10.72-1.76,26.93,26.93,0,0,1-17.1-22.24c-.19-2.54-.14-6.84-.14-9.64V24.62h-1.22c-9.29,0-34.24.07-43.15,0-5.64.09-12.54-.26-18.11.47a45.24,45.24,0,0,0-10.69,2.72A47.16,47.16,0,0,0,32.92,56l-.63,1.73-.47,1.78-.46,1.79-.23.89c-.07.3-.1.61-.15.91l-.56,3.65c-1.08,210.61,0,429.37-.11,640.23,0,4.73-.06,9.85.87,14.53a47.34,47.34,0,0,0,27.75,34.31c1.57.54,3.6,1.42,5.2,1.81a51.11,51.11,0,0,0,14.48,1.88c89.36-.26,202.13.72,291.38-.24a47.22,47.22,0,0,0,40.31-32.89l.93-3.56a13.77,13.77,0,0,0,.35-1.81l.28-1.81c.09-.61.2-1.22.27-1.82l.1-1.84c0-1.22.17-2.47.15-3.66l0-7.19c.18-170.77,0-347.38.44-517.85C412.82,148.43,412.66,110.07,411.78,71.71ZM132.33,27.05h-1.2c0,4.39-.32,6.9.68,12a29.37,29.37,0,0,0,23,22.37l1.68.26.84.13.85,0c1.13.06,2.27.13,3.34.11l52-.12,52-.06a30.38,30.38,0,0,0,11.54-1.92,29.23,29.23,0,0,0,18.72-27.53V26.92h-1.09l1.09-1.09v1.09h70.24a44.25,44.25,0,0,1,17,3.52,45.33,45.33,0,0,1,27.45,41.26c-1.55,208.88-.05,423.27-.34,632.93,0,3.07.05,9.59-.2,12.47-.14.87-.36,2.61-.51,3.47-.16,1.35-.86,3.73-1.2,5.13a45.07,45.07,0,0,1-35,31.08,77.18,77.18,0,0,1-14.18.71c-82.21-.21-191,0-273.3,0-5.5,0-12.37.16-17.73-.94l-3.4-.88-.85-.22-.83-.31-1.65-.6a45.05,45.05,0,0,1-28.17-33.48c-.88-4.41-.84-9.73-.82-14.15.47-210.7-.06-429.53.43-640,.14-.78.63-4.65.88-5.17l.43-1.7.44-1.7.6-1.64A45,45,0,0,1,49.1,37a45.68,45.68,0,0,1,18.81-9A64.92,64.92,0,0,1,82,27c4.39-.05,17.11.09,21.57,0l27.57,0c0-.39,0-.8,0-1.22Z"/><path class="cls-1" d="M395.52,2c-114.78,2.17-236.76.18-351.7,1C25.7,4,9.2,17.25,4.27,34.75A48.34,48.34,0,0,0,2.4,48.12c-.35,10.23.28,156.68.07,171.27-.29,163.15-.15,355.09-.24,518.43,0,2.23.12,4.63.27,6.83l.34,2.24c.13.74.21,1.5.37,2.23l.57,2.2A45.08,45.08,0,0,0,29.5,781.09a44.6,44.6,0,0,0,17.62,3.59c73.85-.33,222.42-.08,296.25-.14,6.22.09,40.62-.12,46.29-.06,9.11.31,18.25-.67,26.36-5.05a44.5,44.5,0,0,0,22.24-27l.56-2.18a35.33,35.33,0,0,0,.81-4.42,84.08,84.08,0,0,0,.44-11.37l0-18.52c-.26-201.89.73-472.25.06-673.39A45.44,45.44,0,0,0,413.2,5.93a44.75,44.75,0,0,0-17.68-3.7V2Zm0-1.26c24.48-.32,45.56,19.51,46.78,44,.57,209.37.23,484.48.42,694.39.27,17.62-9.71,34.66-25.54,42.62-8.4,4.53-18.16,5.62-27.52,5.27-95.21.11-247-.12-342.54-.19C27.05,787,8.47,773.21,2.47,754.11c-.25-.9-1-3.52-1.21-4.58s-.59-3.44-.74-4.67-.15-3.52-.26-4.72C.18,575.88.26,383.46,0,219.39,0,204.72.15,59,.07,48.12A51,51,0,0,1,2,34.07C7.09,15.57,24.46,1.5,43.63.3,77-.25,139.32.26,173.33.12,245,0,324.85-.21,395.52.69Z"/><path class="cls-1" d="M411.78,712.6c.81,21-14.64,41-35.07,45.82a54.42,54.42,0,0,1-14.27,1.51c-74.49.08-150.7-.19-225.07-.08-14.73-.17-46.46.07-61-.17a49.74,49.74,0,0,1-7.18-.71,47.31,47.31,0,0,1-34.74-26.83c-5.72-11.67-4-24.84-4.27-37.38-.18-196.17.22-403.41.12-600.17V75.83c-.09-5.52.15-11.19,1.7-16.53,5-19.52,23.83-34.28,44-34.52,1.19-.07,3.46-.07,4.71-.06,9.13.12,41.81-.16,51.58-.07h1.17v1.18c0,2.71,0,7.15.15,9.63a27.38,27.38,0,0,0,5.9,14.17A27,27,0,0,0,155.26,59a33.71,33.71,0,0,0,6.24.48c25.95.11,78.15,0,104.09.07a26.79,26.79,0,0,0,28-27.21V24.6h1.23l49-.06c6.82.08,17.76-.21,24.57.11,20.93,1,39.1,16.81,43.33,37.29a67.13,67.13,0,0,1,1,14c-.14,30.87-.08,209.91-.17,244.87-.33,125.62.64,266.88-.69,391.8Zm-1.26,0c-.65-203.88-.31-432.14-.58-636.67a54.07,54.07,0,0,0-2.12-17.73C402.38,41,386.24,28.15,368.14,27.29c-6.72-.32-17.54-.09-24.41-.17l-49-.07L296,25.83c0,2.88,0,7.21-.16,9.87a29.34,29.34,0,0,1-17.09,23.62,30,30,0,0,1-13.14,2.57c-28.46-.22-80.7.56-109.12-.21a28.45,28.45,0,0,1-8.13-2.32A29.37,29.37,0,0,1,131.29,35.7c-.3-5.51-.08-5.22-.14-9.87L132.33,27c-11.22.1-43-.13-53.92-.07C56.5,26.26,36.37,42.56,33,64.32a64.29,64.29,0,0,0-.67,11.51c0,59.61,0,185.22.09,243.82-.23,130.61.18,263.4.07,393.84.14,18.44,12.92,35.8,30.48,41.43.36.12.71.27,1.08.38l1.1.27,2.21.57a17,17,0,0,0,2.24.42l2.26.34a17.22,17.22,0,0,0,2.27.18l2.28.11c82.31-.15,166.17.06,248.49-.28l37.51.11c1.56,0,3.14.05,4.63,0a40.52,40.52,0,0,0,9-1.19c19.6-4.48,34.54-22.92,34.74-43.18Z"/></g></g></g></svg>