<svg xmlns="http://www.w3.org/2000/svg" viewBox="0 0 540.59 793.35"><defs><style>.cls-1{fill:#343838;}</style></defs><g id="sub1"><g id="スマホ女の子"><g id="顔-6" data-name="顔"><path class="cls-1" d="M131.46,331.77c7.2,6.73,7.87,17.72,6.41,26.9-.82,4.7-2.68,8.94-4.12,13.26s-2.69,8.74-4.35,13.06c-1.48,4.25-4.08,8-4.91,12.44a33.23,33.23,0,0,0-.57,6.61c.19,23,11.58,36.74,31.65,46.58,4.07,1.95,8.3,3.59,12.49,5.25s8.93,3.23,12.63,6.28c7.4,6.1,10.53,15.84,12.93,24.75,1.75,9.05,3.89,18.06,3.68,27.32l-2.05.14c-.75-4.49-1.27-9-1.92-13.44a78,78,0,0,0-2.84-13.2c-1.92-6.31-3.49-13-7.41-18.38-4-5.6-9.93-7.58-16.37-10.11-4.25-1.75-8.38-3.76-12.51-5.8a70.7,70.7,0,0,1-12-7c-17-12.47-25.83-36.18-18.36-56.34,3.35-8.26,6.8-17,8.93-25.64,1.7-6.32,3.25-12.87,1.26-19.28-1.12-4.32-2.61-8.29-3.64-12.73l1.12-.67Z"/><path class="cls-1" d="M294.11,196.06c.5,11.45-2.8,22.59-7,33.12s-8.71,21-15.5,30.2a118.32,118.32,0,0,1-23.35,24.67,160.45,160.45,0,0,1-14,9.49,204.72,204.72,0,0,1-45.68,21.8l-15.87,5.58c-26.43,9.51-53.92,15.6-80.7,23.64l-1.92.59a169.94,169.94,0,0,1-2-18c-.33-5.35-.37-10.69-.24-16,.16-4.68,1-11.28,1.49-16,1.54-15.3,3.28-32.32,5.5-47.47a148.44,148.44,0,0,1,7.8-31l1.95.63c-2.65,10.19-5.32,20.41-6.95,30.81-.77,5.2-1.36,10.47-1.78,15.75-.94,9.16-2.38,22.34-3.47,31.62-2,15.76-1.21,31.47.89,47.15l-2.23-1.45c9.69-2.73,23-6,32.48-8.75,21.58-5.75,43.25-11.58,64.14-19.58,15.57-5.95,31.27-12.12,45-21.65,13.71-9.34,27.25-19.46,36.26-33.63A144,144,0,0,0,288.4,212c1.45-5.34,2.74-10.7,4.41-16.11l1.3.16Z"/><path class="cls-1" d="M372.16,230.43c.45,9.62-1.17,19-.93,28.6.75,15.78,2.91,31.83,9.78,46.2a116.69,116.69,0,0,0,9.05,16.67c3.51,5.3,7.92,9.92,12.27,14.56,2.19,2.32,4.44,4.58,6.65,7,1.45,1.69,3.15,3.25,3.74,5.56.58,6.44-10,3.05-13.34,2.07a154.79,154.79,0,0,1-43-22.44C345.88,321.05,336,312.36,328.15,302c-9.62-13-17.69-27-25.48-41.12-4.51-8.13-9.79-17.1-13.71-25.5l1.81-1c3.49,5.41,6.63,11,9.71,16.62s6.17,11.27,9.65,16.66c6.54,11,12.62,22.32,20.71,32.2a151.9,151.9,0,0,0,43.5,36.55c8.26,4.71,16.81,9.14,25.84,12.17,2.8.89,6,1.9,8.87,1.66.63-.08,1.09-.34,1.06-.45s0-.12,0-.25c-.55-1.54-1.94-2.8-3.17-4.16a150.41,150.41,0,0,1-19-22c-7.93-10.4-13-22.67-16.09-35.34a114.67,114.67,0,0,1-3.56-19.18c-.71-12.86-2.33-26.42,2.62-38.68l1.29.23Z"/><path class="cls-1" d="M373.74,337.59c2,6.59.93,13.32.93,20.05.24,6.67.38,13.32.55,20,.58,8.9,1.62,17.75,1.93,26.68.27,4.45,1.08,8.86,1.48,13.3.66,7.9,1.71,18.9,2.79,26.63s2.57,18.83,3.62,26.5c1.71,9.82,3.45,19.66,6,29.27,2.13,7.45,5.44,14.49,8.62,21.53a91.05,91.05,0,0,0,6,11.88c2.19,3.85,4.47,7.64,6.54,11.6l-1.72,1.12a79.33,79.33,0,0,1-7.36-11.3c-4.27-7.92-8.67-15.81-11.67-24.33-1.45-3.84-3.47-8.89-4.53-12.79-2.57-8.68-3.77-17.6-5-26.51-.6-4.44-1.44-8.84-1.9-13.3-1-8.89-1.77-17.8-2.78-26.68-1.26-8.86-2-17.77-2.73-26.68-1.32-8.86-1.8-17.8-2.33-26.74-.32-4.46-.94-8.92-1-13.41.21-9-1.61-18.14,1.22-26.87l1.3,0Z"/><path class="cls-1" d="M534.31,546.73c-28-30.59-41.88-72.36-42.51-113.52a548.63,548.63,0,0,1,1.62-66.62c2.14-23.68,6.47-47.36,8-71.09a419,419,0,0,0-2-66.08c-5-47.58-23.17-92.88-56.28-127.86-50.6-53.92-127.72-85.14-201.68-77.94-67,7.06-131.51,46.09-165,105.08C52.33,170,45.64,218.7,46.84,265.91c.66,31.86,2.6,70.41,3.37,102.17.47,20.45,1,40.93.88,61.4-.09,13.69-.44,27.45-2.81,41C45.17,491.11,33.4,509.87,17.46,523l-1.35-1.55c10-9,18.57-19.81,23.79-32.17s6.94-26,7.75-39.45c2.36-63.37-4.43-140.75-3.9-204.37-.09-70,26.57-137.44,84.1-179.7C160.69,41,200.07,24.32,241.19,20.58c41.12-4.06,82.58,4.43,120.29,20.76C425,67.47,476.72,121.92,494.9,188.69a238,238,0,0,1,7.81,40.36,400.5,400.5,0,0,1,.45,82c-3,27.11-6.83,54-7.7,81.29-.71,27-1.38,54.49,5.27,80.85,6.42,26.32,18.63,50.84,34.59,72.73l-1,.82Z"/><path class="cls-1" d="M471,464.41c2.72,2.24,1.24,5.62,2.14,8.52.31,1.41.16,2.9.37,4.34.53,2.86,1.44,5.6,1.61,8.54.21,1.45,1,2.74,1.31,4.15a51,51,0,0,0,1.78,6.28c1.28,3.39,2.91,6.63,4.16,10,2.13,3.79,3.76,7.83,5.77,11.67,1.71,2.37,2.7,5.15,4.43,7.48a15.17,15.17,0,0,1,2.07,3.85l-1.68,1.18c-2.44-1.91-3.31-4.88-5.34-7.11a32.16,32.16,0,0,1-2.17-3.89c-1.39-2.61-3.17-5-4.33-7.77s-2.27-5.49-3.4-8.23S476,497.77,475,495c-.46-1.4-1.08-2.76-1.48-4.19s-.46-2.94-1-4.34c-1.23-2.75-1.55-5.71-2.05-8.64a34.24,34.24,0,0,1-1-4.34c0-3.07-2.16-6.2.2-8.95l1.3-.1Z"/><path class="cls-1" d="M429.63,452.18c2.54,3.77.64,8.14,1.39,12.28.2,2,0,4.1.11,6.14.39,4.09,1.22,8.09,1.36,12.21.19,2.05,1,4,1.31,6s.7,4,1.14,6a104.21,104.21,0,0,0,3.71,11.72A80.8,80.8,0,0,0,443,518c1.68,3.73,3,7.64,4.85,11.27,1,1.81,2,3.55,2.93,5.39,1.49,3.88,4.35,6.93,5.82,10.85l-1.72,1.12c-3-3-4.44-7-6.94-10.4a54,54,0,0,1-2.84-5.57c-1.83-3.75-4-7.36-5.45-11.28-2-5.93-4.45-11.71-5.74-17.86-1-4.06-2.11-8.06-3.08-12.12-.49-2-.48-4.14-.95-6.17-1.21-4-1.45-8.21-1.8-12.37a56.8,56.8,0,0,1-.77-6.22l-.08-3.13c-.24-3.21-1.07-6.51,1.06-9.37l1.3,0Z"/><path class="cls-1" d="M93.81,435.53a3.13,3.13,0,0,1,1.51,3.25,10.34,10.34,0,0,0-.1,3.33,20.89,20.89,0,0,1-.34,3.33c-.08,1.1.06,2.21.08,3.32a17.73,17.73,0,0,1-.53,3.3c-.22,1.09.12,2.23,0,3.32a82.62,82.62,0,0,0-1,9.91,66.36,66.36,0,0,0-1,6.58c-.34,2.2-1.25,4.27-1.75,6.42a18.86,18.86,0,0,1-.77,3.24c-1.14,2-.94,4.36-2.48,6.17l-2-.64c-.19-2.32,1.28-4.13,1.32-6.4a22.71,22.71,0,0,1,.91-3.12c.56-2.09.63-4.29,1.16-6.39a33.14,33.14,0,0,0,1.32-6.36l.71-3.18a32,32,0,0,0,.58-6.48,31.71,31.71,0,0,0,.43-3.23c-.41-2.33,0-4.21,0-6.5a27.74,27.74,0,0,1-.33-3.25,8.66,8.66,0,0,0-.25-3.24,3.18,3.18,0,0,1,1.22-3.31l1.3-.07Z"/><path class="cls-1" d="M131.92,435.46c3,1.9,1.35,4.66,2.09,7.3a23.86,23.86,0,0,1-.07,3.78c.17,2.52.49,5-.09,7.52-.17,1.24.18,2.51,0,3.76-.27,2.49-.68,5-.81,7.47-.07,3.81-1.16,7.43-1.66,11.18-.49,2.48-1.61,4.77-2.34,7.17a22.32,22.32,0,0,1-1.16,3.58c-1.4,2.16-1.54,4.82-3.39,6.73l-1.87-.85a10.41,10.41,0,0,1,1-3.53c1.09-2.19,1.37-4.67,2.44-6.89.8-2.29,1-4.75,1.74-7.08a36.22,36.22,0,0,0,1.65-7.1c.27-1.19,1-4.2,1.08-5.37a37.21,37.21,0,0,0,.29-5.48c0-1.22.47-2.42.33-3.65a32.41,32.41,0,0,1-.35-3.65,27.81,27.81,0,0,0,0-3.65,32.26,32.26,0,0,1-.69-5.44,10.28,10.28,0,0,0-.44-1.78,3.78,3.78,0,0,1,.83-3.81l1.29-.21Z"/><path class="cls-1" d="M285.55,405c-.29,5.2-5.12,8-8.11,11.61a43.35,43.35,0,0,1-5.55,4.46,47.76,47.76,0,0,1-12,7.41c-2.14.95-4.1,2.34-6.35,3.14a57.38,57.38,0,0,1-21.07,3.42,56.11,56.11,0,0,1-14-3.32,46,46,0,0,1-12.09-7.68,33.76,33.76,0,0,1-5.19-4.95c-2.71-3.91-6.09-7.49-7.27-12.23l1.87-.85c2.67,3.66,4.4,7.91,7.83,10.94,3,3.27,6.26,6.43,10.27,8.48a66.38,66.38,0,0,0,12.24,5.32,47.86,47.86,0,0,0,16.61.94,37.78,37.78,0,0,0,9.68-2.85,47.28,47.28,0,0,0,6.23-2.67c3.73-2.59,7.78-4.69,11.36-7.48,1.74-1.44,3.18-3.22,4.85-4.71a24.34,24.34,0,0,0,4.43-5.07,12.67,12.67,0,0,1,5.16-4.64l1.09.73Z"/><path class="cls-1" d="M282.84,309.44a3.31,3.31,0,0,1,1,3.46,9.23,9.23,0,0,0-.42,3.3,28.72,28.72,0,0,1-.49,3.31c-.06,2.25.21,4.45-.3,6.68-.14,1.11.3,2.22.26,3.33a34.9,34.9,0,0,0,.08,5c.14,1.67.48,3.31.75,5a34.92,34.92,0,0,0,1,6.58c.45,2.18.41,4.44.88,6.61a24.77,24.77,0,0,1,.78,3.25c-.06,2.32,1.34,4.25,1.05,6.62l-2,.55a7.88,7.88,0,0,1-1.28-3.18c-.38-2.24-1.46-4.32-1.58-6.63A43.12,43.12,0,0,1,281,343.21c-.7-3.35-.43-6.79-.66-10.2-.1-1.13-.31-2.26-.36-3.39s.28-2.28.12-3.41c-.56-2.27-.23-4.52-.11-6.81a21.82,21.82,0,0,1-.16-3.42,11.21,11.21,0,0,0,.08-3.42,3.22,3.22,0,0,1,.25-1.7,3.61,3.61,0,0,1,1.43-1.56l1.3.14Z"/><path class="cls-1" d="M190.09,321.05a3,3,0,0,1,1,3.3,8.3,8.3,0,0,0-.43,3.13,26.31,26.31,0,0,1-.51,3.14c-.07,2.22.21,4.09-.33,6.33-.15,1.06.28,2.11.24,3.17a35,35,0,0,0,.78,9.46c.23,1,.1,2.11.29,3.15a41.28,41.28,0,0,1,1.11,6.23c.06,2.15.81,4.14,1.2,6.22a9.13,9.13,0,0,0,.59,3.11,7.62,7.62,0,0,1,.42,3.17l-2,.57c-1.45-1.82-1.14-4.14-2.19-6.12a18.15,18.15,0,0,1-.61-3.19c-.4-2.12-1.21-4.17-1.43-6.34-.1-3.45-.87-6.24-.7-9.71a63.36,63.36,0,0,0-.47-6.46c-.1-1.08.3-2.17.14-3.25-.55-2.24-.2-4.24-.07-6.48a18.74,18.74,0,0,1-.15-3.26,9.85,9.85,0,0,0,.09-3.25,3,3,0,0,1,.27-1.61,3.36,3.36,0,0,1,1.43-1.47l1.3.16Z"/><path class="cls-1" d="M346.45,515.54a10.43,10.43,0,0,1-6.84-3.44c-1.72-1.9-3.54-3.66-5.25-5.58a30.35,30.35,0,0,1-4-6.56c-2.43-4.59-3.92-9.71-3.09-14.94a62.25,62.25,0,0,1,.8-7.51c.49-2.46,1.27-4.81,1.93-7.19a48,48,0,0,1,2.44-7.19c1.89-4.82,5.9-8.32,9.5-11.72s6-7.88,10.05-10.87c7.92-6.15,15.2-12.23,22.6-18.66l1.47,1.44c-2.84,4.16-7.07,6.89-10.5,10.49-3.72,3.23-7.86,5.8-11.32,9.31-3.56,3.28-6.45,7.3-10.08,10.5-2.48,2.6-5.18,5-7.37,7.79a26.89,26.89,0,0,0-4.3,9.58c-.59,2.36-1,4.76-1.5,7.1s-1.15,4.67-1.11,7.05c.32,5.14,1.13,10.55,4.1,14.9.68,1,2.47,3.12,3.22,4.14,2.75,4.07,7.71,5.74,10,10.26l-.7,1.1Z"/></g><g id="体-6" data-name="体"><path class="cls-1" d="M133.32,566.82c-2.6-5.24-3.16-10.85-3.67-16.43s-1.93-11.06-2.3-16.66c-.3-4-1-8.51-1.49-12.54-.77-6.5-1.57-14.33-2-20.93a26.24,26.24,0,0,0-1.65-6.3c-.69-2-1.47-3.45-3.42-4.17a21.5,21.5,0,0,0-9.55-1.22c-3.44,0-6.9-.1-10.29,0-9.17.27-18.34.6-27.51.35-6.68.05-14,.36-20.47.26a11,11,0,0,0-2.81.59,1.26,1.26,0,0,0-1,1.15c-.3,6.27,1.08,13.71,1.86,20.06l-1.62,1.85c1.2.5,2-2.6,1.61-1.95h0V511l0,.13,0,.25a49.48,49.48,0,0,1,.53,7.37c.35,7.83,1.28,15.56,1,23.39l-2.05.15c-1.41-8.31-.95-16.81-2.14-25.12-.25-1.78-.29-3.53-.59-5.25l0-.23,0-.11v-.09h0c-.41.65.41-2.46,1.61-2l-1.62,1.85L45,504.6c-.33-3.21-.93-7.15-1.13-10.37-.12-1.8-.58-4.4.87-6.17s3.82-2.18,6-2.47c4.92-.08,9.21,0,13.86.14,6.85.25,13.74-.1,20.59.06,6.64.11,14,0,20.63.2,2.28.11,4.59-.12,6.87-.17,3.65.13,8.1.59,10.63,3.66,1.89,2.76,2.23,5.66,2.87,8.75.09.47.18,1.23.23,1.7.39,5.14,2,11.2,2.27,16.76a122.79,122.79,0,0,0,2,16.59c1.07,5.5,1.58,11.07,2.57,16.57,1.16,5.48,2.27,10.94,1.35,16.76l-1.29.21Z"/><path class="cls-1" d="M68.63,594a3.11,3.11,0,0,1,3.56-1.17,6.59,6.59,0,0,0,3.12.53c1-.06,2.1.33,3.14.33a20.48,20.48,0,0,1,6.73.36c1.1.2,2.22-.16,3.32,0a45.26,45.26,0,0,0,4.94.4c1.61,0,3.36-.1,5-.11,2.22.15,4.46.36,6.71.33,2.19.17,4.25.66,6.44.72a23.77,23.77,0,0,1,3.27-.09c2.2.55,4.37-.35,6.56.53l.07,2.06a8.05,8.05,0,0,1-3.32.45,11,11,0,0,0-3.33.19,17.76,17.76,0,0,1-3.34-.07c-2.21-.13-4.56.22-6.74-.18-3.4-.79-6.3-.47-9.76-1.06a44.38,44.38,0,0,0-6.62-.18c-1.1,0-2.18-.43-3.29-.33a24.57,24.57,0,0,1-3.28.23,17.35,17.35,0,0,0-3.2-.19,16.2,16.2,0,0,1-3.47.33,17.39,17.39,0,0,1-1.75-.21c-1.16-.19-2.11.27-3.17-.23a3.93,3.93,0,0,1-1.55-1.29V594Z"/><path class="cls-1" d="M54.48,499.59c1.63,1.82,1.85,4.24,2,6.48,0,3-.1,6.29.17,9.21s.31,5.7.48,8.58a9.1,9.1,0,0,0,.31,1.84,1.07,1.07,0,0,0-.25-.31c-.16-.13-.3-.1.09-.09a15.48,15.48,0,0,1,3.41.33,48.57,48.57,0,0,0,10.32.89c3.62.21,6.77.81,10.38.71a7.93,7.93,0,0,0,2.33-.14c.42-.11.5-.12.56-.27a3.87,3.87,0,0,0-.06-2.4c-.8-4.38-1.54-8.6-2.13-13-.49-3.35-1.32-7.7-1.51-10.47a7.63,7.63,0,0,0-.47-1.8,6,6,0,0,0-2.82-.61c-3.19-.29-6.38-.16-9.58-.19-2.82-.06-5.61-.57-8.44-.47l-2.14,0a10.19,10.19,0,0,0-2.21,0c-.1,0-.08,0,0-.05a.56.56,0,0,0,.14-.29c0-.08,0,0,0,.1l-.15,1.87-.36.09Zm-1.63.41c-.16-1.12-.61-2.08-.35-3.29.65-2,3.1-1.88,4.75-1.81,2,.1,4.28.24,6.32.21,4.21-.34,8.42.28,12.62.22,2.18,0,4.42-.24,6.31,1.28a6.87,6.87,0,0,1,1.66,3.66,4.07,4.07,0,0,1,.06.59c.31,2.23.61,7.08,1,10.13A112.05,112.05,0,0,1,87,523.86c.31,1.55.32,3.82-1,5-1.47,1.13-3.09.91-4.74.89a57.08,57.08,0,0,1-8-.1c-2.59-.16-5.13-.74-7.74-.7a51.47,51.47,0,0,1-5.39-.09c-1.56-.3-2.7-.18-4.15-.52a2.46,2.46,0,0,1-1.42-1.17,3.66,3.66,0,0,1-.32-1.06,16.79,16.79,0,0,1-.2-2.24c0-2.81-.95-5.48-1.15-8.35s.15-5.23-.41-7.84a13.87,13.87,0,0,1,.65-7.8l-.36.09Z"/><path class="cls-1" d="M68.39,519.6a1.68,1.68,0,0,1,.86,2.56c-.6.67-1,1.36-1.58,2a4.45,4.45,0,0,1-2.23,1.11,10,10,0,0,1-2.37.63,4,4,0,0,1-2.28-.82c-.64-.42-1.53-.52-2.08-1.16A8.18,8.18,0,0,1,57,519.6a5.84,5.84,0,0,1,.22-2.41,5.26,5.26,0,0,1,1.43-2,4.87,4.87,0,0,1,4.4-2c1.51.26,3.43.73,4.45,1.93.37.78.85,1.37,1.21,2.1a2.64,2.64,0,0,1,0,2.34Zm-1.68,0a3.07,3.07,0,0,1-.67-1.22,1.09,1.09,0,0,0-.81-.93c-.37-.18-.59-.54-1-.74a1.9,1.9,0,0,0-1.2-.07,9.19,9.19,0,0,0-2.19.77c-.35.26-.35.73-.6,1A2.56,2.56,0,0,0,60,520.9a3.64,3.64,0,0,0,.88,1c.32.22.46.82,1,.86s.9-.17,1.28-.11a1.79,1.79,0,0,0,1.21-.07c.36-.2.46-.72.8-.92a.88.88,0,0,0,.45-1c0-.21,0-.34.25-.48a7.82,7.82,0,0,1,1.31-.54Z"/><path class="cls-1" d="M80.13,512.44A1.66,1.66,0,0,1,81,515c-.59.67-1,1.36-1.57,2a4.48,4.48,0,0,1-2.23,1.1,10,10,0,0,1-2.37.63,3.91,3.91,0,0,1-2.28-.82c-.64-.42-1.53-.52-2.08-1.16a8.18,8.18,0,0,1-1.69-4.35A5.88,5.88,0,0,1,69,510a5.26,5.26,0,0,1,1.43-2,4.87,4.87,0,0,1,4.4-2c1.5.26,3.43.73,4.45,1.93.36.78.85,1.37,1.21,2.1a2.66,2.66,0,0,1,0,2.35Zm-1.68,0a3.18,3.18,0,0,1-.67-1.23c-.11-.4-.31-.85-.81-.93s-.59-.54-1-.74a2,2,0,0,0-1.2-.07,9.65,9.65,0,0,0-2.19.77c-.35.26-.36.74-.61,1a2.58,2.58,0,0,0-.32,2.45,3.64,3.64,0,0,0,.88.95c.32.23.46.82,1,.87s.91-.18,1.29-.11a1.79,1.79,0,0,0,1.21-.08c.36-.2.45-.72.79-.92a.85.85,0,0,0,.45-1c0-.21,0-.34.25-.47a7.57,7.57,0,0,1,1.32-.54Z"/><path class="cls-1" d="M67.34,506.34a1.66,1.66,0,0,1,.85,2.55c-.59.67-1,1.36-1.57,2.05a4.47,4.47,0,0,1-2.24,1.1,9.78,9.78,0,0,1-2.36.63,3.94,3.94,0,0,1-2.29-.82c-.63-.42-1.53-.52-2.07-1.16A8.1,8.1,0,0,1,56,506.34a5.88,5.88,0,0,1,.22-2.42,5.34,5.34,0,0,1,1.42-2A4.9,4.9,0,0,1,62,500c1.5.26,3.43.73,4.45,1.93.36.78.85,1.37,1.21,2.1a2.66,2.66,0,0,1,0,2.35Zm-1.68,0a3.26,3.26,0,0,1-.68-1.23,1.1,1.1,0,0,0-.8-.93c-.37-.18-.59-.54-1-.74a2,2,0,0,0-1.2-.07,9.9,9.9,0,0,0-2.2.77c-.34.26-.35.74-.6,1a2.58,2.58,0,0,0-.32,2.45,3.64,3.64,0,0,0,.88.95c.32.23.46.82.95.87s.91-.18,1.29-.11a1.8,1.8,0,0,0,1.21-.08c.36-.2.45-.72.79-.92a.85.85,0,0,0,.45-1c0-.21,0-.34.25-.47a8.49,8.49,0,0,1,1.32-.54Z"/><path class="cls-1" d="M138.28,623.24c-9.56,10-20.37,18.33-31.5,26.46-5.41,3.44-12.09,9.54-18.68,4.8-4.36-3.1-7.36-7-11-10.69-9.77-10.6-20.3-22.47-31.22-31.74l1.37.25c-11,3.4-23.66,2.17-33.17-4.53a38.13,38.13,0,0,1-8.19-7.6L5.81,600a2,2,0,0,1-.23-.38,2,2,0,0,1-.16-.61l.27.82a34.27,34.27,0,0,1-6-19.69,36.63,36.63,0,0,1,12.14-27.77c7.47-7.19,17.27-12.12,27.76-12.83,14.3-.94,27.64,8.85,33.35,21.61,5.74,13.09,3.33,29-7.07,39l.13-2a116.06,116.06,0,0,0,24.44,23.64c1.77,1.1,3.44,2.78,5.64,2.31s3.85-2,5.53-3.55c2.34-2.19,4.53-4.64,6.77-7.05a141.68,141.68,0,0,0,9.65-11c.92-1.34,1.87-2.65,2.83-4l1.76,1.06c-3.07,5.86-7.56,11.12-12.08,15.92-3.48,3.66-6.75,7.64-11.2,10.34-3.95,2.34-7,.83-10.55-1.6-10.43-6.34-18.65-15.71-26-25.28a30.56,30.56,0,0,0,9.41-27.16c-2-15.5-16.12-30.21-32.36-29.08A45.68,45.68,0,0,0,7.57,561.89,33.36,33.36,0,0,0,2.3,580.18,30.18,30.18,0,0,0,8,598.23l.26.82a1.05,1.05,0,0,0-.05-.46,1.22,1.22,0,0,0-.13-.25l.1.13.2.25a37.49,37.49,0,0,0,17,11.28,32.43,32.43,0,0,0,21.73-.65c2.2,1.72,4.36,3.47,6.47,5.28,9.58,8.09,17.09,18.17,25.8,27.09,1.71,1.79,3.47,3.54,5.24,5.23,2.55,2.25,4.92,5,8.16,5.57,3.33.31,6-2,8.93-3.75l3.09-2c7-4.75,13.43-11.19,20.11-16.36a91.74,91.74,0,0,1,12.62-8.19l.78,1Z"/><path class="cls-1" d="M329.65,620.13a195.82,195.82,0,0,1-24.42,23.68c-10.16,8.61-20.88,16.67-32.69,22.87-7.11,3.81-14.39,8.31-22.52,4.39-5.94-2.22-15.34-5.78-21.28-8-12.28-5.2-23.47-12.73-34.06-20.69-6.09-4.47-12.24-8.92-18.12-13.69l1.62.17A36.84,36.84,0,0,1,167,632.57c-11.75,2.16-24.4-1.91-32.15-11.09-2.61-2.89-5-5.84-7.38-8.82s-4.79-6.22-6.13-10.08a26.69,26.69,0,0,1-1.3-11.89c.62-6,3.16-11.5,6.26-16.48s6.79-10,12.26-12.83c9.17-4.94,20.32-2.25,28.61,3.2,11.86,7.31,19,21,20.19,34.65l-.68-1.24c2.45,1.88,4.86,3.82,7.34,5.66a235.63,235.63,0,0,0,39.4,24.23c2.84,1.46,5.53,2.49,8.49,3.87,2.81,1.41,5.14,3.07,8.1,3.91l1.15,1.52a1.59,1.59,0,0,0-1.11-1.5h0l.1,0,.21.06.42.1c3,.69,6.35,1.22,9.32,0,5.53-2.5,10.19-6.64,15.17-10.28a170.51,170.51,0,0,0,22.17-19.78l1.54,1.35c-9.53,11.92-21.63,21.15-34.29,29.55a17.84,17.84,0,0,1-13.62,2.34c-.56-.11-1.3-.24-1.83-.38a1.69,1.69,0,0,1-1.29-1.55l1.15,1.52a22.36,22.36,0,0,1-4.65-1.79c-4.09-2.4-8.3-4-12.53-6.12a294,294,0,0,1-40-24.38c-2.74-2-5.4-4-8.11-6.06l-.08-.8c-1.31-12.55-7.6-25.25-18.43-32.18-7.28-5-17.17-7.64-25.29-3.12-6.27,3.3-10.24,10-13.79,16.47A32.08,32.08,0,0,0,123,591a23.87,23.87,0,0,0,1,10.62c1.13,3.38,3.29,6.38,5.61,9.35s4.7,6,7.18,8.74c9.63,11.65,27.18,13.29,40.1,6.46l.87-.45c6,5,12.11,10,18.51,14.52,12.16,8.71,25.13,16.46,39.09,21.86,5.3,2,14.17,5.8,19.58,7.29,3.81.61,7.39-1.22,11-3.12,3.26-1.72,6.47-3.73,9.74-5.58a144.15,144.15,0,0,0,27-19.87c8.08-7.4,17-15.49,26.09-21.69l.89,1Z"/><path class="cls-1" d="M295,573.69a50.28,50.28,0,0,1-9.44,15c-2.29,2.71-5.19,4.94-7.18,7.59-.07.14-.07.25-.08,0a.66.66,0,0,0-.32-.51l.07,0c1.91.43,9.74-.89,11.85-1,8.85-.86,17.72-1.3,26.56.43,17.53,3.6,32.75,14.28,45.38,26.58a87.27,87.27,0,0,1,11.41,13.52l-1.85-.45c15.51-7.8,28.85-20.12,37-35.54A90.6,90.6,0,0,0,418.61,559c.51-8.88.19-17.81-3.43-26-6.9-16.67-23.62-27-40.61-31.21-13.17-3.14-26.75-4.55-40.27-5.55l0-2.05c13.83-.65,27.37,2.1,40.91,4.65s26.39,10.48,35.63,20.85c9.87,11.19,12.65,25,11.11,39.51-.86,14.91-3.87,30.18-11.73,43.11-8.82,15-22.24,26.94-37.48,35.12l-1.11.58-.74-1a137.71,137.71,0,0,0-11-13.28c-7.9-8.44-17.82-14.48-28.1-19.63a56.1,56.1,0,0,0-15.92-5.91c-5.57-1.09-11.27-.88-17-.42l-8.64.69c-3.64.28-7.29.94-11,1-1.88.12-4.28-.51-4.55-2.78-.17-1.91,1.07-3.08,1.94-4.26,2-2.35,4-4.35,5.85-6.51,3.88-4.27,7.49-8.65,11.43-12.93l1.11.68Z"/><path class="cls-1" d="M186.19,497.92a5.6,5.6,0,0,1-4.45,1.28,12,12,0,0,0-4.35.22c-1.43.31-2.93.22-4.36.54-2.87.74-5.51,2-8.38,2.79-1.41.51-2.53,1.57-3.87,2.24s-2.68,1.34-3.94,2.13c-3.74,2.38-6.72,5.76-9.73,8.93-1.77,2.37-3.1,5-4.88,7.42a68.57,68.57,0,0,0-4.61,7.78,17.7,17.7,0,0,0-2.23,3.92,16.21,16.21,0,0,1-2.35,3.89l-1.87-.86c.47-3.17,2.64-5.52,3.6-8.5a34.4,34.4,0,0,1,2.32-4c1.63-2.64,2.78-5.46,4.6-8a78.44,78.44,0,0,1,6.17-7.19,69.85,69.85,0,0,1,7.57-5.57,37.88,37.88,0,0,1,8.1-4.56c2.61-1.84,5.7-2.63,8.76-3.37a24.05,24.05,0,0,1,4.58-1.25,37.75,37.75,0,0,0,4.73-.6,5,5,0,0,1,4.68,1.43l-.09,1.31Z"/><path class="cls-1" d="M183.72,506.62c4.43,2.94,6.87,6.89,10.92,9.93a49.08,49.08,0,0,0,13.18,6.24c4.79,1.42,9.82,1.57,14.79,2.08,5,.74,10.15.61,15.23.76a150.4,150.4,0,0,0,20.25.22c6.71-.5,13.4-1.19,20.05-2.15a298.54,298.54,0,0,0,29.39-7.23c6.26-2.44,12.71-4.47,18.68-7.58,3-1.5,6-3,9.13-4.35l1,1.79a52.16,52.16,0,0,1-8.87,5.18c-6.23,2.86-12.35,6-19,7.89a180.83,180.83,0,0,1-19.74,5.7c-6.74,1.2-13.51,2.4-20.32,3.08-10.22.7-20.51.6-30.74.43-3.4-.08-6.77-.61-10.17-.62-5.15,0-10.36.13-15.46-1.11l-5-1.17a37.74,37.74,0,0,1-10-3.42,68,68,0,0,1-8.78-6,15.68,15.68,0,0,1-5.67-8.93l1.1-.7Z"/><path class="cls-1" d="M157.63,629.53c6.49,15.17,8,32,7.18,48.3a118.2,118.2,0,0,1-5.58,32.3c-2.81,9-7.08,17.5-9.24,26.68a28.42,28.42,0,0,0,2.12,18.71l.39.88.49.82a37.44,37.44,0,0,0,3.23,4.78c5.11,6.06,11.7,10.53,18.81,14.09,9.56,4.71,19.91,8.15,30.13,11.1,20.82,6.11,42.64,3.39,64,1.58,10.77-.95,21.57-1.75,32.39-2.29,15.66-.72,32.94-.6,48.69-.74,5.39,0,10.77-.12,16.08-.51,5.94-.52,11.83-1.1,17.08-3.58a20.31,20.31,0,0,0,9.3-8.72,27.36,27.36,0,0,0,1.84-7.33,191.2,191.2,0,0,0,1-24.07c0-32.32-1.8-64.89-2.1-97.19l2.06-.07c.8,10.79,1.28,21.58,1.55,32.39.49,21.29,2,43.5,1.6,64.87-.07,5.41-.05,10.83-.27,16.28-.35,5.63-.39,11.13-2.63,16.56a23.25,23.25,0,0,1-10.84,10.51c-5.71,2.72-12.16,3.57-18.38,3.94-9.35.57-23,.19-32.54.16q-32.37.21-64.65,2.56c-12.09.92-24.31,2-36.52,2.11a109.35,109.35,0,0,1-28.41-3.59,200.51,200.51,0,0,1-30.52-11.61c-8.63-4.16-17.37-9.53-22.72-17.77a31,31,0,0,1-4.83-20.36c.62-5.5,2.57-10.8,4.43-16a166.82,166.82,0,0,0,8.8-30.81c3-15.86,1.71-31.89-.77-47.73-.77-5.29-1.67-10.57-2.42-16l1.26-.35Z"/></g></g></g></svg>