<svg xmlns="http://www.w3.org/2000/svg" viewBox="0 0 566.56 409.31"><g id="sub3"><g id="news"><path d="M0,53.34C56.85,5.76,139-.83,203.94,33.92a249.59,249.59,0,0,1,58.34,41.91l.39.38,0,.55c-1.87,51.92-3.95,106.82-5.53,158.66-1.6,40.76-4.17,120.37-5.5,161.14-47-47.49-115.4-79.06-182.89-66A179.9,179.9,0,0,0,7.06,354.39l-1.92,1.2,0-2.26c-1.58-98-3.94-202.13-5.1-300Zm1.37.06c2.53,97.77,4.19,201.93,6.3,299.88l-2-1.07A177.24,177.24,0,0,1,137.4,329.14c43.42,9.1,82.71,33.09,114,64.15l-1.85.73c1.4-39.61,4.21-119.08,5.39-158.67,2-51.81,3.56-106.78,5.28-158.68l.37.93a256.7,256.7,0,0,0-27.29-23C178.14,14,107.24,1.8,43.77,29.91A257.2,257.2,0,0,0,1.37,53.4Z"/><path d="M565.23,38.42C516.79,10.73,463.26-3.25,407.5,5c-54.65,7.62-105.42,34.86-145.3,72.58-1.45,65.55-5.5,168.07-7.6,237.16l-2.5,79.34-1.69-.84C297.25,355.18,358.7,335,419.05,340.89c41.22,3.58,81.08,18.74,115.21,41.95l-2,1c10.66-111.08,21.95-234.66,33-345.38Zm1.33-.15C556.91,149.09,544.9,273,534.83,384l-.2,2.19L532.8,385c-33.89-22.76-73.2-37.95-114-41.69-59.7-6-120.55,14.24-167.12,51.58L250,396.3,250,394l2.64-79.34c2.09-70.69,5.53-167.34,7.45-238v-.51l.38-.36C305.93,33.37,365.15,3.45,427.85.28c48.64-2.35,98.58,10,138.71,38Z"/><path d="M21.74,371.83q.5,3.29.86,6.57l-1-1c20.63-.82,42.25.75,63,.89,37.36,1.29,89.2,2.63,125.82,6.44A114.37,114.37,0,0,1,226,387.43c1.66.58,5.16,1.27,4.93,3.83-.48,3.48,2.5,4.61,5.89,5.06,2.53.34,5.15.48,7.76.64,4.56.25,11.11.76,15.72,1.14,2.9.17,5.78.59,8.47,0,2-.44,2.44-2.11,1.87-4.16-1-3.93,4.54-4.14,7.06-4.6,15.81-1.46,31.59-.1,47.37.67,10.48.56,21,1.26,31.43,2,51.88,4.37,105,9.48,156.64,15.54l-.92.77.23-2.24,1.54.12-.11,2.25,0,.83-.88-.07c-51.79-4.88-104.69-10.66-156.67-14.5-20.87-1.73-41.82-3.32-62.75-3.55a141.44,141.44,0,0,0-15.58.46,14.83,14.83,0,0,0-5.24,1.26c.26,1.51.7,3.7-.38,5.2-2.39,3.61-8.66,2.11-12.21,2l-7.83-.68c-5.27-.46-10.47-.55-15.75-1.24-3.72-.39-7.9-2.1-7.66-6.57,0-.15,0-.59,0-.73s0,0,0,0a9,9,0,0,0-3.48-1.5A115.45,115.45,0,0,0,210.11,387c-20.81-2.39-41.79-3.32-62.73-4-31.28-1.51-63-2-94.36-2.54-10.83,0-21.66-.12-32.47-1,0-2.51.07-5,.21-7.52l1-.05Z"/><path d="M250.88,393.62c7.26-4.5,16.52-7.08,24.64-9.65,13.93-4.73,28.25-8,42.35-12.2,11.39-2.92,22.88-5.45,34.39-7.89,8.61-1.54,17.52-2.72,26.25-3.57A219.82,219.82,0,0,1,466,368.83c19.64,6,39,14,56.51,24.78L521.7,395c-18.11-9.53-36.74-18.08-56.41-23.85-16.87-4.57-34.12-8.22-51.61-9.2a247.52,247.52,0,0,0-39.36.77,383.74,383.74,0,0,0-38.84,6.95c-11.32,3-22.66,6-34,9.14-11.2,3.45-22.48,6.58-33.44,10.71a107.15,107.15,0,0,1-16.85,5.06l-.36-.91Z"/><path d="M254.19,392.58c10.16-5.16,21.6-6.58,32.53-9.36,5.5-1.29,11.1-2.1,16.66-3.08,11.11-2,22.27-3.72,33.53-4.62a408.67,408.67,0,0,1,71.85-2.12c15.45,1.34,31,2.78,46.18,6,11,2.38,22.09,4.83,32.91,8.1a284.73,284.73,0,0,1,31.73,11.87l-.6,1.42c-10.69-3.47-20.88-8.28-31.82-11-21.45-6.5-43.76-10.29-66-12.95-11.15-1.09-22.4-1.75-33.6-2.09-16.85-.37-33.69.94-50.44,2.65-11.12,1.66-22.29,2.93-33.35,4.92-8.26,1.63-16.47,3.5-24.69,5.34-8.16,2-16.2,4.9-24.62,5.77l-.28-.93Z"/><path d="M252.89,391.56c9.69-6.78,21.72-10.38,32.48-15,5.5-2.29,11.16-4.2,16.75-6.29,11.16-4.23,22.41-8.32,34.05-11.11a253.9,253.9,0,0,1,70.89-9.52c17.92.57,35.94,2.8,53.19,7.85A242.06,242.06,0,0,1,493.87,370c10.69,5.36,21.41,10.81,31,18l-.85,1.28c-10.24-6-20.23-12.44-31.19-17.05-2.06-.92-6.06-2.71-8.12-3.59-17.69-7.61-36.59-12.1-55.6-14.9A233.31,233.31,0,0,0,393.67,352c-19.28.4-38.36,4.23-57,9-11.35,3.5-22.65,7.15-33.76,11.35-8.28,3.32-16.53,6.71-24.82,10-8.23,3.48-16.11,7.74-24.8,10.06l-.42-.88Z"/><path d="M252.26,392.47c10.51-3.93,21.84-4.16,32.81-6,5.49-.8,11-1.21,16.56-1.84,6-.67,19.09-2.29,24.88-2.54,8.11-.31,16.93-1.07,25-1.4,10.63-.24,22.77-.18,33.37.12,30.61.68,61,5.23,90.76,12.53,13.44,3.49,26.92,7.09,39.9,12.08l-.49,1.46c-15.93-4.78-31.83-9.47-48.06-13.14-10.79-2.47-21.73-4.22-32.65-5.95-10.73-1.81-22.11-3-33-3.8A370.87,370.87,0,0,0,351.57,383c-5.53.26-11.08.24-16.6.71s-11,1.13-16.54,1.6c-11.06.8-22,2.45-33,4l-8.23,1.09c-5.49.77-10.89,2-16.41,2.62a64.07,64.07,0,0,1-8.34.5l-.18-1Z"/><path d="M249.89,394.46c-9.95-3.15-18.51-9.25-28.06-13.32-9.31-4.52-18.71-8.89-28.32-12.76-4.78-2-9.45-4.22-14.22-6.23-9.59-3.87-19.35-7.31-29.15-10.59a199.72,199.72,0,0,0-30.17-6.8,154.7,154.7,0,0,0-30.77-2c-12.83.35-25.77,1.67-38.19,5a181.15,181.15,0,0,0-29.3,9.76c-2.36,1-4.73,2-7.15,3l-.67-1.39A135.5,135.5,0,0,1,35.45,350a146.83,146.83,0,0,1,18.78-5.47,206,206,0,0,1,27.08-4.1c11.71-.91,23.52,0,35.17,1.32,11.59,1.57,23,4.59,34.23,7.95a239.47,239.47,0,0,1,25.7,9.17c6,2.45,12.15,4.59,18.09,7.21,4.76,2.08,9.45,4.27,14.23,6.31s9.61,4,14.28,6.25c9.2,4.82,19.26,8.24,27.35,15l-.47.86Z"/><path d="M246.76,393a73.36,73.36,0,0,1-14-5c-9-4.14-18.34-7.32-27.55-10.88-9.37-3.18-18.88-5.83-28.33-8.75-9.55-2.55-19.18-4.77-28.83-6.89a311.62,311.62,0,0,0-36.68-4.79A216,216,0,0,0,89.2,356,250.32,250.32,0,0,0,45,359.42c-9.81,1.22-19.23,4.21-28.81,6.59l-.47-1.47c9.28-3.68,19.14-5.47,28.87-7.52,9.8-1.74,19.74-2.55,29.66-3.32a198.9,198.9,0,0,1,22.38-.28,274.58,274.58,0,0,1,37.11,3.49,367.23,367.23,0,0,1,43.64,9.51A274.39,274.39,0,0,1,206,374.94c4.71,1.56,9.48,3,14.1,4.82,9.12,3.92,19,6.4,27.12,12.33l-.41.89Z"/><path d="M248,392.09c-7.44-2.87-13.8-7.6-20.59-11.65l-6.84-3.92c-4.61-2.5-9.07-5.32-13.67-7.87-9.21-5-18.6-9.73-28-14.46-16.75-7.38-34-14-52.12-17.2A208.13,208.13,0,0,0,103.47,334c-20.87-.86-42,1.37-61.7,8.47-10,3.09-19.25,8.11-28.6,12.81L12.39,354c10-6.57,21.13-11.09,32.34-15.08,13.93-4.22,28.4-7.19,43-7.59a199.49,199.49,0,0,1,23.83,1c18.44,1.92,36.33,7.39,53.66,13.8,5,1.86,9.7,4.21,14.54,6.31s9.68,4.25,14.35,6.71c9.27,5.06,18.61,9.91,27.83,15,4.58,2.63,9.1,5.35,13.73,7.89a64.25,64.25,0,0,1,12.88,9.22l-.53.83Z"/><path d="M248.78,393.19a67.53,67.53,0,0,1-14.25-3.46c-9.22-3.2-18.72-5.46-28-8.39-9.43-2.52-18.92-4.73-28.34-7.25-6.84-1.6-14.59-2.84-21.51-4.27-14.24-2.8-29-4.13-43.49-5.08-7-.58-14.87-.6-21.88-.54A309.42,309.42,0,0,0,47.63,367c-9.71.9-19.18,3.26-28.81,4.75l-.34-1.51c9.42-2.79,19.18-3.92,28.83-5.65a361.25,361.25,0,0,1,44-3.14c12.24.27,24.51.67,36.68,2.11,9.41,1.07,19.67,2.67,29.07,4.15,7,1.1,14.67,2.9,21.57,4.43,7,1.36,14.64,3.1,21.42,5.06,7,2.07,14.23,3.55,21.28,5.59,9.29,3.05,19.21,4.49,27.78,9.44l-.3.93Z"/></g></g></svg>