<svg xmlns="http://www.w3.org/2000/svg" viewBox="0 0 547.66 79.6"><defs><style>.cls-1{fill:#343838;}</style></defs><g id="レイヤー_2" data-name="レイヤー 2"><g id="レイヤー_36" data-name="レイヤー 36"><path class="cls-1" d="M20.36,6.63V48.9c0,3,.12,7.59,4,11a15.57,15.57,0,0,0,19.06.32c4.71-3.75,4.59-9,4.59-13V6.63H68.39v41c0,7.49-.36,15.3-8.83,23.11C53,76.82,44.73,79.6,33.66,79.6c-12.35,0-21.18-3.85-26-8.56C.82,64.3,0,55.21,0,47.61v-41Z"/><path class="cls-1" d="M105.22,6.63V48.9c0,3,.12,7.59,4,11a15.57,15.57,0,0,0,19.06.32c4.71-3.75,4.6-9,4.6-13V6.63h20.36v41c0,7.49-.35,15.3-8.83,23.11-6.59,6.1-14.83,8.88-25.9,8.88-12.35,0-21.18-3.85-26-8.56-6.82-6.74-7.65-15.83-7.65-23.43v-41Z"/><path class="cls-1" d="M167.37,42.16h29.78V56.38H167.37Z"/><path class="cls-1" d="M267.65,76.07c-8.12,2.68-12.59,3.53-17.65,3.53-13.66,0-23.9-4.92-30.37-10.7a35.79,35.79,0,0,1-11.89-26,36.51,36.51,0,0,1,11.89-26.32A43.8,43.8,0,0,1,249.29,5.46a52.87,52.87,0,0,1,18.36,3.63V31.24a22.88,22.88,0,0,0-17.77-7.81c-5.89,0-10.36,1.61-14.13,4.71a19.1,19.1,0,0,0-6.82,14.66,18.82,18.82,0,0,0,6.35,13.91,23.24,23.24,0,0,0,14.6,4.92,24.2,24.2,0,0,0,17.77-7.49Z"/><path class="cls-1" d="M288.24.64c5.89,0,10.6,4.28,10.6,9.63s-4.71,9.63-10.6,9.63-10.59-4.28-10.59-9.63S282.36.64,288.24.64Zm9.42,29.53V78H278.83V30.17Z"/><path class="cls-1" d="M310.49,30.17h18.83V38a16.34,16.34,0,0,1,7.42-6.63,22.28,22.28,0,0,1,9.77-1.93c.47,0,1.29.11,3.76.22V45.79a18,18,0,0,0-8.12-1.71c-2.47,0-5.88.32-8.59,2.57-4,3.32-4.24,8.34-4.24,10.91V78H310.49Z"/><path class="cls-1" d="M396.06,76.93A30.23,30.23,0,0,1,383,79.6c-10.25,0-16.95-4-20.72-7.27a23.93,23.93,0,0,1-8.12-17.87A24.91,24.91,0,0,1,362.63,36c4.95-4.28,12.24-7.28,21.19-7.28a29.28,29.28,0,0,1,12.24,2.68V45.69a17.83,17.83,0,0,0-9.77-3.11,13,13,0,0,0-9.18,3.32,11.1,11.1,0,0,0-3.65,8.24,11.62,11.62,0,0,0,3.3,8,13.34,13.34,0,0,0,9.65,3.64,15.11,15.11,0,0,0,9.65-3.21Z"/><path class="cls-1" d="M425.6,0V78H406.77V0Z"/><path class="cls-1" d="M494.22,57.24H455a11.46,11.46,0,0,0,3.29,8c1.18,1.07,3.53,2.35,7.77,2.35a16.23,16.23,0,0,0,6.12-1.28,8.48,8.48,0,0,0,3.3-3.21h18A21.09,21.09,0,0,1,487.16,73c-3.89,3.42-10,6.63-21.42,6.63-6.95,0-15.31-1.39-21.78-7.27a24,24,0,0,1-7.77-18.08,24.33,24.33,0,0,1,7.89-18.51c4.35-3.86,11.18-7,21.54-7,6.12,0,14,1.18,20.24,6.53,7.42,6.42,8.36,14.76,8.36,20.11Zm-17.3-9.84a11.26,11.26,0,0,0-3.06-5.14C471.39,40,468,39.7,466.09,39.7c-3.18,0-5.65.74-7.65,2.56a9.52,9.52,0,0,0-2.83,5.14Z"/><path class="cls-1" d="M508.46,62.16A27.71,27.71,0,0,0,516,65.69a26.76,26.76,0,0,0,7.3,1.18,8.62,8.62,0,0,0,4.83-1.28,2.62,2.62,0,0,0,.94-2.25,2.43,2.43,0,0,0-.94-2.14c-1.18-1-3.06-1.28-5-1.71l-4.94-1.07c-2.59-.54-6.36-1.39-9.18-4.17A11,11,0,0,1,505.63,46a16.32,16.32,0,0,1,4.95-11.67c4-3.74,11.06-5.77,18.83-5.77a47.07,47.07,0,0,1,16.83,3.1l-6.35,10.91A28.18,28.18,0,0,0,530,40.23a8.64,8.64,0,0,0-4.36,1A2.56,2.56,0,0,0,524,43.55a2.85,2.85,0,0,0,2.23,2.67c1.77.64,3.3.64,6.24,1.39l3.41.86a22.94,22.94,0,0,1,7.77,3.74,12.89,12.89,0,0,1,4,9.52,15.32,15.32,0,0,1-5.3,11.88c-6.12,5.57-15.07,6-19.42,6A41.79,41.79,0,0,1,501.75,74Z"/></g></g></svg>