<svg xmlns="http://www.w3.org/2000/svg" viewBox="0 0 270.66 81.11"><defs><style>.cls-1{fill:#343838;}</style></defs><g id="レイヤー_2" data-name="レイヤー 2"><g id="レイヤー_1-2" data-name="レイヤー 1"><path class="cls-1" d="M38,19.2A5.16,5.16,0,0,1,39.43,23V44.87q0,9.32-5.13,14.58T19.67,64.71q-9.5,0-14.58-5.26T0,44.87V23A5.16,5.16,0,0,1,1.47,19.2a4.92,4.92,0,0,1,3.71-1.51A5,5,0,0,1,8.89,19.2,5.19,5.19,0,0,1,10.35,23V44.87q0,5.27,2.33,7.81t7,2.54c3.17,0,5.52-.85,7.08-2.54s2.33-4.3,2.33-7.81V23a5.19,5.19,0,0,1,1.46-3.75,5.31,5.31,0,0,1,7.42,0Z"/><path class="cls-1" d="M88.61,19.2A5.16,5.16,0,0,1,90.08,23V44.87q0,9.32-5.14,14.58T70.32,64.71q-9.49,0-14.58-5.26T50.65,44.87V23a5.15,5.15,0,0,1,1.46-3.75,5.31,5.31,0,0,1,7.42,0A5.16,5.16,0,0,1,61,23V44.87q0,5.27,2.33,7.81t7,2.54q4.74,0,7.07-2.54c1.56-1.7,2.33-4.3,2.33-7.81V23a5.16,5.16,0,0,1,1.47-3.75,5.31,5.31,0,0,1,7.42,0Z"/><path class="cls-1" d="M101.51,41.07A4.94,4.94,0,0,1,100,37.36a4.83,4.83,0,0,1,1.51-3.62,5.17,5.17,0,0,1,3.75-1.47h15a5.16,5.16,0,0,1,5.26,5.26A4.7,4.7,0,0,1,124,41.11a5.27,5.27,0,0,1-3.75,1.43h-15A5.17,5.17,0,0,1,101.51,41.07Z"/><path class="cls-1" d="M173.43,19.2A5.19,5.19,0,0,1,174.89,23V59.62q0,11.22-6,16.35t-16.13,5.14a38.69,38.69,0,0,1-6-.48,22.51,22.51,0,0,1-5-1.25q-4.23-1.81-4.23-5a4.54,4.54,0,0,1,.26-1.39,5.45,5.45,0,0,1,1.77-2.89,4.28,4.28,0,0,1,2.72-1,5.26,5.26,0,0,1,1.64.26c.4.17,1.1.46,2.11.86a21.19,21.19,0,0,0,3.19,1,16.11,16.11,0,0,0,3.5.38c4.08,0,7.09-.87,9-2.63s2.89-4.76,2.89-9V59.1q-4.49,5.61-14,5.61a14.89,14.89,0,0,1-7.94-2.11,14.27,14.27,0,0,1-5.35-5.87,18.68,18.68,0,0,1-1.9-8.58V23a5.16,5.16,0,0,1,1.47-3.75,5.31,5.31,0,0,1,7.42,0A5.16,5.16,0,0,1,145.82,23V45c0,3.62.79,6.23,2.37,7.81s3.89,2.37,6.94,2.37a9.07,9.07,0,0,0,7-2.63Q164.54,50,164.54,45V23A5.16,5.16,0,0,1,166,19.2a5.31,5.31,0,0,1,7.42,0Z"/><path class="cls-1" d="M225.88,43.06a5.48,5.48,0,0,1-3.62,1.29H193.79a13,13,0,0,0,4.74,8,13.28,13.28,0,0,0,8.37,2.89,18.22,18.22,0,0,0,5.52-.65,14,14,0,0,0,3.15-1.38l1.6-1a6.56,6.56,0,0,1,2.93-.78,4.25,4.25,0,0,1,3.11,1.3,4.14,4.14,0,0,1,1.29,3A5.39,5.39,0,0,1,222.09,60a20.69,20.69,0,0,1-6.47,3.36,26.76,26.76,0,0,1-20.84-1.64,21.1,21.1,0,0,1-8.33-8.32,24.34,24.34,0,0,1-2.93-11.95,26.46,26.46,0,0,1,3.11-13,22.1,22.1,0,0,1,8.19-8.59,21.25,21.25,0,0,1,10.87-3,20.2,20.2,0,0,1,10.75,3.11,23.2,23.2,0,0,1,8.06,8.37,22.45,22.45,0,0,1,3,11.39A4.41,4.41,0,0,1,225.88,43.06Zm-32-7.34h22.61v-.6a8.93,8.93,0,0,0-3.54-6.22,11.22,11.22,0,0,0-7.25-2.58Q195.69,26.32,193.87,35.72Z"/><path class="cls-1" d="M245.86,62.34a5.1,5.1,0,0,1-3.76,1.51,4.85,4.85,0,0,1-3.62-1.51A5.17,5.17,0,0,1,237,58.59V5.26a5.13,5.13,0,0,1,1.51-3.75A5.1,5.1,0,0,1,242.28,0a4.85,4.85,0,0,1,3.62,1.51,5.17,5.17,0,0,1,1.47,3.75V58.59A5.13,5.13,0,0,1,245.86,62.34Z"/><path class="cls-1" d="M269.15,62.34a5.06,5.06,0,0,1-3.75,1.51,4.82,4.82,0,0,1-3.62-1.51,5.17,5.17,0,0,1-1.47-3.75V5.26A5.16,5.16,0,0,1,265.57,0a4.85,4.85,0,0,1,3.63,1.51,5.21,5.21,0,0,1,1.46,3.75V58.59A5.09,5.09,0,0,1,269.15,62.34Z"/></g></g></svg>